<svg xmlns="http://www.w3.org/2000/svg" xmlns:xlink="http://www.w3.org/1999/xlink" viewBox="0 0 40 40"><defs><style>.cls-1{fill:url(#Degradado_sin_nombre_11);}.cls-2{fill:url(#Degradado_sin_nombre_7);}.cls-3{fill:#fff;}</style><linearGradient id="Degradado_sin_nombre_11" x1="10.11" y1="3.83" x2="9.98" y2="35.32" gradientUnits="userSpaceOnUse"><stop offset="0" stop-color="#00a195"/><stop offset="1" stop-color="#00514b"/></linearGradient><linearGradient id="Degradado_sin_nombre_7" x1="30.02" y1="5.75" x2="29.88" y2="35.34" gradientUnits="userSpaceOnUse"><stop offset="0" stop-color="#31b2a8"/><stop offset="1" stop-color="#007970"/></linearGradient></defs><title>agility_missions</title><g id="Capa_2" data-name="Capa 2"><g id="Capa_1-2" data-name="Capa 1"><polygon class="cls-1" points="0 20 20 40 20 20 20 0 0 20"/><polygon class="cls-2" points="20 0 20 20 20 40 40 20 20 0"/><path class="cls-3" d="M25.61,11A7.9,7.9,0,0,0,12.9,20a7.9,7.9,0,1,0,14.2,0A7.92,7.92,0,0,0,25.61,11Zm-9.5,1.72A5.45,5.45,0,0,1,20,11.11h0a5.39,5.39,0,0,1,5.35,6.54A7.86,7.86,0,0,0,20,15.54h0a7.86,7.86,0,0,0-5.35,2.11A5.43,5.43,0,0,1,16.11,12.68ZM20,22a5.45,5.45,0,0,1-3.86-1.6,5.22,5.22,0,0,1-.39-.43,5.22,5.22,0,0,1,.39-.43,5.46,5.46,0,0,1,7.72,0,5.22,5.22,0,0,1,.39.43,5.22,5.22,0,0,1-.39.43A5.45,5.45,0,0,1,20,22Zm3.89,5.29a5.47,5.47,0,0,1-9.24-5A7.86,7.86,0,0,0,20,24.46h0a7.86,7.86,0,0,0,5.35-2.11A5.43,5.43,0,0,1,23.89,27.32Z"/></g></g></svg>