<svg xmlns="http://www.w3.org/2000/svg" xmlns:xlink="http://www.w3.org/1999/xlink" viewBox="0 0 40 40"><defs><style>.cls-1{fill:url(#Degradado_sin_nombre_11);}.cls-2{fill:url(#Degradado_sin_nombre_7);}.cls-3{fill:#fff;}</style><linearGradient id="Degradado_sin_nombre_11" x1="10.11" y1="3.83" x2="9.98" y2="35.32" gradientUnits="userSpaceOnUse"><stop offset="0" stop-color="#00a195"/><stop offset="1" stop-color="#00514b"/></linearGradient><linearGradient id="Degradado_sin_nombre_7" x1="30.02" y1="5.75" x2="29.88" y2="35.34" gradientUnits="userSpaceOnUse"><stop offset="0" stop-color="#31b2a8"/><stop offset="1" stop-color="#007970"/></linearGradient></defs><title>heart_missions</title><g id="Capa_2" data-name="Capa 2"><g id="Capa_1-2" data-name="Capa 1"><polygon class="cls-1" points="0 20 20 40 20 20 20 0 0 20"/><polygon class="cls-2" points="20 0 20 20 20 40 40 20 20 0"/><path class="cls-3" d="M27,13.44a4.63,4.63,0,0,0-6.32.47l-.67.68-.67-.68A4.63,4.63,0,0,0,13,13.44a4.87,4.87,0,0,0-.34,7l6.56,6.78a1,1,0,0,0,.77.32,1.05,1.05,0,0,0,.77-.32l6.56-6.78A4.87,4.87,0,0,0,27,13.44Z"/></g></g></svg>