<svg xmlns="http://www.w3.org/2000/svg" xmlns:xlink="http://www.w3.org/1999/xlink" viewBox="0 0 40 40"><defs><style>.cls-1{fill:url(#Degradado_sin_nombre_11);}.cls-2{fill:url(#Degradado_sin_nombre_7);}.cls-3{fill:#fff;}</style><linearGradient id="Degradado_sin_nombre_11" x1="10.11" y1="3.83" x2="9.98" y2="35.32" gradientUnits="userSpaceOnUse"><stop offset="0" stop-color="#00a195"/><stop offset="1" stop-color="#00514b"/></linearGradient><linearGradient id="Degradado_sin_nombre_7" x1="30.02" y1="5.75" x2="29.88" y2="35.34" gradientUnits="userSpaceOnUse"><stop offset="0" stop-color="#31b2a8"/><stop offset="1" stop-color="#007970"/></linearGradient></defs><title>height_missions</title><g id="Capa_2" data-name="Capa 2"><g id="Capa_1-2" data-name="Capa 1"><polygon class="cls-1" points="0 20 20 40 20 20 20 0 0 20"/><polygon class="cls-2" points="20 0 20 20 20 40 40 20 20 0"/><path class="cls-3" d="M12.92,14.76H11.35a.78.78,0,0,0-.79.78V19H9.77a.26.26,0,0,0-.26.26v1.58a.26.26,0,0,0,.26.26h.79v3.41a.78.78,0,0,0,.79.78h1.57a.78.78,0,0,0,.79-.78V15.54A.78.78,0,0,0,12.92,14.76Z"/><path class="cls-3" d="M30.23,19h-.79V15.54a.78.78,0,0,0-.79-.78H27.08a.78.78,0,0,0-.79.78v8.92a.78.78,0,0,0,.79.78h1.57a.78.78,0,0,0,.79-.78V21.05h.79a.26.26,0,0,0,.26-.26V19.21A.26.26,0,0,0,30.23,19Z"/><path class="cls-3" d="M24.46,12.66H22.88a.78.78,0,0,0-.78.79V19H17.9v-5.5a.78.78,0,0,0-.78-.79H15.54a.78.78,0,0,0-.78.79v13.1a.78.78,0,0,0,.78.79h1.58a.78.78,0,0,0,.78-.79v-5.5h4.2v5.5a.78.78,0,0,0,.78.79h1.58a.78.78,0,0,0,.78-.79V13.45A.78.78,0,0,0,24.46,12.66Z"/></g></g></svg>