<svg xmlns="http://www.w3.org/2000/svg" xmlns:xlink="http://www.w3.org/1999/xlink" viewBox="0 0 40 40"><defs><style>.cls-1{fill:url(#Degradado_sin_nombre_11);}.cls-2{fill:url(#Degradado_sin_nombre_7);}.cls-3{fill:#fff;}</style><linearGradient id="Degradado_sin_nombre_11" x1="10.11" y1="3.83" x2="9.98" y2="35.32" gradientUnits="userSpaceOnUse"><stop offset="0" stop-color="#00a195"/><stop offset="1" stop-color="#00514b"/></linearGradient><linearGradient id="Degradado_sin_nombre_7" x1="30.02" y1="5.75" x2="29.88" y2="35.34" gradientUnits="userSpaceOnUse"><stop offset="0" stop-color="#31b2a8"/><stop offset="1" stop-color="#007970"/></linearGradient></defs><title>step_missions</title><g id="Capa_2" data-name="Capa 2"><g id="Capa_1-2" data-name="Capa 1"><polygon class="cls-1" points="0 20 20 40 20 20 20 0 0 20"/><polygon class="cls-2" points="20 0 20 20 20 40 40 20 20 0"/><path class="cls-3" d="M17.15,23.8v-.95H13.36v.95a1.9,1.9,0,0,0,3.79,0Zm7.6,5.69a1.9,1.9,0,0,0,1.89-1.9v-.95H22.85v.95A1.9,1.9,0,0,0,24.75,29.49Zm-3.8-10a6.07,6.07,0,0,0,.95,3.11,4.54,4.54,0,0,1,1,3.1h3.79l.48-1.7a12,12,0,0,0,.44-2.38,10.45,10.45,0,0,0-.18-2.9c-.7-3.24-2.24-4.4-3.58-4.4-1.9,0-2.85,2.49-2.85,5.17Zm-8.33-4.56a10.35,10.35,0,0,0-.18,2.89,12,12,0,0,0,.44,2.38l.48,1.71h3.79a4.58,4.58,0,0,1,1-3.11,6.07,6.07,0,0,0,.95-3.1c0-2.68-.95-5.18-2.85-5.18-1.34,0-2.88,1.16-3.58,4.41Z"/></g></g></svg>