<svg xmlns="http://www.w3.org/2000/svg" viewBox="0 0 220.67 186.86"><defs><style>.cls-1{fill:#dedede;}.cls-2{fill:#dc3545;}</style></defs><title>Calories</title><g id="Capa_2" data-name="Capa 2"><g id="Capa_1-2" data-name="Capa 1"><path class="cls-1" d="M220.67,110.33A110.34,110.34,0,0,0,108.73,0C49.24.86.75,49.45,0,108.94a109.89,109.89,0,0,0,28.08,74.93,5,5,0,0,0,7.26.17h0a5,5,0,0,0,.16-6.93,100,100,0,0,1-25.38-72c2.63-51.57,44.65-93,96.25-95A100.28,100.28,0,0,1,184,178.38a5,5,0,0,0,.09,7l0,0a5,5,0,0,0,7.18-.1A109.93,109.93,0,0,0,220.67,110.33Z"/><path class="cls-2" d="M140.07,98.82l-6-9a2.19,2.19,0,0,0-2.48-.88A2.23,2.23,0,0,0,130,91.05a45.33,45.33,0,0,1-1.9,12.85,14.78,14.78,0,0,0-5.87-7.55,10.39,10.39,0,0,1-3-14.56l3.84-5.74a2.16,2.16,0,0,0,.09-2.26,2.14,2.14,0,0,0-1.94-1.14,29.69,29.69,0,0,0-29.55,27.59,17.21,17.21,0,0,1-1.1-6V85.57A2.24,2.24,0,0,0,89,83.45a2.18,2.18,0,0,0-2.48.89l-3,4.46a49.6,49.6,0,0,0-8.34,27.6A31.64,31.64,0,0,0,106.86,148h6.89a31.59,31.59,0,0,0,26.32-49.2Z"/><path class="cls-2" d="M108.73,0C49.24.86.75,49.45,0,108.94a109.89,109.89,0,0,0,28.08,74.93,5,5,0,1,0,7.42-6.76,100,100,0,0,1-25.38-72c2.63-51.57,44.65-93,96.25-95a100.37,100.37,0,0,1,91.79,51.8L207,57.1A110.3,110.3,0,0,0,108.73,0Z"/></g></g></svg>