<svg xmlns="http://www.w3.org/2000/svg" viewBox="0 0 220.67 186.86"><defs><style>.cls-1{fill:#dedede;}.cls-2{fill:#dc3545;}</style></defs><title>heart_rate</title><g id="Capa_2" data-name="Capa 2"><g id="Capa_1-2" data-name="Capa 1"><path class="cls-1" d="M220.67,110.33A110.34,110.34,0,0,0,108.73,0C49.24.86.75,49.45,0,108.94a109.89,109.89,0,0,0,28.08,74.93,5,5,0,0,0,7.26.17h0a5,5,0,0,0,.16-6.93,100,100,0,0,1-25.38-72c2.63-51.57,44.65-93,96.25-95A100.28,100.28,0,0,1,184,178.38a5,5,0,0,0,.09,7l0,0a5,5,0,0,0,7.18-.1A109.93,109.93,0,0,0,220.67,110.33Z"/><path class="cls-2" d="M145.05,77.8c-9.22-7.86-22.94-6.44-31.4,2.29l-3.31,3.41L107,80.09c-8.44-8.73-22.17-10.15-31.39-2.29a24.15,24.15,0,0,0-1.67,35l32.56,33.62a5.27,5.27,0,0,0,7.62,0l32.56-33.62a24.15,24.15,0,0,0-1.65-35Z"/><path class="cls-2" d="M0,108.94a109.89,109.89,0,0,0,28.08,74.93,5,5,0,1,0,7.42-6.76,100.26,100.26,0,0,1-23.46-87l-9.77-2A109.6,109.6,0,0,0,0,108.94Z"/></g></g></svg>