<svg xmlns="http://www.w3.org/2000/svg" viewBox="0 0 220.67 186.86"><defs><style>.cls-1{fill:#dedede;}.cls-2{fill:#662d89;}</style></defs><title>Sleep</title><g id="Capa_2" data-name="Capa 2"><g id="Capa_1-2" data-name="Capa 1"><path class="cls-1" d="M220.67,110.33A110.34,110.34,0,0,0,108.73,0C49.24.86.75,49.45,0,108.94a109.89,109.89,0,0,0,28.08,74.93,5,5,0,0,0,7.26.17h0a5,5,0,0,0,.16-6.93,100,100,0,0,1-25.38-72c2.63-51.57,44.65-93,96.25-95A100.28,100.28,0,0,1,184,178.38a5,5,0,0,0,.09,7l0,0a5,5,0,0,0,7.18-.1A109.93,109.93,0,0,0,220.67,110.33Z"/><path class="cls-2" d="M114.34,148a37.64,37.64,0,0,0,29.28-14,1.77,1.77,0,0,0-1.71-2.85,29.52,29.52,0,0,1-20.13-54.67,1.77,1.77,0,0,0-.55-3.27A37.69,37.69,0,1,0,114.34,148Z"/><path class="cls-2" d="M142.34,111.88h0a2.88,2.88,0,0,1-2.88,2.88H122.6a3.3,3.3,0,0,1-3.3-3.3h0a3.35,3.35,0,0,1,.78-2.14l12.37-14.63h-9.93a2.87,2.87,0,0,1-2.88-2.88h0a2.88,2.88,0,0,1,2.88-2.88h16.09a3.31,3.31,0,0,1,3.3,3.31h0a3.33,3.33,0,0,1-.78,2.13L128.76,109h10.7A2.88,2.88,0,0,1,142.34,111.88Z"/><path class="cls-2" d="M220.67,110.33A110.34,110.34,0,0,0,108.73,0C49.24.86.75,49.45,0,108.94a109.89,109.89,0,0,0,28.08,74.93,5,5,0,1,0,7.42-6.76,100,100,0,0,1-25.38-72c2.63-51.57,44.65-93,96.25-95a100.31,100.31,0,0,1,94.33,143.81l9.07,4.29A109.83,109.83,0,0,0,220.67,110.33Z"/></g></g></svg>