<svg xmlns="http://www.w3.org/2000/svg" viewBox="0 0 220.67 186.86"><defs><style>.cls-1{fill:#dedede;}.cls-2{fill:#00a195;}</style></defs><title>Steps</title><g id="Capa_2" data-name="Capa 2"><g id="Capa_1-2" data-name="Capa 1"><path class="cls-1" d="M220.67,110.33A110.34,110.34,0,0,0,108.73,0C49.24.86.75,49.45,0,108.94a109.89,109.89,0,0,0,28.08,74.93,5,5,0,0,0,7.26.17h0a5,5,0,0,0,.16-6.93,100,100,0,0,1-25.38-72c2.63-51.57,44.65-93,96.25-95A100.28,100.28,0,0,1,184,178.38a5,5,0,0,0,.09,7l0,0a5,5,0,0,0,7.18-.1A109.93,109.93,0,0,0,220.67,110.33Z"/><path class="cls-2" d="M99,125.41v-3.77H84v3.77a7.54,7.54,0,0,0,15.08,0ZM129.18,148a7.54,7.54,0,0,0,7.54-7.53v-3.77H121.64v3.77A7.54,7.54,0,0,0,129.18,148ZM114.1,108.28a24.1,24.1,0,0,0,3.77,12.33c1.93,2.92,3.77,5.25,3.77,12.34h15.08l1.88-6.78a48,48,0,0,0,1.77-9.46,41,41,0,0,0-.73-11.49c-2.77-12.89-8.9-17.5-14.23-17.5-7.54,0-11.31,9.92-11.31,20.56ZM81,90.15a41,41,0,0,0-.73,11.49,49,49,0,0,0,1.77,9.46L84,117.87H99c0-7.09,1.84-9.41,3.77-12.33a24.16,24.16,0,0,0,3.77-12.34c0-10.64-3.77-20.55-11.31-20.55-5.33,0-11.46,4.6-14.23,17.5Z"/><path class="cls-2" d="M108.73,0C49.24.86.75,49.45,0,108.94a109.89,109.89,0,0,0,28.08,74.93,5,5,0,1,0,7.42-6.76,100,100,0,0,1-25.38-72c2.63-51.57,44.65-93,96.25-95a100.32,100.32,0,0,1,34.07,4.54l3.15-9.51A110.38,110.38,0,0,0,108.73,0Z"/></g></g></svg>