<svg xmlns="http://www.w3.org/2000/svg" viewBox="0 0 189.33 259.16"><defs><style>.cls-1{fill:none;}.cls-2{fill:#ff6f00;}.cls-3{fill:#ebebeb;}.cls-4{fill:#af4802;}.cls-5{fill:#dedede;}.cls-6{fill:#4673b6;}.cls-7{fill:#d2a683;}</style></defs><title>challenge-jumping-jack-1</title><g id="Capa_2" data-name="Capa 2"><g id="Capa_1-2" data-name="Capa 1"><polygon class="cls-1" points="189.33 18.92 189.33 0 0 0 0 18.92 0 240.24 0 259.16 189.33 259.16 189.33 240.24 189.33 18.92"/><path class="cls-2" d="M58.74,221.38,55.42,224a4.74,4.74,0,0,0-1.58,2.69c-.28,1.67-3.16,8.63-3,10.86s1.3,4,5.29,3.9,4.92-1.49,5.29-3.53.22-3.06.62-4.45S63.78,222,60.8,220.68,58.74,221.38,58.74,221.38Z"/><path class="cls-2" d="M132.34,222.07,131,224a5.8,5.8,0,0,0-1.6,2.69c-.17,1.3-.35,5.39-.82,7.33s-1.11,5.67,3.16,6.59,6.77-1.67,6.77-4.08-1-3.8-1-5.1a49.4,49.4,0,0,0-.56-5.39,2.9,2.9,0,0,0-1.57-1.85Z"/><path class="cls-3" d="M76.11,157.21,72,158.46a50.39,50.39,0,0,0-2.88,12.94c-.56,7.06-.84,10.21-.84,10.21l-3.24,7.52a67.54,67.54,0,0,0-4.64,12.43c-2.42,8.36-5,22.46-5,22.46a20.53,20.53,0,0,1,3.15.84,5,5,0,0,1,1.39,1.2,1.54,1.54,0,0,0,1.49-1.57c.09-1.58.83-7.8,3.25-11.05a41.18,41.18,0,0,0,6.12-11.23,31.57,31.57,0,0,0,2-7.05,28.67,28.67,0,0,0,4.82-8,75.12,75.12,0,0,1,5.48-12.44c2.32-4.17,5.66-11.69,5.66-11.69Z"/><path class="cls-3" d="M97.73,163.05a96.15,96.15,0,0,0,7.33,13.18c3.81,5.38,4.64,9.09,7.15,12.62s4.18,5.57,4.18,5.57a31.27,31.27,0,0,0,5.38,13.27,58.77,58.77,0,0,1,7.51,13.64,37.72,37.72,0,0,1,1.21,4.73s1.21-2,2.32-2.22a5.6,5.6,0,0,1,2.51.37,107,107,0,0,1-3.53-14.76c-1.48-8.72-4.18-15.68-6.4-18.74S123,187.37,122.7,187s-2.6-5.47-3-6.58-2.55-18-4.37-22.65S97.73,163.05,97.73,163.05Z"/><path class="cls-2" d="M84.28,130.72l-5.57,5-2.35,10.39L72,158.46s10.58,4.31,16.7,4.59c0,0,2.51-5.75,3.43-6s2.88-.28,3.16.09,2,6,2.41,5.94a50.08,50.08,0,0,0,10.67-2.23,49.29,49.29,0,0,0,7-3.06l-4.64-11.88-2.32-10.2Z"/><path class="cls-3" d="M86.22,111.39l-6.65,9.19a62.77,62.77,0,0,1-.86,15.1,46.73,46.73,0,0,0,29.69,0,77.58,77.58,0,0,1-1-15.53C107.66,110.8,86.22,111.39,86.22,111.39Z"/><path class="cls-4" d="M83.42,77.73a25.24,25.24,0,0,0-3.66,6.16c-.93,2.79,1.83,7.3,1.83,7.3s6.52,2.23,7.51,0,3.59-5.26,1.61-9.22S83.42,77.73,83.42,77.73Z"/><path class="cls-3" d="M77.22,110.06c0-.28-2.5-7-3.15-12.71,0,0-4.83-11.23-7-18.19a87,87,0,0,1-3-17.73,41.26,41.26,0,0,1,3.53-14.66c2.69-5.94,4.73-11.32,4.73-11.32l4.82,2.23s-2.13,2.87-3.15,10.58-2.79,15-2.79,15,3.56,10.63,5.08,16.59c0,0,4.56,3.58,6.25,8.53l1.17.74.74,15s-3.28,3-3.83,3.47S77.22,110.06,77.22,110.06Z"/><path class="cls-3" d="M100.29,88.9l.94-.12s1.54-2.85,3.65-5.94,3.34-4.67,3.34-4.67l3.65-14.82s-1.3-5.57-2.66-12a66.71,66.71,0,0,0-4.89-13.49l4.58-2.41s6.74,10.77,8.78,15.28a28.46,28.46,0,0,1,2.11,10.52c-.06.18-.5,12.76-2.11,18.63s-5.93,14.47-5.93,14.47-1.67,10.21-3,12.19-7.42-4-8-6.38S100.29,88.9,100.29,88.9Z"/><path class="cls-5" d="M77.32,106c.16-.36,1.39-8.75,1.39-8.75v7.42Z"/><path class="cls-5" d="M106.73,95.89a40.38,40.38,0,0,0,0,6.25c.31,1.67,1.18,1.67,1.18,1.67Z"/><path class="cls-3" d="M72.4,35.45a46.46,46.46,0,0,1,1.07-5c.46-1.35,2.64-3.67,4.12-5.48s2.6-3.11,3.16-2.88-2,4.37-1.9,4.55,1.39-.74,2.5-1.9a23.26,23.26,0,0,1,3.58-3.16,1,1,0,0,1,.92,0,1.56,1.56,0,0,1,1.44-.1c.65.38.37,1.26.37,1.26a3.77,3.77,0,0,1,.06,1.86c-.24.83-3.68,5.06-4.46,6.08a5.28,5.28,0,0,0-1,2,6.59,6.59,0,0,0,2.24-.33c1-.37,3-.37,3.3.1s-1.13.83-3,1.85a16.21,16.21,0,0,1-4.71,1.91,7.24,7.24,0,0,0-2.9,1.39H73.84Z"/><path class="cls-3" d="M104.32,37.86a9.44,9.44,0,0,0-2.74-1.2,9,9,0,0,1-4-2.14,14.89,14.89,0,0,0-3-2.6c-1.27-.8-.06-1.29.86-1.08s2.14,1.61,2.48,1.49-.16-1.4-1.86-3.56S93,23.63,93.06,23s1-.24,1-.24-.71-1.47.1-1.59a1.66,1.66,0,0,1,1.33.4s-.07-1.2.74-1.05,3.65,3.76,4.48,4.57,1.33,1,1.52.78-2-5.28-1-5.36,1.92,4,2.66,5.08,2.6,2.51,3.28,4.4.68,4.2,1.73,5.44c0,0-.22,2.69-1,2.85A17.59,17.59,0,0,1,104.32,37.86Z"/><path class="cls-2" d="M87.23,89.4l-2.52-.5-.93.25s-1.93,7.8-4.21,12.31-3.15,5.76-3.21,9.41a10.35,10.35,0,0,0,2.47,6.43l.74,3.28s6.62-.87,13-1,14.84.56,14.84.56v-3.72s3.1-2.84,2.11-8.53-3.65-7.86-6.19-12.19a25.63,25.63,0,0,1-3-6.81l-1-.12Z"/><path class="cls-3" d="M87,83.26a13.07,13.07,0,0,1-.76,4.1,4,4,0,0,1-1.51,1.54s-1.38,8,.79,11.76,11.4,3.71,13.75.37,0-12.25,0-12.25-1.94-1-2.12-5.83S89.35,76.34,89,76.84,87,83.26,87,83.26Z"/><path class="cls-6" d="M83.7,76a5.88,5.88,0,0,0-.28,1.78,4.42,4.42,0,0,0,2.37,2.63c.9.23,1.59-1.64,1.41-2.08a2.79,2.79,0,0,0-1.12-1.37A10.32,10.32,0,0,0,83.7,76Z"/><path class="cls-5" d="M86.22,79.88,87,83.26s2.1,2.9,2.92,3.11a11.68,11.68,0,0,0,3.87,0c.73-.23,3.36-3.4,3.36-3.4L97.07,80S89.46,80.94,86.22,79.88Z"/><path class="cls-2" d="M83.91,73.53a25.74,25.74,0,0,1-.44-6.66c.26-3.52,4-5.61,4.08-5.65a8.1,8.1,0,0,1,6.63-.85c4.17,1,5.55,5.6,5.71,7.09s-.17,6.67-.17,6.67-1.8,1.53-3,1.58-5.94.26-7.68.21a17.83,17.83,0,0,1-4.21-.48C84.81,75.26,83.91,73.53,83.91,73.53Z"/><path class="cls-3" d="M83.91,73.12s-.6-.21-.76.28.17,1.22.23,1.82A6.07,6.07,0,0,0,84,77.61a3.05,3.05,0,0,0,1.2.86,24.13,24.13,0,0,0,1.08,2.92,16.59,16.59,0,0,0,3.67,3.78,7.57,7.57,0,0,0,3.78,0,12,12,0,0,0,3.59-3.57,11.62,11.62,0,0,0,1.19-3.27A4.09,4.09,0,0,0,99.81,77a8.53,8.53,0,0,0,.25-2.17c.06-.14.4-1.63.12-1.93s-.83.46-.89.68a1.41,1.41,0,0,1-.26.47,15.8,15.8,0,0,1-.32-2.39A11.2,11.2,0,0,0,98,69a7.19,7.19,0,0,0-2.31-3.9c-1.56-1.21-4.66-.8-5.42-.77a5.47,5.47,0,0,0-1.71.29c-.18.11-1.26,1.31-2.23,2s-.81,1.21-.91,2-.39,1.69-.5,2.48-.3,2.34-.36,2.56a.57.57,0,0,1-.16.3Z"/><path class="cls-3" d="M56.38,219c-.59,3-1,5-1,5a20.53,20.53,0,0,1,3.15.84,5,5,0,0,1,1.39,1.2,1.54,1.54,0,0,0,1.49-1.57,32.17,32.17,0,0,1,.62-4.29C60,219.89,57.86,219.41,56.38,219Z"/><path class="cls-3" d="M129.36,221.54a38.77,38.77,0,0,1,1.13,4.52s1.21-2,2.32-2.22a5.6,5.6,0,0,1,2.51.37s-.52-1.52-1.21-4.12A40.87,40.87,0,0,1,129.36,221.54Z"/><path class="cls-7" d="M81.31,26.79s1.39-1.24,2.5-2.35a14.32,14.32,0,0,0,2-2.82l.75-.25a8.42,8.42,0,0,1-1.24,2.17A24.16,24.16,0,0,1,81.31,26.79Z"/><path class="cls-7" d="M83.07,27.44a53.91,53.91,0,0,1,4-4.27l.6-.39.19.79a2.8,2.8,0,0,0-1.25.78Z"/><path class="cls-7" d="M97.67,27.44s-3.56-4.66-3.56-4.66l-.59-.12A21.07,21.07,0,0,0,97.67,27.44Z"/><path class="cls-7" d="M95.54,21.59l3.65,4.74c-.1-.13-3.54-5.45-3.54-5.45A1.73,1.73,0,0,0,95.54,21.59Z"/></g></g></svg>