<svg xmlns="http://www.w3.org/2000/svg" viewBox="0 0 189.33 259.16"><defs><style>.cls-1{fill:none;}.cls-2{fill:#ebebeb;}.cls-3{fill:#ffa966;}.cls-4{fill:#ff6f00;}.cls-5{fill:#382c28;}.cls-6{fill:#dedede;}.cls-7{fill:#4673b6;}.cls-8{fill:#544741;}.cls-9{fill:#423834;opacity:0.45;}.cls-10{fill:#ededed;}</style></defs><title>challenge-stretching-2</title><g id="Capa_2" data-name="Capa 2"><g id="Capa_1-2" data-name="Capa 1"><polygon class="cls-1" points="189.33 18.92 189.33 0 0 0 0 18.92 0 240.24 0 259.16 189.33 259.16 189.33 240.24 189.33 18.92"/><path class="cls-2" d="M121.58,102.48l-.44.69s-1.54,1-1.7,4.25-.91,5.59,0,6.66,3.08,5,3.24,4.84a3.31,3.31,0,0,0,1.28-1.17c.58-.9,1.06-3.8.85-6.47a33.07,33.07,0,0,1,.18-5.75l-1-3.32Z"/><path class="cls-3" d="M114.42,131.57l-3.26-.49-3.27-2.81s5.46-7,5.74-8.76-1.2-5.47.43-9a6.73,6.73,0,0,1,5.43-3.76,10.82,10.82,0,0,0,2.81,4.54l-1.5,11.21Z"/><path class="cls-2" d="M76.92,144.09a81.12,81.12,0,0,0,4.5,15.22c2.91,6.6,4.19,8.8,4.19,8.8s.42,6.1,2.2,9.94c0,0,.07,10.21,2.91,18.3a149.5,149.5,0,0,1,4.61,16.75,5.38,5.38,0,0,1,2.34,1.77,18.71,18.71,0,0,1,1,2.27s1.92.71,2.42.36l.49-.36a69.71,69.71,0,0,1-1.13-11.56c0-5.75,1.2-14.12.21-19.09A51.36,51.36,0,0,0,98,177.62,89.84,89.84,0,0,0,97.24,164c-1-7.38-3.76-19.4-3.76-19.4l-.28-.93s-4.68-4.08-7-3.62S76.92,144.09,76.92,144.09Z"/><path class="cls-2" d="M95.75,142.57l-2.27,2s3.41,13.58,6.32,21.74,2.69,10.88,8,12.46,7.59-1.46,8.58-4.59,4.12-8.51,4.54-18.16.64-20.86,1.14-23a13.71,13.71,0,0,0,0-4.79s-1.63.82-1.85,1.74.07,2.41-.56,3.26-4.4,1.63-4.4,1.63l-2.42,10.72-.85-6.53s-8.37-1.42-9.15-.85S95.75,142.57,95.75,142.57Z"/><path class="cls-4" d="M76.92,118.87,75.05,120a159.55,159.55,0,0,0,.93,16.5l.94,7.55s9.68,1.39,16.28-.42l.28.93a38.43,38.43,0,0,0,11.14-2.39c6.18-2.27,7.38-3.12,7.38-3.12s-.92-8.66-.92-8.87A44.25,44.25,0,0,0,109.87,120c-1.34-6.1-4.54-8.06-4.54-8.06s-18.59.54-20.43,1.75Z"/><path class="cls-2" d="M73.4,101.77a90.67,90.67,0,0,1,1.6,11c.21,4.37,0,7.24,0,7.24a24.62,24.62,0,0,0,15,1.17c8.09-2,15.32-9.27,15.32-9.27s-2.94-7.71-2.27-14.5-19.67-3.9-19.77-3.69S73.4,101.77,73.4,101.77Z"/><path class="cls-2" d="M73.33,66l-5.11,2.41s-4,1.91-5,5.68.42,11.14.42,11.14.29,9.5.85,14.19l.57,4.68a44.47,44.47,0,0,0-2.62,13.27c-.29,7.38-1.28,15.89-1.28,15.89s3,.36,3,0,6.53-16.46,7.88-20.79S73.4,96.23,73.4,96.23s3.2-22.7,3.27-23.06S73.33,66,73.33,66Z"/><path class="cls-5" d="M92.08,37.06a11.57,11.57,0,0,1,5.13,5.47c1.45,3.67-.07,7.2-.49,11.57A36,36,0,0,0,97,62.48s-5.68,1.24-6.65.34-5.81-9.56-5.81-9.56Z"/><path class="cls-6" d="M65.67,81.05c-.07-.07,2.2,4.75,2.2,4.75l1.06-2.37S67.87,83.25,65.67,81.05Z"/><path class="cls-2" d="M93.49,63.05,95,61.11s6.82,2.48,7.17,2.55a33.14,33.14,0,0,1,8,1.92A13.75,13.75,0,0,1,114.34,68s9.16,4.54,12.49,6.67a9.57,9.57,0,0,1,4.33,5.47c.21.71-.85,9.22-2.77,14.61s-3.4,10.79-3.4,10.79-3.34-2.63-3.41-3,.43-8.66.5-11.71a36.71,36.71,0,0,1,1.2-7.17A78.14,78.14,0,0,1,112.78,80c-4.54-2-5.32-2.34-5.6-2.34s-2.7,6.32-2.7,6.32l-5.82,1.91s-3.54-4.61-3.9-6.31-3.23-9.86-3.32-11.92S93.49,63.05,93.49,63.05Z"/><path class="cls-6" d="M101.79,75.87a48.79,48.79,0,0,1,5.39,1.77l-1.39,3L104.48,84h-2.91s2.63-4.33,2.49-5.18S101.79,75.87,101.79,75.87Z"/><path class="cls-4" d="M78.8,66,75,65.3,73.33,66s-4,8.72-5.11,13.55S65.88,90.49,67.44,94a10,10,0,0,0,4.83,4.83l1.13,3a114.43,114.43,0,0,1,13.91-1.07c8.66-.21,15.82-3,15.75-3.26S104.48,84,104.48,84a11.89,11.89,0,0,1-7.73-7.66c-2-6.18-1.7-15.19-1.7-15.19l-1.11-.78L82.2,65.58Z"/><path class="cls-7" d="M92.91,36a6.65,6.65,0,0,1,1.67,3.49,9.76,9.76,0,0,1-1,4.67s-.77-2-1.26-3S92.91,36,92.91,36Z"/><path class="cls-2" d="M78.8,55.79s.28,5.89,0,6.17S75,65.3,75,65.3,72,71.47,72.76,76.37s7,7.66,12.92,4.4,8.26-20.44,8.26-20.44-3-.85-3.93-3.19-.57-10-.57-10a11.35,11.35,0,0,0-4,1.37C84.33,49.4,78.8,55.79,78.8,55.79Z"/><path class="cls-6" d="M86.18,52.24s2.15-3.15,2.21-2.21a12.33,12.33,0,0,1-2.85,7c-2.42,3.12-6.62,3.26-6.62,3s-.12-4.33-.12-4.33Z"/><path class="cls-8" d="M72.81,40.32c-.2.19-1.76,2.31-1.76,2.31a20,20,0,0,1-.27-8.11c.83-4,4-7.09,10.36-7.18s10,4.36,11.59,7.55.86,9.28.72,10.24-3.37,3.72-3.37,3.72l-12-2.63Z"/><path class="cls-8" d="M84,40.11C86.22,38.37,88.72,32,88.72,32a39.34,39.34,0,0,1-1.56,12.37l.51,1.56a19.56,19.56,0,0,0,3.49-7.27,24.47,24.47,0,0,0,.64-5.34,14.59,14.59,0,0,1,.93,1.61c1.6,3.19.74,8.26.82,9.22.23,2.68-5.26,6.23-5.26,6.23l-1.7-5.85-10.81-1A17.06,17.06,0,0,0,84,40.11Z"/><path class="cls-9" d="M84,40.11C86.22,38.37,88.72,32,88.72,32a39.34,39.34,0,0,1-1.56,12.37l.51,1.56a19.56,19.56,0,0,0,3.49-7.27,24.47,24.47,0,0,0,.64-5.34,14.59,14.59,0,0,1,.93,1.61c1.6,3.19.74,8.26.82,9.22.23,2.68-3.91,5.77-3.91,5.77l-3-5.39-10.81-1A17.06,17.06,0,0,0,84,40.11Z"/><path class="cls-2" d="M88.24,44.44a3.48,3.48,0,0,1,2.22-.77c1.12.12.92,2.13.37,4.39a2.77,2.77,0,0,1-2.54,2.28s-.66,1.83-1.16,2.91-4.85,4.89-6,5.26a8.39,8.39,0,0,1-3.68.31c-1-.2-4.52-3.78-5.66-6.84s-.68-6.92-.7-8.32-.39-4,.21-6.14,2.56-3.71,6.08-4a8.08,8.08,0,0,1,8,3.87C87,40.08,87.07,44.13,88.24,44.44Z"/><path d="M88,136l3.55,2.34,1.63,5.36-2.13.46s-.07-4.26-.46-4.9S88,136,88,136Z"/><path class="cls-6" d="M115.27,166.48a33.71,33.71,0,0,1-1.64-10.08,106.46,106.46,0,0,0-.78-10.78l.93-4.12s.64,6.11.71,10.65S115.27,166.48,115.27,166.48Z"/><path class="cls-4" d="M115.27,134.9l-4.11-3.82a5.73,5.73,0,0,0,5-4.05c1.13-3.83,2.27-8.3,3.69-9.94s2.49-5.81,2.49-5.81.84.56.91,1.06-.14,6.46,0,9.08.93,6.81.71,7.52-1.62,1.57-1.62,1.57-1.64,6.1-1.85,6.17-3.62.64-3.62.64Z"/><path class="cls-10" d="M121.66,137.75a36,36,0,0,1,.42-4.69,13.71,13.71,0,0,0,0-4.79s-1.63.82-1.85,1.74.07,2.41-.56,3.26-4.4,1.63-4.4,1.63l-.55,2.44C116,137.38,119.05,137.51,121.66,137.75Z"/><path class="cls-2" d="M61.91,131.32l-.71,2s-2.91,4.76-3.05,7.24,3.79,9.44,4.4,9.54a.88.88,0,0,0,.88-.28,1.63,1.63,0,0,0,.93.57c.49,0,.42-1,.42-1a.9.9,0,0,0,.36-.68c0-.42-1.49-3.3-1.6-4.47s-.89-2.73.43-4.61.28-6.28.28-6.28l-1.35-1Z"/><path class="cls-6" d="M60,139s.39,2,.53,3.26.07,3.84.28,4a1.3,1.3,0,0,0,1.64-1.06c.32-1.17.73-3.34.73-3.34l.16,1.29s-.5,2.62-.61,2.94l-.11.31s1.14,3.09.78,3.34l-1.2-2.63s-1.58.17-1.91-.48A16.86,16.86,0,0,1,60,142.5C60.06,142.21,60,139,60,139Z"/><path class="cls-4" d="M95.33,213.1A4.94,4.94,0,0,0,93,215.72a18.74,18.74,0,0,1-4.58,6.18c-1.6,1.27-6,4.47-6.71,6.28s3.48,4.47,7.54,3.4,6.83-3.51,9.71-4.15,5.64-.64,6.38-3.09-1.7-8.62-1.91-8.94a39.49,39.49,0,0,0-3.41-2.3Z"/><path class="cls-10" d="M94.71,210.32c.4,1.72.62,2.78.62,2.78a5.38,5.38,0,0,1,2.34,1.77,18.71,18.71,0,0,1,1,2.27s1.92.71,2.42.36l.49-.36a70.91,70.91,0,0,1-1-7.43A44.61,44.61,0,0,1,94.71,210.32Z"/></g></g></svg>