<svg xmlns="http://www.w3.org/2000/svg" viewBox="0 0 189.33 259.16"><defs><style>.cls-1{fill:none;}.cls-2{fill:#dedede;}.cls-3{fill:#ff6f00;}.cls-4{fill:#eaeaea;}</style></defs><title>Recurso 1</title><g id="Capa_2" data-name="Capa 2"><g id="Capa_1-2" data-name="Capa 1"><polygon class="cls-1" points="189.33 18.92 189.33 0 0 0 0 18.92 0 240.24 0 259.16 189.33 259.16 189.33 240.24 189.33 18.92"/><path class="cls-2" d="M106.78,69.28a16,16,0,0,0,1,2.15,9.55,9.55,0,0,0,2.49,2.24,22.36,22.36,0,0,1,5.67,6.16c-.62-6.14,2.15-12.84-.81-18.25-.77-1.43-1.9-2.63-2.81-4a15.75,15.75,0,0,1-2.7-8.48l4,5.31c1.61-4.25-2.37-8.56-2.64-13.1a11.06,11.06,0,0,1,9.31,8.88c.59,3.5-.58,7.09-.13,10.61.53,4.16,2.25,7.83,2.46,12.21.12,2.52.13,5,.27,7.57.11,2,1,4.67.19,6.64-2.78,7.06-13.31-4-16.26-5.66s-6.24-3.1-8.51-5.67c-2-2.3-3.57-7.68-1-10.12C100.32,63,105.4,66.24,106.78,69.28Z"/><path class="cls-3" d="M104.78,79.12c-.43,3.78-1.87,7.52-2.84,11.26a10.39,10.39,0,0,1-7.46-.95A8.74,8.74,0,0,0,92.4,88.3c-2.06-.58-4.67.85-7.07,1.9a15.87,15.87,0,0,1-7.11,1.58,6.65,6.65,0,0,1-3-.92c-.08-.18-.16-.36-.23-.54-1.56-3.69-3.41-7.28-4.75-11-.13-.34-.24-.68-.35-1a13.27,13.27,0,0,0,3.37-.44c3-.77,6.09-2.66,6.87-5.68A7.9,7.9,0,0,0,78.85,66a20,20,0,0,0-3.47-3.9c.17-.12.34-.24.5-.37a7.92,7.92,0,0,0,1-1l.19-.23c3.42,1.89,5.45,5.81,6.57,9.63a3.46,3.46,0,0,0,.53,1.23,3.78,3.78,0,0,0,1.2.87,17.18,17.18,0,0,1,6.76,6.79,13.61,13.61,0,0,1,5.67-6.28,1.42,1.42,0,0,0,.65-.58,1.28,1.28,0,0,0,0-.86A47.85,47.85,0,0,0,95.73,64c.34,0,.68.08,1,.14s.59.13.87.21a32.88,32.88,0,0,1,1.33,3.76,15.91,15.91,0,0,0,1.4,3.88c.85,1.42,2.21,2.47,3.13,3.83A8.62,8.62,0,0,1,104.78,79.12Z"/><path class="cls-2" d="M73.23,77.81a13.27,13.27,0,0,1-3.37.44c-.32-1-.59-1.91-.82-2.89-.92-4-.65-8.89,2.7-11.24,1-.69,2.13-1.09,3.16-1.7l.48-.3A20,20,0,0,1,78.85,66a7.9,7.9,0,0,1,1.25,6.11C79.32,75.15,76.26,77,73.23,77.81Z"/><path class="cls-2" d="M77.1,60.55c2.13-2.62,2.24-6.26,2.59-9.73.09-.86.26-1.85,1-2.24a1.91,1.91,0,0,1,1.41-.07c1.37.37,2.19,1.66,3.45,2.09,1.09.37,2.53,0,3.71.16a1.25,1.25,0,0,1,.83.37,1.21,1.21,0,0,1,.14.8c-.2,2.89-1.84,7.07-.57,9.64a4.08,4.08,0,0,0,3.11,2.11c1,.19,2,.23,2.94.33a47.85,47.85,0,0,1,2.71,7.34,1.28,1.28,0,0,1,0,.86,1.42,1.42,0,0,1-.65.58,13.61,13.61,0,0,0-5.67,6.28,17.18,17.18,0,0,0-6.76-6.79,3.78,3.78,0,0,1-1.2-.87,3.46,3.46,0,0,1-.53-1.23C82.55,66.36,80.52,62.44,77.1,60.55Z"/><path class="cls-2" d="M102.81,115.13c-9.39,2.78-19.4,2.9-28.16-2.14a32.87,32.87,0,0,0,2.16-4.11c2.19-5.45.89-11.69-1.27-17.15-.12-.29-.24-.58-.35-.87a6.65,6.65,0,0,0,3,.92,15.87,15.87,0,0,0,7.11-1.58c2.4-1,5-2.48,7.07-1.9a8.74,8.74,0,0,1,2.08,1.13,10.39,10.39,0,0,0,7.46.95h0l0,.13C99.69,99.19,101.12,107.1,102.81,115.13Z"/><path class="cls-2" d="M104.78,79.12a8.62,8.62,0,0,0-1.31-3.29c-.92-1.36-2.28-2.41-3.13-3.83a15.91,15.91,0,0,1-1.4-3.88,32.88,32.88,0,0,0-1.33-3.76,9,9,0,0,1,1.29.49c3.49,1.69,5.17,5.62,5.82,9.85A16.78,16.78,0,0,1,104.78,79.12Z"/><path class="cls-3" d="M100.19,176.71l.07-2.6c.19-7.52,2.63-14.25,4.27-21.47,1.74-7.63,1.62-15.56.83-23.3a136.7,136.7,0,0,0-2.55-14.21c-9.39,2.78-19.4,2.9-28.16-2.14a29.1,29.1,0,0,0-1.55,2.92,29.75,29.75,0,0,0-2,8.35,140.64,140.64,0,0,0-1,23c.25,6.14.45,11.3.65,17.45a21.46,21.46,0,0,1-.51,6.79,23.08,23.08,0,0,1-1.75,3.94c3.37,2.33,7.07,4.59,11.1,4.5A24.76,24.76,0,0,1,81,176.15a91.17,91.17,0,0,0,6.67-31.35c.92,8.57,1.93,17.24,1.41,25.85-.07,1.18-.17,2.36-.28,3.54A23.88,23.88,0,0,0,100.19,176.71Z"/><path class="cls-2" d="M99.73,209a9.88,9.88,0,0,1-.29-3.26l.75-29a23.88,23.88,0,0,1-11.38-2.52c-.49,5.32-1.15,10.66-.33,15.92.58,3.62,1.84,7.11,2.53,10.72a33.82,33.82,0,0,1,.5,8.7A14.14,14.14,0,0,0,99.73,209Z"/><path class="cls-3" d="M111.27,219.57l-9-7.46a8.16,8.16,0,0,1-2.3-2.53,3.51,3.51,0,0,1-.24-.61,14.14,14.14,0,0,1-8.22.56A33.9,33.9,0,0,1,89.82,218a39.14,39.14,0,0,0,18.07,7.54c2.26.34,5.38-.17,5.59-2.46C113.62,221.67,112.39,220.5,111.27,219.57Z"/><path class="cls-2" d="M75.78,212.75c-1.55-9,2.82-18.64,3.4-27.82a30,30,0,0,1,.47-4.93v0c-4,.09-7.73-2.17-11.1-4.5-.36.69-.71,1.38-1,2.09-2.25,5.26-1.71,11.27-.67,16.9s2.54,11.28,2.08,17c0,.69-.14,1.37-.24,2.06A15.18,15.18,0,0,0,75.78,212.75Z"/><path class="cls-3" d="M88.82,226.05a70,70,0,0,1-11.16-10.59c-.58-.69-1.15-1.39-1.76-2.06l-.12-.65a15.18,15.18,0,0,1-7.07.75c-.68,4.57-2.21,9.07-1.75,13.65a28.57,28.57,0,0,0,10.33,4.09c3.7.56,7.44-.31,11.08-1.18.78-.19,1.66-.46,2-1.2C90.8,227.8,89.74,226.74,88.82,226.05Z"/><path class="cls-2" d="M96,43.06c0,2.34-1.15,10.45-3.62,11.56a2.42,2.42,0,0,1-1.1.16A12.35,12.35,0,0,1,80,46.69c-2.59,1-4.06-2.07-3.37-4.19.39-1.24,2-2.08,3-1.32l.13.11h0c.44-2.56.94-5.23,2.55-7.26,2.2-2.76,6.9-4.58,9.63-1.65a5.16,5.16,0,0,1,.43.55c1.24,1.93.36,4.25,1.83,6.06.36.45.83.82,1.15,1.29A4.74,4.74,0,0,1,96,43.06Z"/><path class="cls-3" d="M92.4,32.94a2,2,0,0,0-.06-.34c-.57-2.28-3-3.45-5.3-4.1a14.52,14.52,0,0,0-5.69-.69A10.34,10.34,0,0,0,73,35.71a13.65,13.65,0,0,0,2.94,11.47A5.94,5.94,0,0,0,78.13,49a2.69,2.69,0,0,0,2.75-.28l-.57.23a1.17,1.17,0,0,0,.54-.41A12.71,12.71,0,0,1,80,46.69c-2.59,1-4.06-2.07-3.37-4.19.39-1.24,2-2.08,3-1.32a.18.18,0,0,1,.07,0l.06.16h0c.37,1,.73,1.94,1.1,2.92a1.54,1.54,0,0,0,.68.94c.73.32,1.4-.59,1.53-1.37s.1-1.72.75-2.17c.33-.24.77-.28,1.12-.49,1.23-.76.45-2.71,1-4a3.41,3.41,0,0,1,2.5-1.69,11.42,11.42,0,0,0,3-.81,1.85,1.85,0,0,0,.75-.69A1.58,1.58,0,0,0,92.4,32.94Z"/><path class="cls-3" d="M74.74,41.11c.85-2,3.65-3.31,1-5.24-1.24-.9-3.83-.71-5.07.08-2,1.29-2.39,4.06-2.18,6.44s.81,4.84,0,7.09A28.38,28.38,0,0,1,67,52.59a10.76,10.76,0,0,0,.78,10.61c-.62-2.28.59-4.65,2-6.57s3-3.81,3.41-6.14L73,55.61a7.24,7.24,0,0,0,2.21-5.78c0-2.14-.58-4.23-.75-6.36A5.07,5.07,0,0,1,74.74,41.11Z"/><path class="cls-4" d="M72.11,63.28c.74-.26,5.2,2.73,6.69,7.44,5,4.21,6.69,7.18,6.69,7.18s4-7.93,5.7-12.63,3.71-4.22,2-9.17-1.24-11.65-1-14.13,2.72-4,4,0-.74,6.2,1.24,8.92,4.22,4.25,1.74,7.83S93.91,84.1,89.7,88.56s-15.36-5.21-17.59-9.42S63.19,66.51,72.11,63.28Z"/></g></g></svg>