<svg xmlns="http://www.w3.org/2000/svg" xmlns:xlink="http://www.w3.org/1999/xlink" viewBox="0 0 863.38 446.92"><defs><style>.cls-1{opacity:0.7;}.cls-2{fill:url(#Degradado_sin_nombre_26);}.cls-3{fill:url(#Degradado_sin_nombre_26-2);}.cls-4{fill:url(#Degradado_sin_nombre_26-3);}.cls-5{fill:url(#Degradado_sin_nombre_26-4);}.cls-6{fill:url(#Degradado_sin_nombre_26-5);}.cls-7{fill:url(#Degradado_sin_nombre_11);}.cls-8{fill:url(#Degradado_sin_nombre_7);}.cls-9{fill:#fff;}</style><linearGradient id="Degradado_sin_nombre_26" x1="180.48" y1="118.21" x2="416.04" y2="449.76" gradientUnits="userSpaceOnUse"><stop offset="0" stop-color="#f4e6b1" stop-opacity="0"/><stop offset="1" stop-color="#f4e6b1"/></linearGradient><linearGradient id="Degradado_sin_nombre_26-2" x1="49.72" y1="606.21" x2="285.28" y2="937.76" gradientTransform="translate(-296.38 -212.28) rotate(-30)" xlink:href="#Degradado_sin_nombre_26"/><linearGradient id="Degradado_sin_nombre_26-3" x1="-1640.76" y1="-369.79" x2="-1405.2" y2="-38.24" gradientTransform="matrix(-0.87, -0.5, -0.5, 0.87, -792.23, -212.28)" xlink:href="#Degradado_sin_nombre_26"/><linearGradient id="Degradado_sin_nombre_26-4" x1="431.57" y1="14.46" x2="428.02" y2="444.68" xlink:href="#Degradado_sin_nombre_26"/><linearGradient id="Degradado_sin_nombre_26-5" x1="-1771.52" y1="118.21" x2="-1535.96" y2="449.76" gradientTransform="matrix(-1, 0, 0, 1, -1088.62, 0)" xlink:href="#Degradado_sin_nombre_26"/><linearGradient id="Degradado_sin_nombre_11" x1="354.49" y1="164.45" x2="353.43" y2="410.37" gradientUnits="userSpaceOnUse"><stop offset="0" stop-color="#00a195"/><stop offset="1" stop-color="#00514b"/></linearGradient><linearGradient id="Degradado_sin_nombre_7" x1="509.93" y1="179.5" x2="508.87" y2="410.52" gradientUnits="userSpaceOnUse"><stop offset="0" stop-color="#31b2a8"/><stop offset="1" stop-color="#007970"/></linearGradient></defs><title>challenge-reward</title><g id="Capa_2" data-name="Capa 2"><g id="Capa_1-2" data-name="Capa 1"><g class="cls-1"><polygon class="cls-2" points="431.69 446.92 115.67 130.9 202 44.57 431.69 446.92"/><polygon class="cls-3" points="431.69 446.92 0 331.25 31.6 213.32 431.69 446.92"/><polygon class="cls-4" points="431.69 446.92 863.38 331.25 831.79 213.32 431.69 446.92"/><polygon class="cls-5" points="431.69 0 309.6 0 431.69 446.92 553.78 0 431.69 0"/><polygon class="cls-6" points="431.69 446.92 747.71 130.9 661.38 44.57 431.69 446.92"/></g><polygon class="cls-7" points="275.52 290.75 431.69 446.92 431.69 290.75 431.69 134.57 275.52 290.75"/><polygon class="cls-8" points="431.69 134.57 431.69 290.75 431.69 446.92 587.87 290.75 431.69 134.57"/><path class="cls-9" d="M414.86,331.51l-22.12-31-21.9,31H353.6l30.28-41.58L355.23,250h17.13l20.84,29,20.62-29h16.42L401.7,289.35l30.63,42.16Z"/><path class="cls-9" d="M493.53,253.47a26.84,26.84,0,0,1,12.06,10,30.62,30.62,0,0,1,0,30.92,26.8,26.8,0,0,1-12.06,10.07A45.11,45.11,0,0,1,475.07,308h-18.4v23.53H441.53V250h33.54A45.11,45.11,0,0,1,493.53,253.47ZM489.4,291q5.12-4.2,5.12-12c0-5.2-1.71-9.19-5.12-12s-8.43-4.19-15-4.19H456.67v32.38h17.71Q484.27,295.17,489.4,291Z"/></g></g></svg>