<svg xmlns="http://www.w3.org/2000/svg" viewBox="0 0 189.33 259.16"><defs><style>.cls-1{fill:none;}.cls-2{fill:#d85b07;}.cls-3{fill:#ff6f00;}.cls-4{fill:#dedede;}.cls-5{fill:#ebebeb;}.cls-6{fill:#4673b6;}.cls-7{fill:#bfbfbf;}.cls-8{fill:#544741;}</style></defs><title>challenge-push-up-1</title><g id="Capa_2" data-name="Capa 2"><g id="Capa_1-2" data-name="Capa 1"><polygon class="cls-1" points="189.33 18.92 189.33 0 0 0 0 18.92 0 240.24 0 259.16 189.33 259.16 189.33 240.24 189.33 18.92"/><path class="cls-2" d="M128.64,178.42s.45,3.53-.54,5.61-2.68,4-1.93,5.3,6.09.35,6.39,0S136,182,136,182s-.85-4.66-2.88-4.49A25.69,25.69,0,0,0,128.64,178.42Z"/><path class="cls-3" d="M134.49,179.37a5.23,5.23,0,0,0-1,2.73,6.2,6.2,0,0,1-1.14,4.7c-1.54,2.43-.84,3.77.4,4.41s4.9.2,6.54-1.63.74-4.86,1.58-6.49,1.64-3.35,1.14-4.67-4-2.73-5.35-2.3S134.49,179.37,134.49,179.37Z"/><path class="cls-4" d="M119.38,173.43c.1-.15-.4-3.61-.4-3.61s3.42.63,4.71.93,2.92,2.68,2.92,2.68.2.59-2.33.64A18.65,18.65,0,0,1,119.38,173.43Z"/><path class="cls-5" d="M108.68,177a33.53,33.53,0,0,1,1.29,3.31s5.3.2,7.82,0,5.25-.14,6.89-.44,2.58-.45,2.58-.45a33.81,33.81,0,0,0,5,.6,19,19,0,0,1,5.55,1.14,5.59,5.59,0,0,0,.89-2.08c0-.65-3.27-4.81-5.94-6.05s-6-.54-8.58-1.09-8.17-3.81-8.17-3.81-4.46,3.22-4.86,4.06S108.68,177,108.68,177Z"/><path class="cls-3" d="M94.66,174.52l1.72,2.94a16.18,16.18,0,0,0,4.87,1.57c2.72.39,4.7.24,4.9.34s3.82.89,3.82.89a10.5,10.5,0,0,0,4.26-5.45,33.9,33.9,0,0,0,1.78-6.73l-1-.89a14.83,14.83,0,0,0-5.9-6.2,15.31,15.31,0,0,0-7.53-1.58Z"/><path class="cls-5" d="M92,177l4.35.47a11.53,11.53,0,0,0,6.45-6.56c1.64-4.8-.1-10.5-1.24-11.49a51.62,51.62,0,0,1-7.48-1.33c-3-.88-4.41,10.39-4.51,10.79S92,177,92,177Z"/><path class="cls-5" d="M64.43,158.66c0-.15,3-3.1,8.16-2.59s1.7,4.61-1,5.66a30.52,30.52,0,0,1-6.18,1.49Z"/><path class="cls-3" d="M53.12,155l.67-.46-.14-1.26s1.76-4.83,6.6-3.74,4.7,8.59,6.32,14.35-7.06,1.43-7.06,1.43Z"/><path class="cls-6" d="M53,154.06s.09-.91,1.7-1.24,3.5-.35,4.53,1.28-1.78,2.15-3,1.63S53,154.06,53,154.06Z"/><path class="cls-3" d="M67.26,160.1A8,8,0,0,1,71,156.58a26,26,0,0,1,11.2-1.38,94,94,0,0,1,11.94,2.88,15.25,15.25,0,0,1,2.13,9.55A22.94,22.94,0,0,1,92,177H86.88s-5.7,1-8,.8-5.85-2.08-7.71-3.37a12.76,12.76,0,0,1-3.1-3.32v-4.78Z"/><path class="cls-4" d="M62,206a6.15,6.15,0,0,1-3.42,1.34c-2.49.37-6.49,1.93-6.79,2.43s.13.64.13.64-1.17.89-1,1.31a.75.75,0,0,0,.59.5s-.49.87,0,1.06,3-.94,3-.94-.82,1.19-.37,1.54.76-.07,2.7-1.14a30.3,30.3,0,0,1,5.65-2.25,7.7,7.7,0,0,1,1.13-.25,4.46,4.46,0,0,1,.3,1.81c0,1.26.92,1.43,1.27,1.09a6.32,6.32,0,0,0,.71-3.69,28.52,28.52,0,0,1,0-3.45,21.81,21.81,0,0,0-2.3-.94A14.19,14.19,0,0,0,62,206Z"/><path class="cls-5" d="M67.53,171.05l1.66.84H70s5.65,4.51,6.59,4.41.05-2.23-2.18-5.25-2-7.5-2.15-9.32-.52-3.64-1.17-3.65-2.43,1.43-3.32,3.36-2.92,6.16-2.13,7A21.51,21.51,0,0,1,67.53,171.05Z"/><path class="cls-7" d="M58.69,209.25c.26-.11-4.23,3.12-4.23,3.12l-1.28.53A30.24,30.24,0,0,1,58.69,209.25Z"/><path class="cls-7" d="M56.64,209.38l-5.18,2.87L51,212A44.67,44.67,0,0,1,56.64,209.38Z"/><path class="cls-7" d="M51.91,210.44,55.23,209l-3.55,1.17S51.63,210.27,51.91,210.44Z"/><path class="cls-7" d="M67.38,166.32a12,12,0,0,1,1.31,2.45c.2.79.5,3.12.5,3.12l-1.81,1.64L65.87,171Z"/><path class="cls-4" d="M63.44,208C63.2,207.76,62,206,62,206a33.68,33.68,0,0,0-1.57-8.92,30.93,30.93,0,0,1-1-12.63c.3-3.52.2-10,.2-10l6.89.25s-.7,6.68-.6,7.68a65.81,65.81,0,0,1,.6,12.08c-.35,5.8-.62,11.55-.62,11.55Z"/><path class="cls-3" d="M52.35,168c0,.22.07,2.38.07,2.38a16.51,16.51,0,0,1-4.38-5c-1.55-3-1.13-6.58,2.87-9.93s8.62-2.41,11.28-1.21,5.36,5.45,5.76,6.13-.21,4.11-.21,4.11l-9,4.56Z"/><path class="cls-8" d="M59.37,162c.48-2.23-1.24-7.61-1.24-7.61a32.26,32.26,0,0,1,5.41,8.68l1.14.72a16.25,16.25,0,0,0-1.55-6.43,20.13,20.13,0,0,0-2.36-3.72,12.09,12.09,0,0,1,1.42.54c2.67,1.2,4.75,4.87,5.3,5.43,1.54,1.58-.11,6.69-.11,6.69l-4.12-2.84-7.4,5A14.07,14.07,0,0,0,59.37,162Z"/><path class="cls-2" d="M59.37,162c.48-2.23-1.24-7.61-1.24-7.61a32.26,32.26,0,0,1,5.41,8.68l1.14.72a16.25,16.25,0,0,0-1.55-6.43,20.13,20.13,0,0,0-2.36-3.72,12.09,12.09,0,0,1,1.42.54c2.67,1.2,4.75,4.87,5.3,5.43,1.54,1.58.51,5.7.51,5.7l-4.74-1.85-7.4,5A14.07,14.07,0,0,0,59.37,162Z"/><path class="cls-5" d="M64.28,162.6a2.9,2.9,0,0,1,1-1.65c.77-.49,1.69.89,2.51,2.61a2.27,2.27,0,0,1-.43,2.76s.52,1.51.76,2.45a18.47,18.47,0,0,1-1.07,6.45,6.89,6.89,0,0,1-2.18,2.1c-.75.41-4.83,0-7.15-1.41s-4-4-4.75-4.92a17.49,17.49,0,0,1-3.06-4c-.74-1.67-.28-3.68,1.8-5.69a6.64,6.64,0,0,1,7.07-1.67C61.22,160.49,63.38,163,64.28,162.6Z"/><path class="cls-3" d="M52.49,159.85a6.62,6.62,0,0,0-1.15,3.59,32,32,0,0,1,.5,4,4.61,4.61,0,0,1-.34,1.9l-.48-.17a11.21,11.21,0,0,0,.1-2.74,24.41,24.41,0,0,0-.91-4.2Z"/><path class="cls-5" d="M84.88,215.85s-.48.52-3,.85-3.65.23-4.39.56-3.11,1.9-2.78,2.27a2.49,2.49,0,0,0,1.15.52s-2.94,1.71-2.57,2.26,2.08,0,3.38-.44a17.51,17.51,0,0,0,1.94-.82s-3.13,2.68-2.83,3.16,1.23.37,2.12,0,1.52-.67,1.52-.67-.93,1-.55,1.41,1.52.15,2.56-.78,2.53-2.45,2.79-2.34-.26,3.09.07,3.53,1.26.15,1.6-1.22.26-2,.48-2.2,2.19-.41,2.75-2.23S88.9,214,88.9,214Z"/><path class="cls-7" d="M81.54,221l-2.16,2.56-.95.43Z"/><path class="cls-7" d="M75.82,220.05a3.05,3.05,0,0,0,1.3-.26A16.17,16.17,0,0,0,79,218.67s-2.48,1.3-4.3.86C74.67,219.53,74.66,219.79,75.82,220.05Z"/><path class="cls-5" d="M79.84,158.08a5.57,5.57,0,0,0-4.6,4.89,13.73,13.73,0,0,0,1.93,8.08l4.41,9.86s.64,5.4,1.48,9.51a37.92,37.92,0,0,0,.84,3.87,67.05,67.05,0,0,0,.45,12,58.52,58.52,0,0,1,.6,10.35s4.4.3,4.4,0,1.39-11.2,1.24-16.35-.89-7-.89-7,.5-10.11.25-14.57a59.67,59.67,0,0,0-1.09-8.32s1.73-5.65-.35-9.32S80.91,157.78,79.84,158.08Z"/><polygon class="cls-4" points="87.87 165.8 87.87 167.88 88.86 170.36 89.29 168.43 88.58 167.63 87.87 165.8"/><polygon class="cls-2" points="101.69 177.46 103.5 177.46 106.15 179.37 103.92 179.28 103.28 178.13 101.69 177.46"/><path class="cls-5" d="M138.7,179a8.46,8.46,0,0,0-1.68-2.45,8.91,8.91,0,0,1-1.48,3.86,14.55,14.55,0,0,1,2.27.67A5.59,5.59,0,0,0,138.7,179Z"/></g></g></svg>