<svg xmlns="http://www.w3.org/2000/svg" viewBox="0 0 189.33 259.16"><defs><style>.cls-1{fill:none;}.cls-2{fill:#d85b07;}.cls-3{fill:#ccc;}.cls-4{fill:#ebebeb;}.cls-5{fill:#ff6f00;}.cls-6{fill:#bfbfbf;}.cls-7{fill:#dedede;}.cls-8{fill:#4673b6;}.cls-9{fill:#544741;}</style></defs><title>challenge-jumping-jack-3</title><g id="Capa_2" data-name="Capa 2"><g id="Capa_1-2" data-name="Capa 1"><polygon class="cls-1" points="189.33 18.92 189.33 0 0 0 0 18.92 0 240.24 0 259.16 189.33 259.16 189.33 240.24 189.33 18.92"/><path class="cls-2" d="M89.63,190.36l-.52,1s-.53-.08-2.16,2.45-7,4.46-8.38,7.28,2.45,4.24,5.53,3.42,4-2.23,7.16-2.75,7-2.67,7-3.42a9.21,9.21,0,0,0-1.19-3.56c-.52-.67,1.11-.19.37-1.23S89.63,190.36,89.63,190.36Z"/><path class="cls-3" d="M89.56,172.39l-2.46,1.54s2.23,1.57,3.49,6.54,5.28,11.67,5.28,11.67.3,1.49-.75,1.86a4.94,4.94,0,0,1-2.45,0,9.45,9.45,0,0,0-2.08-1.86,8,8,0,0,1-1.48-.74c-.23-.22-12-12.49-12-12.49l-2.56-10.29,2.75-5.13,6.26.37Z"/><path class="cls-4" d="M95.87,192.14s-1.06-1.77-2.27-4.17a19.2,19.2,0,0,1-5.23,2.67c.44.45.7.73.74.76a8,8,0,0,0,1.48.74A9.45,9.45,0,0,1,92.67,194a4.94,4.94,0,0,0,2.45,0C96.17,193.63,95.87,192.14,95.87,192.14Z"/><path class="cls-5" d="M127.45,200.32a5,5,0,0,1,3,.67c1.18.74,2.67,8.17,2.15,9.36s-1.49,1.63-2.9,2.68-2.18,4-7.44,4.68-6.68-1.86-6.75-3.79,3.27-3.5,4.46-5.87,1.11-6.17,2.93-6.84A21.18,21.18,0,0,1,127.45,200.32Z"/><path class="cls-6" d="M81.07,168.62s3.35,4.13,4.69,4.72l-1.63,2.38,4.1-2.5a40.25,40.25,0,0,0-3.34-5C83.75,167,81.07,168.62,81.07,168.62Z"/><path class="cls-7" d="M70.23,170.71l1.6,10.66a21,21,0,0,0,.63,10.7,86.19,86.19,0,0,1,3,14.42s3.87.37,3.87,0,.52-13.38,0-16.65-.57-7.28-.73-8-.39-15.34-.39-15.34l-6.69,3.05Z"/><path class="cls-5" d="M64.9,153.13l.73-.38v-1.27s2.29-4.6,7-3,3.69,9.06,4.65,15-7.18.62-7.18.62Z"/><path class="cls-4" d="M98.39,146.77l0-2.36a51.43,51.43,0,0,1,15.82,0,12.92,12.92,0,0,1,0,6.82,29.44,29.44,0,0,0-.78,7.87l-5.35,5.32-5.8-6.57Z"/><path class="cls-4" d="M73.42,155.5c.23-.37,3.74-4.75,12.24-6.39s-7,10.18-7.09,10.33-4.06,1.15-4.06,1.15-3.11-1.41-2.91-2A34,34,0,0,1,73.42,155.5Z"/><path class="cls-5" d="M74.51,157.85c.88-.86,3.32-4,5.6-5.07s5.16-2.92,5.55-3.67l12.78-4.7s7.39,1.6,9.69,7.43,0,12.58,0,12.58l-2.3,2.05a13.69,13.69,0,0,1-4.24,5.61c-2.82,1.93-9.26,2.52-9.76,2.37a25.35,25.35,0,0,1-12.25-7.31C74.25,161.36,74.51,157.85,74.51,157.85Z"/><path class="cls-8" d="M64.9,152.23s.2-.89,1.84-1,3.51.05,4.36,1.79-2,1.94-3.17,1.28S64.9,152.23,64.9,152.23Z"/><path class="cls-4" d="M76.47,169.52l4.24-1.9s7.43,5.13,10.05,4.93,0-1.69,0-1.69-4.36-3.05-6-7-2.48-9.05-3.27-9.59-3.09,2.08-3.7,2.22a14.79,14.79,0,0,1-2.39.1s-.2,5.7-.3,5.95S76.47,169.52,76.47,169.52Z"/><path class="cls-6" d="M77.26,163.49a22,22,0,0,1,1.66,2.62,9.65,9.65,0,0,1,.66,2l-1.45,2.59-2.38-2.37Z"/><path class="cls-5" d="M62.6,167.17c0,.23.4,2.35.4,2.35a16.29,16.29,0,0,1-5-4.38c-1.94-2.73-2-6.36,1.48-10.23s8.21-3.56,11-2.73,6,4.67,6.54,5.29.35,4.1.35,4.1l-8.29,5.74Z"/><path class="cls-9" d="M68.74,160.31c.18-2.27-2.26-7.36-2.26-7.36A32,32,0,0,1,73,160.8l1.23.56a16.17,16.17,0,0,0-2.41-6.15A20.22,20.22,0,0,0,69,151.84a13.18,13.18,0,0,1,1.49.34c2.81.82,5.37,4.18,6,4.66,1.73,1.36.79,6.65.79,6.65l-4.46-2.26-6.66,5.91A13.93,13.93,0,0,0,68.74,160.31Z"/><path class="cls-2" d="M68.74,160.31c.18-2.27-2.26-7.36-2.26-7.36A32,32,0,0,1,73,160.8l1.23.56a16.17,16.17,0,0,0-2.41-6.15A20.22,20.22,0,0,0,69,151.84a13.18,13.18,0,0,1,1.49.34c2.81.82,5.37,4.18,6,4.66,1.73,1.36,1.27,5.58,1.27,5.58l-4.94-1.19-6.66,5.91A13.93,13.93,0,0,0,68.74,160.31Z"/><path class="cls-4" d="M73.7,160.22a2.86,2.86,0,0,1,.77-1.77c.7-.6,1.8.64,2.85,2.24a2.27,2.27,0,0,1-.06,2.8s.73,1.41,1.1,2.31a18.67,18.67,0,0,1-.19,6.54,6.91,6.91,0,0,1-1.87,2.38c-.69.5-4.8.6-7.27-.42s-4.53-3.47-5.39-4.24a17,17,0,0,1-3.57-3.56c-1-1.56-.78-3.61,1-5.88A6.62,6.62,0,0,1,67.86,158C70.37,158.54,72.86,160.75,73.7,160.22Z"/><path class="cls-5" d="M61.64,159.1a6.61,6.61,0,0,0-.66,3.71A32,32,0,0,1,62,166.7a4.65,4.65,0,0,1-.09,1.92l-.5-.1a11.23,11.23,0,0,0-.27-2.73,24.31,24.31,0,0,0-1.47-4Z"/><path class="cls-4" d="M91.83,150.52c-.5.08-4.45.14-6.37,5s1.42,10.86,3.79,13.12a90.8,90.8,0,0,0,3.94,9.1l2.38,15.54s.89,7.35,1.93,13.23a53.43,53.43,0,0,1,1,9.36s4.24.74,4.31.45.59-11.75,0-17-1.34-6.69-1.34-6.69,1.41-18.13-.59-26.12c0,0,3.34-4.95.89-10.3S91.83,150.52,91.83,150.52Z"/><path class="cls-7" d="M98.39,161.75l2.46,4.72a11.46,11.46,0,0,0,1.12-2.36A40.69,40.69,0,0,1,98.39,161.75Z"/><path class="cls-4" d="M126.41,166.47s-2.52,3.15-6.09,7.32a52.06,52.06,0,0,1-4.24,4.68,19.39,19.39,0,0,1,7.81,9.14c2.82,6.54,5.79,14.34,5.79,14.34s-.15,2-.74,2-1,.37-1.12,0a6.89,6.89,0,0,0-2.37-2,7.7,7.7,0,0,0-2.57-.74,30.32,30.32,0,0,0-7.47-8.1c-5-3.87-6.69-6.91-6.83-7.14s-4.91-3.64-5.06-8.25,6.32-15,6.32-15l4.87-4.87s5.16-1.68,5.61-1.38,4,1.84,4.53,2.63S126.41,166.47,126.41,166.47Z"/><path class="cls-4" d="M122.24,200.21c.43.62.64,1,.64,1a7.7,7.7,0,0,1,2.57.74,6.89,6.89,0,0,1,2.37,2c.08.37.52,0,1.12,0s.74-2,.74-2-.63-1.66-1.59-4.1A25.44,25.44,0,0,1,122.24,200.21Z"/><path class="cls-4" d="M98.47,215.85s-.48.52-3,.85-3.64.23-4.38.56-3.12,1.9-2.79,2.27a2.49,2.49,0,0,0,1.15.52s-2.93,1.71-2.56,2.26,2.08,0,3.38-.44a16.64,16.64,0,0,0,1.93-.82s-3.12,2.68-2.82,3.16,1.22.37,2.12,0,1.52-.67,1.52-.67-.93,1-.56,1.41,1.53.15,2.57-.78,2.52-2.45,2.78-2.34-.26,3.09.08,3.53,1.26.15,1.6-1.22.26-2,.48-2.2,2.19-.41,2.75-2.23-.19-5.68-.19-5.68Z"/><path class="cls-7" d="M95.12,221c-.14.18-2.15,2.56-2.15,2.56L92,224Z"/><path class="cls-7" d="M89.4,220.05a3.05,3.05,0,0,0,1.3-.26,16.63,16.63,0,0,0,1.86-1.12s-2.48,1.3-4.31.86C88.25,219.53,88.25,219.79,89.4,220.05Z"/><path class="cls-7" d="M75.43,206.49A6.2,6.2,0,0,1,72,207.82c-2.49.37-6.49,1.94-6.79,2.43s.13.64.13.64-1.17.9-1,1.32a.76.76,0,0,0,.59.49s-.49.87,0,1.07,3-.94,3-.94-.82,1.19-.37,1.53.77-.07,2.7-1.14A31,31,0,0,1,75.88,211a10,10,0,0,1,1.14-.25,4.67,4.67,0,0,1,.29,1.81c0,1.26.92,1.44,1.27,1.09a6.36,6.36,0,0,0,.72-3.69,26.16,26.16,0,0,1,0-3.44,22,22,0,0,0-2.31-1A14.12,14.12,0,0,0,75.43,206.49Z"/><path class="cls-3" d="M72.14,209.71c.26-.11-4.24,3.12-4.24,3.12l-1.28.52A30.61,30.61,0,0,1,72.14,209.71Z"/><path class="cls-3" d="M70.08,209.83,64.9,212.7l-.47-.27A44.67,44.67,0,0,1,70.08,209.83Z"/><path class="cls-3" d="M65.35,210.89l3.32-1.43-3.55,1.16S65.08,210.72,65.35,210.89Z"/><path class="cls-5" d="M127,150.52c-3.79-6.39-12.71-6.11-12.71-6.11a12.92,12.92,0,0,1,0,6.82,29.44,29.44,0,0,0-.78,7.87l1.23-1.25a20.86,20.86,0,0,1,11.7,8.62S130.76,156.92,127,150.52Z"/><path class="cls-2" d="M114.22,156.54l0-5.31a29.44,29.44,0,0,0-.78,7.87l1.23-1.25,3-2.41A18,18,0,0,0,114.22,156.54Z"/></g></g></svg>