<svg xmlns="http://www.w3.org/2000/svg" viewBox="0 0 189.33 259.16"><defs><style>.cls-1{fill:none;}.cls-2{fill:#ebebeb;}.cls-3{fill:#ffa966;}.cls-4{fill:#ff6f00;}.cls-5{fill:#382c28;}.cls-6{fill:#dedede;}.cls-7{fill:#4673b6;}.cls-8{fill:#544741;}.cls-9{fill:#423834;opacity:0.45;}.cls-10{fill:#ededed;}</style></defs><title>challenge-stretching-3</title><g id="Capa_2" data-name="Capa 2"><g id="Capa_1-2" data-name="Capa 1"><polygon class="cls-1" points="189.33 18.92 189.33 0 0 0 0 18.92 0 240.24 0 259.16 189.33 259.16 189.33 240.24 189.33 18.92"/><path class="cls-2" d="M67.75,102.48l.44.69s1.55,1,1.71,4.25.9,5.59,0,6.66-3.09,5-3.25,4.84a3.39,3.39,0,0,1-1.28-1.17c-.58-.9-1.06-3.8-.85-6.47a33.07,33.07,0,0,0-.18-5.75l1-3.32Z"/><path class="cls-3" d="M74.92,131.57l3.25-.49,3.27-2.81s-5.46-7-5.74-8.76,1.2-5.47-.43-9a6.73,6.73,0,0,0-5.43-3.76A10.82,10.82,0,0,1,67,111.28l1.5,11.21Z"/><path class="cls-2" d="M112.42,144.09a81.53,81.53,0,0,1-4.51,15.22c-2.91,6.6-4.19,8.8-4.19,8.8s-.42,6.1-2.2,9.94c0,0-.07,10.21-2.9,18.3A148.29,148.29,0,0,0,94,213.1a5.38,5.38,0,0,0-2.34,1.77,18.71,18.71,0,0,0-1,2.27s-1.92.71-2.41.36l-.5-.36a69.71,69.71,0,0,0,1.13-11.56c0-5.75-1.2-14.12-.21-19.09a52.42,52.42,0,0,1,2.63-8.87A89.84,89.84,0,0,1,92.09,164c1-7.38,3.76-19.4,3.76-19.4l.28-.93s4.69-4.08,7-3.62S112.42,144.09,112.42,144.09Z"/><path class="cls-2" d="M93.58,142.57l2.27,2s-3.41,13.58-6.32,21.74-2.69,10.88-8,12.46-7.6-1.46-8.59-4.59-4.12-8.51-4.54-18.16-.64-20.86-1.14-23a14,14,0,0,1,0-4.79s1.64.82,1.85,1.74-.07,2.41.57,3.26,4.39,1.63,4.39,1.63l2.42,10.72.85-6.53s8.37-1.42,9.15-.85S93.58,142.57,93.58,142.57Z"/><path class="cls-4" d="M112.42,118.87l1.87,1.17a157.87,157.87,0,0,1-.94,16.5l-.93,7.55s-9.69,1.39-16.29-.42l-.28.93a38.43,38.43,0,0,1-11.14-2.39c-6.17-2.27-7.38-3.12-7.38-3.12s.92-8.66.92-8.87A44.25,44.25,0,0,1,79.46,120c1.35-6.1,4.54-8.06,4.54-8.06s18.59.54,20.43,1.75Z"/><path class="cls-2" d="M115.93,101.77a92.85,92.85,0,0,0-1.6,11c-.21,4.37,0,7.24,0,7.24a24.64,24.64,0,0,1-15,1.17c-8.09-2-15.33-9.27-15.33-9.27s3-7.71,2.27-14.5S106,93.54,106,93.75,115.93,101.77,115.93,101.77Z"/><path class="cls-2" d="M116,66l5.11,2.41s4,1.91,5,5.68-.43,11.14-.43,11.14-.28,9.5-.85,14.19l-.57,4.68a44.66,44.66,0,0,1,2.63,13.27c.28,7.38,1.27,15.89,1.27,15.89s-3,.36-3,0-6.53-16.46-7.87-20.79-1.28-16.25-1.28-16.25-3.19-22.7-3.27-23.06S116,66,116,66Z"/><path class="cls-5" d="M97.25,37.06a11.57,11.57,0,0,0-5.13,5.47c-1.45,3.67.07,7.2.49,11.57a36,36,0,0,1-.28,8.38S98,63.72,99,62.82s5.81-9.56,5.81-9.56Z"/><path class="cls-6" d="M123.66,81.05c.07-.07-2.2,4.75-2.2,4.75l-1.06-2.37S121.46,83.25,123.66,81.05Z"/><path class="cls-2" d="M95.84,63.05l-1.55-1.94s-6.81,2.48-7.17,2.55a33.25,33.25,0,0,0-8,1.92A13.75,13.75,0,0,0,75,68s-9.16,4.54-12.49,6.67a9.57,9.57,0,0,0-4.33,5.47c-.21.71.85,9.22,2.77,14.61s3.4,10.79,3.4,10.79,3.34-2.63,3.41-3-.43-8.66-.5-11.71a36.71,36.71,0,0,0-1.2-7.17A78.14,78.14,0,0,0,76.55,80c4.54-2,5.32-2.34,5.6-2.34S84.85,84,84.85,84l5.82,1.91s3.55-4.61,3.9-6.31,3.23-9.86,3.32-11.92S95.84,63.05,95.84,63.05Z"/><path class="cls-6" d="M87.55,75.87a48.33,48.33,0,0,0-5.4,1.77l1.39,3L84.85,84h2.91s-2.63-4.33-2.48-5.18S87.55,75.87,87.55,75.87Z"/><path class="cls-4" d="M110.54,66l3.76-.71L116,66s4,8.72,5.11,13.55,2.34,10.93.78,14.4a10,10,0,0,1-4.83,4.83l-1.13,3A114.43,114.43,0,0,0,102,100.7c-8.66-.21-15.82-3-15.75-3.26S84.85,84,84.85,84a11.89,11.89,0,0,0,7.73-7.66c2-6.18,1.71-15.19,1.71-15.19l1.1-.78,11.74,5.25Z"/><path class="cls-7" d="M96.42,36a6.65,6.65,0,0,0-1.67,3.49,9.76,9.76,0,0,0,1,4.67s.78-2,1.26-3S96.42,36,96.42,36Z"/><path class="cls-2" d="M110.54,55.79s-.29,5.89,0,6.17,3.76,3.34,3.76,3.34,3,6.17,2.27,11.07-7,7.66-12.92,4.4-8.26-20.44-8.26-20.44,3-.85,3.94-3.19.56-10,.56-10a11.45,11.45,0,0,1,4,1.37C105,49.4,110.54,55.79,110.54,55.79Z"/><path class="cls-6" d="M103.16,52.24S101,49.09,100.94,50a12.37,12.37,0,0,0,2.86,7c2.41,3.12,6.61,3.26,6.61,3s.13-4.33.13-4.33Z"/><path class="cls-8" d="M116.52,40.32c.2.19,1.76,2.31,1.76,2.31a20,20,0,0,0,.27-8.11c-.82-4-4-7.09-10.36-7.18s-10,4.36-11.59,7.55-.86,9.28-.72,10.24,3.37,3.72,3.37,3.72l12-2.63Z"/><path class="cls-8" d="M105.3,40.11c-2.18-1.74-4.69-8.15-4.69-8.15a39.19,39.19,0,0,0,1.57,12.37l-.52,1.56a19.56,19.56,0,0,1-3.49-7.27,24.47,24.47,0,0,1-.64-5.34,14.59,14.59,0,0,0-.93,1.61c-1.6,3.19-.73,8.26-.82,9.22-.23,2.68,5.27,6.23,5.27,6.23l1.69-5.85,10.81-1A17.06,17.06,0,0,1,105.3,40.11Z"/><path class="cls-9" d="M105.3,40.11c-2.18-1.74-4.69-8.15-4.69-8.15a39.19,39.19,0,0,0,1.57,12.37l-.52,1.56a19.56,19.56,0,0,1-3.49-7.27,24.47,24.47,0,0,1-.64-5.34,14.59,14.59,0,0,0-.93,1.61c-1.6,3.19-.73,8.26-.82,9.22-.23,2.68,3.92,5.77,3.92,5.77l3-5.39,10.81-1A17.06,17.06,0,0,1,105.3,40.11Z"/><path class="cls-2" d="M101.1,44.44a3.51,3.51,0,0,0-2.23-.77c-1.12.12-.91,2.13-.37,4.39a2.78,2.78,0,0,0,2.55,2.28s.65,1.83,1.15,2.91,4.86,4.89,6,5.26a8.39,8.39,0,0,0,3.68.31c1-.2,4.52-3.78,5.67-6.84s.67-6.92.69-8.32.39-4-.2-6.14-2.57-3.71-6.09-4a8.08,8.08,0,0,0-8,3.87C102.36,40.08,102.27,44.13,101.1,44.44Z"/><path d="M101.31,136l-3.55,2.34-1.63,5.36,2.13.46s.07-4.26.46-4.9S101.31,136,101.31,136Z"/><path class="cls-6" d="M74.06,166.48A33.71,33.71,0,0,0,75.7,156.4a106.46,106.46,0,0,1,.78-10.78l-.93-4.12s-.63,6.11-.7,10.65S74.06,166.48,74.06,166.48Z"/><path class="cls-4" d="M74.06,134.9l4.11-3.82a5.73,5.73,0,0,1-5-4.05c-1.13-3.83-2.27-8.3-3.69-9.94S67,111.28,67,111.28s-.84.56-.91,1.06.14,6.46,0,9.08-.92,6.81-.71,7.52S67,130.51,67,130.51s1.64,6.1,1.86,6.17,3.61.64,3.61.64Z"/><path class="cls-10" d="M67.67,137.75a36,36,0,0,0-.42-4.69,14,14,0,0,1,0-4.79s1.64.82,1.85,1.74-.07,2.41.57,3.26,4.39,1.63,4.39,1.63l.55,2.44C73.31,137.38,70.29,137.51,67.67,137.75Z"/><path class="cls-2" d="M127.42,131.32l.71,2s2.91,4.76,3.05,7.24-3.79,9.44-4.4,9.54a.88.88,0,0,1-.88-.28,1.63,1.63,0,0,1-.92.57c-.5,0-.43-1-.43-1a.9.9,0,0,1-.36-.68c0-.42,1.5-3.3,1.6-4.47s.89-2.73-.42-4.61-.29-6.28-.29-6.28l1.35-1Z"/><path class="cls-6" d="M129.3,139s-.39,2-.53,3.26-.07,3.84-.28,4a1.29,1.29,0,0,1-1.63-1.06c-.32-1.17-.74-3.34-.74-3.34l-.16,1.29s.51,2.62.61,2.94l.11.31s-1.14,3.09-.78,3.34l1.2-2.63s1.58.17,1.91-.48a16.86,16.86,0,0,0,.29-4.16C129.27,142.21,129.3,139,129.3,139Z"/><path class="cls-4" d="M94,213.1a4.94,4.94,0,0,1,2.34,2.62,18.88,18.88,0,0,0,4.58,6.18c1.6,1.27,6,4.47,6.71,6.28s-3.48,4.47-7.54,3.4-6.83-3.51-9.71-4.15-5.64-.64-6.38-3.09,1.7-8.62,1.91-8.94a39.49,39.49,0,0,1,3.41-2.3Z"/><path class="cls-10" d="M94.62,210.32c-.4,1.72-.62,2.78-.62,2.78a5.38,5.38,0,0,0-2.34,1.77,18.71,18.71,0,0,0-1,2.27s-1.92.71-2.41.36l-.5-.36a70.91,70.91,0,0,0,1-7.43A44.78,44.78,0,0,0,94.62,210.32Z"/></g></g></svg>