<svg xmlns="http://www.w3.org/2000/svg" viewBox="0 0 189.33 259.16"><defs><style>.cls-1{fill:#ff6f00;}.cls-2{fill:#ebebeb;}.cls-3{fill:#dedede;}.cls-4{fill:#af4802;}.cls-5{fill:#4673b6;}.cls-6{fill:#544741;}.cls-7{fill:#d85b07;}.cls-8{fill:none;}</style></defs><title>challenge-jumping-jack-2</title><g id="Capa_2" data-name="Capa 2"><g id="Capa_1-2" data-name="Capa 1"><path class="cls-1" d="M81.35,201.67l-3,.75a4.86,4.86,0,0,0-2.22,2.26c-1.12,1.9-6,4.69-7.47,5.91s-1.23,3.79-.78,4.68,6,1.34,7.69,0a14.34,14.34,0,0,1,6.8-2.67c3.12-.56,4.57-.49,5-3.7s-1.42-7.62-3.11-8.48S81.35,201.67,81.35,201.67Z"/><path class="cls-1" d="M113.56,210.48l-1.26,2s-.63.61-1.52,3.67-5.69,6.85-6.25,9.19,2.68,4.57,7,3.68,5.57-4.35,6.8-5.13,3.45-2.37,3.45-4-1.88-9.18-4.23-10.66S113.56,210.48,113.56,210.48Z"/><path class="cls-2" d="M79.38,141.4a165.24,165.24,0,0,0-2.23,19.25c-.3,8.4.67,11.82.67,11.82A47.29,47.29,0,0,0,78.23,185c1.15,7.43,1.67,12.63,1.15,14.71a7.07,7.07,0,0,1-1,2.68,6.41,6.41,0,0,1,2.24,1.63c1.18,1.27,3.49,1.41,4.38.52s-.45-3.12,1.11-8.17,2.75-12,2.09-17.91-1.34-6.69-.82-9,9-19.92,9-21.85-3-7.36-4.9-7.66-6.32-1.36-6.69-1.24S79.38,141.4,79.38,141.4Z"/><path class="cls-2" d="M97.82,146.61s3.11,20.57,4.52,25.33,3.86,5.58,4.61,9.67,4.75,13.3,5.35,21,0,9.81,0,9.81a5.7,5.7,0,0,1,2.75,1.34c1.41,1.19,2.75,2.15,3.34.89s.67-4.38,1.12-7,1.71-15.16,0-23.26-4.61-6.31-6.39-12.93,1.22-24.67,1.22-24.67S109.85,141,107,141.4s-7.58.52-7.81,1.27S97.82,146.61,97.82,146.61Z"/><path class="cls-3" d="M81.68,99.61,83,109s.22,13.82,1.78,18.95,7.47-14.72,7.47-14.72-6-14.15-6.58-14.82S81.68,99.61,81.68,99.61Z"/><path class="cls-1" d="M84.52,123.2l-5.14,18.2s11.89.15,16.94,6.25l.86-3.16.64,2.12a28.77,28.77,0,0,1,16.52.22,62.5,62.5,0,0,0,.78-12.71A31.93,31.93,0,0,0,112,122.56s-.4-3.3-8.42-2.93-13.6,1-14.79,1.56S84.52,123.2,84.52,123.2Z"/><path class="cls-2" d="M83.69,106.69s1.67,6.7,1.67,9.82a34.46,34.46,0,0,1-.84,6.69,43,43,0,0,0,12.63,1.89c6.6-.11,14.8-2.53,14.8-2.53s-3-8.43-3.07-15.94-12.77-8.73-12.77-8.73-3.39-1.67-5.4,0S83.69,106.69,83.69,106.69Z"/><path class="cls-2" d="M91.27,87.11a14,14,0,0,0-1.9-5.94l-.11-.93s-5.41,1.52-6.91,4.27c-2,3.68,0,9.48,0,9.48l6.91-2.68A4.52,4.52,0,0,0,91.27,87.11Z"/><path class="cls-4" d="M99.12,59.67c.37-.31,4-6,4-6s4.89.34,5.78,6.81-.74,9.22-1.11,12.34a43.71,43.71,0,0,0,0,7.43s-6.46,1.26-8-1.6-4-10.72-4-10.72Z"/><path class="cls-1" d="M100.88,78.59c.09-.17,4.07-1.84,4.07-1.84l1.11.85L110,94.14l-1.11,12.48s-2.38.15-11.07,0-14,.73-14.12.07-.37-4.15-.37-4.15A10.7,10.7,0,0,1,81,95.33c.15-4.54,3.12-7.88,4.39-9.81s3.86-5.28,3.86-5.28L92,79Z"/><path class="cls-5" d="M101.67,53.16a3.09,3.09,0,0,1,2.43,1.49c1.09,1.54.81,5,.81,5s-.06,1-1.06,0S101.67,53.16,101.67,53.16Z"/><path class="cls-2" d="M93.42,71.32v6.54L91.34,79.5s-4.68,6.69-4,10.4,6.84,3.35,10.11-.44S105,76.75,105,76.75a18.1,18.1,0,0,1-2.31-4.39c-.82-2.38-.67-6.91-.67-6.91s-4.16,1.7-4.91,2.07A33.62,33.62,0,0,0,93.42,71.32Z"/><path class="cls-3" d="M98.62,68.8c.45-.15,2.26-.88,2.26-.88a21.54,21.54,0,0,1-2.26,5.63,7.82,7.82,0,0,1-4.31,2.83l-.52,3.86-.37-2.38V71.32Z"/><path class="cls-1" d="M88.43,60.41c-.16.15-1.34,1.87-1.34,1.87a15.86,15.86,0,0,1-.42-6.4c.56-3.17,3-5.69,8-5.92A10.1,10.1,0,0,1,104,55.63c1.34,2.47.91,7.29.82,8s-2.56,3-2.56,3l-9.54-1.76Z"/><path class="cls-6" d="M97.27,60c1.67-1.43,3.49-6.54,3.49-6.54a31.07,31.07,0,0,1-.92,9.79l.44,1.22a15.55,15.55,0,0,0,2.57-5.82,19.57,19.57,0,0,0,.37-4.23,13.91,13.91,0,0,1,.78,1.25c1.34,2.47.78,6.49.87,7.24.25,2.11-4,5.05-4,5.05L99.4,63.34l-8.55-.53A13.59,13.59,0,0,0,97.27,60Z"/><path class="cls-7" d="M97.27,60c1.67-1.43,3.49-6.54,3.49-6.54a31.07,31.07,0,0,1-.92,9.79l.44,1.22a15.55,15.55,0,0,0,2.57-5.82,19.57,19.57,0,0,0,.37-4.23,13.91,13.91,0,0,1,.78,1.25c1.34,2.47.78,6.49.87,7.24.25,2.11-2.94,4.65-2.94,4.65L99.4,63.34l-8.55-.53A13.59,13.59,0,0,0,97.27,60Z"/><path class="cls-2" d="M100.69,63.27a2.77,2.77,0,0,1,1.73-.67c.89.07.78,1.66.41,3.46a2.18,2.18,0,0,1-2,1.86s-.47,1.46-.84,2.32a17.73,17.73,0,0,1-4.59,4.3,6.67,6.67,0,0,1-2.89.34c-.81-.13-3.67-2.87-4.64-5.25s-.71-5.44-.76-6.54a16.33,16.33,0,0,1,0-4.85c.41-1.72,1.93-3,4.7-3.31a6.36,6.36,0,0,1,6.37,2.85C99.58,59.86,99.76,63.06,100.69,63.27Z"/><path class="cls-2" d="M106.06,77.6s-3,6.13-2.46,11.34a6.11,6.11,0,0,0,5.28,5.64l1.56,15.09s-.52,2.82.89,9.66a73.31,73.31,0,0,1,1.56,10.78H116s.67-8.92,1.12-13.16-.37-7.28-.37-10.92.07-14.79.07-14.79,1-5-1.26-8.1S106.06,77.6,106.06,77.6Z"/><path class="cls-3" d="M106.65,89.83a19.94,19.94,0,0,1,1.49,1.63,26.41,26.41,0,0,1,.74,3.12l-1.69-.49.06-1.88Z"/><path class="cls-2" d="M112.89,130.11a15.48,15.48,0,0,0-1.89,3.34c-.37,1.26,0,4.2,0,6.28s1,2,1.41,1.15a11.87,11.87,0,0,0,.48-2.86,11.82,11.82,0,0,1,1,3.43c.11,1.55-1,3.45-.75,3.78a.73.73,0,0,0,.56.34s0,.83.73.69a1.38,1.38,0,0,0,.94-.51,1.06,1.06,0,0,0,.82-.22,13.88,13.88,0,0,0,1.06-2.16s.43,0,.61-.67a13.27,13.27,0,0,0,0-5.72c-.59-2.38-1.86-6.87-1.86-6.87s-1.3-1.59-1.59-1.33S112.89,130.11,112.89,130.11Z"/><path class="cls-3" d="M115.44,137.91a16.87,16.87,0,0,1,0,4.51,10.41,10.41,0,0,1-1.73,3.15l.12.46a8.22,8.22,0,0,0,2.09-3.17C116.44,141.13,115.44,137.91,115.44,137.91Z"/><path class="cls-3" d="M116.31,138.26a14.67,14.67,0,0,1,.37,4.31,12.27,12.27,0,0,1-1.3,3.18l.47,0a7.71,7.71,0,0,0,1.2-3.13A10.89,10.89,0,0,0,116.31,138.26Z"/><path class="cls-3" d="M117.26,143.37a6.78,6.78,0,0,0,.29-1.89,21.55,21.55,0,0,0-.29-2.73,9.7,9.7,0,0,1,.41,4.38S117.64,143.31,117.26,143.37Z"/><path class="cls-7" d="M97.18,144.49v-7l-2.64-1.16s1.78,1.46,1.78,3-1.78,6.62-1.78,6.62l1.78,1.72Z"/><path class="cls-2" d="M85.28,200.52c-2.23-.2-4.38-.51-5.91-.75a7.05,7.05,0,0,1-1,2.65,6.41,6.41,0,0,1,2.24,1.63c1.18,1.27,3.49,1.41,4.38.52C85.55,204,85.14,202.77,85.28,200.52Z"/><path class="cls-2" d="M112.56,208.86a15.82,15.82,0,0,1-.26,3.59,5.7,5.7,0,0,1,2.75,1.34c1.41,1.19,2.75,2.15,3.34.89.5-1.06.63-3.42.93-5.69A21.13,21.13,0,0,1,112.56,208.86Z"/><polygon class="cls-8" points="189.33 18.92 189.33 0 0 0 0 18.92 0 240.24 0 259.16 189.33 259.16 189.33 240.24 189.33 18.92"/></g></g></svg>