<svg xmlns="http://www.w3.org/2000/svg" viewBox="0 0 189.33 259.16"><defs><style>.cls-1{fill:none;}.cls-2{fill:#dedede;}.cls-3{fill:#ff6f00;}.cls-4{fill:#eaeaea;}</style></defs><title>Recurso 2</title><g id="Capa_2" data-name="Capa 2"><g id="Capa_1-2" data-name="Capa 1"><polygon class="cls-1" points="189.33 18.92 189.33 0 0 0 0 18.92 0 240.24 0 259.16 189.33 259.16 189.33 240.24 189.33 18.92"/><path class="cls-2" d="M115.17,135.76a23.07,23.07,0,0,0,.69,3.9,11.9,11.9,0,0,0,1.33,2.32,34.15,34.15,0,0,1,3.23,7.26c2.09-2.8,3.93-4.65,2.79-8.54-1.08-3.69-2.58-6.74-1-10.6a2.59,2.59,0,0,1,1,2.12c.08,1.17.37,4.23,2,2.61.88-.91.3-2.33.42-3.39a40.41,40.41,0,0,1,1.58-5.87,4.28,4.28,0,0,1,1,2.72l1.37-2.87c.2-.42.49-.9.95-.92.7,0,.93.92.85,1.61s-.13,1.58.5,1.86a5,5,0,0,1,.55.17,1.24,1.24,0,0,1,.48.84c1.23,5.22-.54,9.66-3.1,14.1-3.1,5.35-5.27,11.83-7.87,17.53a2.19,2.19,0,0,1-.58.88,1.68,1.68,0,0,1-1.57.18,5.59,5.59,0,0,1-2.61-2.46,99,99,0,0,1-10-19.53c-.73-1.92-1.41-4-1-6a4.84,4.84,0,0,1,4.77-3.65C113.28,130.24,114.76,133.67,115.17,135.76Z"/><path class="cls-2" d="M112.21,136.44c-.81,2.43-2.63,4.37-4.4,6.23-.55.42-1.1.85-1.63,1.29-3.21,2.64-6.08,5.63-9.14,8.44a56.77,56.77,0,0,1-5.2,4.27c-.62.43-1.31,1.1-1,1.81a1.6,1.6,0,0,0,.55.67c.34.29.68.58,1,.86-10.8,1.51-22.57.1-29.74-8,1.07-.85,2.18-1.64,3.29-2.43a38.85,38.85,0,0,0,8-7.07A16.27,16.27,0,0,0,76.47,138a2.25,2.25,0,0,1,.08-.24c.59-1.72.84-3.56,1.56-5.23,1.25-2.93,3.79-5,6.49-6.53a18.56,18.56,0,0,1,4-1.45c.65-.19,1.3-.38,1.92-.62a7.33,7.33,0,0,0,2.59-1.52c1.66-1.62,2.88-5.08,3.82-7.17a24.75,24.75,0,0,0,8,6.34c-.37,1-1.52,1.66-1.88,2.71a2.85,2.85,0,0,0,1.41,3.11,4.8,4.8,0,0,0,1.17.6c.22.08.45.15.68.21a13.72,13.72,0,0,1,4.08,1.3C112.52,130.94,113,134,112.21,136.44Z"/><path class="cls-3" d="M69.09,215.84l-.23.46a1.39,1.39,0,0,0-1.47,1,8.8,8.8,0,0,0,0,1.92c0,2.26-1.7,4.5-.93,6.62,2,.34,4.3.67,6,1.83,1.33.92,2.33,2.28,3.76,3a8.24,8.24,0,0,0,6.25.1c.85-.27,5-1.25,5.34-2.07.49-1.33-2.16-2.37-3-3a12.86,12.86,0,0,1-3.28-3.58c-1.29-1.9-3.5-3.17-4.25-5.34A4,4,0,0,1,77,216,16.62,16.62,0,0,1,69.09,215.84Z"/><path class="cls-2" d="M80.12,204.53,88,187.73a20.08,20.08,0,0,0,.77-1.88,19.52,19.52,0,0,1-11.47-1c-2.79,5-5.48,11.11-5.89,16.75-.18,2.42,0,4.86-.24,7.27a20,20,0,0,1-2,7A16.62,16.62,0,0,0,77,216C76.5,212.56,78.82,207.34,80.12,204.53Z"/><path class="cls-3" d="M113.3,220.33c-2.75.08-5.3-1.71-6.92-3.94-1.5-2.07-2.61-4.44-4.26-6.38a16.37,16.37,0,0,1-8.33,1.12.3.3,0,0,0,0,.08c-.48-.06-1,.67-1.19,1.13a4.55,4.55,0,0,0-.14,1.43,8.61,8.61,0,0,1-.8,3.5,5.11,5.11,0,0,0-.6,1.59,1.29,1.29,0,0,0,.75,1.38c2.79.84,5.66.5,8.25,1.84.88.45,1.72,1,2.61,1.46a10.73,10.73,0,0,0,11.06-1.18A6,6,0,0,0,113.3,220.33Z"/><path class="cls-2" d="M102.12,210c-.13-.15-.25-.3-.39-.44,1.2-8.56,5.63-15.83,9-23.76a20.65,20.65,0,0,0,1.07-3,23.3,23.3,0,0,1-10.92.36,23.44,23.44,0,0,0-5.1,12.64c-.55,5.19.6,10.86-2,15.35A16.37,16.37,0,0,0,102.12,210Z"/><path class="cls-3" d="M111.85,182.78c1.22-4.73-.57-7.46-4.65-11.32-4.56-4.3-10-7.49-14.83-11.45-10.8,1.51-22.57.1-29.73-8a20.62,20.62,0,0,0-3.26,3.14,15.42,15.42,0,0,0-2.53,14.33,15.71,15.71,0,0,0,10.64,9.95c3.73,1,7.63,1.54,10,5l-.26.45a19.52,19.52,0,0,0,11.47,1,17.14,17.14,0,0,0,.81-9,24.73,24.73,0,0,1,12.13,4.81c.21.16.34.58.08.57-.29.3-.56.61-.83.93A23.3,23.3,0,0,0,111.85,182.78Z"/><path class="cls-2" d="M111.17,114.29a27.75,27.75,0,0,0,.2,3.15,3.21,3.21,0,0,1-1.11,2.81c-1.62,1.09-1.54,3.82-3.26,4.74-1.57.82-3.39-.42-4.72-1.59-1.78-1.56-3.65-3.26-4.29-5.55-.25-.91-.53-2.12-1.48-2.21a2.2,2.2,0,0,1-1.68-1.86,3.16,3.16,0,0,1,1.59-3.55c1.29-.55,3.08.5,2.92,1.89.83-2.43,1.72-5,3.58-6.75a6.58,6.58,0,0,1,6.36-1.35C113.79,105.61,111.47,111.13,111.17,114.29Z"/><path class="cls-3" d="M97.82,99c4.25-1.56,10.05-.28,12.84,3.46s-1.84,2.2-3.82,3.23-2.15,3.62-3.84,4.84c-.91.66-2.24.93-2.65,2-.17.45-.13,1-.29,1.43s-.7.87-1.11.61c.24-1.12-.15-2.74-1.29-2.63-.73.07-1.16.92-1.13,1.66a17.72,17.72,0,0,0,.48,2.16,4.11,4.11,0,0,1-3.27,4.58c-2.66-1.72-4-5-4.23-8.12C89.19,106.63,92.6,100.91,97.82,99Z"/><path class="cls-3" d="M106.73,141.4a24.81,24.81,0,0,1-.55,2.56,13.51,13.51,0,0,1-3,5.8A8.36,8.36,0,0,1,97,152.4a5.91,5.91,0,0,1-2.29-.54,11.61,11.61,0,0,0-3-1.35c-1.24-.17-2.42.46-3.63.78-3,.82-6.29-.33-8.75-2.27a26.77,26.77,0,0,1-5.48-6.49A16.27,16.27,0,0,0,76.47,138l.7.32a17.58,17.58,0,0,0,8.68,1.74,5,5,0,0,0,3.48-1.28,4.88,4.88,0,0,0,1-2.1c1-3.87,1-8.26-1.39-11.64a5.36,5.36,0,0,1-.34-.49c.65-.19,1.3-.38,1.92-.62a2.3,2.3,0,0,1,.16.27,17.35,17.35,0,0,1,1.3,4.24A40.16,40.16,0,0,1,93,135.85c.11,3.51-.19,7.51,2.32,10a1.34,1.34,0,0,0,.65.41,1.54,1.54,0,0,0,1.2-.5l5.28-4.36c4.46-3.67,2.65-9.11,2-13.94a4.8,4.8,0,0,0,1.17.6c.22.08.45.15.68.21a25,25,0,0,1,.82,5.36A36.45,36.45,0,0,1,106.73,141.4Z"/><path class="cls-3" d="M94.57,106.89c.92-1.46,2.26-3.14,1.23-5s-3.62-1.51-5.06-.41-1.87,3-2,4.75,0,3.59-.67,5.23c-.5,1.27-1.42,2.33-1.9,3.6-.87,2.31-.15,4.89.59,7.25a7.12,7.12,0,0,1,2.42-5.72c.6-.51,1.37-1.18,1.08-1.91a11.13,11.13,0,0,1-.7,5.33c2.19-1.06,3.06-3.71,3.37-6.12S93.27,108.94,94.57,106.89Z"/><path class="cls-4" d="M90.47,133.28a12.21,12.21,0,0,1,0,5.25,28.59,28.59,0,0,0-.59,3.8c-.05,2.37.59,4.65.79,7,0,.35.34,5.47.2,5.54a43.7,43.7,0,0,0,11.38-8.16c3.64-3.61,2-6.85,3.13-11.26a16,16,0,0,1,3.91-7.21,1.57,1.57,0,0,1,1.13-.62c.66,0,1,.82,1.13,1.46.52,2.1,1.86,5.09,1.1,7.19-.36,1-1.07,1.84-1.44,2.82-.43,1.13-.6,2.34-1.13,3.47a36.62,36.62,0,0,1-4,6.27c-2.18,2.94-16.32,20.72-19.62,14a30.78,30.78,0,0,1-2-5.93c-1.26-4.87-2-9.78-3.39-14.6-1.11-3.93,0-15.9,6.71-12.94a4.31,4.31,0,0,1,1.81,1.78A7.92,7.92,0,0,1,90.47,133.28Z"/></g></g></svg>