<svg xmlns="http://www.w3.org/2000/svg" viewBox="0 0 189.33 259.16"><defs><style>.cls-1{fill:none;}.cls-2{fill:#ebebeb;}.cls-3{fill:#dedede;}.cls-4{fill:#ff6f00;}.cls-5{fill:#bf5300;}.cls-6{fill:#4673b6;}.cls-7{fill:#3c332d;opacity:0.56;}</style></defs><title>challenge-stretching-1</title><g id="Capa_2" data-name="Capa 2"><g id="Capa_1-2" data-name="Capa 1"><polygon class="cls-1" points="189.33 18.92 189.33 0 0 0 0 18.92 0 240.24 0 259.16 189.33 259.16 189.33 240.24 189.33 18.92"/><path class="cls-2" d="M48,217l1.49,3.53a224.61,224.61,0,0,0,23.13-.35c13-.85,17.81-1.91,22-1.63s8.46,1.77,17,1.54,21-.86,21-.86l-14.19-5.53s-16.53-4.7-17-4.77-8.78-2.73-9.06-2.89-22.22-6.57-23.91-6.72-7.39,1.78-8.26,1.91S48.81,209,47.54,211.68A5.81,5.81,0,0,0,48,217Z"/><path class="cls-3" d="M92.91,206.74a65.61,65.61,0,0,1,7.55,3.25c2,1.2,10.9,8.28,18.57,9.37s-17.51-10.44-17.51-10.44l-9.9-3.39Z"/><path class="cls-4" d="M47.9,193.93a27.45,27.45,0,0,0-4.81.85l-4,3.67a17.25,17.25,0,0,0-4.6,12.38c.28,7.71,4.74,9.41,9.41,9.69s5.59,0,5.59,0a132.06,132.06,0,0,0,8.7-10.11c2.54-3.61,2.33-11.53,2.33-11.53Z"/><path class="cls-3" d="M60.08,205.18c.06-.31,12.78-.21,17.88,0s-3.89-4.61-3.89-4.61L60.29,203Z"/><path class="cls-5" d="M44.21,195.92a22.62,22.62,0,0,0,3.9,4.09,16.87,16.87,0,0,0,5.59,3l-2.76,3.62s2.83-2.55,4.17-2.76,5.15.25,5.18-.08-6.87-7.67-7.79-7.83S44.21,195.92,44.21,195.92Z"/><path class="cls-3" d="M148.84,193a2.29,2.29,0,0,1,1.77-.63c.89.17.58,2,.28,2.83s-1.13,1.94-1.23,1.83l-1-.95Z"/><path class="cls-2" d="M64.52,180.34s-7.92,2.27-13.08,6.51a75,75,0,0,0-8.35,7.93,22.11,22.11,0,0,0,9.19,6.08,35.92,35.92,0,0,1,5,2.11c2.61,1.36,14.57,1.76,14.57,1.76v-11Z"/><path class="cls-2" d="M119.27,206.54a86.09,86.09,0,0,0,10.57.86A90.72,90.72,0,0,0,142.05,206v4l-6.41,2.73s-8.07,3-12.07,1.13-4.54-3-4.3-3.6A18.11,18.11,0,0,0,119.27,206.54Z"/><path class="cls-3" d="M121.47,209.35a86.61,86.61,0,0,0,10.61.35c5.09-.21,7.73-2.31,9-4.17s2.52-5.33,3.63-6,2.25,3.52,1.78,4.75,1.17,4.45-3.31,6-9.15,2.61-9.15,2.61l-8.34,1.46-4-1Z"/><path class="cls-4" d="M102.44,189.1l.85-1.68s-7.71-6.09-15.49-7.85-18.4-.85-23.28.77c0,0-.21,7.57,1.49,13.09a46.57,46.57,0,0,0,5.87,11.3H76a29.06,29.06,0,0,0,9.76,2.57c5.31.35,7.93-.12,9.62-2.57a58.83,58.83,0,0,1,4.81-5.7l4.67-2.47Z"/><path class="cls-2" d="M132.71,219.22c.15,0,9-.32,9.94,0s4.88,1.38,6.48.56.74-4.24.77-4.35,0-8.49.2-8.59a5.25,5.25,0,0,0,.92-2.34,31.49,31.49,0,0,0-.86-3.3s0-1.26,0-1.4.56-2.16-.25-2.37c0,0,.92-1.38-.07-2.23,0,0,.64-2-.21-2.48a.79.79,0,0,0-.84-.74c-.83,0-1.57,1.77-2.42,3.72s-2.3,5.19-3.07,6.93a27.72,27.72,0,0,1-3,4.67,16.52,16.52,0,0,1-5.91,3.44c-4,1.56-3.2,4.1-3.2,4.1Z"/><path class="cls-3" d="M106.88,187.37s-4.3.11-4.63,0-4.66-3.51-6-2.66S98,190.46,98,190.46l4,3.15,4.86,2.37s4.85,1.46,4.85-.24,1.93-2,.42-4.81S106.88,187.37,106.88,187.37Z"/><path class="cls-3" d="M150.56,202.56l-.51.41-2.69,3.36a55.09,55.09,0,0,1-9.07,2.52,22.7,22.7,0,0,1-3.88,1.89c-4,1.56-3.2,4.1-3.2,4.1l1.5,4.38c.15,0,9-.32,9.94,0s4.88,1.38,6.48.56.74-4.24.77-4.35,0-8.49.2-8.59a5.25,5.25,0,0,0,.92-2.34A16,16,0,0,0,150.56,202.56Z"/><path class="cls-6" d="M122.85,191.16l-.32-1.84a6.39,6.39,0,0,0-4.88-2.27C114.77,187.25,122.85,191.16,122.85,191.16Z"/><path class="cls-3" d="M107.06,193.41a22.38,22.38,0,0,0-5.23-.83,10.9,10.9,0,0,0-3.51,1l4.71,4.89,4.1-1.93Z"/><path class="cls-4" d="M114.12,206.51a11.25,11.25,0,0,0,.76,1.7s2.65,2.78,6.09-2.65,3.85-10.31,2.39-14-9.62-6.5-12.72-6.08-3.76,1.85-3.76,1.85l1.67,5.89s-2.63,5.83-2.26,6.25,3.27,3.09,3.76,3.41S114.12,206.51,114.12,206.51Z"/><path class="cls-7" d="M110.37,194.45a18.82,18.82,0,0,1,9.68-6.18c-3.08-1.87-7.36-3-9.41-2.75-3.1.41-3.76,1.85-3.76,1.85l1.67,5.89s-1.49,3.31-2.07,5.12A25,25,0,0,0,110.37,194.45Z"/><path class="cls-4" d="M115.94,204.73a11.84,11.84,0,0,0,2.58-4s-1.82,1.92-2.94,2-1-1.61-1-1.61a23.44,23.44,0,0,0,3.23-6.74s-3.51,4.19-5.89,4.68.56,3.93.75,3.91S115.94,204.73,115.94,204.73Z"/><path class="cls-3" d="M109.93,196.18s2.65.78,2.75-1.11-4.63-2.62-5.5-2l-.87.63s-5.28.63-6.73,1.3-3.3,5.2-3.34,5.91,5.28,3.25,5.28,3.25a11.29,11.29,0,0,0,.23,2.28c.17.15,3.72-.45,4.09-.46s3.64,1.74,4.77,2a16.31,16.31,0,0,0,4.27.17c.29-.11,1-2.9,1.06-3.48a8.07,8.07,0,0,0-.33-3.24c-.43-.75-3.45-2.14-4.59-3.16S109.65,196.89,109.93,196.18Z"/><path class="cls-4" d="M116,203.75a4.14,4.14,0,0,1-1.93-3.47c0-2.34-1.14-.68-1.14-.68a7.56,7.56,0,0,0,.75,3,7.76,7.76,0,0,0,2.3,2.09Z"/><path class="cls-4" d="M117.65,187.05a4.41,4.41,0,0,1,4.88-.76c2.9,1.27,3.46,9,1.91,14.78a49.43,49.43,0,0,0-1.59,11.18s-4-.92-4.78-6.79,3.76-14,3.4-15.71S119.75,187.08,117.65,187.05Z"/><path class="cls-2" d="M83.69,181a5.1,5.1,0,0,0-5.66,4.5c-.77,5.05,4.6,14.09,8.63,16.4s6.58,3,10.33,2.85a42.8,42.8,0,0,0,10.14,8.65c6.34,3.89,16,8.06,18.94,8.06s10-3,14.14-4.88,8.63-3.6,8.63-3.6l-1.62-5.56a29.62,29.62,0,0,1-9.48,2.73c-5.52.63-14.85.9-14.85.9l-12.53-9.15s-4.83-7.39-12.35-11.42C98,190.46,91.69,180.56,83.69,181Z"/><path class="cls-3" d="M92,201.2A10,10,0,0,1,93.54,203a3.93,3.93,0,0,1,.61,1.65,20.07,20.07,0,0,0,2.84.1C96.28,203.07,92,201.2,92,201.2Z"/><path class="cls-2" d="M150.21,211.78s-1.6,1.79-1.37,2.21a1.1,1.1,0,0,0,.68.52s-.51,1.37,0,1.51,2.06-1.7,2.06-1.7,1.46-1.6,1.37-2.07,0-1.18-.62-1.18A7.64,7.64,0,0,0,150.21,211.78Z"/><path class="cls-3" d="M149.69,212.92l1.73.25a7.68,7.68,0,0,1-1.9,1.34l-.18.63,2.19-1.45.05.63.23-1.51a3.42,3.42,0,0,0-.31-.56A8.81,8.81,0,0,0,149.69,212.92Z"/><path class="cls-3" d="M150,193.2a1.76,1.76,0,0,0-1,.47,25.22,25.22,0,0,0-1.67,2.12,4.11,4.11,0,0,1,2.3-3.07S149.94,192.77,150,193.2Z"/><path class="cls-3" d="M150.21,195.64s-.89.06-2.38,1.73a2.67,2.67,0,0,1,2-2.17Z"/><path class="cls-3" d="M150.27,197.73a2.32,2.32,0,0,0-1,.82,4.8,4.8,0,0,0-.84,1.46,2.27,2.27,0,0,1,1.54-2.58A.38.38,0,0,1,150.27,197.73Z"/><path class="cls-2" d="M147.22,207.4a9.23,9.23,0,0,0,1.91-1,15.87,15.87,0,0,0,1-5.2s1.56,0,2.36,2.23a4.54,4.54,0,0,1,2,2.55,7.9,7.9,0,0,1,0,4.38c-.23,1-1.79,3.59-2.92,4l.23-1.51-3,.15-1.62-2.17Z"/></g></g></svg>