<svg xmlns="http://www.w3.org/2000/svg" viewBox="0 0 651.98 324.66"><defs><style>.cls-1,.cls-5{fill:none;}.cls-1{stroke:#00a195;stroke-linejoin:round;}.cls-2{fill:#dedede;}.cls-3{fill:#ff6f00;}.cls-4{fill:#eaeaea;}.cls-5{stroke:#dedede;stroke-miterlimit:10;}.cls-6{fill:#33b4aa;}.cls-7{font-size:20px;fill:#fff;font-family:Montserrat-Medium, Montserrat;font-weight:500;}.cls-8{font-size:35.29px;letter-spacing:0em;}</style></defs><title>demo</title><g id="Capa_2" data-name="Capa 2"><g id="Capa_1-2" data-name="Capa 1"><polyline class="cls-1" points="651.98 65 628.5 65 628.5 83.92 628.5 305.24 628.5 324.16 651.98 324.16"/><polygon class="cls-1" points="608.5 83.92 608.5 65 419.16 65 419.16 83.92 419.16 305.24 419.16 324.16 608.5 324.16 608.5 305.24 608.5 83.92"/><polygon class="cls-1" points="399.16 83.92 399.16 65 209.83 65 209.83 83.92 209.83 305.24 209.83 324.16 399.16 324.16 399.16 305.24 399.16 83.92"/><polygon class="cls-1" points="189.83 83.92 189.83 65 0.5 65 0.5 83.92 0.5 305.24 0.5 324.16 189.83 324.16 189.83 305.24 189.83 83.92"/><path class="cls-2" d="M155.3,396.31a14.87,14.87,0,0,0,1,2.15,9.55,9.55,0,0,0,2.49,2.24,22.33,22.33,0,0,1,5.66,6.16c-.61-6.14,2.15-12.83-.8-18.25-.78-1.43-1.9-2.63-2.82-4a15.66,15.66,0,0,1-2.69-8.48l4,5.31c1.61-4.25-2.38-8.56-2.65-13.1a11,11,0,0,1,9.31,8.88c.59,3.5-.57,7.1-.12,10.62.53,4.15,2.25,7.82,2.46,12.2.12,2.52.13,5.05.26,7.57.12,2,1,4.68.2,6.64-2.78,7.06-13.32-4-16.27-5.66s-6.24-3.1-8.51-5.67c-2-2.3-3.57-7.68-1-10.12C148.84,390,153.92,393.28,155.3,396.31Z" transform="translate(-48.02 -262.03)"/><path class="cls-3" d="M153.29,406.15c-.42,3.78-1.86,7.52-2.83,11.26a10.38,10.38,0,0,1-7.46-1,9,9,0,0,0-2.09-1.13c-2-.58-4.66.86-7.06,1.9a15.78,15.78,0,0,1-7.12,1.58,6.69,6.69,0,0,1-3-.92l-.23-.54c-1.56-3.69-3.41-7.28-4.75-11-.12-.34-.24-.68-.35-1a13.28,13.28,0,0,0,3.38-.44c3-.76,6.08-2.66,6.87-5.68a7.91,7.91,0,0,0-1.25-6.11,20.43,20.43,0,0,0-3.48-3.9l.5-.36a7.42,7.42,0,0,0,1-1l.2-.22c3.42,1.88,5.44,5.8,6.56,9.62a3.56,3.56,0,0,0,.53,1.23,3.78,3.78,0,0,0,1.21.87,17.31,17.31,0,0,1,6.76,6.79,13.59,13.59,0,0,1,5.66-6.28,1.44,1.44,0,0,0,.66-.58,1.34,1.34,0,0,0,0-.86,48.24,48.24,0,0,0-2.71-7.34c.34,0,.67.08,1,.15a8.26,8.26,0,0,1,.86.2,32.93,32.93,0,0,1,1.34,3.76,16,16,0,0,0,1.4,3.89c.84,1.41,2.2,2.46,3.13,3.82A8.76,8.76,0,0,1,153.29,406.15Z" transform="translate(-48.02 -262.03)"/><path class="cls-2" d="M121.75,404.84a13.28,13.28,0,0,1-3.38.44c-.31-.95-.59-1.91-.81-2.89-.92-4-.65-8.88,2.7-11.24,1-.69,2.13-1.09,3.16-1.7a4.66,4.66,0,0,0,.47-.3,20.43,20.43,0,0,1,3.48,3.9,7.91,7.91,0,0,1,1.25,6.11C127.83,402.18,124.78,404.08,121.75,404.84Z" transform="translate(-48.02 -262.03)"/><path class="cls-2" d="M125.62,387.59c2.13-2.63,2.24-6.27,2.59-9.74.08-.85.26-1.85,1-2.24a2,2,0,0,1,1.4-.07c1.37.37,2.2,1.66,3.46,2.09,1.09.37,2.52,0,3.71.16a.92.92,0,0,1,1,1.17c-.19,2.89-1.83,7.07-.57,9.64a4.09,4.09,0,0,0,3.12,2.11c1,.19,2,.23,2.94.33a48.24,48.24,0,0,1,2.71,7.34,1.34,1.34,0,0,1,0,.86,1.44,1.44,0,0,1-.66.58,13.59,13.59,0,0,0-5.66,6.28,17.31,17.31,0,0,0-6.76-6.79,3.78,3.78,0,0,1-1.21-.87,3.56,3.56,0,0,1-.53-1.23C131.06,393.39,129,389.47,125.62,387.59Z" transform="translate(-48.02 -262.03)"/><path class="cls-2" d="M151.33,442.16c-9.39,2.78-19.4,2.9-28.17-2.14a32.18,32.18,0,0,0,2.16-4.11c2.2-5.45.89-11.69-1.27-17.15-.11-.29-.23-.58-.35-.87a6.69,6.69,0,0,0,3,.92,15.78,15.78,0,0,0,7.12-1.58c2.4-1,5-2.48,7.06-1.9a9,9,0,0,1,2.09,1.13,10.38,10.38,0,0,0,7.46,1h0a.65.65,0,0,0,0,.13C148.2,426.22,149.63,434.13,151.33,442.16Z" transform="translate(-48.02 -262.03)"/><path class="cls-2" d="M153.29,406.15a8.76,8.76,0,0,0-1.3-3.29c-.93-1.36-2.29-2.41-3.13-3.82a16,16,0,0,1-1.4-3.89,32.93,32.93,0,0,0-1.34-3.76,7.78,7.78,0,0,1,1.3.5c3.49,1.68,5.16,5.62,5.82,9.84A16.36,16.36,0,0,1,153.29,406.15Z" transform="translate(-48.02 -262.03)"/><path class="cls-3" d="M148.7,503.74l.07-2.6c.2-7.52,2.64-14.25,4.28-21.47,1.74-7.62,1.62-15.56.82-23.3a134.57,134.57,0,0,0-2.54-14.21c-9.39,2.78-19.4,2.9-28.17-2.14a29,29,0,0,0-1.54,2.92,29.39,29.39,0,0,0-2,8.36,140.51,140.51,0,0,0-1,23c.25,6.14.45,11.3.64,17.45a21.23,21.23,0,0,1-.5,6.8,22.27,22.27,0,0,1-1.76,3.93c3.37,2.33,7.08,4.59,11.1,4.5a25.38,25.38,0,0,1,1.36-3.81,91.51,91.51,0,0,0,6.67-31.36c.92,8.57,1.93,17.24,1.4,25.85-.07,1.18-.17,2.36-.28,3.54A23.88,23.88,0,0,0,148.7,503.74Z" transform="translate(-48.02 -262.03)"/><path class="cls-2" d="M148.24,536a10.13,10.13,0,0,1-.28-3.26q.38-14.49.74-29a23.88,23.88,0,0,1-11.38-2.52c-.48,5.32-1.14,10.66-.32,15.92.57,3.63,1.84,7.11,2.52,10.72a33.85,33.85,0,0,1,.51,8.7A14.11,14.11,0,0,0,148.24,536Z" transform="translate(-48.02 -262.03)"/><path class="cls-3" d="M159.79,546.6l-9-7.46a8.28,8.28,0,0,1-2.3-2.53,4.54,4.54,0,0,1-.24-.61,14.11,14.11,0,0,1-8.21.56,34.26,34.26,0,0,1-1.69,8.51,39,39,0,0,0,18.06,7.54c2.27.34,5.38-.17,5.6-2.45C162.14,548.71,160.91,547.53,159.79,546.6Z" transform="translate(-48.02 -262.03)"/><path class="cls-2" d="M124.3,539.78c-1.55-9,2.81-18.64,3.39-27.82a31.19,31.19,0,0,1,.48-4.93v0c-4,.09-7.73-2.17-11.1-4.5-.35.69-.71,1.38-1,2.09-2.25,5.26-1.71,11.27-.67,16.9s2.54,11.28,2.08,17c-.06.69-.14,1.37-.24,2.06A15.2,15.2,0,0,0,124.3,539.78Z" transform="translate(-48.02 -262.03)"/><path class="cls-3" d="M137.34,553.08a69.51,69.51,0,0,1-11.16-10.59c-.59-.69-1.16-1.39-1.76-2.06,0-.21-.08-.43-.12-.65a15.2,15.2,0,0,1-7.07.75c-.69,4.57-2.21,9.07-1.75,13.65a28.5,28.5,0,0,0,10.33,4.09c3.69.56,7.44-.31,11.08-1.18.77-.19,1.66-.46,2-1.2C139.31,554.83,138.25,553.78,137.34,553.08Z" transform="translate(-48.02 -262.03)"/><path class="cls-2" d="M144.54,370.09c0,2.35-1.15,10.45-3.63,11.56a2.52,2.52,0,0,1-1.1.17,12.61,12.61,0,0,1-10.44-6.23,10.28,10.28,0,0,1-.87-1.87c-2.6,1-4.06-2.07-3.38-4.19.4-1.24,2.06-2.08,3-1.32l.14.11h0c.45-2.56.94-5.23,2.56-7.26,2.19-2.76,6.89-4.58,9.62-1.64a3.15,3.15,0,0,1,.43.55c1.25,1.92.37,4.24,1.83,6,.37.45.83.82,1.16,1.29A4.82,4.82,0,0,1,144.54,370.09Z" transform="translate(-48.02 -262.03)"/><path class="cls-3" d="M140.91,360a2,2,0,0,0-.06-.35c-.56-2.28-3-3.45-5.3-4.1a14.49,14.49,0,0,0-5.68-.69,10.35,10.35,0,0,0-8.38,7.91,13.65,13.65,0,0,0,3,11.46,6,6,0,0,0,2.21,1.85,2.71,2.71,0,0,0,2.75-.29l-.58.23a1.2,1.2,0,0,0,.55-.41,10.28,10.28,0,0,1-.87-1.87c-2.6,1-4.06-2.07-3.38-4.19.4-1.24,2.06-2.08,3-1.32l.08,0,.06.16h0l1.11,2.92a1.51,1.51,0,0,0,.68.94c.72.32,1.4-.58,1.52-1.37s.11-1.72.76-2.17c.33-.24.77-.28,1.11-.49,1.23-.75.46-2.71,1-4a3.39,3.39,0,0,1,2.5-1.69,11.25,11.25,0,0,0,3-.81,1.82,1.82,0,0,0,.76-.69A1.63,1.63,0,0,0,140.91,360Z" transform="translate(-48.02 -262.03)"/><path class="cls-3" d="M123.26,368.14c.84-2,3.65-3.31,1-5.23-1.24-.91-3.83-.72-5.07.07-2,1.29-2.4,4.06-2.18,6.44s.81,4.84,0,7.09a29.45,29.45,0,0,1-1.58,3.12,10.72,10.72,0,0,0,.78,10.6c-.63-2.28.59-4.64,2-6.57s3-3.8,3.41-6.14c0,1.71-.07,3.42-.1,5.12a7.16,7.16,0,0,0,2.21-5.78c0-2.14-.58-4.23-.75-6.36A5.09,5.09,0,0,1,123.26,368.14Z" transform="translate(-48.02 -262.03)"/><path class="cls-4" d="M120.62,390.32c.74-.27,5.21,2.72,6.69,7.43,5,4.21,6.69,7.19,6.69,7.19s4-7.93,5.7-12.64,3.72-4.21,2-9.17-1.24-11.65-1-14.12,2.72-4,4,0-.74,6.19,1.24,8.92,4.21,4.24,1.73,7.82-5.2,25.38-9.41,29.84-15.37-5.2-17.6-9.42S111.7,393.54,120.62,390.32Z" transform="translate(-48.02 -262.03)"/><path class="cls-2" d="M574,396.31a16,16,0,0,0,1,2.15,9.55,9.55,0,0,0,2.49,2.24,22.17,22.17,0,0,1,5.66,6.16c-.61-6.14,2.15-12.83-.8-18.25-.77-1.43-1.9-2.63-2.81-4a15.75,15.75,0,0,1-2.7-8.48l4,5.31c1.61-4.25-2.37-8.56-2.65-13.1a11.07,11.07,0,0,1,9.32,8.88c.59,3.5-.58,7.1-.13,10.62.53,4.15,2.25,7.82,2.46,12.2.12,2.52.13,5.05.27,7.57.11,2,1,4.68.19,6.64-2.78,7.06-13.31-4-16.26-5.66s-6.25-3.1-8.52-5.67c-2-2.3-3.57-7.68-1-10.12C567.5,390,572.58,393.28,574,396.31Z" transform="translate(-48.02 -262.03)"/><path class="cls-3" d="M572,406.15c-.42,3.78-1.86,7.52-2.83,11.26a10.38,10.38,0,0,1-7.46-1,9.11,9.11,0,0,0-2.08-1.13c-2.06-.58-4.67.86-7.07,1.9a15.74,15.74,0,0,1-7.11,1.58,6.65,6.65,0,0,1-3-.92l-.24-.54c-1.55-3.69-3.4-7.28-4.75-11-.12-.34-.23-.68-.34-1a13.27,13.27,0,0,0,3.37-.44c3-.76,6.08-2.66,6.87-5.68a7.91,7.91,0,0,0-1.25-6.11,19.78,19.78,0,0,0-3.48-3.9l.51-.36a8.74,8.74,0,0,0,1-1l.19-.22c3.42,1.88,5.45,5.8,6.57,9.62a3.54,3.54,0,0,0,.52,1.23,3.78,3.78,0,0,0,1.21.87,17.18,17.18,0,0,1,6.76,6.79,13.61,13.61,0,0,1,5.67-6.28,1.47,1.47,0,0,0,.65-.58,1.28,1.28,0,0,0,0-.86,48.24,48.24,0,0,0-2.71-7.34c.34,0,.67.08,1,.15a7.88,7.88,0,0,1,.87.2,32.88,32.88,0,0,1,1.33,3.76,16,16,0,0,0,1.4,3.89c.85,1.41,2.2,2.46,3.13,3.82A8.44,8.44,0,0,1,572,406.15Z" transform="translate(-48.02 -262.03)"/><path class="cls-2" d="M540.41,404.84a13.27,13.27,0,0,1-3.37.44,28.84,28.84,0,0,1-.82-2.89c-.92-4-.65-8.88,2.7-11.24,1-.69,2.13-1.09,3.16-1.7a4.66,4.66,0,0,0,.47-.3,19.78,19.78,0,0,1,3.48,3.9,7.91,7.91,0,0,1,1.25,6.11C546.49,402.18,543.44,404.08,540.41,404.84Z" transform="translate(-48.02 -262.03)"/><path class="cls-2" d="M544.28,387.59c2.13-2.63,2.24-6.27,2.59-9.74.09-.85.26-1.85,1-2.24a2,2,0,0,1,1.41-.07c1.36.37,2.19,1.66,3.45,2.09,1.09.37,2.53,0,3.71.16a1.21,1.21,0,0,1,.82.37,1.22,1.22,0,0,1,.15.8c-.2,2.89-1.84,7.07-.57,9.64a4.08,4.08,0,0,0,3.11,2.11c1,.19,2,.23,2.94.33a48.24,48.24,0,0,1,2.71,7.34,1.28,1.28,0,0,1,0,.86,1.47,1.47,0,0,1-.65.58,13.61,13.61,0,0,0-5.67,6.28,17.18,17.18,0,0,0-6.76-6.79,3.78,3.78,0,0,1-1.21-.87,3.54,3.54,0,0,1-.52-1.23C549.73,393.39,547.7,389.47,544.28,387.59Z" transform="translate(-48.02 -262.03)"/><path class="cls-2" d="M570,442.16c-9.39,2.78-19.4,2.9-28.16-2.14a32.18,32.18,0,0,0,2.16-4.11c2.19-5.45.89-11.69-1.28-17.15l-.34-.87a6.65,6.65,0,0,0,3,.92,15.74,15.74,0,0,0,7.11-1.58c2.4-1,5-2.48,7.07-1.9a9.11,9.11,0,0,1,2.08,1.13,10.38,10.38,0,0,0,7.46,1h0l0,.13C566.87,426.22,568.3,434.13,570,442.16Z" transform="translate(-48.02 -262.03)"/><path class="cls-2" d="M572,406.15a8.44,8.44,0,0,0-1.3-3.29c-.93-1.36-2.28-2.41-3.13-3.82a16,16,0,0,1-1.4-3.89,32.88,32.88,0,0,0-1.33-3.76,8,8,0,0,1,1.29.5c3.49,1.68,5.16,5.62,5.82,9.84A16.36,16.36,0,0,1,572,406.15Z" transform="translate(-48.02 -262.03)"/><path class="cls-3" d="M567.37,503.74l.07-2.6c.19-7.52,2.63-14.25,4.27-21.47,1.74-7.62,1.62-15.56.83-23.3A137.18,137.18,0,0,0,570,442.16c-9.39,2.78-19.4,2.9-28.16-2.14a29.1,29.1,0,0,0-1.55,2.92,29.73,29.73,0,0,0-2,8.36,140.51,140.51,0,0,0-1,23c.25,6.14.45,11.3.65,17.45a21.52,21.52,0,0,1-.51,6.8,23,23,0,0,1-1.75,3.93c3.37,2.33,7.07,4.59,11.1,4.5a24.28,24.28,0,0,1,1.35-3.81,91.28,91.28,0,0,0,6.67-31.36c.92,8.57,1.93,17.24,1.41,25.85-.08,1.18-.17,2.36-.28,3.54A23.83,23.83,0,0,0,567.37,503.74Z" transform="translate(-48.02 -262.03)"/><path class="cls-2" d="M566.91,536a9.86,9.86,0,0,1-.29-3.26l.75-29A23.83,23.83,0,0,1,556,501.22c-.49,5.32-1.15,10.66-.33,15.92.58,3.63,1.84,7.11,2.53,10.72a33.84,33.84,0,0,1,.5,8.7A14.15,14.15,0,0,0,566.91,536Z" transform="translate(-48.02 -262.03)"/><path class="cls-3" d="M578.45,546.6l-9-7.46a8,8,0,0,1-2.3-2.53,3.51,3.51,0,0,1-.24-.61,14.15,14.15,0,0,1-8.22.56,33.81,33.81,0,0,1-1.69,8.51,39,39,0,0,0,18.07,7.54c2.26.34,5.38-.17,5.59-2.45C580.8,548.71,579.57,547.53,578.45,546.6Z" transform="translate(-48.02 -262.03)"/><path class="cls-2" d="M543,539.78c-1.55-9,2.82-18.64,3.4-27.82a30,30,0,0,1,.47-4.93v0c-4,.09-7.73-2.17-11.1-4.5-.36.69-.71,1.38-1,2.09-2.25,5.26-1.71,11.27-.67,16.9s2.54,11.28,2.08,17c0,.69-.14,1.37-.24,2.06A15.18,15.18,0,0,0,543,539.78Z" transform="translate(-48.02 -262.03)"/><path class="cls-3" d="M556,553.08a69.51,69.51,0,0,1-11.16-10.59c-.58-.69-1.15-1.39-1.76-2.06l-.12-.65a15.18,15.18,0,0,1-7.07.75c-.68,4.57-2.21,9.07-1.75,13.65a28.5,28.5,0,0,0,10.33,4.09c3.7.56,7.44-.31,11.08-1.18.78-.19,1.66-.46,2-1.2C558,554.83,556.92,553.78,556,553.08Z" transform="translate(-48.02 -262.03)"/><path class="cls-2" d="M563.2,370.09c0,2.35-1.15,10.45-3.62,11.56a2.57,2.57,0,0,1-1.1.17A12.62,12.62,0,0,1,548,375.59a11.82,11.82,0,0,1-.87-1.87c-2.59,1-4.06-2.07-3.37-4.19.39-1.24,2.05-2.08,3-1.32l.13.11h0c.44-2.56.94-5.23,2.55-7.26,2.2-2.76,6.89-4.58,9.63-1.64a3.71,3.71,0,0,1,.43.55c1.24,1.92.36,4.24,1.83,6,.36.45.83.82,1.15,1.29A4.74,4.74,0,0,1,563.2,370.09Z" transform="translate(-48.02 -262.03)"/><path class="cls-3" d="M559.58,360a2,2,0,0,0-.07-.35c-.56-2.28-3-3.45-5.3-4.1a14.45,14.45,0,0,0-5.68-.69,10.34,10.34,0,0,0-8.37,7.91,13.64,13.64,0,0,0,2.94,11.46,6.06,6.06,0,0,0,2.21,1.85,2.71,2.71,0,0,0,2.75-.29l-.57.23a1.17,1.17,0,0,0,.54-.41,11.82,11.82,0,0,1-.87-1.87c-2.59,1-4.06-2.07-3.37-4.19.39-1.24,2.05-2.08,3-1.32a.18.18,0,0,1,.07,0l.06.16h0c.36,1,.73,1.95,1.1,2.92a1.54,1.54,0,0,0,.68.94c.73.32,1.4-.58,1.52-1.37s.11-1.72.76-2.17c.33-.24.77-.28,1.12-.49,1.22-.75.45-2.71,1-4a3.41,3.41,0,0,1,2.5-1.69,11.42,11.42,0,0,0,3-.81,1.85,1.85,0,0,0,.75-.69A1.56,1.56,0,0,0,559.58,360Z" transform="translate(-48.02 -262.03)"/><path class="cls-3" d="M541.92,368.14c.85-2,3.65-3.31,1-5.23-1.24-.91-3.83-.72-5.07.07-2,1.29-2.39,4.06-2.18,6.44s.81,4.84,0,7.09a29.45,29.45,0,0,1-1.58,3.12,10.72,10.72,0,0,0,.78,10.6c-.62-2.28.59-4.64,2-6.57s3-3.8,3.41-6.14l-.09,5.12c1.65-1.34,2.24-3.64,2.21-5.78s-.58-4.23-.75-6.36A5.08,5.08,0,0,1,541.92,368.14Z" transform="translate(-48.02 -262.03)"/><path class="cls-4" d="M539.29,390.32c.73-.27,5.2,2.72,6.69,7.43,4.95,4.21,6.69,7.19,6.69,7.19s4-7.93,5.7-12.64,3.71-4.21,2-9.17-1.24-11.65-1-14.12,2.72-4,4,0-.74,6.19,1.24,8.92,4.21,4.24,1.74,7.82-5.21,25.38-9.42,29.84-15.36-5.2-17.59-9.42S530.37,393.54,539.29,390.32Z" transform="translate(-48.02 -262.03)"/><path class="cls-2" d="M373,462.8a23.13,23.13,0,0,0,.69,3.89A12.79,12.79,0,0,0,375,469a33.89,33.89,0,0,1,3.24,7.25c2.08-2.8,3.92-4.65,2.78-8.54-1.08-3.69-2.58-6.74-.95-10.6a2.59,2.59,0,0,1,1,2.12c.08,1.17.36,4.23,1.94,2.61.89-.91.31-2.33.43-3.39a41.19,41.19,0,0,1,1.57-5.86,4.24,4.24,0,0,1,1,2.71l1.37-2.87c.2-.42.49-.9.95-.92.69,0,.93.92.85,1.61s-.13,1.58.5,1.86c.18.08.38.08.54.17a1.22,1.22,0,0,1,.49.85c1.23,5.21-.54,9.65-3.1,14.09-3.1,5.36-5.28,11.83-7.87,17.53a2.41,2.41,0,0,1-.58.89,1.68,1.68,0,0,1-1.57.17,5.54,5.54,0,0,1-2.61-2.46,98.69,98.69,0,0,1-10-19.53c-.73-1.92-1.42-4-1-6a4.84,4.84,0,0,1,4.77-3.65C371.12,457.27,372.6,460.7,373,462.8Z" transform="translate(-48.02 -262.03)"/><path class="cls-2" d="M370.06,463.47c-.81,2.44-2.63,4.38-4.4,6.23-.56.42-1.1.85-1.63,1.29-3.22,2.64-6.08,5.64-9.14,8.44a55.18,55.18,0,0,1-5.2,4.27c-.62.43-1.31,1.1-1.06,1.81a1.77,1.77,0,0,0,.55.67l1,.86c-10.8,1.51-22.57.1-29.74-8,1.07-.85,2.18-1.64,3.28-2.43a38.31,38.31,0,0,0,8-7.07,16,16,0,0,0,2.57-4.51l.09-.24c.59-1.72.84-3.55,1.56-5.23,1.25-2.93,3.78-5,6.49-6.53a19.12,19.12,0,0,1,4-1.45c.65-.19,1.3-.38,1.91-.61a7.44,7.44,0,0,0,2.6-1.52c1.66-1.63,2.88-5.09,3.82-7.18a24.62,24.62,0,0,0,8,6.34c-.37,1-1.53,1.67-1.89,2.71a2.85,2.85,0,0,0,1.42,3.11,4.92,4.92,0,0,0,1.16.6l.69.21a13.82,13.82,0,0,1,4.08,1.31C370.37,458,370.87,461,370.06,463.47Z" transform="translate(-48.02 -262.03)"/><path class="cls-3" d="M326.94,542.87l-.23.46a1.39,1.39,0,0,0-1.47,1,8.8,8.8,0,0,0,0,1.92c0,2.26-1.7,4.5-.93,6.63,2,.33,4.3.66,6,1.82,1.33.92,2.33,2.28,3.76,3,1.89,1,4.21.74,6.25.1.85-.26,5-1.25,5.34-2.07.49-1.33-2.16-2.37-3-3a12.89,12.89,0,0,1-3.29-3.58c-1.28-1.9-3.5-3.17-4.25-5.34a5.67,5.67,0,0,1-.21-.88A16.58,16.58,0,0,1,326.94,542.87Z" transform="translate(-48.02 -262.03)"/><path class="cls-2" d="M338,531.57l7.85-16.8c.29-.63.54-1.25.77-1.89a19.52,19.52,0,0,1-11.47-1c-2.79,5-5.48,11.11-5.89,16.75-.18,2.42,0,4.86-.24,7.28a20,20,0,0,1-2.05,7,16.58,16.58,0,0,0,7.92.15C334.35,539.6,336.66,534.37,338,531.57Z" transform="translate(-48.02 -262.03)"/><path class="cls-3" d="M371.15,547.36c-2.75.08-5.31-1.71-6.92-3.94-1.5-2.07-2.61-4.43-4.26-6.37a16.38,16.38,0,0,1-8.33,1.11l-.05.08c-.48,0-1,.67-1.18,1.13a4,4,0,0,0-.14,1.43,8.78,8.78,0,0,1-.8,3.5,5.11,5.11,0,0,0-.6,1.59,1.27,1.27,0,0,0,.75,1.38c2.78.84,5.66.51,8.24,1.84.89.46,1.72,1,2.62,1.46a10.75,10.75,0,0,0,11.06-1.17A6,6,0,0,0,371.15,547.36Z" transform="translate(-48.02 -262.03)"/><path class="cls-2" d="M360,537.05c-.13-.15-.25-.31-.39-.45,1.2-8.55,5.63-15.83,9.05-23.76a20.25,20.25,0,0,0,1.07-3,23.3,23.3,0,0,1-10.92.36,23.53,23.53,0,0,0-5.11,12.64c-.54,5.19.6,10.86-2,15.35A16.38,16.38,0,0,0,360,537.05Z" transform="translate(-48.02 -262.03)"/><path class="cls-3" d="M369.7,509.81c1.22-4.72-.57-7.46-4.65-11.31-4.56-4.3-10-7.5-14.83-11.46-10.8,1.51-22.57.1-29.74-8a21.06,21.06,0,0,0-3.25,3.15,15.37,15.37,0,0,0-2.53,14.32,15.69,15.69,0,0,0,10.64,10c3.72,1,7.63,1.55,10,4.95l-.25.45a19.52,19.52,0,0,0,11.47,1,17.21,17.21,0,0,0,.81-9,24.58,24.58,0,0,1,12.13,4.81c.21.15.34.57.08.56-.29.3-.56.61-.83.93A23.3,23.3,0,0,0,369.7,509.81Z" transform="translate(-48.02 -262.03)"/><path class="cls-2" d="M369,441.32a25.62,25.62,0,0,0,.2,3.15,3.22,3.22,0,0,1-1.12,2.81c-1.61,1.1-1.53,3.82-3.25,4.74s-3.39-.41-4.72-1.58c-1.78-1.57-3.65-3.27-4.29-5.56-.26-.91-.53-2.12-1.48-2.21a2.19,2.19,0,0,1-1.68-1.86,3.16,3.16,0,0,1,1.58-3.55c1.29-.55,3.08.5,2.93,1.9.82-2.44,1.71-5,3.58-6.76a6.57,6.57,0,0,1,6.36-1.34C371.64,432.64,369.32,438.16,369,441.32Z" transform="translate(-48.02 -262.03)"/><path class="cls-3" d="M355.67,426c4.25-1.56,10.05-.28,12.84,3.46s-1.84,2.2-3.82,3.23-2.15,3.62-3.84,4.84c-.91.66-2.24.93-2.65,2-.18.45-.13,1-.29,1.43s-.7.87-1.12.61c.25-1.11-.14-2.74-1.28-2.63-.74.07-1.16.92-1.13,1.66a18.3,18.3,0,0,0,.48,2.17,4.1,4.1,0,0,1-3.27,4.57c-2.66-1.72-4-5-4.23-8.12C347,433.66,350.44,427.94,355.67,426Z" transform="translate(-48.02 -262.03)"/><path class="cls-3" d="M364.58,468.43A24.81,24.81,0,0,1,364,471a13.42,13.42,0,0,1-3,5.8,8.32,8.32,0,0,1-6.09,2.64,6,6,0,0,1-2.29-.53,11.23,11.23,0,0,0-3-1.36c-1.23-.17-2.42.46-3.62.78-3,.82-6.3-.33-8.75-2.27a26.8,26.8,0,0,1-5.49-6.49,16,16,0,0,0,2.57-4.51l.71.32a17.58,17.58,0,0,0,8.68,1.74,5,5,0,0,0,3.48-1.28,5.06,5.06,0,0,0,1-2.1c1-3.87,1-8.26-1.4-11.64-.11-.16-.23-.32-.33-.49.65-.19,1.3-.38,1.91-.61l.17.26a16.91,16.91,0,0,1,1.29,4.24,41,41,0,0,1,1.08,7.39c.11,3.51-.19,7.52,2.32,10a1.3,1.3,0,0,0,.65.4,1.55,1.55,0,0,0,1.2-.5l5.28-4.35c4.46-3.68,2.65-9.12,2-13.95a4.92,4.92,0,0,0,1.16.6l.69.21a25,25,0,0,1,.82,5.36A36.42,36.42,0,0,1,364.58,468.43Z" transform="translate(-48.02 -262.03)"/><path class="cls-3" d="M352.42,433.92c.91-1.45,2.26-3.14,1.23-4.95s-3.63-1.5-5.07-.41-1.86,3-2,4.75,0,3.59-.67,5.24c-.5,1.26-1.43,2.32-1.9,3.59-.88,2.31-.15,4.89.58,7.25a7.1,7.1,0,0,1,2.43-5.71c.6-.52,1.37-1.19,1.07-1.92a11,11,0,0,1-.7,5.33c2.2-1.06,3.07-3.71,3.38-6.12S351.12,436,352.42,433.92Z" transform="translate(-48.02 -262.03)"/><path class="cls-4" d="M348.32,460.31a12.37,12.37,0,0,1,0,5.25,29.08,29.08,0,0,0-.58,3.8c-.06,2.37.59,4.66.79,7,0,.35.34,5.48.2,5.55a43.75,43.75,0,0,0,11.37-8.17c3.65-3.61,2.05-6.85,3.13-11.26a16,16,0,0,1,3.92-7.21,1.55,1.55,0,0,1,1.13-.62c.65.05,1,.82,1.13,1.46.52,2.1,1.85,5.09,1.1,7.19-.37,1-1.08,1.85-1.45,2.82-.42,1.13-.59,2.34-1.12,3.47a37.24,37.24,0,0,1-4,6.27c-2.19,2.94-16.32,20.72-19.63,14a30.75,30.75,0,0,1-2-5.93c-1.26-4.87-2-9.77-3.4-14.6-1.11-3.93,0-15.9,6.72-12.93a4.25,4.25,0,0,1,1.81,1.78A8,8,0,0,1,348.32,460.31Z" transform="translate(-48.02 -262.03)"/><line class="cls-5" x1="0.5" y1="45" x2="260.27" y2="45"/><line class="cls-5" x1="392.21" y1="45" x2="651.98" y2="45"/><polygon class="cls-6" points="0.5 324.16 18.99 324.16 0.5 305.68 0.5 324.16"/><polygon class="cls-6" points="209.83 324.31 228.32 324.31 209.83 305.82 209.83 324.31"/><polygon class="cls-6" points="189.83 65 171.35 65 189.83 83.49 189.83 65"/><polygon class="cls-6" points="399.16 65 380.68 65 399.16 83.49 399.16 65"/><polygon class="cls-6" points="419.16 324.31 437.65 324.31 419.16 305.82 419.16 324.31"/><polygon class="cls-6" points="628.5 324.31 646.98 324.31 628.5 305.82 628.5 324.31"/><polygon class="cls-6" points="608.5 65 590.01 65 608.5 83.49 608.5 65"/><rect class="cls-3" x="342.44" y="275.21" width="63.64" height="63.64" transform="translate(-155.5 92.54) rotate(-45)"/><text class="cls-7" transform="translate(298.83 55.36)">x<tspan class="cls-8" x="11.04" y="0">50</tspan></text></g></g></svg>