<svg xmlns="http://www.w3.org/2000/svg" xmlns:xlink="http://www.w3.org/1999/xlink" viewBox="0 0 863.38 446.92"><defs><style>.cls-1{font-size:48px;fill:#00a195;font-family:Montserrat-Bold, Montserrat;font-weight:700;}.cls-2{opacity:0.7;}.cls-3{fill:url(#Degradado_sin_nombre_26);}.cls-4{fill:url(#Degradado_sin_nombre_26-2);}.cls-5{fill:url(#Degradado_sin_nombre_26-3);}.cls-6{fill:url(#Degradado_sin_nombre_26-4);}.cls-7{fill:url(#Degradado_sin_nombre_26-5);}.cls-8{fill:url(#Degradado_sin_nombre_11);}.cls-9{fill:url(#Degradado_sin_nombre_7);}.cls-10{fill:#fff;}.cls-11{fill:#dedede;}.cls-12{fill:#ededed;}.cls-13{fill:#c4c4c4;}.cls-14{letter-spacing:-0.01em;}.cls-15{letter-spacing:0em;}.cls-16{fill:none;stroke:#00a195;stroke-linejoin:round;}</style><linearGradient id="Degradado_sin_nombre_26" x1="180.48" y1="118.21" x2="416.04" y2="449.76" gradientUnits="userSpaceOnUse"><stop offset="0" stop-color="#f4e6b1" stop-opacity="0"/><stop offset="1" stop-color="#f4e6b1"/></linearGradient><linearGradient id="Degradado_sin_nombre_26-2" x1="150.72" y1="100.3" x2="386.27" y2="431.85" gradientTransform="translate(-130.89 276.35) rotate(-30)" xlink:href="#Degradado_sin_nombre_26"/><linearGradient id="Degradado_sin_nombre_26-3" x1="182.81" y1="118.83" x2="418.37" y2="450.38" gradientTransform="matrix(-0.87, -0.5, -0.5, 0.87, 1031.34, 276.35)" xlink:href="#Degradado_sin_nombre_26"/><linearGradient id="Degradado_sin_nombre_26-4" x1="431.57" y1="14.46" x2="428.02" y2="444.68" xlink:href="#Degradado_sin_nombre_26"/><linearGradient id="Degradado_sin_nombre_26-5" x1="217.54" y1="118.21" x2="453.1" y2="449.76" gradientTransform="matrix(-1, 0, 0, 1, 900.44, 0)" xlink:href="#Degradado_sin_nombre_26"/><linearGradient id="Degradado_sin_nombre_11" x1="354.49" y1="164.45" x2="353.43" y2="410.37" gradientUnits="userSpaceOnUse"><stop offset="0" stop-color="#00a195"/><stop offset="1" stop-color="#00514b"/></linearGradient><linearGradient id="Degradado_sin_nombre_7" x1="509.93" y1="179.5" x2="508.87" y2="410.52" gradientUnits="userSpaceOnUse"><stop offset="0" stop-color="#31b2a8"/><stop offset="1" stop-color="#007970"/></linearGradient></defs><title>experience_point</title><g id="Capa_2" data-name="Capa 2"><g id="Capa_1-2" data-name="Capa 1"><text class="cls-1" transform="translate(367.18 267.18)">1000</text><g class="cls-2"><polygon class="cls-3" points="431.69 446.92 115.67 130.9 202 44.57 431.69 446.92"/><polygon class="cls-4" points="431.69 446.92 0 331.25 31.6 213.32 431.69 446.92"/><polygon class="cls-5" points="431.69 446.92 863.38 331.25 831.79 213.32 431.69 446.92"/><polygon class="cls-6" points="431.69 0 309.6 0 431.69 446.92 553.78 0 431.69 0"/><polygon class="cls-7" points="431.69 446.92 747.71 130.9 661.38 44.57 431.69 446.92"/></g><polygon class="cls-8" points="275.52 290.75 431.69 446.92 431.69 290.75 431.69 134.57 275.52 290.75"/><polygon class="cls-9" points="431.69 134.57 431.69 290.75 431.69 446.92 587.87 290.75 431.69 134.57"/><path class="cls-10" d="M414.86,331.51l-22.12-31-21.9,31H353.6l30.28-41.58L355.23,250h17.13l20.84,29,20.62-29h16.42L401.7,289.35l30.63,42.16Z"/><path class="cls-10" d="M493.53,253.47a26.84,26.84,0,0,1,12.06,10,30.62,30.62,0,0,1,0,30.92,26.8,26.8,0,0,1-12.06,10.07A45.11,45.11,0,0,1,475.07,308h-18.4v23.53H441.53V250h33.54A45.11,45.11,0,0,1,493.53,253.47ZM489.4,291q5.12-4.2,5.12-12c0-5.2-1.71-9.19-5.12-12s-8.43-4.19-15-4.19H456.67v32.38h17.71Q484.27,295.17,489.4,291Z"/><polygon class="cls-11" points="225.11 325.18 105.78 325.18 168.32 387.72 140.87 415.18 225.11 415.18 225.11 325.18"/><polygon class="cls-11" points="757.61 325.18 638.28 325.18 638.28 415.18 722.52 415.18 695.06 387.72 757.61 325.18"/><rect class="cls-12" x="194" y="356.29" width="475.39" height="90"/><polygon class="cls-13" points="225.11 325.18 194 356.29 225.11 356.29 225.11 325.18"/><polygon class="cls-13" points="638.28 325.18 669.39 356.29 638.28 356.29 638.28 325.18"/><text class="cls-1" transform="translate(367.42 415.3)">1<tspan class="cls-14" x="18.82" y="0">.</tspan><tspan class="cls-15" x="30.77" y="0">000</tspan></text><line class="cls-16" x1="194" y1="446.29" x2="669.39" y2="446.29"/><line class="cls-16" x1="140.87" y1="415.18" x2="194" y2="415.18"/><line class="cls-16" x1="722.52" y1="415.18" x2="669.39" y2="415.18"/></g></g></svg>