<svg xmlns="http://www.w3.org/2000/svg" xmlns:xlink="http://www.w3.org/1999/xlink" viewBox="0 0 651.83 201.04"><defs><style>.cls-1{fill:#fff;}.cls-2{fill:#dedede;}.cls-3{fill:#ededed;}.cls-4{fill:#c4c4c4;}.cls-5{fill:none;stroke:#00a195;stroke-linejoin:round;}.cls-6{fill:url(#Degradado_sin_nombre_11);}.cls-7{fill:url(#Degradado_sin_nombre_7);}.cls-8{font-size:48px;fill:#00a195;font-family:Montserrat-Bold, Montserrat;font-weight:700;}.cls-9{letter-spacing:-0.01em;}.cls-10{letter-spacing:0em;}</style><linearGradient id="Degradado_sin_nombre_11" x1="299.67" y1="8.61" x2="299.36" y2="79.47" gradientUnits="userSpaceOnUse"><stop offset="0" stop-color="#00a195"/><stop offset="1" stop-color="#00514b"/></linearGradient><linearGradient id="Degradado_sin_nombre_7" x1="344.46" y1="12.95" x2="344.15" y2="79.51" gradientUnits="userSpaceOnUse"><stop offset="0" stop-color="#31b2a8"/><stop offset="1" stop-color="#007970"/></linearGradient></defs><title>experience_1</title><g id="Capa_2" data-name="Capa 2"><g id="Capa_1-2" data-name="Capa 1"><path class="cls-1" d="M255.25,444.91h-3.18a1.58,1.58,0,0,0-1.59,1.59v6.88h-1.59a.53.53,0,0,0-.53.53v3.18a.53.53,0,0,0,.53.53h1.59v6.89a1.59,1.59,0,0,0,1.59,1.59h3.18a1.59,1.59,0,0,0,1.59-1.59v-18A1.58,1.58,0,0,0,255.25,444.91Z" transform="translate(-52.34 -328.61)"/><path class="cls-1" d="M290.22,453.38h-1.59V446.5a1.58,1.58,0,0,0-1.59-1.59h-3.18a1.58,1.58,0,0,0-1.59,1.59v18a1.59,1.59,0,0,0,1.59,1.59H287a1.59,1.59,0,0,0,1.59-1.59v-6.89h1.59a.53.53,0,0,0,.53-.53v-3.18A.53.53,0,0,0,290.22,453.38Z" transform="translate(-52.34 -328.61)"/><path class="cls-1" d="M278.56,440.67h-3.18a1.59,1.59,0,0,0-1.59,1.59v11.12h-8.48V442.26a1.58,1.58,0,0,0-1.59-1.59h-3.17a1.59,1.59,0,0,0-1.59,1.59v26.49a1.59,1.59,0,0,0,1.59,1.59h3.17a1.58,1.58,0,0,0,1.59-1.59V457.62h8.48v11.13a1.59,1.59,0,0,0,1.59,1.59h3.18a1.59,1.59,0,0,0,1.59-1.59V442.26A1.59,1.59,0,0,0,278.56,440.67Z" transform="translate(-52.34 -328.61)"/><polygon class="cls-2" points="119.33 79.43 0 79.43 62.55 141.98 35.09 169.43 119.33 169.43 119.33 79.43"/><polygon class="cls-2" points="651.83 79.43 532.5 79.43 532.5 169.43 616.74 169.43 589.29 141.98 651.83 79.43"/><rect class="cls-3" x="88.22" y="110.54" width="475.39" height="90"/><polygon class="cls-4" points="119.33 79.43 88.22 110.54 119.33 110.54 119.33 79.43"/><polygon class="cls-4" points="532.5 79.43 563.61 110.54 532.5 110.54 532.5 79.43"/><line class="cls-5" x1="88.22" y1="200.54" x2="563.61" y2="200.54"/><line class="cls-5" x1="35.09" y1="169.43" x2="88.22" y2="169.43"/><line class="cls-5" x1="616.74" y1="169.43" x2="563.61" y2="169.43"/><polygon class="cls-6" points="276.92 45 321.92 90 321.92 45 321.92 0 276.92 45"/><polygon class="cls-7" points="321.92 0 321.92 45 321.92 90 366.92 45 321.92 0"/><path class="cls-1" d="M369.41,385.35,363,376.43l-6.31,8.92h-5l8.72-12-8.25-11.51h4.93l6,8.36,5.94-8.36h4.73l-8.22,11.34,8.82,12.15Z" transform="translate(-52.34 -328.61)"/><path class="cls-1" d="M392.08,362.87a7.71,7.71,0,0,1,3.47,2.89,8.81,8.81,0,0,1,0,8.91,7.72,7.72,0,0,1-3.47,2.9,13.05,13.05,0,0,1-5.32,1h-5.3v6.78h-4.37V361.86h9.67A13,13,0,0,1,392.08,362.87Zm-1.19,10.8a4.8,4.8,0,0,0,0-6.91,6.75,6.75,0,0,0-4.33-1.21h-5.1v9.33h5.1A6.69,6.69,0,0,0,390.89,373.67Z" transform="translate(-52.34 -328.61)"/><text class="cls-8" transform="translate(257.65 169.56)">1<tspan class="cls-9" x="18.82" y="0">.</tspan><tspan class="cls-10" x="30.77" y="0">000</tspan></text></g></g></svg>