<svg xmlns="http://www.w3.org/2000/svg" viewBox="0 0 651.48 88.35"><defs><style>.cls-1,.cls-2{fill:none;stroke-miterlimit:10;}.cls-1{stroke:#dedede;}.cls-2{stroke:#ff6f00;}.cls-3{fill:#ff9521;}.cls-4{fill:#ffd646;}.cls-5{fill:#004293;}.cls-6{fill:#00337a;}.cls-7{fill:#3aa7ff;}.cls-8{fill:#0082d7;}.cls-9{fill:#e3d9d4;}.cls-10{fill:#ede8e3;}</style></defs><title>camera</title><g id="Capa_2" data-name="Capa 2"><g id="Capa_1-2" data-name="Capa 1"><line class="cls-1" y1="44.17" x2="259.77" y2="44.17"/><line class="cls-1" x1="391.71" y1="44.17" x2="651.48" y2="44.17"/><rect class="cls-2" x="343.52" y="844.01" width="61.47" height="61.47" transform="translate(-557.44 -309.73) rotate(-45)"/><path class="cls-3" d="M364.53,866.06h-4.17a1,1,0,0,1-1-1v-2.78a2.43,2.43,0,0,1,2.43-2.43h1.39a2.43,2.43,0,0,1,2.43,2.43V865A1,1,0,0,1,364.53,866.06Z" transform="translate(-48.52 -830.57)"/><path class="cls-4" d="M388.22,889.69H360.29a3.83,3.83,0,0,1-3.82-3.82V867.8a3.82,3.82,0,0,1,3.82-3.82h7l.68-2a3.13,3.13,0,0,1,3-2.14h6.72a3.13,3.13,0,0,1,3,2.14l.67,2h7a3.83,3.83,0,0,1,3.83,3.82v18.07A3.83,3.83,0,0,1,388.22,889.69Z" transform="translate(-48.52 -830.57)"/><path class="cls-3" d="M388.22,864h-7l-.67-2a3.13,3.13,0,0,0-3-2.14h-3.36v29.88h14a3.83,3.83,0,0,0,3.83-3.82V867.8A3.83,3.83,0,0,0,388.22,864Z" transform="translate(-48.52 -830.57)"/><path class="cls-5" d="M374.26,886.91a10.08,10.08,0,1,1,10.07-10.08A10.09,10.09,0,0,1,374.26,886.91Z" transform="translate(-48.52 -830.57)"/><path class="cls-6" d="M384.33,876.83a10.08,10.08,0,0,0-10.07-10.07v20.15A10.09,10.09,0,0,0,384.33,876.83Z" transform="translate(-48.52 -830.57)"/><path class="cls-7" d="M374.26,884.48a7.65,7.65,0,1,1,7.64-7.65A7.66,7.66,0,0,1,374.26,884.48Z" transform="translate(-48.52 -830.57)"/><path class="cls-8" d="M381.9,876.83a7.65,7.65,0,0,0-7.64-7.64v15.29A7.65,7.65,0,0,0,381.9,876.83Z" transform="translate(-48.52 -830.57)"/><circle class="cls-9" cx="338.94" cy="38.62" r="1.04"/><path class="cls-10" d="M362.45,870.23h-2.09a1,1,0,0,1,0-2.08h2.09a1,1,0,0,1,0,2.08Z" transform="translate(-48.52 -830.57)"/></g></g></svg>