<svg xmlns="http://www.w3.org/2000/svg" viewBox="0 0 168.95 168.95"><defs><style>.cls-1{fill:#ff6f00;}.cls-2{opacity:0.5;}.cls-3{opacity:0.1;}.cls-4{fill:#fff;}</style></defs><title>upload</title><g id="Capa_2" data-name="Capa 2"><g id="Capa_1-2" data-name="Capa 1"><rect class="cls-1" x="44.56" y="44.56" width="79.84" height="79.84" transform="translate(-34.99 84.48) rotate(-45)"/><g class="cls-2"><rect class="cls-1" x="33.82" y="33.82" width="101.31" height="101.31" transform="translate(-34.99 84.48) rotate(-45)"/></g><g class="cls-3"><rect class="cls-1" x="24.74" y="24.74" width="119.47" height="119.47" transform="translate(-34.99 84.48) rotate(-45)"/></g><path class="cls-4" d="M99.65,79.7a5.82,5.82,0,0,0-5.42-7.91,5.75,5.75,0,0,0-3.23,1A9.69,9.69,0,0,0,72.91,77.6c0,.17,0,.33,0,.49a8.72,8.72,0,0,0,2.89,17H98.1A7.75,7.75,0,0,0,99.65,79.7Zm-8.73,3.71H87V90.2a1,1,0,0,1-1,1h-2.9a1,1,0,0,1-1-1V83.41h-4a1,1,0,0,1-.69-1.65l6.38-6.38a1,1,0,0,1,1.37,0l6.39,6.38a1,1,0,0,1-.69,1.65Z"/></g></g></svg>