<?xml version="1.0" encoding="utf-8"?>
<!-- Generator: Adobe Illustrator 26.3.1, SVG Export Plug-In . SVG Version: 6.00 Build 0)  -->
<svg version="1.1" id="Layer_1" xmlns="http://www.w3.org/2000/svg" xmlns:xlink="http://www.w3.org/1999/xlink" x="0px" y="0px"
	 viewBox="0 0 99.8 95" style="enable-background:new 0 0 99.8 95;" xml:space="preserve">
<style type="text/css">
	.st0{fill:#9B5FA7;}
	.st1{fill:#89D2D9;}
	.st2{fill:#758C39;}
	.st3{fill:#000617;}
	.st4{fill:#4D2854;}
	.st5{fill:#406A6D;}
	.st6{fill:#344719;}
	.st7{fill:#03475C;}
	.st8{fill:#002F3F;}
	.st9{fill:#CCCCCC;}
	.st10{fill:#432921;}
	.st11{fill:#CEBC3A;}
	.st12{fill:#A53E35;}
	.st13{fill:#8E312C;}
	.st14{fill:#EBD46C;}
	.st15{fill:#D6B84C;}
	.st16{fill:#D9B552;}
	.st17{fill:#5E1D1C;}
	.st18{fill:#702420;}
	.st19{fill:#E7BC77;}
	.st20{fill:#BD9B3A;}
	.st21{opacity:0.5;enable-background:new    ;}
	.st22{fill:#5F4A40;}
	.st23{fill:#7F3825;}
	.st24{fill:#60291F;}
	.st25{fill:#F2D2A7;}
	.st26{fill:#F1E2D5;}
	.st27{fill:#6D9463;}
	.st28{opacity:0.3;}
	.st29{fill:#F9F9F9;}
	.st30{fill:#C6A375;}
	.st31{fill:#3D2F21;}
	.st32{fill:#C69063;}
	.st33{fill:#190E0B;}
	.st34{fill:#C69C6D;}
	.st35{fill:#603813;}
	.st36{fill:#A57E56;}
	.st37{fill:#8C312C;}
	.st38{fill:#392D24;}
	.st39{fill:#685344;}
	.st40{fill:#C49554;}
	.st41{fill:#D5A163;}
	.st42{fill:#E2C08F;}
	.st43{fill:#FFFFFF;}
	.st44{fill:#E59677;}
	.st45{fill:#A08F2D;}
	.st46{fill:#4B9FBC;}
	.st47{fill:#351F1A;}
	.st48{fill:#070404;}
	.st49{fill:#EFC88E;}
	.st50{fill:#EFD0AB;}
	.st51{fill:#F2D6AD;}
	.st52{fill:#C9B191;}
	.st53{fill:#008D9B;}
	.st54{fill:#006B76;}
	.st55{fill:#004951;}
	.st56{fill:#D63227;}
	.st57{fill:#9D2216;}
	.st58{fill:#4D4D4D;}
	.st59{fill:#333333;}
	.st60{fill:#D0AA76;}
	.st61{fill:#543D98;}
	.st62{fill:#341D63;}
	.st63{fill:#93278F;}
	.st64{fill:#681B68;}
	.st65{fill:#422C79;}
	.st66{fill:#657ABB;}
	.st67{fill:#42507F;}
	.st68{fill:#2C365B;}
	.st69{fill:#536827;}
	.st70{fill:#431544;}
	.st71{fill:#0071BC;}
	.st72{fill:#005E87;}
	.st73{fill:#757575;}
	.st74{fill:#7CC89D;}
	.st75{fill:#73E0B1;}
	.st76{fill:#3EA375;}
	.st77{fill:#E6E6E6;}
	.st78{fill:#CF912A;}
	.st79{fill:#B27E22;}
	.st80{fill:#A0711C;}
	.st81{fill:#1F7AA8;}
	.st82{fill:#666666;}
	.st83{fill:#639A9F;}
	.st84{fill:#545EAA;}
	.st85{fill:#774780;}
	.st86{fill:#75C7A7;}
	.st87{fill:#336655;}
	.st88{fill:#5A9D85;}
	.st89{fill:#8CD3D7;}
	.st90{fill:#6FA8AC;}
	.st91{fill:#00B1A2;}
	.st92{fill:#008277;}
	.st93{fill:#C561A5;}
	.st94{fill:#9C4C84;}
	.st95{fill:#7FCECD;}
	.st96{fill:#5E9B9A;}
	.st97{fill:#F9A882;}
	.st98{fill:#C78869;}
	.st99{fill:#BABCBE;}
	.st100{fill:#898B8D;}
	.st101{fill:#145B7F;}
	.st102{fill:#69AC88;}
</style>
<g>
	<path class="st0" d="M65.9,46.9c0,0-12-33.4-27.4-34.8c0,0,1.8,5.2,4.3,7.4c8.6,7.4,19.8,27.8,21.1,27.9S65.9,46.9,65.9,46.9z"/>
</g>
<g>
	<polygon class="st4" points="25.5,12.3 26.1,7.6 43.8,8.5 43.5,13.9 	"/>
</g>
<g>
	<path class="st0" d="M24.9,12c-9.8,1.7-21.9,12.5-23,17.3s10.2,18.2,10.2,18.2l0.7-3.6c0,0-9.3-10.1-6.9-14.6s16.1-8,16.1-8
		L24.9,12z"/>
</g>
<g>
	<path class="st85" d="M11.3,43.3c0,0-9.4-10.5-7.1-15s16.1-8,16.1-8l3.5-7.7c0.7-0.2,0.4-0.6,1.2-0.7l-2.9,9.3c0,0-13.8,3.5-16.1,8
		s6.9,14.6,6.9,14.6l-0.7,3.6c0,0-0.6-0.7-1.6-1.9L11.3,43.3z"/>
</g>
<g>
	<path class="st86" d="M45.2,22.5c0.3-2.7,1.8-3.2,2-1c0.1-2.6-0.2-4.6-1.1-5.7c-3.9-4.5-18.5-5.4-22.7-3.4
		c-6.8,3.2-8.7,21.8-9,40.1h26.9C40.2,43.4,44.3,30.4,45.2,22.5z"/>
</g>
<g>
	<path class="st13" d="M44.9,52.6L44.9,52.6c-1-9.3,2-22.4,2.3-30.5c0-0.2,0-0.4,0-0.6C47,29.4,43.8,43,44.9,52.6z"/>
</g>
<g>
	<path class="st13" d="M45.2,22.5c-0.9,8-5,20.9-3.8,30.1h3.5C43.8,43,47,29.4,47.2,21.5C47,19.2,45.5,19.8,45.2,22.5z"/>
</g>
<g>
	<path class="st85" d="M64.6,47c-0.3,0.5,0.4,1.1-0.1,1.1c-0.7,0-6.2-8.8-11.3-16.2c-2.4-3.5-5-6.7-6.5-8.4
		c-0.7-0.8-1.2-1.3-1.3-1.5C52.3,27.4,58.7,37.2,64.6,47z"/>
</g>
<g>
	<polygon class="st87" points="41.9,11.9 28.8,10.2 28.2,11.4 41.9,13.3 	"/>
</g>
<g>
	<polygon class="st19" points="32.9,13.3 35,0 40.8,1.1 38.5,12.8 	"/>
</g>
<g>
	<path class="st19" d="M41.5,13.1l-12.2,0.5L28.5,11C34.7,11.4,37.6,11.5,41.5,13.1z"/>
</g>
<g>
	<path class="st71" d="M55.2,91.4c0,0-8.7-21.4-12.6-34l-28.1-1.1c0,14.6-5.8,27,1.4,33.9l0,0.6L8.3,95h11.1c0,0-3.9-38.9,16.8-34.1
		c6.1,1.4-4.5,24.5,16.4,29.5l1.2,3.7h7.7L55.2,91.4z"/>
</g>
<g>
	<path class="st13" d="M45.6,56.3C49,68.4,56.8,91,56.8,91l7.1,3.1L56.8,91C56.8,91,49.1,68.4,45.6,56.3c-0.3-1.2-0.5-2.4-0.6-3.7
		h-0.1C45,53.9,45.2,55.1,45.6,56.3z"/>
</g>
<g>
	<g>
		<path class="st72" d="M56.8,91l-0.3-0.9c3.8-6.2-8.6-25.6-11-33.8c-0.3-1.1-0.6-2.4-0.7-3.7h-3.5H14.4c0,1.2,0,2.5,0,3.7
			c0,0,0,0,0,0l17.3,0.7l10.8,0.4c3.9,12.6,12.6,34,12.6,34l6.3,2.8h2.4L56.8,91z"/>
	</g>
	<g>
		<path class="st72" d="M17.8,95h1.6c0,0-0.2-1.5-0.3-4.8c15.7-4.8,0.8-26.3,10.5-29.3C15.5,62.9,17.5,91.5,17.8,95z"/>
	</g>
</g>
<g>
	<polygon class="st58" points="14,50 45.9,50.3 45.9,54.7 14,54.4 	"/>
</g>
<g>
	<path class="st59" d="M38.9,50.5c0-0.3,0,0.1,0-0.2l7,0.1v4.4l-7.4-0.1C38.8,52.9,38.9,52.3,38.9,50.5z"/>
</g>
<g>
	<path class="st60" d="M65.8,46.6c-0.7,0.2-1.6,0.4-2.3,0.5c0,0-0.6,0.7-1.3,1c-0.7,0.3-3.6,2.2-1.6,5.5c1.4,2.1,8.9,3,8.1-2.1
		C68.3,50.3,66.8,48.1,65.8,46.6z"/>
</g>
<g>
	<path class="st19" d="M66.1,51.5c-0.2-0.8-1.1-3.3-1.7-4.5c0.9-0.2,1.2-0.3,1.4-0.4c0.9,1.3,2.2,3.2,2.8,4.9
		c0.5,2.5-1.2,3.6-3.5,3.7C66,54.5,66.6,53.4,66.1,51.5z"/>
</g>
<g>
	<polygon class="st88" points="41.9,13.3 41.9,11.9 32.2,13.4 	"/>
</g>
<g>
	<polygon class="st58" points="19.4,95 8.3,95 15.8,90.8 15.8,90.2 19.2,90.2 	"/>
</g>
<g>
	<polygon class="st58" points="53.8,94.2 63.9,94.2 56.8,91 56.5,90.1 52.6,90.4 	"/>
</g>
<g>
	<polygon class="st88" points="28.8,10.2 27.7,11.5 29.3,13.6 	"/>
</g>
<g>
	<path class="st19" d="M61.6,52.9c-0.2-0.3,0.2-0.5,0.8-1.1s0.9-1.3,1.2-1s0,1-0.5,1.6S61.8,53.2,61.6,52.9z"/>
</g>
<g>
	<circle class="st43" cx="17.5" cy="91.7" r="0.9"/>
</g>
<g>
	<circle class="st43" cx="55.1" cy="91.5" r="0.9"/>
</g>
<g>
	<polygon class="st14" points="32.6,50.2 29.4,52.6 30,56.5 27.4,54 24.2,56.4 25.9,52.5 23.3,50 26.9,50.1 28.5,46.2 29.1,50.1 	
		"/>
</g>
<g>
	<polygon class="st58" points="30.8,50.8 28.8,52.2 29.2,54.7 27.6,53.1 25.6,54.6 26.6,52.2 25.1,50.6 27.3,50.7 28.3,48.3 
		28.6,50.7 	"/>
</g>
<g>
	<path class="st0" d="M26.1,11c0,0-9.4,17.1-7.8,46.9c0,0-4.9,0-6-0.8c0,0-0.3-16.6,5.5-36l-7.2-1.9C10.6,19.1,18.9,12.4,26.1,11z"
		/>
</g>
<g>
	<path class="st0" d="M35.1,57.9c0,0,10.3,0.3,15.1-0.8c0,0-2.6-24.8,0.6-37.3c0,0-4.4-6-7.2-7.5C43.5,12.3,36.2,17.3,35.1,57.9z"/>
</g>
<g>
	<polygon class="st85" points="40.6,17.5 43.8,8.5 43.5,12.3 	"/>
</g>
<g>
	<polygon class="st85" points="23.9,16.2 26.1,7.6 26.1,11 	"/>
</g>
<g>
	<path class="st19" d="M9.9,43.9c0,0-0.5,1.4,1.6,5.1c1.3,2.4,3.2,2.7,4.5,1.9c1.3-0.8,1.6-3.2,1.2-4.6c-0.3-1.4-3.9-3.2-4.7-3.5
		C10.9,42.3,9.9,43.9,9.9,43.9z"/>
</g>
<g>
	<path class="st19" d="M14.7,43l0,1.5c0,0-2.3-1.7-2.6-1.8C13.3,42.7,14.7,43,14.7,43z"/>
</g>
<g>
	<g>
		<g>
			<g>
				<polygon class="st14" points="34.8,31 33.8,33.1 29.7,32.8 24,30.2 				"/>
			</g>
			<g>
				<g>
					<polygon class="st16" points="34.8,31 32,30.8 30.2,25.2 31.6,22.5 32.1,22.5 					"/>
				</g>
			</g>
			<g>
				<g>
					<polygon class="st14" points="28.8,22.2 25.1,29.7 27.9,29.9 30.2,25.2 31.6,22.5 					"/>
				</g>
				<g>
					<polygon class="st14" points="23.8,32.4 26.6,32.6 26.8,32.1 24.5,31 					"/>
				</g>
			</g>
		</g>
	</g>
</g>
</svg>
