<svg xmlns="http://www.w3.org/2000/svg" viewBox="0 0 22.71 32.55"><defs><style>.cls-1{fill:#00a195;}</style></defs><title>challenge-agility-icon</title><g id="Capa_2" data-name="Capa 2"><g id="Capa_1-2" data-name="Capa 1"><path class="cls-1" d="M19.42,3.28A11.39,11.39,0,0,0,11.35,0,11.26,11.26,0,0,0,1.15,16.28a11.36,11.36,0,1,0,20.41,0A11.37,11.37,0,0,0,19.42,3.28ZM5.76,5.75a7.88,7.88,0,0,1,5.59-2.26h0a7.75,7.75,0,0,1,7.7,9.41,11.31,11.31,0,0,0-7.7-3h0a11.35,11.35,0,0,0-7.7,3A7.87,7.87,0,0,1,5.76,5.75Zm5.59,13.44a7.79,7.79,0,0,1-5.55-2.3,6.31,6.31,0,0,1-.55-.61,6.42,6.42,0,0,1,.55-.62,7.86,7.86,0,0,1,11.11,0,8.11,8.11,0,0,1,.55.62,8,8,0,0,1-.55.61A7.79,7.79,0,0,1,11.35,19.19ZM17,26.81a7.88,7.88,0,0,1-5.6,2.25,7.75,7.75,0,0,1-7.7-9.41,11.3,11.3,0,0,0,7.7,3h0a11.26,11.26,0,0,0,7.7-3A7.86,7.86,0,0,1,17,26.81Z"/></g></g></svg>