<svg xmlns="http://www.w3.org/2000/svg" viewBox="0 0 35.38 47"><defs><style>.cls-1{fill:#fff;}</style></defs><title>challenge-aerobics-icon</title><g id="Capa_2" data-name="Capa 2"><g id="Capa_1-2" data-name="Capa 1"><path class="cls-1" d="M18.34,0A6.56,6.56,0,0,1,21,1.1a5.44,5.44,0,1,1-4.17-1A1.21,1.21,0,0,0,17.05,0Z"/><path class="cls-1" d="M25.67,47a2.65,2.65,0,0,1-2.48-1.91c-.61-1.91-1.22-3.81-1.82-5.72Q20,35.19,18.7,31c-.1-.31-.23-.46-.57-.42s-.95-.11-1.25.09-.3.73-.43,1.12c-1.39,4.37-2.79,8.73-4.17,13.1a2.71,2.71,0,0,1-1.93,2,2.79,2.79,0,0,1-2.79-.76,2.42,2.42,0,0,1-.48-2.64Q9.47,36,11.84,28.57a2.45,2.45,0,0,0,.11-.71c0-3.92,0-7.84,0-11.75a.78.78,0,0,0-.38-.76Q6.25,11.57.94,7.75C-.16,7-.26,6.25.46,5.11c1-1.63,1.92-1.46,3.14-.57C7,7,10.43,9.45,13.86,11.88a1.61,1.61,0,0,0,.88.28c2,0,4,0,6,0a1.5,1.5,0,0,0,.79-.25q5.3-3.77,10.56-7.55c1.13-.81,1.83-.65,2.67.45,1,1.28.9,2.14-.54,3.15-3.49,2.43-6.93,4.93-10.39,7.4a.77.77,0,0,0-.37.71c0,3.93,0,7.86,0,11.79a2.51,2.51,0,0,0,.11.72c1.58,5,3.14,9.93,4.76,14.88A2.59,2.59,0,0,1,25.67,47Z"/></g></g></svg>