<svg xmlns="http://www.w3.org/2000/svg" viewBox="0 0 33.28 47"><defs><style>.cls-1{fill:#fff;}</style></defs><title>challenge-balance-icon</title><g id="Capa_2" data-name="Capa 2"><g id="Capa_1-2" data-name="Capa 1"><path class="cls-1" d="M17.38,0A6,6,0,0,1,20,1.19a4.91,4.91,0,1,1-8,4.49A5,5,0,0,1,15.8.09c.1,0,.19-.06.29-.09Z"/><path class="cls-1" d="M16.78,11.37c.35-.36.64-.7,1-1a1.07,1.07,0,0,1,.55-.15.51.51,0,0,1,.3.1,4.23,4.23,0,0,0,2.48.42H31.18a1.93,1.93,0,0,1,2.08,1.61,1.89,1.89,0,0,1-1.83,2.21c-.5,0-1,0-1.51,0h-8.1V25.07h2.11a11.74,11.74,0,0,1,1.88.07,2.22,2.22,0,0,1,1.32,3.6c-.27.33-.58.63-.87.94-2.2,2.29-4.42,4.57-6.6,6.9a2.58,2.58,0,0,1-3.15.9v.6c0,2.14,0,4.28,0,6.42A2.31,2.31,0,0,1,14.67,47,2.24,2.24,0,0,1,12,45.07a5.65,5.65,0,0,1,0-.59q0-8.8,0-17.62c-.54-4-.11-8-.25-12a1.59,1.59,0,0,0,0-.23H2.11A1.93,1.93,0,0,1,0,12.7a1.9,1.9,0,0,1,2-1.95H5.7c2.56,0,5.11,0,7.66,0a4.89,4.89,0,0,0,1.18-.26,7.19,7.19,0,0,1,.78-.27.63.63,0,0,1,.46.12C16.11,10.64,16.42,11,16.78,11.37Zm-.25,21.94,3.54-3.69H16.53Z"/></g></g></svg>