<svg xmlns="http://www.w3.org/2000/svg" viewBox="0 0 50.36 47"><defs><style>.cls-1{fill:#fff;}</style></defs><title>challenge-strength-icon</title><g id="Capa_2" data-name="Capa 2"><g id="Capa_1-2" data-name="Capa 1"><path class="cls-1" d="M0,9.54C.51,8.1,1.73,8.27,2.94,8.29V7.73c0-1.23,0-2.46,0-3.69C2.94,3.27,3.24,3,4,3H5.88c.71,0,1,.33,1,1,0,1.23,0,2.46,0,3.69v.56H9.8c0-.23.06-.47.11-.7a2.28,2.28,0,0,1,2.33-1.79,2.25,2.25,0,0,1,2.2,1.93c.06.48.21.63.7.61,1,0,2,0,3,0a.6.6,0,0,1,.62.35A7,7,0,0,0,26,12.45,6.83,6.83,0,0,0,31.44,8.9a1,1,0,0,1,1.05-.63c1.1.05,2.19,0,3.34,0A2.38,2.38,0,0,1,37,6.15a3,3,0,0,1,1.49-.36c1.2,0,1.9.91,2.14,2.47h2.88V7.67c0-1.23,0-2.46,0-3.69,0-.68.3-1,1-1s1.31,0,2,0,1,.33,1,1c0,1.23,0,2.46,0,3.69v.55c.59,0,1.13,0,1.66.1a1.43,1.43,0,0,1,1.24,1.23,1.41,1.41,0,0,1-.64,1.58,2.72,2.72,0,0,1-1.06.31,9.46,9.46,0,0,1-1.2,0V12c0,1.25,0,2.49,0,3.74,0,.7-.31,1-1,1H44.48c-.7,0-1-.32-1-1,0-1.23,0-2.46,0-3.69v-.56H40.19c-.08.79-.17,1.58-.25,2.37Q39.6,17,39.27,20.1a2.2,2.2,0,0,1-1.63,2,2.25,2.25,0,0,1-2.52-.75l-2.78-3.19-.45-.5c0,.23,0,.36,0,.5,0,2.66,0,5.31,0,8a.58.58,0,0,0,.43.64c2.63,1.05,5.24,2.13,7.87,3.18a3.26,3.26,0,0,1,2.16,2.79c.52,3.53,1.07,7.06,1.62,10.58a3.11,3.11,0,0,1-1.53,3.3,3,3,0,0,1-3.58-.5,3.43,3.43,0,0,1-.93-2.06c-.44-2.89-.87-5.77-1.32-8.65a.8.8,0,0,0-.41-.51c-2.39-1-4.79-2-7.18-2.93a2.2,2.2,0,0,0-.67-.12H22.07a2,2,0,0,0-.72.13l-7.1,2.87a.68.68,0,0,0-.48.64c-.43,2.88-.86,5.76-1.31,8.64a3.08,3.08,0,0,1-3,2.86,3,3,0,0,1-3-3.52c.54-3.66,1.11-7.32,1.67-11a3.07,3.07,0,0,1,2-2.51l8-3.24c.23-.09.4-.16.39-.47,0-2.75,0-5.5,0-8.26a1.13,1.13,0,0,0,0-.18l-.14-.12a1.88,1.88,0,0,1-.21.37c-.92,1.07-1.86,2.12-2.78,3.19A2.36,2.36,0,0,1,11.08,20c-.27-2.69-.57-5.38-.84-8.07,0-.37-.14-.5-.53-.49-.91,0-1.83,0-2.81,0V12c0,1.25,0,2.49,0,3.74,0,.7-.31,1-1,1H4c-.7,0-1-.32-1-1,0-1.23,0-2.46,0-3.69v-.6c-1.18,0-2.44.21-2.94-1.26Zm14.88,2,.3,2.81,2.46-2.81Zm20.61,0H32.73l2.46,2.81Z"/><path class="cls-1" d="M30.41,5.24A5.23,5.23,0,1,1,25.2,0,5.26,5.26,0,0,1,30.41,5.24Z"/></g></g></svg>