<svg xmlns="http://www.w3.org/2000/svg" viewBox="0 0 34.11 23.88"><defs><style>.cls-1{fill:#00a195;}</style></defs><title>challenge-weight-icon</title><g id="Capa_2" data-name="Capa 2"><g id="Capa_1-2" data-name="Capa 1"><path class="cls-1" d="M5.54,3.41H3A1.27,1.27,0,0,0,1.71,4.69v5.54H.43a.43.43,0,0,0-.43.43v2.56a.43.43,0,0,0,.43.43H1.71v5.54A1.27,1.27,0,0,0,3,20.47H5.54a1.28,1.28,0,0,0,1.28-1.28V4.69A1.28,1.28,0,0,0,5.54,3.41Z"/><path class="cls-1" d="M33.69,10.23H32.41V4.69a1.28,1.28,0,0,0-1.28-1.28H28.57a1.28,1.28,0,0,0-1.28,1.28v14.5a1.28,1.28,0,0,0,1.28,1.28h2.56a1.28,1.28,0,0,0,1.28-1.28V13.65h1.28a.43.43,0,0,0,.42-.43V10.66A.43.43,0,0,0,33.69,10.23Z"/><path class="cls-1" d="M24.31,0H21.75a1.28,1.28,0,0,0-1.28,1.28v9H13.65v-9A1.28,1.28,0,0,0,12.37,0H9.81A1.28,1.28,0,0,0,8.53,1.28V22.6a1.28,1.28,0,0,0,1.28,1.28h2.56a1.28,1.28,0,0,0,1.28-1.28v-9h6.82v9a1.28,1.28,0,0,0,1.28,1.28h2.56a1.28,1.28,0,0,0,1.28-1.28V1.28A1.28,1.28,0,0,0,24.31,0Z"/></g></g></svg>