<svg xmlns="http://www.w3.org/2000/svg" viewBox="0 0 34.69 47"><defs><style>.cls-1{fill:#fff;}</style></defs><title>challenge-stretch-icon</title><g id="Capa_2" data-name="Capa 2"><g id="Capa_1-2" data-name="Capa 1"><path class="cls-1" d="M32.58,0a2.72,2.72,0,0,1,2,1.9,1.94,1.94,0,0,1-1.8,2.69,21.63,21.63,0,0,0-5.66,1.29A14.67,14.67,0,0,0,19.8,12a20.17,20.17,0,0,1,1.58,1.48,20.53,20.53,0,0,1,1.26,1.79,3.11,3.11,0,0,0,.39.49,18.26,18.26,0,0,1,3.41,4.18,10.71,10.71,0,0,1,1.34,3.73,3.79,3.79,0,0,1-.13,1.53,1.83,1.83,0,0,1-1.53,1.36c-3.06.58-6.12,1.16-9.18,1.72a7.92,7.92,0,0,1-1.3,0,4.34,4.34,0,0,0,.18.63q3,6.48,6,13a3.08,3.08,0,0,1-2,4.53,2.29,2.29,0,0,1-2.76-1.08c-.85-1.6-1.64-3.24-2.41-4.89C13.43,37.7,12.2,35,11,32.25l-.18-.4-.23.48C8.7,36.42,7.12,40.6,5.68,44.84a2.86,2.86,0,0,1-1.36,1.87,2.81,2.81,0,0,1-3.09-.43A2.63,2.63,0,0,1,.09,43.43C.47,42,1,40.58,1.49,39.17A124.71,124.71,0,0,1,7.24,25.7c1-2,1.81-4.14,2.78-6.18a72.65,72.65,0,0,1,6.43-11,19.82,19.82,0,0,1,12.07-8c.92-.21,1.87-.32,2.8-.48A1,1,0,0,0,31.57,0Zm-10,22.46-2-2.69L18,23.22l.09.09Z"/><path class="cls-1" d="M23,11.9a4,4,0,1,1,4,4A4,4,0,0,1,23,11.9Z"/></g></g></svg>