<svg xmlns="http://www.w3.org/2000/svg" viewBox="0 0 26.04 32.55"><defs><style>.cls-1{fill:#00a195;}</style></defs><title>challenge-steps-icon</title><g id="Capa_2" data-name="Capa 2"><g id="Capa_1-2" data-name="Capa 1"><path class="cls-1" d="M8.14,22.79V21.16H1.63v1.63a3.26,3.26,0,0,0,6.51,0Zm13,9.76a3.25,3.25,0,0,0,3.26-3.25V27.67H17.91V29.3A3.24,3.24,0,0,0,21.16,32.55ZM14.65,15.39a10.43,10.43,0,0,0,1.63,5.33A7.77,7.77,0,0,1,17.91,26h6.51l.81-2.92A20.34,20.34,0,0,0,26,19a17.57,17.57,0,0,0-.31-5c-1.2-5.57-3.85-7.56-6.15-7.56-3.25,0-4.88,4.28-4.88,8.88ZM.37,7.56a17.55,17.55,0,0,0-.32,5,21.08,21.08,0,0,0,.77,4.09l.81,2.92H8.14a7.72,7.72,0,0,1,1.63-5.32,10.44,10.44,0,0,0,1.62-5.33C11.39,4.28,9.77,0,6.51,0,4.21,0,1.56,2,.37,7.56Z"/></g></g></svg>