<svg xmlns="http://www.w3.org/2000/svg" viewBox="0 0 46.99 47"><defs><style>.cls-1{fill:#fff;}</style></defs><title>challenge-mental-icon</title><g id="Capa_2" data-name="Capa 2"><g id="Capa_1-2" data-name="Capa 1"><path class="cls-1" d="M0,26a2.94,2.94,0,0,1,1.6-2.12,4.27,4.27,0,0,1,1.54-.35c2.11,0,4.22,0,6.33,0a.66.66,0,0,0,.69-.44c1.56-3.15,3.14-6.28,4.7-9.43a3.12,3.12,0,0,1,3.07-1.9c1.56,0,3.12,0,4.69,0a6,6,0,0,1-3.9-2.45,5.73,5.73,0,0,1-1-4.54,5.87,5.87,0,0,1,11.6.53,6,6,0,0,1-5.1,6.49c1.7,0,3.26,0,4.81,0a3.15,3.15,0,0,1,3.11,1.92c1.55,3.15,3.14,6.29,4.7,9.43a.62.62,0,0,0,.65.42c2.16,0,4.32,0,6.47,0a2.93,2.93,0,0,1,2.84,3.92,2.86,2.86,0,0,1-2.69,1.94c-3,0-6,0-9,0a2.78,2.78,0,0,1-2.52-1.71c-.94-1.88-1.88-3.77-2.83-5.65a1.72,1.72,0,0,0-.36-.53v.46c0,3.3,0,6.61,0,9.91a.54.54,0,0,1-.44.61c-1.7.62-3.4,1.28-5.11,1.9a1.16,1.16,0,0,1-.69,0c-1.72-.63-3.43-1.29-5.15-1.92a.48.48,0,0,1-.38-.55q0-5,0-9.91v-.49l-.08,0-.21.38c-.94,1.88-1.9,3.76-2.82,5.66a3.14,3.14,0,0,1-3.08,1.89c-2.6,0-5.2,0-7.8,0C1.47,29.37.76,28.89,0,26.9Z"/><path class="cls-1" d="M14.23,47a3.23,3.23,0,0,1-2.18-1.66,2.85,2.85,0,0,1,1.32-3.86c1.62-.71,3.3-1.29,5-1.92l18.49-6.93a3,3,0,0,1,3.71.86,2.85,2.85,0,0,1-1,4.33c-1.53.69-3.12,1.23-4.69,1.82l-18.75,7c-.31.12-.63.22-.94.33Z"/><path class="cls-1" d="M31.86,47l-4.19-1.53,7.2-2.7a2.84,2.84,0,0,1-1.5,4l-.6.21Z"/><path class="cls-1" d="M19.31,36.05l-3,1.12c-1.68.63-3.37,1.27-5.06,1.89a.9.9,0,0,1-.56,0c-1-.34-2-.69-2.92-1.09A2.92,2.92,0,0,1,7,32.94a2.8,2.8,0,0,1,2.86-.42C13,33.67,16.09,34.84,19.31,36.05Z"/></g></g></svg>