<?xml version="1.0" encoding="utf-8"?>
<!-- Generator: Adobe Illustrator 26.3.1, SVG Export Plug-In . SVG Version: 6.00 Build 0)  -->
<svg version="1.1" id="Layer_1" xmlns="http://www.w3.org/2000/svg" xmlns:xlink="http://www.w3.org/1999/xlink" x="0px" y="0px"
	 viewBox="0 0 99.8 90.6" style="enable-background:new 0 0 99.8 90.6;" xml:space="preserve">
<style type="text/css">
	.st0{fill:#9B5FA7;}
	.st1{fill:#89D2D9;}
	.st2{fill:#758C39;}
	.st3{fill:#000617;}
	.st4{fill:#4D2854;}
	.st5{fill:#406A6D;}
	.st6{fill:#344719;}
	.st7{fill:#03475C;}
	.st8{fill:#002F3F;}
	.st9{fill:#CCCCCC;}
	.st10{fill:#432921;}
	.st11{fill:#CEBC3A;}
	.st12{fill:#A53E35;}
	.st13{fill:#8E312C;}
	.st14{fill:#EBD46C;}
	.st15{fill:#D6B84C;}
	.st16{fill:#D9B552;}
	.st17{fill:#5E1D1C;}
	.st18{fill:#702420;}
	.st19{fill:#E7BC77;}
	.st20{fill:#BD9B3A;}
	.st21{opacity:0.5;enable-background:new    ;}
	.st22{fill:#5F4A40;}
	.st23{fill:#7F3825;}
	.st24{fill:#60291F;}
	.st25{fill:#F2D2A7;}
	.st26{fill:#F1E2D5;}
	.st27{fill:#6D9463;}
	.st28{opacity:0.3;}
	.st29{fill:#F9F9F9;}
	.st30{fill:#C6A375;}
	.st31{fill:#3D2F21;}
	.st32{fill:#C69063;}
	.st33{fill:#190E0B;}
	.st34{fill:#C69C6D;}
	.st35{fill:#603813;}
	.st36{fill:#A57E56;}
	.st37{fill:#8C312C;}
	.st38{fill:#392D24;}
	.st39{fill:#685344;}
	.st40{fill:#C49554;}
	.st41{fill:#D5A163;}
	.st42{fill:#E2C08F;}
	.st43{fill:#FFFFFF;}
	.st44{fill:#E59677;}
	.st45{fill:#A08F2D;}
	.st46{fill:#4B9FBC;}
	.st47{fill:#351F1A;}
	.st48{fill:#070404;}
	.st49{fill:#EFC88E;}
	.st50{fill:#EFD0AB;}
	.st51{fill:#F2D6AD;}
	.st52{fill:#C9B191;}
	.st53{fill:#008D9B;}
	.st54{fill:#006B76;}
	.st55{fill:#004951;}
	.st56{fill:#D63227;}
	.st57{fill:#9D2216;}
	.st58{fill:#4D4D4D;}
	.st59{fill:#333333;}
	.st60{fill:#D0AA76;}
	.st61{fill:#543D98;}
	.st62{fill:#341D63;}
	.st63{fill:#93278F;}
	.st64{fill:#681B68;}
	.st65{fill:#422C79;}
	.st66{fill:#657ABB;}
	.st67{fill:#42507F;}
	.st68{fill:#2C365B;}
	.st69{fill:#536827;}
	.st70{fill:#431544;}
	.st71{fill:#0071BC;}
	.st72{fill:#005E87;}
	.st73{fill:#757575;}
	.st74{fill:#7CC89D;}
	.st75{fill:#73E0B1;}
	.st76{fill:#3EA375;}
	.st77{fill:#E6E6E6;}
	.st78{fill:#CF912A;}
	.st79{fill:#B27E22;}
	.st80{fill:#A0711C;}
	.st81{fill:#1F7AA8;}
	.st82{fill:#666666;}
	.st83{fill:#639A9F;}
	.st84{fill:#545EAA;}
	.st85{fill:#774780;}
	.st86{fill:#75C7A7;}
	.st87{fill:#336655;}
	.st88{fill:#5A9D85;}
	.st89{fill:#8CD3D7;}
	.st90{fill:#6FA8AC;}
	.st91{fill:#00B1A2;}
	.st92{fill:#008277;}
	.st93{fill:#C561A5;}
	.st94{fill:#9C4C84;}
	.st95{fill:#7FCECD;}
	.st96{fill:#5E9B9A;}
	.st97{fill:#F9A882;}
	.st98{fill:#C78869;}
	.st99{fill:#BABCBE;}
	.st100{fill:#898B8D;}
	.st101{fill:#145B7F;}
	.st102{fill:#69AC88;}
</style>
<g>
	<path class="st33" d="M16.6,41C10.8,41.4,3,40.4,0,31.1c0,0,11.1,3,10-8.4L16.6,41z"/>
</g>
<g>
	<path class="st33" d="M53.5,75.8c10.9,0.7,17.1-17.6,17.1-17.6S84,52.8,88.7,44.7c0,0,3.1-8.5-2.6-10.5c0,0,13.8-3.7,9.4-12.3
		s-13.6-6.4-16.8-4.7c-2.9,1.5-9.2,5.6-16.2,2.8c-6.8-2.8-11.9-4.6-15.1-11.4C45.2,4.1,40.3,0.1,31,0.1c-5.7,0-40,1-19.6,37.9
		L53.5,75.8z"/>
</g>
<g>
	<path class="st48" d="M41.5,59.7C57.6,37.9,78,43,88.8,44.2c-0.1,0.2-0.1,0.4-0.1,0.4c14.4,5.7-0.5,15.2,0.6,12.1s-1.8-5-4.1-4.8
		c-2.6,0.2-4.3,1-6.5,2.4c-1.5,1-3.2,3-3.8,3.8c-0.7,1.1-1.6,2.4-3.8,7.8c-1.2,2.8-3.7,8.5-3.7,8.5c-2.6,7-14.2,2.7-13.9,1.4
		L26.9,58.5C31.7,59.3,36.6,59.7,41.5,59.7z"/>
</g>
<g>
	<path class="st49" d="M43.8,89.7c-17.4,2-38.3,3.1-34.5-23.4c7.2-24.1,10.9-64.9,55.1-28.4c12.7,11.9-6.1,16.6-6.7,40.5
		C57.5,83.4,51.2,88.8,43.8,89.7z"/>
</g>
<g>
	<path class="st49" d="M58.6,64.6c3.8-2,8.2-3.8,9.9,1.6s-6,8.6-10.4,7.2S58.6,64.6,58.6,64.6z"/>
</g>
<g>
	<path class="st26" d="M51.2,62.4c-1.2-3.2-7.4-12.7-15.9-1.4L51.2,62.4z"/>
</g>
<g>
	<path class="st26" d="M14.8,60c0-3.2,6-10.4,12.5,0.2L14.8,60z"/>
</g>
<g>
	<path class="st27" d="M17.5,57.4c0-1.5,1.3-2.6,2.8-2.6c1.5,0,2.6,1.3,2.6,2.8c0,1.5-1.3,2.6-2.8,2.6
		C18.7,60.1,17.5,58.9,17.5,57.4C17.5,57.4,17.5,57.4,17.5,57.4z"/>
</g>
<g>
	<path class="st27" d="M40.8,58.7c0-1.7,1.3-3,3-3c1.7,0,3,1.3,3,3c0,1.7-1.3,3-3,3c0,0-0.1,0-0.1,0C42.1,61.7,40.8,60.3,40.8,58.7z
		"/>
</g>
<g class="st28">
	<path class="st29" d="M41.6,58c0-0.6,0.5-1.1,1.2-1.1c0.6,0,1.1,0.5,1.1,1.2c0,0.6-0.5,1.1-1.2,1.1c0,0,0,0,0,0
		C42.1,59.2,41.6,58.7,41.6,58C41.6,58,41.6,58,41.6,58z"/>
</g>
<g class="st28">
	<path class="st29" d="M18,56.8c0-0.6,0.5-1,1.1-0.9s1,0.5,0.9,1.1c0,0.5-0.5,0.9-1,0.9C18.5,57.9,18,57.5,18,56.8
		C18,56.9,18,56.9,18,56.8z"/>
</g>
<g>
	<path class="st30" d="M26.9,65.1c0.1-1.2,2.1-1.9,4.3-1.6s3.9,1.4,3.8,2.6s-2.1,1.9-4.3,1.6S26.8,66.3,26.9,65.1z"/>
</g>
<g>
	<path class="st49" d="M27,64.6c0.1-1,1.7-1.6,3.6-1.4c1.9,0.2,3.3,1.2,3.2,2.2s-1.8,1.6-3.6,1.3S26.9,65.6,27,64.6z"/>
</g>
<g>
	<path class="st33" d="M53.5,53.9c-0.9-0.1-3.1-1.1-5-1.9c-2.8-1.2-6.3,1.2-7.6,1c-2.1-0.3-0.5-2.8-0.5-2.8s5.6-0.4,8.1,0.2
		C51,51.1,53.5,53.9,53.5,53.9z"/>
</g>
<g>
	<path class="st30" d="M60,66c2.4-1.2,5.2-2.4,6.2,1c1,3.4-3.8,5.4-6.5,4.5S60,66,60,66z"/>
</g>
<g>
	<path class="st49" d="M58.7,68.2c1.1-0.6,2.3-1.1,2.7,0.4s-1.7,2.4-2.9,2S58.7,68.2,58.7,68.2z"/>
</g>
<g>
	<path class="st31" d="M39.7,71l-15.3-0.2C24.5,70.8,31,78.3,39.7,71z"/>
</g>
<g>
	<polygon class="st26" points="38.1,71.7 36.6,72.6 27.3,72.6 25.1,71.3 	"/>
</g>
<g>
	<path class="st31" d="M38.6,71.2c0-0.3,0.3-0.6,0.7-0.6s0.8,0.2,0.8,0.5s-0.3,0.6-0.7,0.6S38.7,71.5,38.6,71.2z"/>
</g>
<g>
	<path class="st31" d="M23.4,71.1c0-0.3,0.3-0.6,0.7-0.6s0.8,0.2,0.8,0.5s-0.3,0.6-0.7,0.6S23.4,71.4,23.4,71.1z"/>
</g>
<g>
	<path class="st30" d="M40.7,66.2c0-1.1,1.8-2,3.9-2s3.9,0.9,3.9,2s-1.8,2-3.9,2S40.7,67.3,40.7,66.2z"/>
</g>
<g>
	<path class="st30" d="M16.3,65.1c0-1.1,1.8-2,3.9-2s3.9,0.9,3.9,2c0,1.1-1.8,2-3.9,2S16.3,66.1,16.3,65.1z"/>
</g>
<g>
	<path class="st33" d="M22.1,40.5c-4.1-2.6-10.9-14,2.7-20.4l15.7,3.5C40.6,23.7,20.7,22.2,22.1,40.5z"/>
</g>
<g>
	<path class="st49" d="M86.1,34.2c0,0-12.2-2.9-28,0.9l1.2,1.4C59.3,36.5,66.8,33,86.1,34.2z"/>
</g>
<g>
	<path class="st33" d="M13.6,51.9c1.8-0.5,9.1,0.5,10.9-0.1s0.5-3.3,0.5-3.3L13.6,51.9z"/>
</g>
</svg>
