<?xml version="1.0" encoding="utf-8"?>
<!-- Generator: Adobe Illustrator 26.3.1, SVG Export Plug-In . SVG Version: 6.00 Build 0)  -->
<svg version="1.1" id="Layer_1" xmlns="http://www.w3.org/2000/svg" xmlns:xlink="http://www.w3.org/1999/xlink" x="0px" y="0px"
	 viewBox="0 0 99.8 90.6" style="enable-background:new 0 0 99.8 90.6;" xml:space="preserve">
<style type="text/css">
	.st0{fill:#9B5FA7;}
	.st1{fill:#89D2D9;}
	.st2{fill:#758C39;}
	.st3{fill:#000617;}
	.st4{fill:#4D2854;}
	.st5{fill:#406A6D;}
	.st6{fill:#344719;}
	.st7{fill:#03475C;}
	.st8{fill:#002F3F;}
	.st9{fill:#CCCCCC;}
	.st10{fill:#432921;}
	.st11{fill:#CEBC3A;}
	.st12{fill:#A53E35;}
	.st13{fill:#8E312C;}
	.st14{fill:#EBD46C;}
	.st15{fill:#D6B84C;}
	.st16{fill:#D9B552;}
	.st17{fill:#5E1D1C;}
	.st18{fill:#702420;}
	.st19{fill:#E7BC77;}
	.st20{fill:#BD9B3A;}
	.st21{opacity:0.5;enable-background:new    ;}
	.st22{fill:#5F4A40;}
	.st23{fill:#7F3825;}
	.st24{fill:#60291F;}
	.st25{fill:#F2D2A7;}
	.st26{fill:#F1E2D5;}
	.st27{fill:#6D9463;}
	.st28{opacity:0.3;}
	.st29{fill:#F9F9F9;}
	.st30{fill:#C6A375;}
	.st31{fill:#3D2F21;}
	.st32{fill:#C69063;}
	.st33{fill:#190E0B;}
	.st34{fill:#C69C6D;}
	.st35{fill:#603813;}
	.st36{fill:#A57E56;}
	.st37{fill:#8C312C;}
	.st38{fill:#392D24;}
	.st39{fill:#685344;}
	.st40{fill:#C49554;}
	.st41{fill:#D5A163;}
	.st42{fill:#E2C08F;}
	.st43{fill:#FFFFFF;}
	.st44{fill:#E59677;}
	.st45{fill:#A08F2D;}
	.st46{fill:#4B9FBC;}
	.st47{fill:#351F1A;}
	.st48{fill:#070404;}
	.st49{fill:#EFC88E;}
	.st50{fill:#EFD0AB;}
	.st51{fill:#F2D6AD;}
	.st52{fill:#C9B191;}
	.st53{fill:#008D9B;}
	.st54{fill:#006B76;}
	.st55{fill:#004951;}
	.st56{fill:#D63227;}
	.st57{fill:#9D2216;}
	.st58{fill:#4D4D4D;}
	.st59{fill:#333333;}
	.st60{fill:#D0AA76;}
	.st61{fill:#543D98;}
	.st62{fill:#341D63;}
	.st63{fill:#93278F;}
	.st64{fill:#681B68;}
	.st65{fill:#422C79;}
	.st66{fill:#657ABB;}
	.st67{fill:#42507F;}
	.st68{fill:#2C365B;}
	.st69{fill:#536827;}
	.st70{fill:#431544;}
	.st71{fill:#0071BC;}
	.st72{fill:#005E87;}
	.st73{fill:#757575;}
	.st74{fill:#7CC89D;}
	.st75{fill:#73E0B1;}
	.st76{fill:#3EA375;}
	.st77{fill:#E6E6E6;}
	.st78{fill:#CF912A;}
	.st79{fill:#B27E22;}
	.st80{fill:#A0711C;}
	.st81{fill:#1F7AA8;}
	.st82{fill:#666666;}
	.st83{fill:#639A9F;}
	.st84{fill:#545EAA;}
	.st85{fill:#774780;}
	.st86{fill:#75C7A7;}
	.st87{fill:#336655;}
	.st88{fill:#5A9D85;}
	.st89{fill:#8CD3D7;}
	.st90{fill:#6FA8AC;}
	.st91{fill:#00B1A2;}
	.st92{fill:#008277;}
	.st93{fill:#C561A5;}
	.st94{fill:#9C4C84;}
	.st95{fill:#7FCECD;}
	.st96{fill:#5E9B9A;}
	.st97{fill:#F9A882;}
	.st98{fill:#C78869;}
	.st99{fill:#BABCBE;}
	.st100{fill:#898B8D;}
	.st101{fill:#145B7F;}
	.st102{fill:#69AC88;}
</style>
<g>
	<path class="st10" d="M13.3,54.1c0,0-3.9,9.5-11.8,10.1c-0.8,0.1-1.4,0.9-1,1.7c0.9,1.8,3.3,4.5,9.7,4.9l6.4-5.2L13.3,54.1z"/>
</g>
<g>
	<path class="st10" d="M16.6,41C11,41.3,3.4,40.4,0.2,31.8c-0.1-0.3,0.2-0.6,0.5-0.6c2.4,0.4,10.2,1.1,9.3-8.5L16.6,41z"/>
</g>
<g>
	<path class="st10" d="M63.5,73.6c0,0,17.2,3.4,26.6-11.7c0.4-0.7-0.1-1.6-0.9-1.6c-8.4-0.1-12.1-6.2-12.1-6.2s7.1,2.2,9.6-1.4
		c0.5-0.7,0.1-1.6-0.8-1.8c-4.9-1-7-9.4-6.9-11.7c0.8-11.1,11.6-17.2,2.2-26.5c-7.4-7.3-18.8,0.4-18.8,0.4S56.2,2.2,32.6,3.8
		C20.2,4.7,4.5,11.6,11.4,37.9C11.4,37.9,63.1,79.8,63.5,73.6z"/>
</g>
<g>
	<path class="st34" d="M58,86.8c-16.5,7.5-56,4.1-46.9-21.7C4.5,44.3,22-1.8,64.4,37.8C77.9,50.4,63.3,84.4,58,86.8z"/>
</g>
<g>
	<path class="st34" d="M65.9,65.6c3.8-2,8.2-3.8,9.9,1.6c1.6,5.4-6,8.6-10.4,7.2S65.9,65.6,65.9,65.6z"/>
</g>
<g>
	<path class="st26" d="M55.1,62.4c-1.2-3.2-4.6-12.5-19.8-1.4L55.1,62.4z"/>
</g>
<g>
	<path class="st26" d="M10,60c1.9-2.8,7.2-10.8,17.3,0.2L10,60z"/>
</g>
<g>
	<path class="st38" d="M14.9,57.3c0-1.5,1.3-2.6,2.8-2.6c1.5,0,2.6,1.3,2.6,2.8c0,1.5-1.3,2.6-2.8,2.6C16,60,14.8,58.7,14.9,57.3
		C14.8,57.3,14.8,57.3,14.9,57.3z"/>
</g>
<g>
	<path class="st38" d="M43.8,58.7c0-1.7,1.3-3,3-3c1.7,0,3,1.3,3,3c0,1.7-1.3,3-3,3c0,0-0.1,0-0.1,0C45.1,61.7,43.8,60.3,43.8,58.7z
		"/>
</g>
<g>
	<path class="st39" d="M44.6,58c0-0.6,0.5-1.1,1.2-1.1c0.6,0,1.1,0.5,1.1,1.2c0,0.6-0.5,1.1-1.2,1.1c0,0,0,0,0,0
		C45.1,59.2,44.6,58.7,44.6,58C44.6,58,44.6,58,44.6,58z"/>
</g>
<g>
	<path class="st39" d="M15.4,56.7c0-0.6,0.5-1,1.1-0.9s1,0.5,0.9,1.1c0,0.5-0.5,0.9-1,0.9C15.8,57.8,15.4,57.3,15.4,56.7
		C15.4,56.8,15.4,56.7,15.4,56.7z"/>
</g>
<g>
	<path class="st36" d="M26.9,65.1c0.1-1.2,2.1-1.9,4.3-1.6s3.9,1.4,3.8,2.6s-2.1,1.9-4.3,1.6S26.8,66.3,26.9,65.1z"/>
</g>
<g>
	<path class="st34" d="M27,64.6c0.1-1,1.7-1.6,3.6-1.4c1.9,0.2,3.3,1.2,3.2,2.2s-1.8,1.6-3.6,1.3S26.9,65.6,27,64.6z"/>
</g>
<g>
	<path class="st10" d="M55.2,52.8c-2-0.5-10.6,0.1-12.7-0.6c-2-0.7-0.1-3.4-0.1-3.4L55.2,52.8z"/>
</g>
<g>
	<path class="st10" d="M11.7,51.9c1.8-0.5,9.1,0.5,10.9-0.1s0.5-3.3,0.5-3.3L11.7,51.9z"/>
</g>
<g>
	<path class="st36" d="M67.3,67c2.4-1.2,5.2-2.4,6.2,1s-3.8,5.4-6.5,4.5S67.3,67,67.3,67z"/>
</g>
<g>
	<path class="st34" d="M66,69.1c1.1-0.6,2.3-1.1,2.7,0.4s-1.7,2.4-2.9,2S66,69.1,66,69.1z"/>
</g>
<g>
	<path class="st31" d="M39.7,71l-15.3-0.2C24.5,70.8,31,75.8,39.7,71z"/>
</g>
<g>
	<path class="st31" d="M38.6,71.2c0-0.3,0.3-0.6,0.7-0.6s0.8,0.2,0.8,0.5s-0.3,0.6-0.7,0.6S38.7,71.5,38.6,71.2z"/>
</g>
<g>
	<path class="st31" d="M23.4,71.1c0-0.3,0.3-0.6,0.7-0.6s0.8,0.2,0.8,0.5s-0.3,0.6-0.7,0.6S23.4,71.4,23.4,71.1z"/>
</g>
<g>
	<path class="st44" d="M46.2,69.6c0-1.1,1.8-2,3.9-2s3.9,0.9,3.9,2s-1.8,2-3.9,2S46.2,70.7,46.2,69.6z"/>
</g>
<g>
	<path class="st44" d="M11.8,69.5c0-1.1,1.8-2,3.9-2s3.9,0.9,3.9,2s-1.8,2-3.9,2S11.8,70.5,11.8,69.5z"/>
</g>
<g>
	<path class="st10" d="M50.4,33.3c-4,2.1-18.9-5.7-13.2-12.4l9.7,0.8C46.8,21.6,42.8,30.5,50.4,33.3z"/>
</g>
<g>
	<path class="st10" d="M45.9,24.9c0,0,11.8,4.4,11.9,17.9c0,6.5-2.8,13.5,10.9,21.5l7.3-3.7l2-25.8l-9.2-17.9L45.9,24.9z"/>
</g>
<g>
	<path class="st10" d="M12.2,40.9c0,0,4.6,0.8,8.3-4.2c1.7-2.3,0.5-5.2,4.2-9.1c3.6-3.8,7.4-4.5,11.4-5.3L29.1,18L10,22.7L12.2,40.9
		z"/>
</g>
</svg>
