<?xml version="1.0" encoding="utf-8"?>
<!-- Generator: Adobe Illustrator 23.0.0, SVG Export Plug-In . SVG Version: 6.00 Build 0)  -->
<svg version="1.1" id="Capa_1" xmlns="http://www.w3.org/2000/svg" xmlns:xlink="http://www.w3.org/1999/xlink" x="0px" y="0px"
	 viewBox="0 0 403.8 169.3" style="enable-background:new 0 0 403.8 169.3;" xml:space="preserve">
<style type="text/css">
	.st0{fill:none;stroke:#312783;stroke-miterlimit:10;}
	.st1{fill:url(#SVGID_1_);}
	.st2{fill:none;}
	.st3{fill:url(#SVGID_2_);}
	.st4{fill:url(#SVGID_3_);}
	.st5{fill:url(#SVGID_4_);}
	.st6{fill:url(#SVGID_5_);}
	.st7{fill:url(#SVGID_6_);}
	.st8{fill:url(#SVGID_7_);}
	.st9{fill:url(#SVGID_8_);}
	.st10{fill:url(#SVGID_9_);}
	.st11{fill:url(#SVGID_10_);}
	.st12{fill:url(#SVGID_11_);}
	.st13{fill:#ED6F1B;}
	.st14{fill:#185FAA;}
	.st15{fill:#FFFFFF;}
	.st16{fill:#00684E;}
	.st17{fill:#DC2F34;}
	.st18{fill-rule:evenodd;clip-rule:evenodd;fill:#E20E17;}
	.st19{fill-rule:evenodd;clip-rule:evenodd;fill:#FECA05;}
	.st20{fill:url(#SVGID_12_);}
	.st21{fill:url(#SVGID_13_);}
	.st22{fill:url(#SVGID_14_);}
	.st23{fill:url(#SVGID_15_);}
	.st24{fill:url(#SVGID_16_);}
	.st25{fill:url(#SVGID_17_);}
	.st26{fill:url(#SVGID_18_);}
	.st27{fill:url(#SVGID_19_);}
	.st28{fill:url(#SVGID_20_);}
	.st29{fill:url(#SVGID_21_);}
	.st30{fill:url(#SVGID_22_);}
	.st31{fill:url(#SVGID_23_);}
</style>
<g>
	<g>
		<linearGradient id="SVGID_1_" gradientUnits="userSpaceOnUse" x1="0" y1="151.4411" x2="176.0646" y2="151.4411">
			<stop  offset="1.396648e-02" style="stop-color:#E4007D"/>
			<stop  offset="1" style="stop-color:#80152F"/>
		</linearGradient>
		<polygon class="st1" points="176.1,133.6 161.7,169.3 95.2,169.3 0,133.6 		"/>
		<g>
			<linearGradient id="SVGID_2_" gradientUnits="userSpaceOnUse" x1="101.5695" y1="11.6572" x2="139.4954" y2="95.2128">
				<stop  offset="1.396648e-02" style="stop-color:#411941"/>
				<stop  offset="1" style="stop-color:#6F4B99"/>
			</linearGradient>
			<polygon class="st3" points="176.1,133.6 130.7,133.6 95.2,45.1 113.3,0 122.4,0 			"/>
		</g>
		<g>
			<linearGradient id="SVGID_3_" gradientUnits="userSpaceOnUse" x1="0" y1="62.3039" x2="113.33" y2="62.3039">
				<stop  offset="8.379889e-03" style="stop-color:#ED6F1B"/>
				<stop  offset="1" style="stop-color:#E62F1F"/>
			</linearGradient>
			<polygon class="st4" points="68,0 18,124.6 63.3,124.6 95.2,45.1 113.3,0 			"/>
			<linearGradient id="SVGID_4_" gradientUnits="userSpaceOnUse" x1="2.034505e-05" y1="157.9361" x2="113.33" y2="157.9361">
				<stop  offset="8.379889e-03" style="stop-color:#ED6F1B"/>
				<stop  offset="1" style="stop-color:#E62F1F"/>
			</linearGradient>
			<polygon class="st5" points="0,169.3 45.3,169.3 48.5,161.3 9.2,146.5 			"/>
		</g>
	</g>
	<g>
		<path class="st13" d="M216.4,86.6c1.4,0.8,2.6,2,3.2,3.7v-4.7h10.2v29h-10.2V110c-0.8,1.6-1.8,2.8-3.2,3.7
			c-1.4,0.8-3.2,1.4-5.3,1.4c-2.2,0-4.5-0.6-6.3-1.8c-1.8-1.2-3.2-2.8-4.5-5.3c-1-2-1.6-4.7-1.6-7.7c0-3,0.6-5.7,1.6-7.9
			s2.6-4.1,4.5-5.1c1.8-1,3.9-1.8,6.3-1.8C213.1,85.4,214.7,85.8,216.4,86.6z M210.5,95.8c-1,1-1.4,2.4-1.4,4.5
			c0,1.8,0.4,3.5,1.4,4.5c1,1,2.2,1.6,3.9,1.6c1.4,0,2.8-0.6,3.9-1.6c1-1,1.4-2.6,1.4-4.5c0-1.8-0.4-3.2-1.4-4.3
			c-1-1-2.2-1.6-3.9-1.6S211.5,94.7,210.5,95.8z"/>
		<path class="st13" d="M258.2,88.4c2.6,2,4.3,5.1,4.9,8.7h-10.8c-0.2-1-0.6-1.8-1.4-2.2c-0.6-0.6-1.4-0.8-2.4-0.8
			c-1.2,0-2.2,0.6-3,1.6c-0.8,1-1.2,2.6-1.2,4.7s0.4,3.7,1.2,4.7c0.8,1,1.8,1.6,3,1.6c1,0,1.8-0.2,2.4-0.8c0.6-0.6,1-1.2,1.4-2.2
			h10.8c-0.6,3.7-2.2,6.7-4.9,8.7s-5.7,3.2-9.5,3.2c-2.8,0-5.5-0.6-7.7-1.8c-2.2-1.2-4.1-2.8-5.3-5.3c-1.2-2.2-1.8-4.9-1.8-7.9
			c0-3,0.6-5.7,1.8-7.9c1.2-2.2,3-4.1,5.3-5.1c2.2-1,4.9-1.8,7.7-1.8C252.5,85.4,255.6,86.4,258.2,88.4z"/>
		<path class="st13" d="M284.4,106.1v8.7h-4.3c-3.7,0-6.3-0.8-8.3-2.6c-2-1.8-3-4.7-3-8.7v-9.3h-3.7v-8.5h3.7v-7.1h10.2v7.1h5.3v8.5
			h-5.3v9.3c0,0.8,0.2,1.6,0.6,1.8c0.4,0.4,1,0.6,2,0.6h2.8V106.1z"/>
		<path class="st13" d="M289.9,73.8c1-1,2.6-1.4,4.3-1.4c1.8,0,3.2,0.4,4.3,1.4c1,1,1.6,2.2,1.6,3.9c0,1.4-0.6,2.6-1.6,3.7
			c-1,1-2.4,1.4-4.3,1.4c-1.8,0-3.2-0.4-4.3-1.4c-1-1-1.6-2.2-1.6-3.7C288.3,76.1,288.9,74.8,289.9,73.8z M299.4,85.6v29h-10.2v-29
			H299.4z"/>
		<path class="st13" d="M319.1,104.9l5.5-19.3h10.8l-10,29h-12.6l-10.2-29h11L319.1,104.9z"/>
		<path class="st13" d="M366.5,102.1h-19.3c0.2,3.2,1.6,4.9,4.3,4.9c1,0,1.8-0.2,2.4-0.8c0.6-0.4,1-1.2,1.4-1.8h10.8
			c-0.4,2-1.2,3.9-2.6,5.5c-1.2,1.6-3,2.8-5.1,3.9c-2,1-4.3,1.4-6.5,1.4c-2.8,0-5.5-0.6-7.7-1.8c-2.2-1.2-4.1-2.8-5.3-5.3
			c-1.2-2.2-1.8-4.9-1.8-7.9c0-3,0.6-5.7,1.8-7.9s3-4.1,5.3-5.1c2.2-1,4.9-1.8,7.7-1.8c2.8,0,5.5,0.6,7.7,1.8
			c2.2,1.2,3.9,2.8,5.1,5.1s1.8,4.7,1.8,7.5C366.9,100.4,366.7,101.2,366.5,102.1z M355.3,94.5c-0.8-0.8-1.8-1.2-3-1.2
			c-1.4,0-2.4,0.4-3.2,1.2c-0.8,0.8-1.4,1.8-1.4,3.5h9.1C356.5,96.4,356.1,95.1,355.3,94.5z"/>
	</g>
	<g>
		<path class="st13" d="M220.1,141.7c2.2,1.8,3.7,4.3,4.3,7.5h-9.6c-0.2-1-0.8-1.8-1.4-2.2c-0.8-0.6-1.6-0.8-2.6-0.8
			c-0.8,0-1.4,0.2-1.8,0.4c-0.4,0.2-0.6,0.8-0.6,1.4c0,0.8,0.4,1.2,1.2,1.6s2.2,0.8,4.3,1.2c2.2,0.4,4.1,1,5.5,1.6s2.8,1.4,3.9,2.6
			c1,1.2,1.6,2.8,1.6,5.1c0,1.6-0.4,3.3-1.4,4.5c-1,1.2-2.2,2.4-4.1,3.1c-1.8,0.8-3.9,1-6.3,1c-4.1,0-7.3-0.8-9.8-2.6
			c-2.4-1.8-3.9-4.3-4.5-7.5h9.8c0.2,1,0.6,1.8,1.4,2.4c0.8,0.6,1.8,0.8,2.8,0.8c0.8,0,1.4-0.2,1.8-0.6c0.4-0.4,0.6-0.8,0.6-1.4
			c0-0.8-0.4-1.4-1.4-1.8c-0.8-0.4-2.2-0.8-4.3-1.2c-2.2-0.4-4.1-1-5.5-1.4c-1.4-0.6-2.6-1.4-3.7-2.6c-1-1.2-1.6-2.8-1.6-4.9
			c0-2.6,1-4.9,3.1-6.5c2-1.6,4.9-2.4,8.7-2.4C214.6,139,217.6,139.8,220.1,141.7z"/>
		<path class="st13" d="M252,142.1c2.6,2,4.3,5.1,4.9,8.7h-10.8c-0.2-1-0.6-1.8-1.4-2.2c-0.6-0.6-1.4-0.8-2.4-0.8
			c-1.2,0-2.2,0.6-3.1,1.6s-1.2,2.6-1.2,4.7c0,2,0.4,3.7,1.2,4.7c0.8,1,1.8,1.6,3.1,1.6c1,0,1.8-0.2,2.4-0.8c0.6-0.6,1-1.2,1.4-2.2
			h10.8c-0.6,3.7-2.2,6.7-4.9,8.7c-2.6,2-5.7,3.3-9.6,3.3c-2.8,0-5.5-0.6-7.7-1.8c-2.2-1.2-4.1-2.8-5.3-5.3
			c-1.2-2.2-1.8-4.9-1.8-7.9c0-3.1,0.6-5.7,1.8-7.9c1.2-2.2,3.1-4.1,5.3-5.1c2.2-1.2,4.9-1.8,7.7-1.8C246.3,139,249.4,140,252,142.1
			z"/>
		<path class="st13" d="M288.4,142.5c1.8,2.2,2.8,5.3,2.8,9.2v16.9h-10.2v-15.7c0-1.6-0.4-3.1-1.4-4.1c-0.8-1-2-1.4-3.7-1.4
			c-1.4,0-2.6,0.4-3.7,1.4c-1,1-1.4,2.4-1.4,4.1v15.5h-10.2v-38.5h10.2v14.2c0.8-1.6,2-2.8,3.7-3.7s3.5-1.4,5.7-1.4
			C283.8,139,286.4,140.2,288.4,142.5z"/>
		<path class="st13" d="M318.4,140.6c2.2,1.2,4.1,2.8,5.5,5.3c1.2,2.2,2,4.9,2,7.9s-0.6,5.7-2,7.9c-1.2,2.2-3.1,4.1-5.5,5.3
			c-2.2,1.2-4.9,1.8-7.7,1.8c-2.8,0-5.5-0.6-7.9-1.8c-2.2-1.2-4.1-2.8-5.5-5.3c-1.2-2.2-2-4.9-2-7.9s0.6-5.7,2-7.9
			c1.2-2.2,3.1-4.1,5.5-5.1c2.4-1,4.9-1.8,7.9-1.8C313.3,139,315.9,139.6,318.4,140.6z M307,149.4c-1,1-1.4,2.6-1.4,4.5
			c0,2,0.4,3.5,1.4,4.5s2,1.6,3.5,1.6s2.6-0.6,3.5-1.6c0.8-1,1.4-2.6,1.4-4.5c0-2-0.4-3.5-1.4-4.5c-1-1-2-1.6-3.5-1.6
			S307.8,148.4,307,149.4z"/>
		<path class="st13" d="M351.3,140.6c2.2,1.2,4.1,2.8,5.5,5.3c1.2,2.2,2,4.9,2,7.9s-0.6,5.7-2,7.9c-1.2,2.2-3.1,4.1-5.5,5.3
			c-2.2,1.2-4.9,1.8-7.7,1.8c-2.8,0-5.5-0.6-7.9-1.8c-2.2-1.2-4.1-2.8-5.5-5.3c-1.2-2.2-2-4.9-2-7.9s0.6-5.7,2-7.9
			c1.2-2.2,3.1-4.1,5.5-5.1c2.4-1,4.9-1.8,7.9-1.8C346.4,139,349.1,139.6,351.3,140.6z M339.9,149.4c-1,1-1.4,2.6-1.4,4.5
			c0,2,0.4,3.5,1.4,4.5s2,1.6,3.5,1.6c1.4,0,2.6-0.6,3.5-1.6c0.8-1,1.4-2.6,1.4-4.5c0-2-0.4-3.5-1.4-4.5s-2-1.6-3.5-1.6
			C342.2,147.8,340.9,148.4,339.9,149.4z"/>
		<path class="st13" d="M373.1,130.1v38.5h-10.2v-38.5H373.1z"/>
		<path class="st13" d="M399.1,141.7c2.2,1.8,3.7,4.3,4.3,7.5h-9.6c-0.2-1-0.8-1.8-1.4-2.2c-0.6-0.4-1.6-0.8-2.6-0.8
			c-0.8,0-1.4,0.2-1.8,0.4c-0.4,0.4-0.6,0.8-0.6,1.4c0,0.8,0.4,1.2,1.2,1.6s2.2,0.8,4.3,1.2c2.2,0.4,4.1,1,5.5,1.6s2.8,1.4,3.9,2.6
			c1,1.2,1.6,2.8,1.6,5.1c0,1.6-0.4,3.3-1.4,4.5c-1,1.2-2.2,2.4-4.1,3.1c-1.8,0.8-3.9,1-6.3,1c-4.1,0-7.3-0.8-9.8-2.6
			c-2.4-1.8-3.9-4.3-4.5-7.5h9.8c0.2,1,0.6,1.8,1.4,2.4c0.8,0.6,1.8,0.8,2.8,0.8c0.8,0,1.4-0.2,1.8-0.6c0.4-0.4,0.6-0.8,0.6-1.4
			c0-0.8-0.4-1.4-1.4-1.8c-0.8-0.4-2.2-0.8-4.3-1.2c-2.2-0.4-4.1-1-5.5-1.4c-1.4-0.6-2.6-1.4-3.7-2.6c-1-1.2-1.6-2.8-1.6-4.9
			c0-2.6,1-4.9,3.1-6.5c2-1.6,4.9-2.4,8.7-2.4C393.6,139,396.7,139.8,399.1,141.7z"/>
	</g>
	<g>
		<g>
			<rect x="341.7" class="st14" width="62.1" height="58.2"/>
		</g>
		<g>
			<rect x="355" class="st15" width="5.8" height="35.6"/>
		</g>
		<g>
			<rect x="341.7" y="13.3" class="st15" width="32.3" height="5.8"/>
		</g>
		<g>
			<rect x="374" y="6.8" class="st15" width="29.7" height="5.8"/>
		</g>
		<g>
			<rect x="374" y="19.7" class="st15" width="29.7" height="5.8"/>
		</g>
		<g>
			<rect x="341.7" y="32.7" class="st15" width="62.1" height="5.8"/>
		</g>
		<g>
			<rect x="341.7" y="45.6" class="st15" width="62.1" height="5.8"/>
		</g>
	</g>
	<g>
		<g>
			<rect x="270.2" y="0.1" class="st15" width="62.1" height="29.1"/>
		</g>
		<g>
			<rect x="270.2" y="29.1" class="st16" width="62.1" height="29.1"/>
		</g>
		<g>
			<g>
				<g>
					<path class="st17" d="M288.1,17c-2.2,0.4-7.8,0.9-10,0.5l0.4,1.1c3.6-0.4,7.1,0.9,10.3-0.4L288.1,17z"/>
					<path class="st15" d="M285.2,18.9c-0.8,0-1.7-0.1-2.6-0.1c-1.3-0.1-2.7-0.2-4.2-0.1l0,0l-0.5-1.2l0.1,0c2.1,0.4,7.6-0.2,10-0.5
						l0,0l0.8,1.3l-0.1,0C287.6,18.7,286.4,18.9,285.2,18.9z M279.9,18.5c0.9,0,1.8,0.1,2.7,0.1c2.1,0.2,4.1,0.3,6.1-0.4l-0.7-1.1
						c-2,0.3-7.6,0.9-9.9,0.5l0.4,1C279,18.5,279.5,18.5,279.9,18.5z"/>
				</g>
				<g>
					<path class="st17" d="M279.5,19.7c-1.4-0.4-3.7-2.9-4-4.4c1.1,0.8,3.7,1.8,4.6,1.7c-0.3,0.2-1.1,0.8-1.6,0.9
						C278.7,18.4,279.2,19.1,279.5,19.7z"/>
					<path class="st15" d="M279.6,19.7l-0.1,0c-1.4-0.4-3.7-2.9-4.1-4.5l0-0.1l0.1,0.1c1.1,0.8,3.6,1.8,4.6,1.7l0.2,0L280,17
						c-0.3,0.2-1,0.7-1.5,0.8c0.1,0.2,0.3,0.5,0.5,0.8c0.2,0.3,0.4,0.7,0.6,1L279.6,19.7z M275.5,15.3c0.5,1.5,2.5,3.7,3.9,4.2
						c-0.1-0.3-0.3-0.6-0.5-0.9c-0.2-0.3-0.4-0.6-0.5-0.9l0-0.1l0.1,0c0.5-0.1,1.1-0.5,1.5-0.8C278.9,17,276.6,16.1,275.5,15.3z"/>
				</g>
			</g>
			<g>
				<g>
					<path class="st17" d="M283.9,18.9C283.9,18.9,284,18.8,283.9,18.9c0.4,0.6,2.5,0.3,3.6-0.4l-0.3-0.5l-0.2,0.4l-0.3-0.4
						l-0.1,0.6l-0.6-0.5l-0.1,0.5l-0.4-0.5l-0.1,0.6l-0.6-0.5l-0.2,0.6c-0.2-0.2-0.3-0.5-0.3-0.7C284.1,18.4,284,18.7,283.9,18.9z"
						/>
					<path class="st15" d="M285,19.3c-0.5,0-0.9-0.1-1.1-0.3l0,0l0,0c0-0.2,0.2-0.5,0.4-0.6l0.1,0v0.1c0,0.2,0.1,0.5,0.2,0.6
						l0.2-0.6l0.5,0.4l0.1-0.6l0.4,0.5l0.1-0.5l0.6,0.5l0.1-0.6l0.4,0.4l0.2-0.4l0.4,0.6l0,0C286.9,19,285.8,19.3,285,19.3z
						 M284,18.9c0.4,0.5,2.4,0.3,3.5-0.4l-0.2-0.4l-0.2,0.4l-0.3-0.4l-0.1,0.6l-0.6-0.5l-0.1,0.6l-0.4-0.5l-0.1,0.6l-0.6-0.5
						l-0.2,0.6l-0.1-0.1c-0.1-0.2-0.3-0.4-0.3-0.7C284.2,18.5,284,18.7,284,18.9L284,18.9L284,18.9z"/>
				</g>
				<g>
					<path class="st17" d="M284.1,17c0,0.2,0.2,0.6,0.5,0.7c0-0.2-0.2-0.6-0.1-0.8l0.3,0.3l0.1-0.5l0.4,0.3l0-0.6l0.4,0.3v-0.7
						C285.1,16,284.3,16.8,284.1,17z"/>
					<path class="st15" d="M284.7,17.8L284.7,17.8c-0.4-0.2-0.6-0.6-0.6-0.8v0l0,0c0.2-0.3,1-1,1.7-1.1l0.1,0v0.8l-0.4-0.3l0,0.6
						l-0.4-0.3l-0.1,0.5l-0.3-0.3c0,0.1,0,0.3,0.1,0.4C284.6,17.6,284.7,17.7,284.7,17.8L284.7,17.8z M284.2,17
						c0,0.1,0.1,0.5,0.4,0.6c0-0.1,0-0.1,0-0.2c-0.1-0.2-0.1-0.4,0-0.6l0,0l0.3,0.3l0.1-0.5l0.4,0.3l0-0.6l0.4,0.3V16
						C285.1,16.1,284.4,16.8,284.2,17z"/>
				</g>
			</g>
			<g>
				<path class="st17" d="M324.9,23.9c-0.2-0.4-0.7-0.9-1.2-1.2c0.2-0.4,0.5-1.2,0.7-1.9c-0.7,0.2-2.2,0.3-3,0.2
					c1.6-1.6,5-4.9,6.1-6.4c-0.4,2.1-0.1,6.7,0.7,8.3c-0.9-0.4-1.8-1.1-2.4-1.9C325.5,22.1,325.1,23.3,324.9,23.9"/>
				<path class="st15" d="M324.9,23.9c-0.2-0.4-0.7-0.9-1.1-1.2l0,0l0,0c0.1-0.3,0.4-1,0.7-1.8c-0.8,0.1-2.1,0.2-2.9,0.1l-0.1,0
					l0.6-0.6c1.7-1.7,4.6-4.6,5.6-5.9l0.1,0c-0.4,2-0.1,6.7,0.7,8.3l0.1,0.1l-0.1-0.1c-0.9-0.4-1.8-1.1-2.4-1.8
					C325.5,22.3,325.2,23.4,324.9,23.9L324.9,23.9L324.9,23.9z M323.8,22.7c0.4,0.3,0.9,0.7,1.1,1.1c0.2-0.5,0.6-1.7,0.9-2.8l0-0.1
					l0.1,0.1c0.5,0.7,1.4,1.4,2.3,1.8c-0.7-1.7-1-5.9-0.7-8c-1.1,1.4-3.8,4.1-5.5,5.8l-0.4,0.4c0.8,0.1,2.2,0,2.9-0.2l0.1,0l0,0.1
					C324.2,21.6,323.9,22.3,323.8,22.7z"/>
			</g>
			<g>
				<g>
					<path class="st17" d="M293.5,15.1c0.1,0.5,0.1,0.9,0.5,1.1c0.4,0.2,1.2,0.5,1.7,1.4c-0.6-0.2-1.5-0.4-1.6,0.2
						c-0.1,0.6,0.2,0.6,0.6,0.7c0.6,0.1,1.1,0.8,1.1,1.7c-0.5-0.3-1.1-0.5-1.5-0.5c-0.4,0-0.5,0.1-0.6,0.6c-0.2,0.8,0.1,0.9,0.5,0.9
						c0.4,0.1,1.2,0.4,1.2,1.8c-0.4-0.4-1.3-0.6-1.8-0.7c-0.3-0.1-0.3,0.1-0.4,0.6c0,0.5,0,0.7,0.5,0.9c0.5,0.2,1.1,0.5,1.2,1.3
						c-0.5-0.2-1.2-0.2-1.5-0.1c-0.2,0.1-0.3,0.7,0.1,1.7c1.1-0.4,2.2-0.6,3.2-0.7c2.4-0.3,1.8-1.9,1.8-4.5c0-2.6,5.2-5.5,13.2-10.2
						c-1.9,4.9,0.7,4.4,2.2,3.9c1.5-0.6,4.9-2,7.5-3.1c-3.7,2.5-5.5,5.1-2.3,6.2c-4.1,1.3-6,4.9-3.8,7.1c-1.5-0.5-3.7,0.5-4.6,1.9
						c1.6-0.2,4.7,0.2,6.6,0.8c1.8,0.5,4.8-0.1,5.1-1.7c0-0.1,0-0.2,0-0.2c0-0.6-0.1-1-0.4-1.3c-0.5-0.7-1.3-0.8-1.7-0.8
						c-0.7,0-1.3,0.3-1.3,0.8s0.4,0.7,1.2,0.7c0.4,0,1.1,0.1,1.9-0.6c0.2,0.3,0.4,0.7,0.4,1.3c0,0.1,0,0.2,0,0.2
						c-0.8,0.4-1.6,0.6-2.3,0.6c-1.6,0-3.1-0.7-3.1-2.4c0-1.8,1.8-2.8,3.3-2.8c2,0,4.8,0.8,4.8,4c0,4.1-5.3,6-8.5,6
						c0.5,0.4,1.1,0.9,1.8,1.1c2.2,0.9,4.2,2,4.9,3.6c-0.9,0-2.3-0.7-2.9-1.4c1.8,2.2-0.4,6.3-0.2,7.6c0.3,1.5,2,0.6,2,1.7
						c0,1-1,0.8-1.4,0.4c-0.4-0.5-1.6-0.8-2.2-0.4c-0.6,0.4-1.4,0.6-1.8,0.2c-0.4-0.4-1.8-0.3-2.3,0.3c-0.6,0.6-1.4,0.6-1.6,0.2
						c-0.3-0.4-0.2-1,0.9-1.2c-0.5-0.5-1.9,0.4-2.2-0.6c-0.2-0.7,0.2-1,1.5-0.9c-0.1-0.3-1.1-0.5-0.9-1.2c0.1-0.7,0.9-1.1,1.7-0.1
						c2.3,2.7,3.3,1.2,4.1,0c-0.3-0.6,0-1,0.5-1.4c-0.3-0.4-0.1-1,0.1-1.4c-0.4-0.2-0.6-1.2-0.2-1.6c-0.3,0-0.8-0.4-0.8-1
						c-0.3,0.2-0.9,0.3-1.4-0.2c-0.5,0.3-1.7,0.3-2.3-0.3c-0.8,0.3-2.1,0.2-2.4-0.4c-0.7,0.2-1.9-0.4-2.1-1c-0.4,0-0.8-0.2-1.1-0.4
						c-1,0.8-2.4,2.2-1,3.3c1.4,1.1,4.2,0.2,4.2,3c-0.7-0.6-1.9-0.4-2.3-1c-1.4,2-3.3,3.8-6.2,4.6c0.4,0.3,1.2,0.3,1.5,0.3
						c0.6-0.1,1.2,0.5,0.7,1.1c-0.5,0.6-1.5,0.1-2-0.4c-0.8-0.8-1.4-0.3-1.6-0.2c-0.2,0.2-0.5,0.3-0.9-0.1c-0.4-0.4-0.8-0.1-1,0.1
						c-0.3,0.4-1.1-0.5-2.3,0.6c-0.6,0.5-2-0.2-1.4-0.9c-0.6,0.2-1.6-0.7-0.8-1.5c0.8-0.8,2.3,1,3.5,0.5c-0.3-0.3-0.8-1-2-1.1
						c-0.6-0.1-0.7-0.8-0.4-1.3c0.4-0.6,1.4-0.2,2.2,0.8c0.6,0.8,1.3,0.8,2.1,0.6c0.5-0.4,1.4-0.4,1.8-0.3c0-0.4,0.6-0.7,1-0.7
						c0-0.5,0.1-1,0.9-1.1c0.1,0,0.1,0,0.2,0c-0.5,0-1-0.2-1.3-0.6c-1,0.3-2.1-0.2-2.3-1.2c-1.6-0.1-1.7-1.8-1.4-2.4
						c0,0,0.1-0.1,0.1-0.1c-0.5,0.4-1.1,0.5-1.8,0.3c-0.7,0.9-1.8,1.5-3.1,1.1c-0.3,0.5-0.8,0.9-1.4,1c0,0.6-0.1,1.3-0.8,2.1
						c0.2-1.1-1.2-1.5-0.9-3.3c-0.1,1.3-3.9,3.5-4.5,6.3c0.6,0.3,1.2,0.4,1.5,0.4c0.9-0.2,1.3,0.8,1,1.2c-0.3,0.4-1.1,0.6-1.4,0.3
						c-0.3-0.4-1,0.1-1.3-0.5c-0.3-0.7-1.2-0.4-1.6,0c-0.4,0.4-1.6-0.6-2.5,0.4c-0.3,0.4-1.5,0.8-2.2,0.6c-0.7-0.2-1.1-0.9-0.9-1.3
						c-0.5-0.4-0.5-1,0-1.4c-0.2-0.6,0.4-1.9,1.3-1.4c0.6,0.3,2.6,1.8,4.3,0.1c1.5-1.5,0.6-2.7,1.6-2.8c-0.1-0.6,0.3-1.4,0.7-1.5
						c-0.1-0.2-0.1-0.5-0.1-0.8c-0.3,0-0.5-0.1-0.7-0.2c-0.5,0.2-1.4,0.4-2.3,0.4c0,0.6-0.7,2.1-1.3,2.8c-0.2-5.5-5.2-6.1-5.9-10.5
						c0,0.7-0.7,1.3-0.8,1.9c-0.1,0.6-0.4,1-1,0.7c-0.6-0.3-0.8-1.3-0.2-1.5c0.6-0.2,0.5-1.2,0.9-1.3c0.4-0.1,0.4-0.5,0.3-1
						c-0.2-0.5,0.1-1.1,0.2-1.5c0.2-0.4-0.1-1-0.6-1.2c-0.5-0.2-0.7-0.8-0.5-1.3c-0.6-0.4-0.4-1.3,0.4-1.4c0.9-0.2,0.9,1.3,1.4,1.5
						c-0.1-0.3,0-0.9,0.3-1.3c-0.3-0.7,0.1-1.2,0.7-1.2c1.1,0,0.7,1.8,0.5,2.3c0.4-0.5,0.9-1.1,1.3-0.7c0.4,0.4,0.4,1.2-0.1,1.6
						c-0.4,0.3-1.2,0.8-0.9,1.3c0.5,0.8,0.7,1.8,0.8,3c0.6,0.5,1,1,1,1.5c0.4,0,1.2,0.4,1.3,0.9c0.5-0.1,1.3,0.1,1.5,0.5
						c0.2-0.1,0.6-0.1,0.9-0.1c0-0.4,0.1-0.8,0.4-1.1c-0.9-1-0.8-2.5,0.1-3.1c-0.3-0.6-0.2-1.8,0.7-2.4c0-0.6,0.2-1.5,1-2
						c-0.1-0.7,0.3-1.6,0.8-1.7c-0.1-0.7,0-1.5,0.7-1.8c-0.2-0.2-0.3-0.5-0.2-0.7c-1.3,0.3-1.8,1.1-2.2,1.8c-0.1-0.3-0.1-0.7-0.3-1
						c0,0.8-0.6,1.1-0.6,2.1c-0.4-0.5-0.6-1.2-0.6-1.7c0-0.4-0.7-0.8-0.5-1.5c1,0.9,3-1.1,4.8-0.5c-1.7-3.6-3-1.9-3.9-1.3
						c-0.9,0.6-1.5-0.3-1.4-0.9c-1.2-0.3-2.6-0.2-4.1,0.1c1.1-1.5,3.8-2.1,5.8-2c0.9-1.6,1.9-1.4,2.9-1.2c0.7,0.1,1.4,0.1,2.2,0.1
						c0.5-1.3,3.3-1.5,3.5-2.5c0.3,0.2,0.1,1-0.2,1.6c0.7-0.2,1.4-0.4,1.6-0.9c0.1,0.4-0.1,1.6-0.4,1.9c0.3-0.1,0.6-0.1,0.9-0.1
						c-0.9,0.5-2,1.3-2.2,1.4C293.2,14.5,293.1,14.8,293.5,15.1c-0.5,0.1-1.9,0.6-2.5,0.2"/>
					<path class="st15" d="M281,45.6c-0.2,0-0.3,0-0.4-0.1c-0.4-0.1-0.8-0.4-0.9-0.8c-0.1-0.2-0.1-0.4,0-0.5
						c-0.2-0.2-0.3-0.4-0.3-0.7c0-0.3,0.1-0.5,0.3-0.7c-0.1-0.4,0.1-1.1,0.5-1.4c0.2-0.1,0.5-0.3,0.9,0c0.1,0,0.1,0.1,0.2,0.1
						c0.8,0.5,2.5,1.5,4.1,0c0.8-0.8,0.9-1.5,1-2c0.1-0.4,0.1-0.8,0.6-0.8c-0.1-0.6,0.3-1.3,0.6-1.5c-0.1-0.2-0.1-0.5-0.1-0.7
						c-0.2,0-0.4-0.1-0.6-0.1c-0.3,0.1-1.2,0.3-2.3,0.4c0,0.6-0.7,2-1.3,2.7l-0.1,0.1l0-0.1c-0.1-3-1.6-4.5-3.1-6
						c-1.2-1.2-2.4-2.3-2.7-4.2c-0.1,0.3-0.2,0.5-0.4,0.8c-0.2,0.3-0.3,0.5-0.4,0.8c-0.1,0.4-0.2,0.6-0.4,0.8
						c-0.2,0.1-0.4,0.1-0.7,0c-0.4-0.2-0.6-0.6-0.6-1c0-0.3,0.2-0.5,0.4-0.6c0.3-0.1,0.4-0.4,0.5-0.7c0.1-0.3,0.2-0.5,0.3-0.6
						c0.4-0.1,0.3-0.7,0.3-1c-0.2-0.5,0.1-1.2,0.2-1.5c0.1-0.4-0.1-1-0.6-1.2c-0.5-0.2-0.7-0.8-0.5-1.3c-0.3-0.2-0.4-0.5-0.3-0.8
						c0.1-0.3,0.3-0.6,0.7-0.7c0.6-0.1,0.8,0.4,1,0.9c0.1,0.2,0.2,0.5,0.4,0.6c0-0.3,0.1-0.8,0.3-1.2c-0.1-0.3-0.1-0.6,0-0.9
						c0.1-0.2,0.4-0.4,0.7-0.4c0.3,0,0.5,0.1,0.6,0.3c0.3,0.4,0.2,1.2,0,1.8c0.2-0.3,0.5-0.5,0.8-0.6c0.1,0,0.3,0,0.4,0.1
						c0.2,0.2,0.3,0.5,0.3,0.8c0,0.4-0.2,0.7-0.4,0.9c-0.1,0-0.1,0.1-0.2,0.1c-0.4,0.3-0.9,0.7-0.7,1.1c0.5,0.8,0.7,1.8,0.8,3
						c0.6,0.5,1,1,1,1.5c0.4,0,1.2,0.4,1.3,0.8c0.6,0,1.2,0.1,1.5,0.5c0.2-0.1,0.6-0.1,0.8-0.1c0-0.4,0.1-0.7,0.4-1
						c-0.5-0.5-0.7-1.2-0.6-1.9c0.1-0.5,0.3-0.9,0.6-1.2c-0.2-0.6-0.2-1.8,0.7-2.4c0-0.6,0.2-1.4,1-2c-0.1-0.4,0.1-1,0.3-1.3
						c0.1-0.2,0.3-0.3,0.5-0.3c-0.1-0.4-0.1-1.4,0.7-1.8c-0.1-0.2-0.2-0.4-0.2-0.6c-1.2,0.3-1.7,1-2.1,1.7l-0.1,0.1l0-0.1
						c0-0.3-0.1-0.6-0.2-0.8c0,0.3-0.1,0.5-0.3,0.7c-0.2,0.3-0.3,0.7-0.3,1.2l0,0.1l-0.1-0.1c-0.4-0.5-0.6-1.2-0.6-1.7
						c0-0.1-0.1-0.3-0.2-0.5c-0.2-0.3-0.4-0.6-0.3-1l0-0.1l0.1,0.1c0.5,0.4,1.2,0.2,2.1-0.1c0.8-0.3,1.7-0.6,2.6-0.4
						c-0.6-1.3-1.2-1.9-1.8-2.1c-0.6-0.1-1.1,0.3-1.6,0.7c-0.1,0.1-0.2,0.2-0.3,0.3c-0.4,0.3-0.7,0.3-1,0.1c-0.3-0.2-0.5-0.6-0.5-1
						c-1.1-0.3-2.5-0.2-4.1,0.1l-0.1,0l0.1-0.1c1.1-1.5,3.8-2.1,5.8-2c0.8-1.5,1.8-1.4,2.8-1.2l0.1,0c0.6,0.1,1.3,0.1,2.1,0.1
						c0.3-0.7,1.1-1.1,2-1.4c0.7-0.3,1.4-0.6,1.6-1.1l0-0.1l0.1,0c0.3,0.2,0.1,0.9-0.1,1.6c0.6-0.2,1.2-0.4,1.4-0.9l0.1-0.1l0,0.1
						c0.1,0.4,0,1.4-0.3,1.9c0.3-0.1,0.5-0.1,0.8-0.1h0.2l-0.2,0.1c-0.8,0.5-1.9,1.2-2.2,1.4c0,0-0.1,0.1-0.1,0.2
						c0,0.1,0.1,0.2,0.3,0.3l0.1,0.1l-0.1,0c0,0,0,0.1,0,0.1c0.1,0.4,0.1,0.7,0.4,0.9l0,0c0.4,0.2,1.2,0.5,1.7,1.4l0.1,0.1l-0.1,0
						c-0.5-0.1-1.1-0.3-1.4-0.1c-0.1,0.1-0.1,0.1-0.1,0.3c-0.1,0.5,0.1,0.5,0.4,0.6c0,0,0.1,0,0.1,0c0.5,0.1,1.1,0.8,1.1,1.8l0,0.1
						l-0.1,0c-0.5-0.3-1.1-0.5-1.5-0.5c-0.4,0-0.5,0-0.6,0.5c-0.1,0.3-0.1,0.6,0,0.7c0.1,0.1,0.3,0.1,0.4,0.2c0.1,0,1.2,0.2,1.3,1.9
						l0,0.1l-0.1-0.1c-0.5-0.4-1.4-0.6-1.8-0.7c-0.1,0-0.1,0-0.2,0c-0.1,0.1-0.1,0.2-0.1,0.6c0,0.5,0,0.7,0.5,0.8
						c0.4,0.1,1.1,0.5,1.3,1.4l0,0.1l-0.1,0c-0.5-0.2-1.2-0.1-1.4,0c-0.2,0.1-0.3,0.6,0.1,1.6c1-0.3,2-0.6,3.1-0.7
						c1.9-0.2,1.9-1.3,1.8-3.2c0-0.4,0-0.8,0-1.3c0-2.5,4.8-5.3,12.1-9.6l1.2-0.7l-0.1,0.1c-0.8,2-0.9,3.2-0.3,3.8
						c0.5,0.6,1.6,0.3,2.4,0c1.4-0.5,4.7-1.9,7.5-3.1l0,0.1c-2.7,1.8-4.1,3.4-3.9,4.6c0.1,0.6,0.6,1.2,1.6,1.5l0.1,0.1l-0.1,0
						c-2.4,0.8-4.2,2.3-4.6,4.1c-0.3,1.1,0,2.1,0.9,3l-0.1,0.1c-1.5-0.5-3.6,0.5-4.5,1.8c1.6-0.1,4.6,0.2,6.6,0.8
						c1.3,0.4,3.1,0.2,4.1-0.5c0.5-0.3,0.8-0.7,0.9-1.1c-0.9,0.5-1.7,0.6-2.2,0.6c-2,0-3.2-0.9-3.2-2.5c0-1.8,1.9-2.8,3.3-2.8
						c1.1,0,4.9,0.3,4.9,4.1c0,2.3-1.7,3.8-3.1,4.6c-1.8,1-3.9,1.4-5.3,1.5c0.6,0.5,1.1,0.8,1.6,1c1.9,0.7,4.2,1.8,5,3.6l0,0.1h-0.1
						c-0.7,0-1.9-0.5-2.6-1.1c0.9,1.5,0.3,3.6-0.1,5.2c-0.2,0.9-0.4,1.6-0.3,2.1c0.1,0.7,0.6,0.8,1.1,0.9c0.4,0.1,0.9,0.2,0.9,0.8
						c0,0.4-0.1,0.6-0.4,0.7c-0.4,0.1-0.8-0.1-1.1-0.3c-0.4-0.5-1.6-0.8-2.1-0.4c-0.6,0.4-1.5,0.6-1.9,0.2c-0.1-0.1-0.4-0.2-0.7-0.2
						c-0.5,0-1.2,0.2-1.6,0.5c-0.4,0.3-0.8,0.5-1.2,0.5c-0.2,0-0.4-0.1-0.5-0.3c-0.1-0.3-0.2-0.5-0.1-0.7c0.1-0.3,0.4-0.4,0.9-0.5
						c-0.2-0.1-0.5-0.1-0.9-0.1c-0.5,0-1.1,0.1-1.3-0.5c-0.1-0.3-0.1-0.5,0.1-0.7c0.2-0.2,0.6-0.3,1.3-0.3c-0.1-0.1-0.2-0.1-0.3-0.2
						c-0.3-0.2-0.7-0.4-0.6-0.9c0.1-0.4,0.3-0.6,0.6-0.7c0.2-0.1,0.7-0.1,1.2,0.6c0.9,1,1.6,1.5,2.3,1.5c0.8,0,1.3-0.8,1.7-1.4
						c-0.3-0.7,0.1-1.1,0.5-1.4c-0.3-0.5,0-1.1,0.1-1.4c-0.2-0.1-0.4-0.5-0.4-0.9c0-0.3,0-0.5,0.2-0.7c-0.3-0.1-0.7-0.4-0.8-1
						c-0.3,0.2-0.9,0.3-1.4-0.2c-0.5,0.3-1.7,0.3-2.3-0.3c-0.8,0.3-2.1,0.2-2.4-0.4c-0.7,0.2-1.9-0.4-2.1-1c-0.3,0-0.7-0.1-1.1-0.3
						c-0.5,0.4-1.5,1.3-1.5,2.2c0,0.4,0.2,0.7,0.6,1c0.5,0.4,1.1,0.5,1.8,0.7c1.2,0.3,2.4,0.5,2.5,2.3l0,0.1l-0.1-0.1
						c-0.3-0.3-0.7-0.4-1.2-0.5c-0.4-0.1-0.8-0.2-1.1-0.5c-1.6,2.3-3.6,3.9-6.1,4.5c0.4,0.2,1.1,0.2,1.4,0.2c0.4,0,0.7,0.1,0.8,0.4
						c0.1,0.2,0.1,0.5-0.1,0.8c-0.1,0.2-0.3,0.3-0.5,0.3c-0.5,0-1.1-0.3-1.6-0.7c-0.8-0.7-1.3-0.3-1.5-0.2c-0.3,0.3-0.7,0.2-1-0.1
						c-0.1-0.1-0.3-0.2-0.4-0.2c-0.2,0-0.4,0.2-0.5,0.3c-0.1,0.2-0.4,0.1-0.6,0.1c-0.4-0.1-1-0.2-1.7,0.5c-0.4,0.3-1,0.2-1.4-0.1
						c-0.3-0.2-0.3-0.5-0.2-0.8c-0.3,0-0.7-0.2-0.9-0.5c-0.2-0.4-0.1-0.7,0.2-1.1c0.4-0.4,1-0.1,1.7,0.1c0.6,0.3,1.2,0.5,1.8,0.3
						c-0.3-0.4-0.9-0.9-1.9-1.1c-0.2,0-0.4-0.2-0.5-0.4c-0.1-0.3-0.1-0.7,0.1-1c0.1-0.2,0.3-0.3,0.5-0.3c0.5,0,1.2,0.4,1.7,1.1
						c0.6,0.8,1.3,0.8,2.1,0.6c0.5-0.3,1.3-0.4,1.7-0.3c0.1-0.4,0.6-0.7,1-0.7c0-0.6,0.2-0.9,0.7-1c-0.4-0.1-0.7-0.3-1-0.5
						c-0.6,0.1-1.2,0-1.6-0.3c-0.4-0.2-0.6-0.6-0.7-0.9c-0.6-0.1-1.1-0.4-1.4-0.9c-0.2-0.5-0.2-1.1,0-1.4c-0.5,0.3-1,0.3-1.6,0.1
						c-0.7,1-1.9,1.4-3.1,1.1c-0.3,0.5-0.8,0.8-1.3,1c0,0.5,0,1.2-0.9,2.1l-0.1,0.1l0-0.2c0.1-0.5-0.1-0.8-0.4-1.2
						c-0.3-0.4-0.6-0.9-0.6-1.6c-0.3,0.5-0.8,1-1.5,1.7c-1.1,1.1-2.5,2.5-2.9,4.2c0.6,0.3,1.1,0.4,1.5,0.3c0.4-0.1,0.8,0,1,0.4
						c0.2,0.3,0.2,0.7,0.1,0.9c-0.2,0.2-0.5,0.4-0.9,0.5c-0.3,0-0.5-0.1-0.6-0.2c-0.1-0.1-0.3-0.1-0.5-0.1c-0.3,0-0.6,0-0.8-0.4
						c-0.1-0.3-0.4-0.4-0.5-0.4c-0.3,0-0.8,0.1-1,0.4c-0.2,0.2-0.5,0.1-0.8,0.1c-0.5-0.1-1.2-0.2-1.7,0.4
						C282.5,45.3,281.7,45.6,281,45.6z M280.5,41.4c-0.1,0-0.3,0-0.4,0.1c-0.4,0.3-0.5,0.9-0.4,1.3l0,0l0,0
						c-0.2,0.2-0.3,0.5-0.3,0.7c0,0.2,0.1,0.5,0.3,0.6l0,0l0,0c-0.1,0.1-0.1,0.3,0,0.5c0.1,0.3,0.5,0.6,0.8,0.7
						c0.7,0.2,1.8-0.2,2.1-0.5c0.6-0.6,1.2-0.5,1.8-0.4c0.3,0.1,0.6,0.1,0.7,0c0.3-0.3,0.7-0.5,1.1-0.4c0.3,0,0.5,0.2,0.6,0.4
						c0.2,0.3,0.4,0.3,0.7,0.4c0.2,0,0.4,0,0.6,0.2c0.1,0.1,0.3,0.2,0.5,0.2c0.3,0,0.6-0.2,0.8-0.4c0.1-0.2,0.1-0.6-0.1-0.8
						c-0.1-0.2-0.4-0.4-0.9-0.3c-0.3,0.1-0.9-0.1-1.6-0.4l0,0l0,0c0.4-1.7,1.8-3.1,2.9-4.3c0.8-0.8,1.4-1.4,1.6-2c0,0,0-0.1,0-0.1
						l0.1,0c0,0,0,0.1,0,0.1c-0.1,0.9,0.2,1.4,0.5,1.9c0.2,0.3,0.4,0.7,0.4,1.1c0.7-0.8,0.8-1.5,0.7-2l0,0l0,0c0.5-0.1,1-0.5,1.3-1
						l0,0l0,0c1.1,0.3,2.3-0.1,3-1.1l0,0l0,0c0.7,0.2,1.3,0.1,1.8-0.3l0.1,0.1c0,0-0.1,0.1-0.1,0.1c-0.2,0.3-0.3,0.9,0,1.4
						c0.2,0.4,0.5,0.8,1.3,0.9l0,0l0,0c0.1,0.4,0.3,0.7,0.6,0.9c0.4,0.3,1,0.4,1.6,0.2l0,0l0,0c0.3,0.4,0.8,0.6,1.3,0.6l0,0.1
						c-0.1,0-0.1,0-0.2,0c-0.6,0.1-0.8,0.4-0.8,1l0,0.1h-0.1c-0.4,0-1,0.3-1,0.7v0.1l-0.1,0c-0.4-0.1-1.2-0.1-1.7,0.2l0,0
						c-0.7,0.1-1.6,0.2-2.2-0.6c-0.5-0.7-1.2-1.1-1.6-1.1c-0.2,0-0.3,0.1-0.4,0.3c-0.2,0.3-0.2,0.7-0.1,0.9c0.1,0.2,0.2,0.3,0.5,0.3
						c1.1,0.1,1.7,0.7,2,1.1l0,0.1l-0.1,0c-0.6,0.3-1.3-0.1-1.9-0.3c-0.6-0.3-1.2-0.5-1.5-0.2c-0.4,0.4-0.3,0.8-0.2,1
						c0.2,0.3,0.6,0.5,0.9,0.5l0.1,0l-0.1,0.1c-0.3,0.4,0,0.7,0.1,0.8c0.3,0.3,0.9,0.4,1.2,0.1c0.8-0.7,1.4-0.6,1.8-0.5
						c0.3,0,0.4,0.1,0.5-0.1c0.1-0.1,0.3-0.3,0.6-0.3c0.2,0,0.3,0.1,0.5,0.2c0.4,0.4,0.7,0.3,0.9,0.1c0.2-0.2,0.8-0.6,1.7,0.2
						c0.4,0.3,1,0.7,1.5,0.7c0.2,0,0.4-0.1,0.5-0.3c0.2-0.2,0.2-0.5,0.1-0.7c-0.1-0.2-0.4-0.4-0.7-0.3c-0.3,0-1.1,0-1.5-0.3
						l-0.1-0.1l0.1,0c2.5-0.6,4.6-2.2,6.2-4.6l0-0.1l0,0.1c0.2,0.3,0.6,0.4,1.1,0.5c0.4,0.1,0.8,0.2,1.1,0.4
						c-0.1-1.7-1.2-1.9-2.4-2.1c-0.7-0.1-1.3-0.3-1.8-0.7c-0.4-0.3-0.6-0.7-0.6-1.1c0-1,1.1-1.9,1.6-2.3l0,0l0,0
						c0.3,0.2,0.8,0.3,1.1,0.3l0,0l0,0c0.2,0.6,1.4,1.2,2.1,1l0,0l0,0c0.3,0.5,1.6,0.6,2.4,0.3l0,0l0,0c0.5,0.6,1.8,0.5,2.2,0.3l0,0
						l0,0c0.5,0.4,1.1,0.3,1.3,0.1l0.1-0.1v0.1c0,0.7,0.5,1,0.8,1h0.1l-0.1,0.1c-0.1,0.1-0.2,0.4-0.2,0.7c0,0.4,0.2,0.7,0.4,0.8l0,0
						l0,0c-0.1,0.3-0.4,0.9-0.1,1.4l0,0l0,0c-0.6,0.4-0.7,0.8-0.5,1.3l0,0l0,0c-0.4,0.6-1,1.4-1.8,1.5c-0.7,0-1.5-0.5-2.4-1.5
						c-0.4-0.4-0.8-0.6-1.1-0.6c-0.3,0.1-0.5,0.3-0.5,0.6c-0.1,0.4,0.3,0.6,0.5,0.8c0.2,0.1,0.3,0.2,0.4,0.3l0,0.1l-0.1,0
						c-0.7-0.1-1.2,0-1.3,0.2c-0.1,0.1-0.1,0.3-0.1,0.6c0.1,0.5,0.6,0.5,1.2,0.4c0.4,0,0.8-0.1,1,0.2l0.1,0.1l-0.1,0
						c-0.5,0.1-0.8,0.3-0.9,0.5c-0.1,0.2,0,0.5,0.1,0.6c0.1,0.1,0.2,0.2,0.4,0.2c0.4,0,0.8-0.1,1.1-0.4c0.4-0.4,1.1-0.6,1.7-0.5
						c0.3,0,0.6,0.1,0.7,0.2c0.3,0.4,1.2,0.2,1.7-0.2c0.6-0.5,1.9-0.1,2.3,0.4c0.2,0.2,0.6,0.4,0.9,0.3c0.2-0.1,0.4-0.3,0.4-0.7
						c0-0.5-0.3-0.6-0.8-0.7c-0.5-0.1-1-0.2-1.2-1c-0.1-0.5,0.1-1.2,0.3-2.1c0.5-1.8,1-4.1-0.2-5.5l0.1-0.1c0.6,0.7,2,1.3,2.8,1.4
						c-0.8-1.7-3-2.8-4.9-3.5c-0.6-0.2-1.2-0.6-1.8-1.1l-0.1-0.1h0.1c1.4,0,3.5-0.4,5.4-1.5c1.4-0.8,3-2.2,3-4.5c0-3.7-3.7-4-4.8-4
						c-1.3,0-3.2,0.9-3.2,2.7c0,1.5,1.1,2.4,3.1,2.4c0.5,0,1.4-0.1,2.2-0.6c0-0.1,0-0.1,0-0.2c0-0.5-0.1-0.9-0.3-1.2
						c-0.7,0.6-1.3,0.6-1.7,0.6c0,0-0.1,0-0.1,0c-0.5,0-1.3-0.1-1.3-0.7c0-0.5,0.7-0.8,1.4-0.8c0.3,0,1.2,0.1,1.7,0.8l0,0l0,0
						c0,0,0,0,0,0c0.2,0.3,0.4,0.8,0.4,1.3c0,0,0,0,0,0c0,0.1,0,0.2,0,0.3c-0.1,0.5-0.4,0.9-0.9,1.2c-1.1,0.7-2.9,0.9-4.2,0.5
						c-2-0.6-5.1-0.9-6.6-0.8l-0.1,0l0.1-0.1c0.8-1.3,2.9-2.4,4.4-2c-0.7-0.8-1-1.8-0.7-2.9c0.4-1.8,2.2-3.3,4.5-4.1
						c-0.9-0.4-1.5-0.9-1.5-1.5c-0.1-1.2,1.1-2.7,3.5-4.4c-2.5,1.1-5.6,2.4-7.1,2.9c-0.8,0.3-1.9,0.6-2.5,0
						c-0.6-0.6-0.5-1.9,0.2-3.8l-0.9,0.5c-7.3,4.2-12.1,7-12.1,9.5c0,0.5,0,0.9,0,1.3c0.1,1.9,0.1,3.1-1.9,3.3
						c-1.1,0.1-2.2,0.3-3.2,0.7l0,0l0,0c-0.5-1.1-0.4-1.7-0.1-1.8c0.2-0.1,0.9-0.2,1.4,0c-0.2-0.8-0.8-1.1-1.2-1.2
						c-0.5-0.2-0.6-0.4-0.6-0.9c0-0.4,0.1-0.5,0.2-0.6c0.1,0,0.1-0.1,0.3,0c0.4,0.1,1.2,0.2,1.7,0.6c-0.1-1.5-1.1-1.6-1.2-1.6
						c-0.2,0-0.4-0.1-0.5-0.2c-0.1-0.2-0.1-0.4,0-0.8c0.1-0.5,0.2-0.6,0.7-0.6c0.4,0,1,0.2,1.4,0.5c-0.1-0.9-0.6-1.5-1.1-1.6
						c0,0-0.1,0-0.1,0c-0.3-0.1-0.6-0.1-0.5-0.7c0-0.1,0.1-0.3,0.2-0.3c0.3-0.2,0.9-0.1,1.3,0.1c-0.5-0.8-1.2-1.1-1.6-1.2l0,0
						c-0.4-0.1-0.4-0.5-0.5-0.9c0,0,0-0.1,0-0.1c-0.1,0-0.2,0-0.3,0.1c-0.7,0.2-1.7,0.4-2.1,0.1l0.1-0.1c0.4,0.3,1.5,0,2.1-0.1
						c0.1,0,0.2,0,0.3-0.1c-0.2-0.1-0.2-0.2-0.2-0.3c0-0.1,0.1-0.2,0.2-0.3c0.2-0.1,1.2-0.8,2-1.3c-0.2,0-0.4,0-0.7,0.1l-0.2,0
						l0.1-0.1c0.2-0.3,0.4-1.3,0.4-1.8c-0.3,0.4-0.9,0.6-1.5,0.8l-0.1,0l0-0.1c0.3-0.7,0.3-1.3,0.2-1.5c-0.2,0.5-0.9,0.8-1.6,1.1
						c-0.8,0.3-1.7,0.7-1.9,1.4l0,0l0,0c-0.9,0-1.6,0-2.2-0.1l-0.1,0c-1-0.2-1.9-0.3-2.7,1.2l0,0l0,0c-1.9-0.1-4.5,0.5-5.6,1.9
						c1.6-0.3,2.9-0.3,4,0l0,0l0,0c-0.1,0.3,0.1,0.8,0.4,1c0.2,0.1,0.5,0.2,0.9-0.1c0.1-0.1,0.2-0.2,0.3-0.3c0.4-0.4,1-0.8,1.7-0.7
						c0.7,0.1,1.3,0.9,1.9,2.2l0.1,0.1l-0.1,0c-0.9-0.3-1.8,0-2.6,0.3c-0.8,0.3-1.6,0.6-2.1,0.2c-0.1,0.4,0.1,0.6,0.3,0.9
						c0.1,0.2,0.2,0.3,0.2,0.5c0,0.5,0.1,1.1,0.5,1.6c0-0.5,0.2-0.8,0.3-1.1c0.1-0.3,0.3-0.5,0.3-0.9v-0.2l0.1,0.2
						c0.1,0.3,0.2,0.6,0.3,0.9c0.4-0.7,1-1.4,2.1-1.7l0.1,0l0,0.1c0,0.2,0.1,0.5,0.2,0.7l0,0l-0.1,0c-0.8,0.4-0.7,1.4-0.7,1.8l0,0.1
						l-0.1,0c-0.2,0-0.4,0.2-0.5,0.3c-0.3,0.3-0.4,0.9-0.3,1.3l0,0l0,0c-0.8,0.5-1,1.3-1,1.9l0,0l0,0c-0.8,0.6-0.9,1.7-0.7,2.3l0,0
						l0,0c-0.4,0.2-0.6,0.6-0.6,1.1c-0.1,0.7,0.1,1.3,0.6,1.9l0,0l0,0c-0.2,0.3-0.3,0.6-0.4,1l0,0.1l-0.1,0c-0.3,0-0.7,0-0.8,0.1
						l0,0l0,0c-0.2-0.4-0.9-0.5-1.4-0.5l0,0l0,0c-0.1-0.5-0.9-0.8-1.3-0.8l0,0v0c0-0.4-0.4-1-1-1.4l0,0l0,0c0-1.2-0.3-2.1-0.8-3
						c-0.2-0.5,0.4-0.9,0.8-1.2c0.1,0,0.1-0.1,0.2-0.1c0.2-0.2,0.4-0.5,0.4-0.8c0-0.3-0.1-0.6-0.3-0.7c-0.1-0.1-0.2-0.1-0.3-0.1
						c-0.3,0-0.6,0.3-0.9,0.8l-0.1,0c0.2-0.5,0.4-1.5,0.1-2c-0.1-0.2-0.3-0.3-0.5-0.3c-0.3,0-0.5,0.1-0.6,0.3
						c-0.1,0.2-0.1,0.5,0,0.8l0,0l0,0c-0.2,0.4-0.3,0.9-0.2,1.2l0,0.1l-0.1,0c-0.2-0.1-0.4-0.4-0.5-0.7c-0.2-0.5-0.4-0.9-0.9-0.8
						c-0.3,0.1-0.6,0.3-0.6,0.6c-0.1,0.3,0.1,0.6,0.3,0.7l0,0l0,0c-0.2,0.5,0,1,0.5,1.2c0.6,0.2,0.8,0.9,0.6,1.3
						c-0.1,0.3-0.4,0.9-0.2,1.4c0.2,0.6,0.1,1-0.3,1.1c-0.1,0-0.2,0.3-0.3,0.5c-0.1,0.3-0.2,0.7-0.6,0.8c-0.2,0.1-0.3,0.2-0.3,0.5
						c0,0.3,0.2,0.8,0.5,0.9c0.2,0.1,0.4,0.1,0.6,0c0.2-0.1,0.3-0.4,0.4-0.7c0-0.3,0.2-0.5,0.4-0.8c0.2-0.3,0.4-0.7,0.4-1l0.1,0
						c0.3,2,1.5,3.2,2.8,4.4c1.5,1.5,3,3,3.2,5.9c0.6-0.7,1.2-2.1,1.2-2.6v-0.1h0.1c1,0,2-0.3,2.3-0.4l0,0l0,0
						c0.2,0.1,0.4,0.1,0.7,0.2l0.1,0l0,0.1c-0.1,0.3-0.1,0.6,0.1,0.8l0,0.1l-0.1,0c-0.4,0.1-0.7,0.9-0.6,1.5l0,0.1l-0.1,0
						c-0.4,0.1-0.5,0.3-0.5,0.8c-0.1,0.5-0.2,1.2-1,2.1c-1.6,1.6-3.4,0.5-4.2,0c-0.1,0-0.1-0.1-0.2-0.1
						C280.8,41.4,280.7,41.4,280.5,41.4z M320.6,24.1c-0.6,0-1.3,0.3-1.3,0.7c0,0.4,0.4,0.6,1.2,0.6c0,0,0.1,0,0.1,0
						c0.4,0,1,0,1.7-0.6C321.8,24.2,320.9,24.1,320.6,24.1z"/>
				</g>
			</g>
			<g>
				<g>
					<path class="st17" d="M274.4,21.9c0.7-0.5,1.6-0.1,1.8,0.6c0.1,0.5-0.6,0.8-0.7,0.4C275.4,22.2,275,21.9,274.4,21.9z"/>
					<path class="st15" d="M275.7,23c0,0-0.1,0-0.1,0c-0.1,0-0.2-0.1-0.2-0.2c-0.1-0.6-0.4-0.9-1-0.9l-0.1,0l0.1-0.1
						c0.3-0.2,0.7-0.3,1.1-0.2c0.4,0.1,0.6,0.4,0.7,0.8c0,0.2,0,0.3-0.1,0.5C276,23,275.8,23,275.7,23z M274.6,21.8
						c0.5,0.1,0.9,0.4,1,1c0,0.1,0,0.1,0.1,0.1c0.1,0,0.3,0,0.4-0.1c0.1-0.1,0.2-0.2,0.1-0.4c-0.1-0.3-0.3-0.6-0.7-0.7
						C275.2,21.6,274.8,21.7,274.6,21.8z"/>
				</g>
				<g>
					<path class="st17" d="M277,20.4c0.8-0.3,1.5,0.3,1.5,1.1c0,0.5-0.8,0.6-0.8,0.1C277.9,21,277.6,20.6,277,20.4z"/>
					<path class="st15" d="M278.1,21.9c-0.1,0-0.2,0-0.2-0.1c-0.1-0.1-0.1-0.2-0.1-0.3c0.1-0.6-0.2-1-0.7-1.2l-0.1,0l0.1,0
						c0.4-0.1,0.8-0.1,1.1,0.2c0.3,0.2,0.5,0.6,0.5,0.9c0,0.2-0.1,0.3-0.3,0.4C278.3,21.9,278.2,21.9,278.1,21.9z M277.2,20.4
						c0.5,0.2,0.7,0.6,0.6,1.2c0,0.1,0,0.1,0.1,0.2c0.1,0.1,0.3,0.1,0.4,0c0.1-0.1,0.2-0.2,0.2-0.3c0-0.3-0.2-0.7-0.4-0.9
						C277.8,20.4,277.5,20.3,277.2,20.4z"/>
				</g>
				<g>
					<path class="st17" d="M279.9,21.7c0.7,0.4,0.9,1.3,0.3,1.8c-0.3,0.3-1-0.2-0.7-0.4C280.1,22.7,280.2,22.2,279.9,21.7z"/>
					<path class="st15" d="M280,23.7c-0.1,0-0.1,0-0.2,0c-0.2-0.1-0.3-0.2-0.4-0.4c0-0.1,0-0.2,0.1-0.3c0.4-0.3,0.6-0.8,0.3-1.3
						l-0.1-0.1l0.1,0.1c0.4,0.2,0.6,0.5,0.7,0.9c0.1,0.4-0.1,0.8-0.3,1C280.2,23.6,280.1,23.7,280,23.7z M280,21.8
						c0.2,0.5,0.1,1-0.4,1.3c-0.1,0-0.1,0.1-0.1,0.2c0,0.1,0.1,0.2,0.3,0.3c0.1,0,0.3,0,0.4-0.1c0.2-0.2,0.3-0.6,0.3-0.9
						C280.5,22.2,280.3,22,280,21.8z"/>
				</g>
				<g>
					<path class="st17" d="M274,31.8c0.6,0.5,1.6,0.2,1.8-0.5c0.1-0.4-0.6-0.8-0.7-0.4C275,31.5,274.6,31.8,274,31.8z"/>
					<path class="st15" d="M274.7,32.1c-0.3,0-0.5-0.1-0.7-0.3l-0.1-0.1l0.1,0c0,0,0,0,0,0c0.6,0,0.9-0.3,1.1-0.9
						c0-0.1,0.1-0.2,0.2-0.2c0.1,0,0.3,0,0.5,0.2c0.1,0.1,0.2,0.3,0.1,0.5c-0.1,0.3-0.4,0.6-0.8,0.7C275,32.1,274.9,32.1,274.7,32.1
						z M274.2,31.9c0.3,0.2,0.6,0.2,0.9,0.1c0.3-0.1,0.6-0.4,0.7-0.7c0-0.1,0-0.3-0.1-0.4c-0.1-0.1-0.3-0.2-0.4-0.1
						c-0.1,0-0.1,0.1-0.1,0.1C275.1,31.5,274.7,31.8,274.2,31.9z"/>
				</g>
				<g>
					<path class="st17" d="M278.6,42c0.3-0.8,1.2-1,1.8-0.5c0.4,0.3-0.1,1-0.4,0.7C279.6,41.7,279.1,41.7,278.6,42z"/>
					<path class="st15" d="M280.1,42.3c-0.1,0-0.1,0-0.2-0.1c-0.4-0.4-0.9-0.5-1.4-0.1l-0.1,0.1l0-0.1c0.1-0.4,0.4-0.7,0.8-0.8
						c0.4-0.1,0.8,0,1,0.2c0.1,0.1,0.2,0.3,0.1,0.5C280.5,42.1,280.4,42.2,280.1,42.3C280.2,42.3,280.2,42.3,280.1,42.3z
						 M279.2,41.7c0.3,0,0.6,0.1,0.8,0.4c0.1,0.1,0.1,0.1,0.2,0.1c0.1,0,0.2-0.2,0.2-0.3c0-0.1,0-0.3-0.1-0.4
						c-0.3-0.2-0.6-0.3-1-0.2c-0.3,0.1-0.6,0.3-0.7,0.6C278.8,41.8,279,41.7,279.2,41.7z"/>
				</g>
				<g>
					<path class="st17" d="M277.7,44.1c0-0.8,1.1-1.3,1.8-1c0.4,0.2,0.2,1-0.2,0.8C278.9,43.5,278.1,43.6,277.7,44.1z"/>
					<path class="st15" d="M277.7,44.2l0-0.1c0-0.4,0.2-0.7,0.6-0.9c0.4-0.3,0.9-0.3,1.3-0.2c0.2,0.1,0.3,0.2,0.3,0.4
						c0,0.2-0.1,0.4-0.2,0.5c-0.1,0.1-0.2,0.1-0.3,0c-0.5-0.3-1.2-0.2-1.6,0.3L277.7,44.2z M279.1,43c-0.3,0-0.5,0.1-0.8,0.2
						c-0.3,0.2-0.5,0.4-0.5,0.7c0.4-0.4,1.1-0.5,1.6-0.2c0.1,0,0.1,0,0.2,0c0.1-0.1,0.2-0.2,0.1-0.4c0-0.2-0.1-0.3-0.2-0.3
						C279.4,43,279.2,43,279.1,43z"/>
				</g>
				<g>
					<path class="st17" d="M278.9,46c-0.3-0.8,0.3-1.6,1-1.6c0.5,0,0.6,0.8,0.2,0.8C279.5,45.2,279.1,45.4,278.9,46z"/>
					<path class="st15" d="M278.9,46.2l-0.1-0.1c-0.1-0.4-0.1-0.8,0.1-1.1c0.2-0.3,0.6-0.5,0.9-0.5c0,0,0,0,0,0
						c0.2,0,0.3,0.1,0.4,0.3c0.1,0.2,0.1,0.4,0,0.5c-0.1,0.1-0.1,0.1-0.3,0.1c-0.6-0.1-1,0.2-1.1,0.7L278.9,46.2z M279.9,44.5
						c-0.3,0-0.6,0.2-0.8,0.5c-0.2,0.3-0.2,0.6-0.2,0.9c0.2-0.5,0.6-0.7,1.2-0.7c0.1,0,0.1,0,0.2-0.1c0.1-0.1,0.1-0.3,0-0.4
						C280.2,44.6,280.1,44.5,279.9,44.5C279.9,44.5,279.9,44.5,279.9,44.5z"/>
				</g>
				<g>
					<path class="st17" d="M290.7,45.3c0.1-0.8-0.7-1.4-1.4-1.3c-0.5,0.1-0.4,0.9,0,0.8C289.9,44.6,290.4,44.8,290.7,45.3z"/>
					<path class="st15" d="M290.8,45.5l-0.1-0.1c-0.3-0.5-0.8-0.7-1.3-0.5c-0.1,0-0.2,0-0.3,0c-0.1-0.1-0.2-0.3-0.1-0.5
						c0-0.2,0.2-0.3,0.3-0.3c0.4-0.1,0.7,0,1,0.3c0.3,0.3,0.4,0.7,0.4,1.1L290.8,45.5z M289.8,44.7c0.3,0,0.6,0.2,0.9,0.5
						c0-0.3-0.1-0.6-0.4-0.8c-0.3-0.2-0.6-0.3-0.9-0.3c-0.1,0-0.2,0.1-0.3,0.3c0,0.2,0,0.3,0.1,0.4c0,0,0.1,0.1,0.2,0
						C289.5,44.7,289.7,44.7,289.8,44.7z"/>
				</g>
				<g>
					<path class="st17" d="M295.3,45.6c-0.2-0.8,0.5-1.5,1.2-1.4c0.5,0.1,0.5,0.9,0,0.8C296,44.8,295.5,45,295.3,45.6z"/>
					<path class="st15" d="M295.2,45.7l0-0.1c-0.1-0.4,0-0.8,0.3-1.1c0.3-0.3,0.6-0.4,1-0.4c0.2,0,0.3,0.1,0.4,0.3
						c0.1,0.2,0,0.4-0.1,0.5c-0.1,0.1-0.2,0.1-0.3,0.1c-0.5-0.1-1,0.1-1.2,0.6L295.2,45.7z M296.4,44.2c-0.3,0-0.6,0.1-0.8,0.3
						c-0.2,0.2-0.3,0.5-0.3,0.8c0.3-0.5,0.7-0.6,1.3-0.5c0.1,0,0.1,0,0.2,0c0.1-0.1,0.1-0.3,0-0.4c-0.1-0.1-0.2-0.2-0.3-0.3
						C296.5,44.2,296.4,44.2,296.4,44.2z"/>
				</g>
				<g>
					<path class="st17" d="M306.6,45.4c0.1-0.8-0.7-1.4-1.4-1.2c-0.5,0.1-0.3,1,0.1,0.8C305.7,44.7,306.2,44.9,306.6,45.4z"/>
					<path class="st15" d="M306.6,45.5l-0.1-0.1c-0.3-0.5-0.8-0.6-1.3-0.4c-0.1,0-0.2,0-0.3,0c-0.1-0.1-0.2-0.3-0.1-0.5
						c0-0.2,0.2-0.3,0.3-0.4c0.4-0.1,0.7,0,1,0.2c0.3,0.3,0.5,0.6,0.4,1L306.6,45.5z M305.7,44.8c0.3,0,0.6,0.1,0.8,0.4
						c0-0.3-0.2-0.6-0.4-0.8c-0.3-0.2-0.6-0.3-0.9-0.2c-0.1,0-0.2,0.1-0.2,0.3c0,0.2,0,0.3,0.1,0.4c0,0,0.1,0,0.2,0
						C305.4,44.8,305.5,44.8,305.7,44.8z"/>
				</g>
				<g>
					<path class="st17" d="M293.9,43.9c-0.1-0.8,0.7-1.5,1.4-1.4c0.5,0.1,0.3,1-0.1,0.8C294.7,43.2,294.2,43.3,293.9,43.9z"/>
					<path class="st15" d="M293.9,44l0-0.1c-0.1-0.4,0.1-0.8,0.4-1.1c0.3-0.3,0.7-0.4,1.1-0.3c0.2,0,0.3,0.1,0.3,0.3
						c0.1,0.2,0,0.4-0.1,0.6c-0.1,0.1-0.2,0.1-0.3,0.1c-0.5-0.2-1,0-1.3,0.5L293.9,44z M295.1,42.6c-0.3,0-0.6,0.1-0.8,0.3
						c-0.2,0.2-0.4,0.5-0.4,0.8c0.3-0.4,0.8-0.6,1.3-0.4c0.1,0,0.1,0,0.2,0c0.1-0.1,0.1-0.3,0.1-0.5c0-0.1-0.1-0.2-0.2-0.2
						C295.2,42.6,295.2,42.6,295.1,42.6z"/>
				</g>
				<g>
					<path class="st17" d="M295,41.5c0-0.8,1-1.3,1.6-1.1c0.4,0.2,0.1,1-0.2,0.8C295.9,41,295.4,41.1,295,41.5z"/>
					<path class="st15" d="M294.9,41.7l0-0.1c0-0.4,0.2-0.8,0.6-1c0.4-0.2,0.8-0.3,1.1-0.1c0.1,0.1,0.2,0.2,0.2,0.4
						c0,0.2-0.1,0.4-0.2,0.5c-0.1,0.1-0.2,0.1-0.3,0c-0.5-0.3-1-0.2-1.3,0.2L294.9,41.7z M296.2,40.5c-0.2,0-0.4,0.1-0.6,0.2
						c-0.3,0.2-0.5,0.4-0.5,0.7c0.4-0.4,0.9-0.4,1.4-0.1c0.1,0,0.1,0,0.2,0c0.1-0.1,0.2-0.3,0.2-0.4c0-0.1,0-0.2-0.2-0.3
						C296.5,40.5,296.3,40.5,296.2,40.5z"/>
				</g>
				<g>
					<path class="st17" d="M312.3,46c-0.2-0.8,0.5-1.5,1.2-1.4c0.5,0.1,0.5,0.9,0,0.8C313,45.3,312.5,45.5,312.3,46z"/>
					<path class="st15" d="M312.3,46.2l0-0.1c-0.1-0.4,0-0.8,0.3-1.1c0.3-0.3,0.6-0.4,1-0.4c0.2,0,0.3,0.1,0.4,0.3
						c0.1,0.2,0,0.4-0.1,0.5c-0.1,0.1-0.2,0.1-0.3,0.1c-0.5-0.1-1,0.1-1.2,0.6L312.3,46.2z M313.4,44.7c-0.3,0-0.6,0.1-0.8,0.3
						c-0.2,0.2-0.3,0.5-0.3,0.8c0.3-0.5,0.7-0.6,1.3-0.5c0.1,0,0.1,0,0.2,0c0.1-0.1,0.1-0.3,0-0.4c-0.1-0.1-0.2-0.2-0.3-0.3
						C313.5,44.7,313.4,44.7,313.4,44.7z"/>
				</g>
				<g>
					<path class="st17" d="M323.5,45.6c0.2-0.8-0.5-1.5-1.2-1.4c-0.5,0.1-0.5,0.9-0.1,0.8C322.8,44.9,323.2,45.1,323.5,45.6z"/>
					<path class="st15" d="M323.5,45.8l-0.1-0.1c-0.2-0.5-0.7-0.7-1.2-0.6c-0.1,0-0.2,0-0.3-0.1c-0.1-0.1-0.1-0.3-0.1-0.5
						c0.1-0.2,0.2-0.3,0.4-0.3c0.4,0,0.7,0.1,1,0.4c0.3,0.3,0.4,0.7,0.3,1.1L323.5,45.8z M322.6,44.9c0.4,0,0.7,0.2,0.9,0.5
						c0-0.3-0.1-0.6-0.3-0.8c-0.2-0.3-0.6-0.4-0.9-0.3c-0.1,0-0.2,0.1-0.3,0.3c-0.1,0.1,0,0.3,0,0.4c0,0,0.1,0.1,0.2,0
						C322.3,44.9,322.4,44.9,322.6,44.9z"/>
				</g>
				<g>
					<path class="st17" d="M310.8,44.2c-0.1-0.8,0.6-1.5,1.3-1.3c0.5,0.1,0.4,0.9,0,0.8C311.6,43.5,311.1,43.6,310.8,44.2z"/>
					<path class="st15" d="M310.8,44.3l0-0.1c-0.1-0.4,0.1-0.8,0.4-1.1c0.3-0.3,0.7-0.4,1-0.3c0.2,0,0.3,0.2,0.3,0.3
						c0.1,0.2,0,0.4-0.1,0.5c-0.1,0.1-0.2,0.1-0.3,0.1c-0.5-0.2-1,0-1.3,0.5L310.8,44.3z M312,42.9c-0.3,0-0.5,0.1-0.7,0.3
						c-0.2,0.2-0.4,0.5-0.4,0.8c0.3-0.4,0.8-0.6,1.3-0.4c0.1,0,0.1,0,0.2,0c0.1-0.1,0.1-0.2,0.1-0.4c0-0.1-0.1-0.2-0.3-0.3
						C312.1,42.9,312,42.9,312,42.9z"/>
				</g>
				<g>
					<path class="st17" d="M311.2,41.9c0-0.8,0.8-1.3,1.5-1.1c0.4,0.2,0.3,1-0.1,0.8C312.1,41.4,311.6,41.5,311.2,41.9z"/>
					<path class="st15" d="M311.2,42.1l0-0.1c0-0.4,0.2-0.8,0.5-1c0.3-0.2,0.7-0.3,1.1-0.1c0.2,0.1,0.3,0.2,0.3,0.4
						c0,0.2,0,0.4-0.2,0.5c-0.1,0.1-0.2,0.1-0.3,0c-0.5-0.3-1-0.2-1.3,0.3L311.2,42.1z M312.4,40.8c-0.2,0-0.4,0.1-0.6,0.2
						c-0.3,0.2-0.4,0.4-0.5,0.8c0.4-0.4,0.9-0.5,1.4-0.2c0.1,0,0.1,0,0.2,0c0.1-0.1,0.1-0.2,0.1-0.4c0-0.1-0.1-0.3-0.2-0.3
						C312.6,40.9,312.5,40.8,312.4,40.8z"/>
				</g>
			</g>
			<g>
				<g>
					<path class="st15" d="M300.6,21.6L300.6,21.6c0.7-1.8,1.3-2,2.5-2.4c0.1,0,0.2-0.1,0.3-0.1c0.7-0.2,2.7-1,4.9-1.8
						c2.4-0.9,4.8-1.8,5.8-2.2l0,0.1c-1,0.3-3.4,1.3-5.8,2.2c-2.2,0.8-4.2,1.6-4.9,1.8c-0.1,0-0.2,0.1-0.3,0.1
						C302,19.7,301.3,19.9,300.6,21.6z"/>
				</g>
				<g>
					<path class="st15" d="M296.9,26L296.9,26c2.1-0.5,2.5-1.5,3.1-3.2c0.2-0.4,0.3-0.9,0.6-1.4c1.1-2.6,5.1-5.4,9.9-8.4l0.1,0.1
						c-4.7,3-8.7,5.8-9.8,8.4c-0.2,0.5-0.4,1-0.6,1.4C299.5,24.6,299.1,25.7,296.9,26z"/>
				</g>
				<g>
					<path class="st15" d="M289.2,30.8L289.2,30.8c1.2-1.6,3.8-3.2,6.1-3.3l0.1,0l-0.1,0.1c-0.4,0.7-1,1.8-1.2,2.4l-0.1,0
						c0.2-0.6,0.7-1.6,1.2-2.3C293,27.8,290.5,29.3,289.2,30.8z"/>
				</g>
				<g>
					<path class="st15" d="M296.3,34.5c-0.4-2,0.2-5,0.8-6.7c-1,0.8-2.4,2.4-2.9,3.1l-0.1-0.1c0.6-0.8,2.1-2.5,3.1-3.2l0.1-0.1
						l-0.1,0.2c-0.5,1.5-1.1,4.4-0.9,6.4c0.3-2.2,1.4-5.2,2.5-6.9l0.1-0.1l0,0.1c0.9,2.1,1.8,4.4,2,6.1c0.1-2.2-0.4-5.5-1.1-7
						l-0.1-0.1l0.1,0.1c2,1,4.4,3.8,5.5,5.6c-0.9-2.5-3.2-5.4-4.5-6.4l0-0.1c2.8,0.5,6.8,2.1,9.1,3.6c-3-2.5-6.2-4.3-8.2-5.1l0-0.1
						c3.6-0.3,10.4,0.4,13.2,1.2c-3.3-1.6-9.3-2.5-13-2.2l0-0.1c4-1.7,10.7-3.5,16.2-4.4c-4.4,0.4-9.8,1.5-15.1,2.7l0-0.1
						c2.7-1.8,11-5.3,12.9-5.8l0,0.1c-1.8,0.6-9.7,3.8-12.6,5.7c5.7-1.3,11.6-2.5,16.1-2.8l0,0.1c-5.6,0.8-12.7,2.7-17.1,4.5
						c4-0.2,10.3,0.8,13.4,2.5l0,0.1c-2.1-0.8-9.5-1.7-13.5-1.4c2.2,0.9,5.9,3,9,5.9l-0.1,0.1c-1.8-1.6-6.5-3.7-9.8-4.3
						c1.4,1.2,3.8,4.2,4.5,6.7l-0.1,0c-1-1.8-3.5-4.7-5.6-5.8c0.7,1.7,1.2,5.4,1,7.6l-0.1,0c0-1.7-1-4.4-2-6.7
						C297.7,29.2,296.6,32.4,296.3,34.5L296.3,34.5z"/>
				</g>
				<g>
					<path class="st15" d="M290.4,14L290.4,14c0.2-1.1,1.5-1.5,2.6-1.8c0.1,0,0.2-0.1,0.3-0.1l0,0.1c-0.1,0-0.2,0.1-0.3,0.1
						C292,12.6,290.8,12.9,290.4,14z"/>
				</g>
				<g>
					<path class="st15" d="M292.4,14.9c-0.6,0-0.9-0.2-1-0.4c0-0.1,0-0.3,0.3-0.5c0.3-0.2,0.9-0.5,1.4-0.7c-0.1,0-0.3-0.1-0.4-0.1
						l-0.2,0l0.2-0.1c0.1,0,0.2-0.1,0.3-0.1c0.5-0.2,1.1-0.5,1.4-0.7l0.1,0.1c-0.3,0.3-0.9,0.5-1.4,0.7c-0.1,0-0.1,0-0.1,0.1
						c0.1,0,0.2,0,0.3,0.1c0.1,0,0.2,0,0.2,0.1l0,0.1c-0.5,0-1.2,0.5-1.6,0.7c-0.2,0.2-0.3,0.3-0.3,0.4c0,0.2,0.4,0.3,0.9,0.3
						L292.4,14.9z"/>
				</g>
				<g>
					<path class="st15" d="M290,13.1l0-0.1c0.4,0,0.7,0,1.2-0.1l0,0.1C290.8,13,290.4,13.1,290,13.1z"/>
				</g>
				<g>
					<path class="st15" d="M287.9,19L287.9,19c0.2-0.1,0.5-0.2,0.7-0.2l0,0.1C288.4,18.9,288.1,18.9,287.9,19z"/>
				</g>
				<g>
					<path class="st15" d="M286.7,34c-0.7,0-1.3-0.1-1.5-0.4c-0.5-0.5-0.7-1.3-0.7-2l0.1,0c0,0.7,0.3,1.4,0.7,1.9
						c0.3,0.3,1.6,0.5,2.4,0.2c0.2-0.1,0.5-0.2,0.5-0.5l0.1,0c0,0.2-0.2,0.4-0.6,0.5C287.4,34,287.1,34,286.7,34z"/>
				</g>
				<g>
					<path class="st15" d="M286.4,31.1c-0.6,0-1.2-0.1-1.6-0.5l0.1-0.1c0.6,0.6,2.1,0.6,2.9,0.2c0.4-0.2,0.6-0.4,0.6-0.5h0.1
						c0,0.2-0.2,0.5-0.7,0.6C287.5,31,286.9,31.1,286.4,31.1z"/>
				</g>
				<g>
					<path class="st15" d="M287.6,28.5c-1,0-2.5-0.5-2.7-1l0.1,0c0.2,0.5,2,1.1,3,0.9c0.2,0,0.5-0.1,0.5-0.3l0.1,0
						c0,0.2-0.1,0.4-0.6,0.4C287.9,28.5,287.8,28.5,287.6,28.5z"/>
				</g>
				<g>
					<path class="st15" d="M288,26.3c0,0-0.1,0-0.2,0c-0.9,0-2.2-0.5-2.3-1.1l0.1,0c0,0.6,1.3,1,2.2,1c0.5,0,0.8-0.1,0.8-0.2l0.1,0
						C288.7,26.2,288.4,26.3,288,26.3z"/>
				</g>
				<g>
					<path class="st15" d="M288.7,24.3c-0.2,0-0.5-0.1-0.6-0.1c-0.7-0.2-1.4-0.6-1.5-1l0.1,0c0.1,0.4,0.8,0.8,1.4,1
						c0.5,0.1,0.7,0.1,0.8,0l0.1,0.1C288.9,24.3,288.8,24.3,288.7,24.3z"/>
				</g>
				<g>
					<path class="st15" d="M289.1,22.3c-0.4,0-0.9-0.2-1.3-0.4c-0.2-0.1-0.4-0.3-0.4-0.5l0.1,0c0,0.1,0.2,0.3,0.4,0.4
						c0.5,0.3,1.2,0.4,1.5,0.3l0,0.1C289.3,22.3,289.2,22.3,289.1,22.3z"/>
				</g>
				<g>
					<path class="st15" d="M289.9,20.5c-1.1-0.2-1.6-0.6-1.8-0.8l0.1-0.1C288.4,19.9,288.9,20.3,289.9,20.5L289.9,20.5z"/>
				</g>
				<g>
					<path class="st15" d="M283.4,16.1l-0.1,0c0-0.3,0.1-0.4,0.3-0.6c0.1-0.2,0.2-0.3,0.2-0.6l0.1,0c0,0.3-0.1,0.5-0.2,0.6
						C283.5,15.7,283.4,15.9,283.4,16.1z"/>
				</g>
				<g>
					<path class="st15" d="M290.3,19.7l0-0.2c0-0.2-0.2-0.5-0.4-0.7c-0.1,0.2-0.3,0.6-0.5,0.8l-0.1,0.1l0-0.1c0-0.3-0.3-0.8-0.5-1.1
						c0-0.1-0.1-0.1-0.1-0.2l0.1-0.1c0,0.1,0.1,0.1,0.1,0.2c0.2,0.3,0.5,0.7,0.5,1c0.2-0.2,0.4-0.6,0.4-0.7l0-0.1l0.1,0
						c0.2,0.2,0.4,0.4,0.5,0.7c0.1-0.3,0.2-0.7,0.2-1l0-0.1l0.1,0c0.3,0.1,0.6,0.2,0.9,0.5c0-0.3-0.1-0.6-0.3-0.8l-0.1-0.1h0.2
						c0.3,0,0.5,0,0.7-0.1c-0.1-0.2-0.4-0.5-0.7-0.7l-0.1-0.1l0.1,0c0.2-0.1,0.5-0.3,0.7-0.4c-0.1-0.1-0.3-0.2-0.5-0.2
						c-0.1-0.1-0.2-0.1-0.3-0.2l-0.1,0l0,0c0.2-0.2,0.3-0.5,0.3-0.7l0.1,0c-0.1,0.2-0.2,0.5-0.3,0.6c0.1,0,0.2,0.1,0.3,0.2
						c0.2,0.1,0.4,0.2,0.5,0.3l0.1,0l-0.1,0.1c-0.1,0.1-0.4,0.3-0.6,0.5c0.3,0.2,0.6,0.5,0.7,0.7l0,0l-0.1,0
						c-0.3,0.1-0.5,0.2-0.7,0.2c0.2,0.2,0.3,0.6,0.3,0.9l0,0.1l-0.1-0.1c-0.3-0.2-0.6-0.4-0.9-0.5c0,0.3-0.2,0.8-0.3,1.1L290.3,19.7
						z"/>
				</g>
				<g>
					<path class="st15" d="M284.3,15.9L284.3,15.9c0.2-0.2,0.2-0.5,0.2-0.6c0-0.2,0-0.4-0.1-0.5c-0.2-0.2-0.3-0.4-0.2-0.6
						c0-0.1,0.1-0.1,0.2-0.1v0.1c0,0-0.1,0-0.1,0.1c0,0.1,0,0.3,0.2,0.4c0.1,0.1,0.2,0.3,0.2,0.6C284.6,15.6,284.5,15.8,284.3,15.9z
						"/>
				</g>
				<g>
					<path class="st15" d="M288.5,30.5c-0.3-3.5,0.6-8.3,1.8-11l0.1,0c-1.1,2.6-2.1,7.5-1.8,10.9L288.5,30.5z"/>
				</g>
				<g>
					<path class="st15" d="M290,35.7c-0.1,0-0.1,0-0.2,0c-0.1-0.1-0.2-0.2-0.2-0.4h0.1c0,0.1,0.1,0.2,0.1,0.3c0.1,0,0.2,0,0.3,0
						c0.1-0.1,0.3-0.3,0.3-0.9l0.1,0c0,0.5-0.1,0.9-0.3,1C290.2,35.7,290.1,35.7,290,35.7z"/>
				</g>
				<g>
					<path class="st15" d="M290.8,35.6c-0.2,0-0.4-0.1-0.4-0.3l0.1,0c0,0.2,0.2,0.3,0.4,0.3c0.2,0,0.4-0.3,0.3-1l0.1,0
						C291.4,35.2,291.1,35.6,290.8,35.6C290.9,35.6,290.8,35.6,290.8,35.6z"/>
				</g>
				<g>
					<path class="st15" d="M290.5,36.4C290.5,36.4,290.5,36.4,290.5,36.4c-0.2,0-0.4-0.2-0.4-0.8l0.1,0c0,0.5,0.2,0.7,0.3,0.7
						c0,0,0,0,0,0c0.1,0,0.3-0.2,0.3-0.7l0.1,0C290.9,36.1,290.6,36.4,290.5,36.4z"/>
				</g>
				<g>
					<path class="st15" d="M291.6,35.3c-0.2,0-0.3-0.1-0.4-0.3l0.1,0c0.1,0.2,0.2,0.3,0.4,0.3c0.2-0.1,0.4-0.5,0.3-1.3l0.1,0
						C292.2,34.7,292,35.2,291.6,35.3C291.7,35.3,291.6,35.3,291.6,35.3z"/>
				</g>
				<g>
					<path class="st15" d="M292.4,34.8c-0.1,0-0.3-0.1-0.4-0.2l0.1,0c0.1,0.1,0.2,0.2,0.3,0.2c0.2-0.1,0.5-0.4,0.6-0.9l0.1,0
						C293,34.3,292.7,34.7,292.4,34.8C292.4,34.7,292.4,34.8,292.4,34.8z"/>
				</g>
				<g>
					<path class="st15" d="M289.6,35c-0.4,0-0.9-0.3-1.2-0.7c-0.6-1.1-0.1-2.2,0.3-2.6l0.1,0.1c-0.4,0.4-0.9,1.5-0.3,2.5
						c0.3,0.4,0.9,0.7,1.2,0.7c0.1,0,0.1,0,0.2-0.1l0.1,0C289.9,34.9,289.8,35,289.6,35C289.6,35,289.6,35,289.6,35z"/>
				</g>
				<g>
					<path class="st15" d="M288.9,36.6C288.9,36.6,288.9,36.6,288.9,36.6c-0.5,0-1.1-0.3-1.2-0.7c-0.2-0.6,0-1.1,0.1-1.3
						c0.2-0.3,0.4-0.5,0.6-0.5l0,0.1c-0.2,0-0.4,0.2-0.5,0.4c-0.1,0.2-0.3,0.7-0.1,1.2c0.1,0.4,0.7,0.6,1.1,0.6c0.1,0,0.3,0,0.4-0.2
						l0.1,0C289.3,36.6,289.1,36.6,288.9,36.6z"/>
				</g>
				<g>
					<path class="st15" d="M300.5,35c-0.1,0-0.2,0-0.3,0l0-0.1c0.7,0.1,1.5-0.2,2.1-0.6c0.4-0.3,0.8-0.9,0.9-1.7l0.1,0
						c-0.1,0.9-0.5,1.5-0.9,1.8C301.9,34.8,301.2,35,300.5,35z"/>
				</g>
				<g>
					<path class="st15" d="M304.3,33.7c-0.5,0-0.9-0.2-1.2-0.3l0.1-0.1c0.4,0.3,1.1,0.4,1.7,0.3c0.4-0.1,0.8-0.4,1-0.8l0.1,0
						c-0.2,0.4-0.6,0.7-1.1,0.8C304.7,33.7,304.5,33.7,304.3,33.7z"/>
				</g>
				<g>
					<path class="st15" d="M303,42.5L303,42.5c2.7-1.7,4.1-2.7,4.2-3.3c0-0.1,0-0.2-0.1-0.3c-0.7-0.8-1.3-0.7-1.8-0.6
						c-0.5,0.1-0.9,0.1-1.4-0.3c-1.3-1.2-0.8-2.7-0.1-4.3l0.1,0c-0.7,1.6-1.2,3.1,0.1,4.2c0.5,0.4,0.9,0.4,1.4,0.3
						c0.6-0.1,1.2-0.1,1.9,0.7c0.1,0.1,0.1,0.2,0.1,0.4C307.2,39.9,305.9,40.9,303,42.5z"/>
				</g>
				<g>
					<path class="st15" d="M283.5,33.3c0,0-0.1,0-0.1,0l0-0.1c0.1,0,0.2,0,0.2-0.1c0.2-0.2,0.2-0.9,0-1.4l0.1,0
						c0.2,0.4,0.2,1.2,0,1.5C283.7,33.3,283.6,33.3,283.5,33.3z"/>
				</g>
				<g>
					<path class="st15" d="M279.7,44.3L279.7,44.3c0.5-0.9,1.2-0.8,1.7-0.6c0.3,0.1,0.6,0.1,0.8,0.1l0,0.1c-0.3,0.1-0.5,0-0.9-0.1
						C280.9,43.6,280.3,43.5,279.7,44.3z"/>
				</g>
				<g>
					<path class="st15" d="M288.7,14.7c-0.6,0-1.2-0.1-1.7-0.2c-0.5-0.1-1-0.2-1.1-0.1l-0.1-0.1c0.1-0.1,0.5-0.1,1.2,0
						c0.9,0.1,2.1,0.4,2.8-0.1l0.1,0.1C289.6,14.6,289.2,14.7,288.7,14.7z"/>
				</g>
				<g>
					<path class="st15" d="M287.1,15.4c0,0-0.1,0-0.1,0c-0.2,0-0.5-0.2-0.6-0.4c-0.1-0.2-0.1-0.4-0.1-0.6l0.1,0
						c-0.1,0.1,0,0.3,0.1,0.5c0.1,0.2,0.3,0.4,0.5,0.4c0.3,0,0.6-0.1,0.8-0.3c0.1-0.1,0.1-0.2,0.1-0.4l0.1,0c0,0.2,0,0.3-0.1,0.5
						C287.7,15.2,287.4,15.4,287.1,15.4z"/>
				</g>
				<g>
					<path class="st15" d="M277.7,25.1c-0.4-0.4-0.4-1.1-0.3-1.3l0.1,0C277.3,24,277.4,24.7,277.7,25.1L277.7,25.1z"/>
				</g>
				<g>
					<path class="st15" d="M296.1,44.1L296.1,44.1c0.1-0.3,0.9-0.6,1.5-0.4c0.5,0.1,1.5,0,2.1-0.3l0,0.1c-0.6,0.3-1.6,0.4-2.2,0.3
						C297,43.6,296.3,43.9,296.1,44.1z"/>
				</g>
				<g>
					<g>
						<path class="st15" d="M292,27.5c-1.4-1.7-2-5.4-1.8-8l0.1,0C290.1,22,290.7,25.8,292,27.5L292,27.5z"/>
					</g>
					<g>
						<path class="st15" d="M291.1,27.9c-1.2-1.6-1.6-4.3-1.6-6.3l0.1,0C289.6,23.6,290.1,26.3,291.1,27.9L291.1,27.9z"/>
					</g>
					<g>
						<path class="st15" d="M290.3,28.5c-0.7-1-1.2-2.6-1.4-4.4l0.1,0C289.2,25.9,289.7,27.5,290.3,28.5L290.3,28.5z"/>
					</g>
					<g>
						<path class="st15" d="M289.6,29.2c-0.4-0.6-0.8-1.5-1.1-2.6l0.1,0C288.9,27.6,289.3,28.5,289.6,29.2L289.6,29.2z"/>
					</g>
					<g>
						<path class="st15" d="M288.9,29.9c-0.2-0.3-0.4-0.6-0.5-0.9l0.1,0C288.7,29.3,288.8,29.6,288.9,29.9L288.9,29.9z"/>
					</g>
					<g>
						<path class="st15" d="M289.3,22.8L289.3,22.8c0.2-0.3,0.8-0.9,0.9-1.8l0.1,0C290.2,22,289.6,22.6,289.3,22.8z"/>
					</g>
					<g>
						<path class="st15" d="M289,24L289,24c0.7-0.4,1.2-1.1,1.2-1.9l0.1,0C290.3,22.9,289.8,23.6,289,24z"/>
					</g>
					<g>
						<path class="st15" d="M288.8,25.4L288.8,25.4c0.8-0.5,1.5-1.5,1.6-2.2l0.1,0C290.4,24,289.7,25,288.8,25.4z"/>
					</g>
					<g>
						<path class="st15" d="M288.6,26.7L288.6,26.7c1-0.5,1.9-1.7,2-2.4l0.1,0C290.6,25.1,289.6,26.3,288.6,26.7z"/>
					</g>
					<g>
						<path class="st15" d="M288.5,28L288.5,28c1-0.4,2.1-1.6,2.4-2.6l0.1,0C290.7,26.5,289.5,27.7,288.5,28z"/>
					</g>
					<g>
						<path class="st15" d="M288.5,29.3L288.5,29.3c1.3-0.5,2.8-2.1,2.9-2.9l0.1,0C291.4,27.2,289.8,28.8,288.5,29.3z"/>
					</g>
				</g>
				<g>
					<path class="st15" d="M281.6,32.5c0,0-0.1,0-0.1,0l0.1-0.1c0.1,0.1,0.2,0,0.2,0c0.2-0.2,0.5-0.6,0.3-1.1l0.1,0
						c0.1,0.5-0.1,1-0.4,1.2C281.8,32.5,281.7,32.5,281.6,32.5z"/>
				</g>
				<g>
					<path class="st15" d="M285.1,33.8c-3-0.6-4.7-1.7-5.7-3.6c-0.2-0.3,0-0.5,0.2-0.7c0.1-0.1,0.2-0.3,0.2-0.5l0.1,0
						c0,0.2-0.1,0.4-0.3,0.6c-0.2,0.2-0.3,0.3-0.2,0.6C280.4,32,282.1,33,285.1,33.8L285.1,33.8z"/>
				</g>
				<g>
					<path class="st15" d="M279,25.9c-0.5-0.8-0.6-1.7-0.3-2.3l0.1,0C278.6,24.3,278.7,25.1,279,25.9L279,25.9z"/>
				</g>
				<g>
					<path class="st15" d="M280.3,31.3c-0.1,0-0.1,0-0.1-0.1l0.1-0.1c0,0,0,0,0.1,0c0.2-0.1,0.5-0.5,0.5-0.8h0.1
						c0,0.4-0.3,0.8-0.6,0.9C280.3,31.3,280.3,31.3,280.3,31.3z"/>
				</g>
				<g>
					<path class="st15" d="M286.8,36.3c-0.7-0.2-1.2-0.8-1.5-1.4c-0.2-0.5-0.2-0.9-0.1-1.3l0.1,0c-0.1,0.3-0.1,0.7,0.1,1.2
						C285.6,35.5,286.2,35.9,286.8,36.3L286.8,36.3z"/>
				</g>
				<g>
					<path class="st15" d="M287.5,36.4L287.5,36.4c0-0.2,0.1-0.4,0.2-0.5l0.1,0.1C287.7,36.1,287.6,36.2,287.5,36.4z"/>
				</g>
				<g>
					<path class="st15" d="M288.4,37.7C288.4,37.7,288.4,37.7,288.4,37.7c-0.4,0-0.8-0.2-0.9-0.4l0.1,0c0.1,0.2,0.5,0.4,0.8,0.4
						c0.1,0,0.3,0,0.4-0.2l0.1,0.1C288.8,37.6,288.6,37.7,288.4,37.7z"/>
				</g>
				<g>
					<path class="st15" d="M279.7,42.9L279.7,42.9c0.2-0.4,0.4-0.3,0.8-0.2c0.3,0.1,0.7,0.2,1.3,0.1l0.2,0c1.2-0.1,2.2-0.2,3.2-1.2
						l0.1,0.1c-1,1-2,1.1-3.2,1.2l-0.2,0c-0.6,0.1-1,0-1.3-0.1C280.1,42.7,279.9,42.6,279.7,42.9z"/>
				</g>
				<g>
					<path class="st15" d="M293.3,38.1c0-0.2-0.1-0.4-0.1-0.7c-0.1-0.5-0.2-0.9,0.1-1.3c0.7-1.1,0.6-1.8,0.5-2.4l0.1,0
						c0.1,0.6,0.2,1.3-0.5,2.5c-0.2,0.4-0.1,0.8-0.1,1.3c0,0.2,0.1,0.4,0.1,0.7L293.3,38.1z"/>
				</g>
				<g>
					<path class="st15" d="M299.6,35.8L299.6,35.8c0.6-0.6,1-1.5,1.1-1.8l0.1,0C300.6,34.3,300.3,35.2,299.6,35.8z"/>
				</g>
				<g>
					<path class="st15" d="M297.8,36L297.8,36c0.6-1,0.7-2.1,0.2-3.1l0.1,0C298.5,33.9,298.4,35.1,297.8,36z"/>
				</g>
				<g>
					<path class="st15" d="M294.7,37.1L294.7,37.1c0.3-0.7,0.5-1.5,0.5-2.6h0.1C295.3,35.6,295.1,36.5,294.7,37.1z"/>
				</g>
				<g>
					<path class="st15" d="M287.6,39.3C287.6,39.3,287.6,39.3,287.6,39.3c-0.4,0-0.8-0.3-0.8-0.6l0.1,0c0.1,0.3,0.4,0.5,0.7,0.5
						c0.1,0,0.2,0,0.3-0.1l0.1,0C287.9,39.3,287.8,39.3,287.6,39.3z"/>
				</g>
				<g>
					<path class="st15" d="M286.8,41.3c-0.2,0-0.4-0.1-0.6-0.2c-0.1-0.1-0.3-0.4-0.1-0.8l0.1,0c-0.1,0.3-0.1,0.5,0.1,0.7
						c0.2,0.2,0.5,0.2,0.7,0.2c0,0,0.1,0,0.1-0.1c0.1-0.7,0.5-1.5,1.1-2.5c0.7-1.2,1.5-2.7,1.8-4.4l0-0.1l0.1,0.1
						c0.3,0.4,0.6,0.6,0.9,0.5c0.2-0.1,0.4-0.4,0.3-0.8l0-0.1l0.1,0.1c0.2,0.1,0.3,0.2,0.5,0.1c0.2-0.1,0.3-0.3,0.3-0.7l0-0.1
						l0.1,0.1c0.1,0.1,0.3,0.1,0.5,0.1c0.2-0.1,0.3-0.3,0.3-0.6h0.1c0,0.3-0.2,0.6-0.4,0.7c-0.2,0.1-0.3,0.1-0.5,0
						c0,0.3-0.1,0.6-0.3,0.7c-0.2,0.1-0.4,0.1-0.5-0.1c0,0.4-0.1,0.7-0.4,0.8c-0.3,0.1-0.7-0.1-1-0.4c-0.4,1.7-1.2,3.2-1.8,4.3
						c-0.5,1-1,1.8-1.1,2.5c0,0.1-0.1,0.2-0.2,0.2C286.9,41.3,286.8,41.3,286.8,41.3z"/>
				</g>
				<g>
					<path class="st15" d="M299.6,35.7L299.6,35.7c0.5-0.6,1.7-0.4,2.4-0.3c0.1,0,0.1,0,0.2,0l0,0.1c-0.1,0-0.1,0-0.2,0
						C301.2,35.4,300.1,35.3,299.6,35.7z"/>
				</g>
				<g>
					<path class="st15" d="M301,38.2c-0.1,0-0.1,0-0.2,0l0-0.1c0.5,0,1-0.1,1.7-0.3l0,0.1C301.9,38.1,301.4,38.2,301,38.2z"/>
				</g>
				<g>
					<path class="st15" d="M304.4,40l0-0.1c0.4,0,1.3-0.2,1.6-1.6l0.1,0C305.8,39.8,304.8,40,304.4,40z"/>
				</g>
				<g>
					<path class="st15" d="M303.1,39.4L303.1,39.4c0.5-0.2,1-0.6,1.3-1.2l0.1,0C304.2,38.9,303.7,39.3,303.1,39.4z"/>
				</g>
				<g>
					<path class="st15" d="M306.5,40.3c-0.4-0.1-1.3-0.3-2.1-0.3l0-0.1C305.2,39.8,306.1,40,306.5,40.3L306.5,40.3z"/>
				</g>
				<g>
					<path class="st15" d="M304,41.9L304,41.9c0-0.1,0-0.2,0-0.3c-0.1-0.2-0.4-0.6-0.7-0.6V41c0.4,0,0.7,0.4,0.8,0.6
						C304.2,41.8,304.1,41.9,304,41.9z"/>
				</g>
				<g>
					<path class="st15" d="M298.8,43.1L298.8,43.1c0.5-0.3,1.2-0.7,1.8-1.1l0.1,0.1C300,42.5,299.3,42.8,298.8,43.1z"/>
				</g>
				<g>
					<path class="st15" d="M303.1,42.5L303.1,42.5c-0.1-0.1,0-0.1,0-0.1c0-0.2-0.4-0.5-0.7-0.6l0-0.1c0.3,0.1,0.7,0.4,0.7,0.6
						C303.1,42.4,303.1,42.5,303.1,42.5z"/>
				</g>
				<g>
					<path class="st15" d="M308.3,33.7c-0.3-0.2-0.5-0.4-0.6-0.6c-0.9,0.4-1.7,0.1-2.2-0.7l0.1-0.1c0.5,0.8,1.2,1.1,2.1,0.7l0.1,0
						l0,0.1C307.9,33.2,308.1,33.5,308.3,33.7L308.3,33.7z"/>
				</g>
				<g>
					<path class="st15" d="M309.5,34.1C309.5,34.1,309.5,34.1,309.5,34.1l-0.1-0.1c0.9,0,1.5-0.6,1.7-1.1c0.1-0.3,0.1-0.5-0.1-0.6
						l0.1-0.1c0.2,0.1,0.2,0.4,0.1,0.7C311,33.5,310.4,34.1,309.5,34.1z"/>
				</g>
				<g>
					<path class="st15" d="M318.7,41.6C318.6,41.6,318.6,41.6,318.7,41.6c-0.3,0-0.5-0.1-0.5-0.3l0.1,0c0.1,0.2,0.2,0.2,0.4,0.3
						c0.2,0,0.5-0.1,0.6-0.3c0.1-0.2,0.8-1.4,0.5-4.4c-0.3-2.5-2.5-2.9-5.3-3.5c-0.2,0-0.3-0.1-0.5-0.1c-2.9-0.6-3.7-1.6-4.4-3.4
						l0.1,0c0.6,1.8,1.4,2.7,4.3,3.3c0.2,0,0.3,0.1,0.5,0.1c2.7,0.5,5.1,1,5.4,3.6c0.3,3-0.4,4.2-0.5,4.5
						C319.2,41.5,318.9,41.6,318.7,41.6z"/>
				</g>
				<g>
					<path class="st15" d="M319.2,40.2c-0.2,0-0.4-0.1-0.5-0.3l0.1-0.1c0.1,0.2,0.3,0.3,0.6,0.2c0.2,0,0.4-0.1,0.4-0.3l0.1,0
						c0,0.2-0.2,0.4-0.5,0.4C319.3,40.2,319.2,40.2,319.2,40.2z"/>
				</g>
				<g>
					<path class="st15" d="M319.2,38.6c-0.2,0-0.4,0-0.5-0.1l0.1-0.1c0.2,0.1,0.6,0.2,0.8,0c0.1-0.1,0.2-0.2,0.2-0.3l0.1,0
						c0,0.2-0.1,0.3-0.2,0.4C319.5,38.6,319.4,38.6,319.2,38.6z"/>
				</g>
				<g>
					<path class="st15" d="M318.8,36.9c-0.1,0-0.1,0-0.2,0l-0.1,0v-0.1l0.1,0c0.3,0,0.8,0,1-0.2c0,0,0-0.1,0-0.1l0.1,0
						c0,0.1,0,0.2-0.1,0.2C319.5,36.9,319.1,36.9,318.8,36.9z"/>
				</g>
				<g>
					<path class="st15" d="M317.8,35.9L317.8,35.9c0.2-0.2,0.7-0.8,0.7-1.1c0-0.1,0-0.1-0.1-0.2l0.1-0.1c0.1,0.1,0.1,0.1,0.1,0.2
						C318.5,35.1,318,35.7,317.8,35.9z"/>
				</g>
				<g>
					<path class="st15" d="M316.3,35.7L316.3,35.7c0.3-0.3,0.7-1.1,0.6-1.6c0-0.1-0.1-0.2-0.2-0.3l0-0.1c0.2,0,0.3,0.2,0.3,0.3
						C317.1,34.6,316.7,35.5,316.3,35.7z"/>
				</g>
				<g>
					<path class="st15" d="M314,35.5L314,35.5c0.6-0.3,1.1-1.3,1.1-1.8c0-0.2-0.1-0.2-0.1-0.2l0-0.1c0.1,0,0.2,0.1,0.2,0.3
						C315.2,34.1,314.7,35.2,314,35.5z"/>
				</g>
				<g>
					<path class="st15" d="M311.6,35.1L311.6,35.1c0.8-0.3,1.3-1.2,1.3-1.7c0-0.2-0.1-0.4-0.2-0.4l0-0.1c0.2,0,0.2,0.2,0.2,0.5
						C313,33.9,312.5,34.9,311.6,35.1z"/>
				</g>
				<g>
					<path class="st15" d="M315.7,43.6c-0.1-0.1-0.2-0.1-0.4-0.2c-0.5-0.3-1.1-0.7-2.1-0.8l0-0.1c1,0.1,1.7,0.5,2.2,0.8
						C315.6,43.4,315.7,43.5,315.7,43.6L315.7,43.6z"/>
				</g>
				<g>
					<path class="st15" d="M316.8,31.9c-0.5-0.4-1-0.9-1.4-1.3c-0.9-0.9-1.7-1.7-2.5-1.7l0-0.1c0.8-0.1,1.6,0.7,2.5,1.7
						C315.9,30.9,316.4,31.4,316.8,31.9L316.8,31.9z"/>
				</g>
				<g>
					<path class="st15" d="M325.9,20.9L325.9,20.9c0.1-0.8,0.3-1.5,0.4-2l0.1,0C326.3,19.4,326.1,20.2,325.9,20.9z"/>
				</g>
				<g>
					<path class="st15" d="M314,44.1L314,44.1c0.3-0.1,0.6-0.2,0.9-0.2V44C314.6,44,314.3,44,314,44.1z"/>
				</g>
				<g>
					<path class="st15" d="M324.5,20.8L324.5,20.8c0.2-0.9,0.6-1.9,0.8-2.4l0.1,0C325.3,18.9,324.9,19.9,324.5,20.8z"/>
				</g>
				<g>
					<path class="st15" d="M296.3,34.5c-0.2-0.6-0.6-0.9-1.1-1.1c-0.7-0.2-1.5,0.1-2,0.7l-0.1,0.1v-0.1c0-0.4,0-1.5,0-2.2
						c-0.5,0.2-1.1,0.7-1.6,1.1c-0.2,0.1-0.3,0.3-0.5,0.4l-0.1,0.1v-0.1c0-0.5,0-1.4,0-2c-0.7,0.2-2.2,0.4-3,0.2l-0.1,0l0-0.1
						c1.3-2.4,3.3-4,6-5l0,0.1c-2.7,0.9-4.7,2.6-5.9,4.9c0.8,0.2,2.3,0,3-0.3l0.1,0l0,0.1c0,0.6,0.1,1.4,0.1,2
						c0.1-0.1,0.3-0.2,0.4-0.3c0.6-0.5,1.2-1,1.7-1.2l0.1,0l0,0.1c0,0.6,0,1.6-0.1,2.1c0.6-0.5,1.4-0.8,2.1-0.6
						c0.5,0.1,0.9,0.5,1.2,1c0.3-1.1,1.2-1.5,2-1.6c1.1-0.1,2.1,0.4,2.5,1.3c0.9-1.7,3.2-2.3,4.7-1.7c0.7-1.8,3.4-2.8,5.3-2.4
						c-0.5-0.8-0.5-1.7,0.1-2.6l0.1,0.1c-0.6,0.9-0.6,1.8,0,2.5l0.1,0.1l-0.1,0c-1.9-0.5-4.7,0.6-5.3,2.4l0,0.1l0,0
						c-1.5-0.6-3.8,0-4.7,1.7l0,0.1l0-0.1c-0.4-1-1.6-1.4-2.5-1.3C297.5,32.9,296.6,33.4,296.3,34.5L296.3,34.5z"/>
				</g>
			</g>
		</g>
	</g>
	<g>
		<g>
			<polygon class="st18" points="260.8,58.2 260.8,0 198.7,0 198.7,58.2 260.8,58.2 			"/>
		</g>
		<g>
			<polygon class="st19" points="260.8,43.3 260.8,14.9 198.7,14.9 198.7,43.3 260.8,43.3 			"/>
		</g>
	</g>
</g>
</svg>
