<svg xmlns="http://www.w3.org/2000/svg" xmlns:xlink="http://www.w3.org/1999/xlink" viewBox="0 0 404.5 568.83"><defs><style>.cls-1{mask:url(#mask);filter:url(#luminosity-noclip-2);}.cls-18,.cls-2,.cls-24{mix-blend-mode:multiply;}.cls-2{fill:url(#linear-gradient);}.cls-3{fill:none;}.cls-4{isolation:isolate;}.cls-5{fill:#eaeaea;}.cls-6{fill:#ff6f00;}.cls-7{fill:#dedede;}.cls-8{clip-path:url(#clip-path);}.cls-9{fill:#a53e35;}.cls-10{fill:#8e312c;}.cls-11{fill:#ebd46c;}.cls-12{fill:#d6b84c;}.cls-13{fill:#d9b552;}.cls-14{fill:#5e1d1c;}.cls-15{fill:#702420;}.cls-16{fill:#e7bc77;}.cls-17{fill:#bd9b3a;}.cls-18{fill:#5f4a40;opacity:0.5;}.cls-19{fill:#432921;}.cls-20{fill:#8c312c;}.cls-21{fill:#351f1a;}.cls-22{fill:#c49554;}.cls-23{mask:url(#mask-2);}.cls-24{opacity:0.3;fill:url(#linear-gradient-2);}.cls-25{fill:#f1e2d5;}.cls-26{fill:#392d24;}.cls-27{fill:#685344;}.cls-28{fill:#3d2f21;}.cls-29{fill:#d5a163;}.cls-30{fill:url(#Degradado_sin_nombre_11);}.cls-31{fill:url(#Degradado_sin_nombre_7);}.cls-32{font-size:17.93px;fill:#fff;font-family:Montserrat-Medium, Montserrat;font-weight:500;}.cls-33{font-size:44.74px;}.cls-34{filter:url(#luminosity-noclip);}</style><filter id="luminosity-noclip" x="99.12" y="-8685.44" width="193.89" height="32766" filterUnits="userSpaceOnUse" color-interpolation-filters="sRGB"><feFlood flood-color="#fff" result="bg"/><feBlend in="SourceGraphic" in2="bg"/></filter><mask id="mask" x="99.12" y="-8685.44" width="193.89" height="32766" maskUnits="userSpaceOnUse"><g class="cls-34"/></mask><linearGradient id="linear-gradient" x1="185.82" y1="249.12" x2="178.19" y2="317.85" gradientTransform="matrix(-1, 0, 0, 1, 387.53, 0)" gradientUnits="userSpaceOnUse"><stop offset="0"/><stop offset="1" stop-color="#fff"/></linearGradient><clipPath id="clip-path"><path class="cls-3" d="M202.2,9.77C97,9.77,34,97.09,34,202.25,34,303.41,116.65,370.5,202.2,370.5c105.16,0,190.41-99.06,190.41-170.32V9.77Z"/></clipPath><filter id="luminosity-noclip-2" x="99.12" y="93.12" width="193.89" height="205.64" filterUnits="userSpaceOnUse" color-interpolation-filters="sRGB"><feFlood flood-color="#fff" result="bg"/><feBlend in="SourceGraphic" in2="bg"/></filter><mask id="mask-2" x="99.12" y="93.12" width="193.89" height="205.64" maskUnits="userSpaceOnUse"><g class="cls-1"><path class="cls-2" d="M256.82,287.17c-50,22.62-143.24,17.2-156.6-62.18-10-59.07,47.73-206.1,176-86C316.94,177.13,272.87,279.91,256.82,287.17Z"/></g></mask><linearGradient id="linear-gradient-2" x1="185.82" y1="249.12" x2="178.19" y2="317.85" gradientTransform="matrix(-1, 0, 0, 1, 387.53, 0)" gradientUnits="userSpaceOnUse"><stop offset="0" stop-color="#c05c16"/><stop offset="1" stop-color="#95370d"/></linearGradient><linearGradient id="Degradado_sin_nombre_11" x1="173.38" y1="348.72" x2="172.98" y2="440.68" gradientUnits="userSpaceOnUse"><stop offset="0" stop-color="#00a195"/><stop offset="1" stop-color="#00514b"/></linearGradient><linearGradient id="Degradado_sin_nombre_7" x1="231.51" y1="354.35" x2="231.11" y2="440.73" gradientUnits="userSpaceOnUse"><stop offset="0" stop-color="#31b2a8"/><stop offset="1" stop-color="#007970"/></linearGradient></defs><title>avatar</title><g class="cls-4"><g id="Capa_2" data-name="Capa 2"><g id="Capa_1-2" data-name="Capa 1"><polygon class="cls-3" points="332.24 357.18 332.25 357.18 332.25 357.18 332.24 357.18"/><polygon class="cls-3" points="72.25 357.17 72.25 357.18 72.25 357.18 72.25 357.17"/><polygon class="cls-3" points="332.25 47.33 332.25 47.32 332.25 47.32 332.25 47.32 332.25 47.33"/><polygon class="cls-3" points="332.25 47.32 332.24 47.32 332.25 47.32 332.25 47.32"/><polygon class="cls-3" points="72.25 357.18 72.25 357.18 72.26 357.18 72.25 357.18 72.25 357.18"/><polygon class="cls-3" points="72.26 47.32 72.25 47.32 72.25 47.32 72.26 47.32"/><polygon class="cls-3" points="72.25 47.32 72.25 47.32 72.25 47.33 72.25 47.32 72.25 47.32"/><polygon class="cls-3" points="332.25 357.18 332.25 357.18 332.25 357.18 332.25 357.18"/><polygon class="cls-3" points="72.25 357.18 72.25 357.18 72.25 357.18 72.25 357.18"/><polygon class="cls-3" points="72.25 47.32 72.25 47.32 72.25 47.32 72.25 47.32"/><polygon class="cls-3" points="332.25 357.18 332.25 357.18 332.25 357.17 332.25 357.18 332.25 357.18"/><polygon class="cls-5" points="286.39 347.98 286.39 347.98 286.39 347.98 286.39 347.98 286.39 347.98"/><polygon class="cls-5" points="286.39 347.98 286.39 347.98 286.39 347.98 286.39 347.98"/><path class="cls-5" d="M34,202.25h0l0,0Z"/><polygon class="cls-5" points="118.11 347.98 118.11 347.98 118.11 347.98 118.11 347.98"/><polygon class="cls-5" points="3.07 237.37 3.07 237.37 3.07 237.37 3.07 237.37"/><polygon class="cls-5" points="27.1 303.38 27.1 303.38 27.1 303.38 27.1 303.38"/><polygon class="cls-5" points="33.97 202.25 33.97 202.25 33.97 202.25 33.97 202.25"/><path class="cls-5" d="M401.45,237.37v0l0,0Z"/><polygon class="cls-5" points="118.11 347.98 118.11 347.98 118.11 347.98 118.11 347.98 118.11 347.98"/><polygon class="cls-5" points="377.4 303.38 377.4 303.38 377.4 303.38 377.4 303.38"/><polygon class="cls-5" points="118.11 347.98 118.11 347.98 118.11 347.98 118.11 347.98"/><polygon class="cls-5" points="173.03 367.97 173.03 367.97 173.03 367.97 173.03 367.97 173.03 367.97"/><polygon class="cls-5" points="173.03 367.97 173.03 367.97 173.03 367.97 173.03 367.97"/><polygon class="cls-5" points="231.47 367.97 231.47 367.97 231.47 367.97 231.47 367.97"/><path class="cls-5" d="M73.34,310.42h0l0,0Z"/><polygon class="cls-5" points="231.47 367.97 231.47 367.97 231.47 367.97 231.47 367.97 231.47 367.97"/><polygon class="cls-5" points="73.34 310.42 73.34 310.42 73.34 310.42 73.34 310.42"/><polygon class="cls-5" points="331.16 310.42 331.16 310.42 331.16 310.42 331.16 310.42"/><polygon class="cls-5" points="133.08 392.3 133.08 392.3 133.08 392.3 133.08 392.3"/><polygon class="cls-5" points="286.39 347.98 286.39 347.98 286.39 347.98 286.39 347.98"/><polygon class="cls-5" points="231.47 367.97 231.47 367.97 231.47 367.97 231.47 367.97"/><path class="cls-6" d="M331.16,94.08h0v0a168.07,168.07,0,0,1,29.23,50.54l17-43.54Z"/><path class="cls-6" d="M360.4,144.71A167.22,167.22,0,0,1,368,173a169.1,169.1,0,0,1,2.53,29.19l0,0,30.9-35.12Z"/><path class="cls-5" d="M331.16,94.08h-.05l0,0Z"/><polygon class="cls-5" points="331.16 94.08 331.16 94.08 331.16 94.08 331.16 94.08"/><polygon class="cls-5" points="370.53 202.25 370.53 202.25 370.53 202.25 370.53 202.25"/><polygon class="cls-5" points="27.1 101.13 27.1 101.13 27.1 101.13 27.1 101.13"/><polygon class="cls-5" points="118.11 56.52 118.11 56.52 118.11 56.52 118.11 56.52"/><path class="cls-5" d="M331.16,94.08l0,0,0,0Z"/><path class="cls-5" d="M370.5,202.25h0l0,0Z"/><path class="cls-5" d="M73.34,310.42l0,0,0,0Z"/><polygon class="cls-5" points="231.47 36.53 231.47 36.53 231.47 36.53 231.47 36.53"/><polygon class="cls-5" points="286.39 56.52 286.39 56.52 286.39 56.52 286.39 56.52"/><path class="cls-5" d="M370.53,202.25h0v0Z"/><polygon class="cls-5" points="173.03 367.97 173.03 367.97 173.03 367.97 173.03 367.97"/><path class="cls-5" d="M34,202.25h0v0Z"/><polygon class="cls-5" points="286.39 56.52 286.39 56.52 286.39 56.52 286.39 56.52"/><polygon class="cls-5" points="73.34 94.08 73.34 94.08 73.34 94.08 73.34 94.08"/><polygon class="cls-5" points="118.11 56.52 118.11 56.52 118.11 56.52 118.11 56.52"/><path class="cls-5" d="M73.39,94.08h0l0,0Z"/><path class="cls-5" d="M73.37,94.1l0,0h0v0Z"/><polygon class="cls-5" points="118.11 56.52 118.11 56.52 118.11 56.52 118.11 56.52 118.11 56.52"/><polygon class="cls-5" points="231.47 36.53 231.47 36.53 231.47 36.53 231.47 36.53"/><path class="cls-6" d="M271.42,12.2l-40,24.33h0a166.8,166.8,0,0,1,54.92,20h0Z"/><polygon class="cls-5" points="286.39 56.52 286.39 56.52 286.39 56.52 286.38 56.52 286.39 56.52"/><polygon class="cls-5" points="271.42 12.2 271.42 12.2 271.42 12.2 271.42 12.2"/><polygon class="cls-5" points="173.03 36.53 173.03 36.53 173.03 36.53 173.03 36.53"/><polygon class="cls-5" points="173.03 36.53 173.03 36.53 173.03 36.53 173.03 36.53"/><polygon class="cls-5" points="173.03 36.53 173.03 36.53 173.03 36.53 173.03 36.53 173.03 36.53"/><polygon class="cls-5" points="231.47 36.53 231.47 36.53 231.47 36.53 231.47 36.53 231.47 36.53"/><polygon class="cls-5" points="202.25 404.5 202.25 404.5 202.25 404.5 202.25 404.5"/><path class="cls-5" d="M331.11,310.42h.05l0,0Z"/><path class="cls-5" d="M27.1,303.37l0,0v0l0,0Z"/><path class="cls-5" d="M27.06,303.37v0l0,0Z"/><path class="cls-5" d="M133,392.34h0l0-.05Z"/><path class="cls-5" d="M3.05,167.13v0l0,0Z"/><path class="cls-5" d="M133.08,392.3l0,.05h0l0-.06Z"/><path class="cls-5" d="M3.07,167.13l0,0v0Z"/><path class="cls-5" d="M3.07,237.37h0v0l0,0Z"/><path class="cls-5" d="M3,237.35v0h0Z"/><path class="cls-5" d="M377.4,303.37l0,0v0l0,0Z"/><path class="cls-5" d="M377.4,303.37l-46.24,7.05h0l1.09,46.75a203.18,203.18,0,0,0,45.17-53.76Z"/><path class="cls-5" d="M377.43,303.39v0h0Z"/><path class="cls-5" d="M401.43,237.37l-41,22.42v0l17,43.54h0a200.88,200.88,0,0,0,24-66Z"/><path class="cls-5" d="M401.43,237.37h0l0,0v0Z"/><path class="cls-5" d="M271.44,392.35h0l-.06,0Z"/><path class="cls-5" d="M271.42,392.3l0,.06h0l0-.05Z"/><path class="cls-5" d="M377.43,101.11v0l0,0Z"/><path class="cls-5" d="M377.4,101.13h0v0l0,0Z"/><path class="cls-5" d="M27.07,101.11v0h0Z"/><path class="cls-5" d="M392.35,133.06a201.5,201.5,0,0,0-14.91-31.93h0l-17,43.54v0l41,22.42,0,0A201.64,201.64,0,0,0,392.35,133.06Z"/><path class="cls-6" d="M332.25,47.32h0l-45.85,9.2h0a169.39,169.39,0,0,1,44.72,37.55h.05l1.09-46.75Z"/><path class="cls-5" d="M401.45,167.13v0l0,0Z"/><path class="cls-6" d="M370.53,202.25h0l0,0A169.1,169.1,0,0,1,368,231.47a167.22,167.22,0,0,1-7.57,28.32l41-22.42Z"/><path class="cls-6" d="M360.39,259.83a168.07,168.07,0,0,1-29.23,50.54v.05l46.24-7.05h0Z"/><path class="cls-5" d="M331.13,310.4l0,0h0v-.05Z"/><path class="cls-5" d="M401.43,167.13l0,0v0Z"/><polygon class="cls-5" points="401.43 237.37 401.43 237.37 401.43 237.37 401.43 237.37"/><path class="cls-5" d="M303.39,27.07a202.17,202.17,0,0,0-31.91-14.91l-.06,0h0l15,44.32h0l45.85-9.2A201.93,201.93,0,0,0,303.39,27.07Z"/><path class="cls-5" d="M401.46,167.15l0,0-30.9,35.12h0l30.9,35.12h0l0,0a204.15,204.15,0,0,0,0-70.2Z"/><path class="cls-5" d="M357.18,72.25a203.06,203.06,0,0,0-24.93-24.92l-1.09,46.75h0l46.24,7,0,0A203.15,203.15,0,0,0,357.18,72.25Z"/><path class="cls-5" d="M271.48,12.16h0l0,0Z"/><path class="cls-5" d="M133.06,12.15h0l.06,0Z"/><path class="cls-5" d="M133.08,12.2l0-.06h0l0,0Z"/><path class="cls-5" d="M27.1,101.12l0,0v0Z"/><path class="cls-5" d="M271.42,12.2l0,0h0l0,.06Z"/><path class="cls-5" d="M118.11,348h0l-45.85,9.2A201.72,201.72,0,0,0,133,392.34l.06,0h0Z"/><path class="cls-5" d="M44.1,144.69v0l-17-43.54h0a200.88,200.88,0,0,0-24,66l0,0,41-22.42Z"/><path class="cls-5" d="M44.11,259.83v0l-41-22.42,0,0a200.88,200.88,0,0,0,24,66h0Z"/><path class="cls-5" d="M3.07,237.37,34,202.25h0L3.07,167.13l0,0a204.15,204.15,0,0,0,0,70.2l0,0Z"/><path class="cls-5" d="M231.47,368,202.25,404.5h0a203.16,203.16,0,0,0,35.12-3.05,200.06,200.06,0,0,0,34-9.09l0-.06-40-24.33Z"/><path class="cls-5" d="M173,368,133.08,392.3l0,.06a200.06,200.06,0,0,0,34,9.09,203.16,203.16,0,0,0,35.12,3.05L173,368Z"/><path class="cls-5" d="M286.39,348h0l-15,44.32.06,0a201.72,201.72,0,0,0,60.76-35.16Z"/><path class="cls-5" d="M73.34,310.42,27.1,303.37l0,0a203.18,203.18,0,0,0,45.17,53.76l1.09-46.75Z"/><path class="cls-5" d="M118.11,56.52l15-44.32-.06,0A201.72,201.72,0,0,0,72.26,47.32l45.85,9.2Z"/><path class="cls-5" d="M73.34,94.08,72.25,47.33a203.18,203.18,0,0,0-45.17,53.76l0,0,46.24-7Z"/><path class="cls-5" d="M173,36.53,202.25,0a203.16,203.16,0,0,0-35.12,3.05,200.06,200.06,0,0,0-34,9.09l0,.06L173,36.53Z"/><path class="cls-5" d="M271.4,12.14a200.06,200.06,0,0,0-34-9.09,203.16,203.16,0,0,0-35.12-3l29.22,36.53h0l40-24.33Z"/><path class="cls-6" d="M202.25,0V34a169.45,169.45,0,0,1,29.22,2.53h0Z"/><path class="cls-7" d="M173,36.53h0A169.45,169.45,0,0,1,202.25,34V0Z"/><path class="cls-7" d="M34,202.28l0,0L3.07,237.37l33.21-7.46A168.89,168.89,0,0,1,34,202.28Z"/><path class="cls-6" d="M3.07,237.37l41,22.42a167.22,167.22,0,0,1-7.57-28.32c-.09-.52-.17-1-.25-1.56L3.07,237.37Z"/><path class="cls-7" d="M34,202.25l0,0A169.1,169.1,0,0,1,36.53,173a167.22,167.22,0,0,1,7.57-28.32l-41,22.42L34,202.25Z"/><path class="cls-6" d="M144.69,360.4A167.66,167.66,0,0,1,118.11,348h0l15,44.32h0L173,368h0A167.45,167.45,0,0,1,144.69,360.4Z"/><path class="cls-6" d="M286.39,348a166.86,166.86,0,0,1-54.91,20h0l40,24.33,15-44.32Z"/><path class="cls-6" d="M231.47,368A170,170,0,0,1,173,368h0l29.22,36.53h0L231.47,368Z"/><path class="cls-6" d="M73.34,310.42v-.05a168.07,168.07,0,0,1-29.23-50.54l-17,43.54h0l46.24,7Z"/><path class="cls-7" d="M118.11,56.52a166.86,166.86,0,0,1,54.91-20h0L133.08,12.2l-15,44.32Z"/><path class="cls-7" d="M56.52,118.11a168.63,168.63,0,0,1,16.82-24v0l-46.24,7h0l17,43.54A167.41,167.41,0,0,1,56.52,118.11Z"/><path class="cls-6" d="M94.1,331.13a169.43,169.43,0,0,1-20.71-20.7h0l-1.09,46.75h0l45.85-9.2h0A169.11,169.11,0,0,1,94.1,331.13Z"/><path class="cls-6" d="M331.16,310.42h-.05A169.18,169.18,0,0,1,286.39,348h0l45.85,9.2h0Z"/><path class="cls-7" d="M73.34,94.08h0a169.18,169.18,0,0,1,44.72-37.56h0l-45.85-9.2h0l1.09,46.75Z"/><g class="cls-8"><path class="cls-9" d="M156.68,317.42c-29.57,5.06-66.19,37.89-69.8,52.32s30.85,55.16,30.85,55.16l2.16-10.82s-27.95-30.64-20.73-44.34S148,345.55,148,345.55Z"/><path class="cls-10" d="M114.57,411.42s-27.95-30.64-20.73-44.34S142.7,342.9,142.7,342.9L150.06,319a59.7,59.7,0,0,1,6.62-1.57L148,345.55S106.37,356,99.16,369.74s20.73,44.34,20.73,44.34l-2.16,10.82s-1.87-2.22-4.69-5.79Z"/><path class="cls-11" d="M110.2,387.33c-12,5.57-19,12.74-23.73,25.78l31.26,11.79s-6.49,23.08,10.82,13S110.2,387.33,110.2,387.33Z"/><path class="cls-12" d="M120,438.58c6.39-18.72-11.8-34.49-21.8-43.62a48.54,48.54,0,0,1,12-7.63s35.66,40.45,18.35,50.55c-5.11,3-8.14,3.06-9.88,1.7C119.09,439.28,119.79,439.13,120,438.58Z"/><polygon class="cls-13" points="231.31 308.37 168.3 304.68 166.53 315.73 205.13 323.09 231.31 308.37"/><path class="cls-14" d="M180.5,539.57c-19.67-2.9-31.23-214.86,2.86-222.14S294.94,444.82,311.51,529.31c0,0-36.75-8.67-52.62-8.67S220,545.4,180.5,539.57Z"/><path class="cls-15" d="M180.5,539.57s-10.69-6.17-.33-19.8c0,0-16.91-48-17.46-63.56C165.54,502.37,170.17,539.14,180.5,539.57Z"/><rect class="cls-16" x="178.56" y="298.43" width="28.37" height="17.79" transform="translate(-143.6 443.25) rotate(-79.91)"/><path class="cls-9" d="M274.75,566.26H244s-27.85-94.9-53.17-100.77C128.09,450.93,140,568.83,140,568.83H106.32L129.1,556S109.94,338.39,152,318.74c12.81-6,56.92-3.43,68.72,10.27s-12.13,85.65-1.53,122.48,34,105.35,34,105.35Z"/><polygon class="cls-10" points="127.39 441.75 217 441.75 217 455.25 124.93 451.57 127.39 441.75"/><path class="cls-10" d="M248.21,557.93S218.59,485.41,208,448.58c-7.94-27.6,7-72.66,10-99.28,1-8.91,6.28-10.08,5.91-1.11-1.12,27.66-12.79,75.49-4.79,103.3,10.59,36.83,34,105.35,34,105.35l21.63,9.42h-7.41Z"/><path class="cls-10" d="M135,568.83c-.91-10.64-6.94-97.12,35.89-103.15C130.84,478.21,140,568.83,140,568.83Z"/><polygon class="cls-11" points="121.77 430.41 222.07 431.39 222.07 450.62 121.77 449.64 121.77 430.41"/><path class="cls-12" d="M199,434.18c0-1,0-2-.05-3l23.13.23v19.23l-24.36-.24A102.91,102.91,0,0,0,199,434.18Z"/><path class="cls-17" d="M237.86,399.61c4.61-7.37,24.86-16.06,32.17-12.33C273.59,392,252.43,404.27,237.86,399.61Z"/><path class="cls-9" d="M271.41,400.84s-32.32-78.15-73.62-82.69c0,0,5.35,15.91,13.07,22.54,26.19,22.5,49.22,67.41,53.29,67.62S271.41,400.84,271.41,400.84Z"/><path class="cls-10" d="M268.3,405.94c-1.17,1.37-2.59,2.45-4.15,2.37-3.72-.19-23.36-37.86-46.75-61.48C238.75,365.63,258.29,393.59,268.3,405.94Z"/><path class="cls-11" d="M270,387.28c-4.88,9.09-13.86,12.47-31.94,12.41l32.64,24.06s-12.42,9.74-6.27,19.64c4.91,7.91,28.56,8.77,24.27-8.73A202,202,0,0,0,270,387.28Z"/><path class="cls-12" d="M281.37,437.12a203.61,203.61,0,0,0-16.59-43.47,20,20,0,0,0,5.25-6.37,202,202,0,0,1,18.7,47.38c2.36,9.6-3.71,13.65-10.46,14.07C281.18,446.53,282.76,442.81,281.37,437.12Z"/><path class="cls-16" d="M207,320.85l-37,1.43-2.45-7.78C186.26,315.62,195.09,316.19,207,320.85Z"/><polygon class="cls-11" points="214.13 323.91 231.31 308.37 178.53 321.87 214.13 323.91"/><polygon class="cls-11" points="139.98 568.83 129.1 555.99 125.13 521.19 141.98 527.13 139.98 568.83"/><polygon class="cls-11" points="243.9 565.83 253.82 555.5 242.36 514.04 227.91 527.13 243.9 565.83"/><polygon class="cls-11" points="168.3 304.68 161.76 316.14 169.94 322.28 168.3 304.68"/><polygon class="cls-11" points="187.53 386.35 173.02 347.4 153.17 382.53 187.53 386.35"/><path class="cls-12" d="M267.65,441.54c-.75-.88.71-1.5,2.33-3.22s2.79-3.91,3.55-3,.05,3-1.57,4.74S268.41,442.43,267.65,441.54Z"/><path class="cls-18" d="M126.17,330.12A99.94,99.94,0,0,1,150.06,319h0c1-.31,2.09-.59,3.13-.83l.24-.06.48-.12a41.94,41.94,0,0,1,8-1.68l-.2-.15,6.54-11.46,15.71.92,2.46-13.8L204,294.92l-2.09,11.73,29.42,1.71-17.09,15.46c6.92,3.95,13.43,9.62,19.43,16.11a236.45,236.45,0,0,1-37.12,2.81C166.61,342.74,140.44,337.67,126.17,330.12Z"/><path class="cls-19" d="M131.48,148.38c-17.59,1.23-41.32-1.63-50.33-29.87,0,0,33.56,9,30.28-25.36Z"/><polygon class="cls-20" points="333.51 196.07 370.95 173.11 383.27 208.26 336.9 203 333.51 196.07"/><polygon class="cls-20" points="338.52 213.03 377.8 232.67 354.47 261.72 334.42 219.58 338.52 213.03"/><path class="cls-19" d="M230.1,291.19c33.11,2.09,80-7.83,81.42-26.62,0,0,27.48,4.17,33.38-16.71s-7-29.23-7-29.23l5.76-30.28s11.14-1.57,8,7.83,41.8-19.31-1.71-36.54c0,0,9.43-25.58-8-31.84,0,0,47.5-10.44,34.27-36.55S334.33,73.5,334.33,73.5s9.81-21.4-20.91-27.66-32.67,13-32.67,13S277.25,38,245,40.61c0,0,4.69-18.27-17.54-16.18s-32.17,14.1-32.17,14.1S160,49,166.94,29.65c0,0-109-25-51.33,109.63Z"/><path class="cls-21" d="M206.77,205.26c58,0,109.72-18.29,143.55-46.87-.25.79-.42,1.25-.42,1.25,43.51,17.23-1.47,45.93,1.71,36.54s-8-7.83-8-7.83l-5.76,30.28s12.91,8.35,7,29.23-33.38,16.71-33.38,16.71c-1.39,18.79-48.31,28.71-81.42,26.62l-67.52-89.6A266.7,266.7,0,0,0,206.77,205.26Z"/><path class="cls-16" d="M256.82,287.17c-50,22.62-143.24,17.2-156.6-62.18-10-59.07,47.73-206.1,176-86C316.94,177.13,272.87,279.91,256.82,287.17Z"/><polygon class="cls-22" points="99.56 214.26 286.84 216.32 286.84 223.68 99.97 224.08 99.56 214.26"/><g class="cls-23"><path class="cls-24" d="M256.82,287.17c-50,22.62-143.24,17.2-156.6-62.18-10-59.07,47.73-206.1,176-86C316.94,177.13,272.87,279.91,256.82,287.17Z"/></g><polygon class="cls-9" points="345.47 196.66 101.61 172.07 95.79 219.34 339.33 221.21 345.47 196.66"/><path class="cls-20" d="M289.5,191l56,5.64-6.13,24.55-57-.43A96.51,96.51,0,0,0,289.5,191Z"/><path class="cls-16" d="M280.73,223c11.63-6,24.91-11.4,29.89,4.88s-18.26,26.06-31.54,21.72S280.73,223,280.73,223Z"/><path class="cls-25" d="M248,213.23c-3.59-9.67-14-37.93-59.87-4.27Z"/><path class="cls-25" d="M111.52,206.19c5.6-8.37,21.93-32.83,52.41.69Z"/><path class="cls-26" d="M126.11,197.77a8.13,8.13,0,1,1,7.89,8.35A8.14,8.14,0,0,1,126.11,197.77Z"/><path class="cls-26" d="M213.8,202.21a8.94,8.94,0,1,1,8.74,9.13A8.94,8.94,0,0,1,213.8,202.21Z"/><path class="cls-27" d="M216.17,200.1a3.47,3.47,0,1,1,3.39,3.56A3.47,3.47,0,0,1,216.17,200.1Z"/><path class="cls-27" d="M127.66,196.16a3.16,3.16,0,1,1,3.07,3.24A3.18,3.18,0,0,1,127.66,196.16Z"/><path class="cls-22" d="M162.68,221.67c.45-3.54,6.29-5.73,13-4.88s11.88,4.41,11.44,8-6.29,5.73-13,4.88S162.23,225.22,162.68,221.67Z"/><path class="cls-16" d="M162.86,220.11c.38-3,5.27-4.81,10.94-4.09s10,3.7,9.58,6.67-5.27,4.81-10.94,4.1S162.48,223.08,162.86,220.11Z"/><path class="cls-19" d="M251.37,184c-5.67-2.68-31.74-5.4-37.45-8.53s1.39-10.09,1.39-10.09Z"/><path class="cls-19" d="M116.59,166.43c5.39-1.4,27.5,1.39,33-.43s1.62-10,1.62-10Z"/><path class="cls-22" d="M285.1,227c7.29-3.75,15.63-7.16,18.75,3.06s-11.46,16.35-19.79,13.63S285.1,227,285.1,227Z"/><path class="cls-16" d="M281,233.69c3.24-1.66,6.93-3.17,8.32,1.37s-5.08,7.25-8.78,6S281,233.69,281,233.69Z"/><path class="cls-28" d="M201.5,239.49l-46.26-.64S173.9,289.77,201.5,239.49Z"/><polygon class="cls-25" points="196.63 241.5 189.96 250.94 166.02 251.45 157.21 240.21 196.63 241.5"/><path class="cls-28" d="M198.18,240.12c0-.9,1-1.69,2.25-1.74s2.34.62,2.39,1.53-1,1.68-2.25,1.74S198.22,241,198.18,240.12Z"/><path class="cls-28" d="M152,239.77c0-.9,1-1.68,2.24-1.74s2.35.62,2.4,1.53-1,1.68-2.25,1.74S152.07,240.67,152,239.77Z"/><path class="cls-29" d="M221.09,235.26c0-3.31,5.31-6,11.86-6s11.87,2.69,11.87,6-5.31,6-11.87,6S221.09,238.58,221.09,235.26Z"/><path class="cls-29" d="M116.89,234.72c0-3.31,5.31-6,11.86-6s11.87,2.69,11.87,6-5.31,6-11.87,6S116.89,238,116.89,234.72Z"/><polygon class="cls-9" points="183.44 383.08 172.39 353.4 157.26 380.17 183.44 383.08"/><path class="cls-9" d="M156.05,439.71c0-4,3.71-7.18,8.3-7.18s8.29,3.21,8.29,7.18-3.71,7.18-8.29,7.18S156.05,443.68,156.05,439.71Z"/><path class="cls-11" d="M158.45,439.71c0-2.82,2.64-5.11,5.9-5.11s5.9,2.29,5.9,5.11-2.64,5.11-5.9,5.11S158.45,442.53,158.45,439.71Z"/><path class="cls-19" d="M233.66,125.1c-12.22,6.36-57.21-17.11-40.1-37.65L222.9,89.9S210.68,116.79,233.66,125.1Z"/></g><polygon class="cls-30" points="143.85 395.95 202.25 454.35 202.25 395.95 202.25 337.55 143.85 395.95"/><polygon class="cls-31" points="202.25 337.55 202.25 395.95 202.25 454.35 260.65 395.95 202.25 337.55"/><text class="cls-32" transform="translate(175.81 413.55)">L<tspan class="cls-33" x="10.65" y="0">21</tspan></text></g></g></g></svg>