<svg xmlns="http://www.w3.org/2000/svg" viewBox="0 0 53.58 51.29"><defs><style>.cls-1{fill:#00a195;}</style></defs><title>Recurso 7</title><g id="Capa_2" data-name="Capa 2"><g id="Capa_1-2" data-name="Capa 1"><path class="cls-1" d="M26.78,1a2.17,2.17,0,0,1,2,1.23l6.54,13.26.23.47.52.07,14.63,2.14a2.2,2.2,0,0,1,1.22,3.76L41.33,32.25l-.38.36.09.52,2.5,14.57a2.15,2.15,0,0,1-.47,1.78,2.26,2.26,0,0,1-1.71.8,2,2,0,0,1-1-.26L27.26,43.14l-.47-.24-.46.24L13.23,50a2.15,2.15,0,0,1-1,.26,2.25,2.25,0,0,1-1.7-.81A2.17,2.17,0,0,1,10,47.7l2.5-14.57.09-.52-.37-.36L1.67,21.93a2.2,2.2,0,0,1,1.22-3.76L17.52,16,18,16l.23-.47L24.81,2.23a2.16,2.16,0,0,1,2-1.23m0-1a3.15,3.15,0,0,0-2.86,1.78h0L17.38,15,2.74,17.18A3.21,3.21,0,0,0,1,22.65L11.56,33,9.05,47.53a3.22,3.22,0,0,0,3.16,3.76,3.14,3.14,0,0,0,1.49-.38L26.79,44l13.09,6.88a3.12,3.12,0,0,0,1.48.37,3.21,3.21,0,0,0,3.17-3.75L42,33,52.61,22.65a3.21,3.21,0,0,0-1.77-5.47L36.21,15,29.67,1.78A3.2,3.2,0,0,0,26.78,0Z"/></g></g></svg>