<svg xmlns="http://www.w3.org/2000/svg" viewBox="0 0 50 50"><defs><style>.cls-1{fill:#ff6f00;}.cls-2{fill:#fff;}</style></defs><title>Recurso 4</title><g id="Capa_2" data-name="Capa 2"><g id="Capa_1-2" data-name="Capa 1"><circle class="cls-1" cx="25" cy="25" r="25"/><path class="cls-2" d="M28.25,21.75a7,7,0,0,1,0,9.87l0,0-3.09,3.09a7,7,0,0,1-9.89-9.89l1.7-1.7a.73.73,0,0,1,1.26.48,8.48,8.48,0,0,0,.45,2.43.74.74,0,0,1-.18.76l-.6.61a3.31,3.31,0,1,0,4.65,4.71L25.65,29a3.33,3.33,0,0,0,0-4.69,3.43,3.43,0,0,0-.48-.39.75.75,0,0,1-.32-.58A1.79,1.79,0,0,1,25.39,22l1-1A.73.73,0,0,1,27.3,21a7.24,7.24,0,0,1,.95.79Zm6.48-6.48a7,7,0,0,0-9.89,0l-3.09,3.09,0,0a7,7,0,0,0,0,9.87,7.24,7.24,0,0,0,.95.79.73.73,0,0,0,.94-.08l1-1a1.79,1.79,0,0,0,.54-1.37.75.75,0,0,0-.32-.58,3.43,3.43,0,0,1-.48-.39,3.33,3.33,0,0,1,0-4.69l3.1-3.09a3.31,3.31,0,1,1,4.65,4.71l-.6.61a.74.74,0,0,0-.18.76,8.48,8.48,0,0,1,.45,2.43.73.73,0,0,0,1.26.48l1.7-1.7a7,7,0,0,0,0-9.89Z"/></g></g></svg>