<svg xmlns="http://www.w3.org/2000/svg" xmlns:xlink="http://www.w3.org/1999/xlink" viewBox="0 0 710 187.83"><defs><style>.cls-1{mask:url(#mask);filter:url(#luminosity-noclip-2);}.cls-19,.cls-2,.cls-25{mix-blend-mode:multiply;}.cls-2{fill:url(#linear-gradient);}.cls-3{fill:none;}.cls-4{isolation:isolate;}.cls-32,.cls-5{fill:#fff;}.cls-6{fill:#eaeaea;}.cls-34,.cls-7{fill:#ff6f00;}.cls-8{fill:#dedede;}.cls-9{clip-path:url(#clip-path);}.cls-10{fill:#a53e35;}.cls-11{fill:#8e312c;}.cls-12{fill:#ebd46c;}.cls-13{fill:#d6b84c;}.cls-14{fill:#d9b552;}.cls-15{fill:#5e1d1c;}.cls-16{fill:#702420;}.cls-17{fill:#e7bc77;}.cls-18{fill:#bd9b3a;}.cls-19{fill:#5f4a40;opacity:0.5;}.cls-20{fill:#432921;}.cls-21{fill:#8c312c;}.cls-22{fill:#351f1a;}.cls-23{fill:#c49554;}.cls-24{mask:url(#mask-2);}.cls-25{opacity:0.3;fill:url(#linear-gradient-2);}.cls-26{fill:#f1e2d5;}.cls-27{fill:#392d24;}.cls-28{fill:#685344;}.cls-29{fill:#3d2f21;}.cls-30{fill:#d5a163;}.cls-31,.cls-35,.cls-42{fill:#00a195;}.cls-32{font-size:6px;}.cls-32,.cls-39{font-family:Montserrat-Medium, Montserrat;font-weight:500;}.cls-33{font-size:14.97px;}.cls-34{font-size:48px;font-family:Montserrat-SemiBold, Montserrat;font-weight:600;}.cls-35{font-size:16.86px;}.cls-35,.cls-42{font-family:Montserrat-Light, Montserrat;font-weight:300;}.cls-36{letter-spacing:-0.01em;}.cls-37{letter-spacing:-0.02em;}.cls-38{letter-spacing:0em;}.cls-40{letter-spacing:-0.01em;}.cls-41{letter-spacing:0em;}.cls-42{font-size:24px;}.cls-43{letter-spacing:0.01em;}.cls-44{letter-spacing:-0.03em;}.cls-45{letter-spacing:0.01em;}.cls-46{letter-spacing:-0.02em;}.cls-47{letter-spacing:-0.02em;}.cls-48{letter-spacing:0em;}.cls-49{filter:url(#luminosity-noclip);}</style><filter id="luminosity-noclip" x="32.73" y="-8759" width="64.02" height="32766" filterUnits="userSpaceOnUse" color-interpolation-filters="sRGB"><feFlood flood-color="#fff" result="bg"/><feBlend in="SourceGraphic" in2="bg"/></filter><mask id="mask" x="32.73" y="-8759" width="64.02" height="32766" maskUnits="userSpaceOnUse"><g class="cls-49"/></mask><linearGradient id="linear-gradient" x1="2493.09" y1="82.26" x2="2490.57" y2="104.95" gradientTransform="matrix(-1, 0, 0, 1, 2559.7, 0)" gradientUnits="userSpaceOnUse"><stop offset="0"/><stop offset="1" stop-color="#fff"/></linearGradient><clipPath id="clip-path"><path class="cls-3" d="M66.77,3.23C32,3.23,11.22,32.06,11.22,66.78c0,33.4,27.3,55.56,55.55,55.56,34.72,0,62.87-32.71,62.87-56.24V3.23Z"/></clipPath><filter id="luminosity-noclip-2" x="32.73" y="30.75" width="64.02" height="67.9" filterUnits="userSpaceOnUse" color-interpolation-filters="sRGB"><feFlood flood-color="#fff" result="bg"/><feBlend in="SourceGraphic" in2="bg"/></filter><mask id="mask-2" x="32.73" y="30.75" width="64.02" height="67.9" maskUnits="userSpaceOnUse"><g class="cls-1"><path class="cls-2" d="M84.8,94.82c-16.52,7.47-47.3,5.68-51.71-20.53C29.8,54.78,48.85,6.24,91.2,45.89,104.65,58.49,90.1,92.43,84.8,94.82Z"/></g></mask><linearGradient id="linear-gradient-2" x1="2493.09" y1="82.26" x2="2490.57" y2="104.95" gradientTransform="matrix(-1, 0, 0, 1, 2559.7, 0)" gradientUnits="userSpaceOnUse"><stop offset="0" stop-color="#c05c16"/><stop offset="1" stop-color="#95370d"/></linearGradient></defs><title>Recurso 2</title><g class="cls-4"><g id="Capa_2" data-name="Capa 2"><g id="Capa_1-2" data-name="Capa 1"><rect class="cls-5" width="710" height="133.56" rx="66.78"/><polygon class="cls-3" points="109.7 117.94 109.71 117.94 109.71 117.94 109.7 117.94"/><polygon class="cls-3" points="23.86 117.94 23.86 117.94 23.86 117.94 23.86 117.94"/><polygon class="cls-3" points="109.71 15.63 109.71 15.62 109.71 15.62 109.71 15.63 109.71 15.63"/><polygon class="cls-3" points="109.71 15.62 109.7 15.63 109.71 15.63 109.71 15.62"/><polygon class="cls-3" points="23.86 117.94 23.86 117.94 23.86 117.94 23.86 117.94 23.86 117.94"/><polygon class="cls-3" points="23.86 15.63 23.86 15.62 23.86 15.63 23.86 15.63"/><polygon class="cls-3" points="23.86 15.62 23.86 15.62 23.86 15.63 23.86 15.63 23.86 15.62"/><polygon class="cls-3" points="109.71 117.94 109.71 117.94 109.71 117.94 109.71 117.94"/><polygon class="cls-3" points="23.86 117.94 23.86 117.94 23.86 117.94 23.86 117.94"/><polygon class="cls-3" points="23.86 15.62 23.86 15.62 23.86 15.62 23.86 15.62"/><polygon class="cls-3" points="109.71 117.94 109.71 117.94 109.71 117.94 109.71 117.94 109.71 117.94"/><polygon class="cls-6" points="94.56 114.9 94.56 114.9 94.56 114.9 94.56 114.9 94.56 114.9"/><polygon class="cls-6" points="94.56 114.9 94.56 114.9 94.56 114.9 94.56 114.9"/><polygon class="cls-6" points="11.23 66.78 11.22 66.78 11.22 66.78 11.23 66.79 11.23 66.78"/><polygon class="cls-6" points="39 114.9 39 114.9 39 114.9 39 114.9"/><polygon class="cls-6" points="1.01 78.38 1.01 78.38 1.01 78.38 1.01 78.38"/><polygon class="cls-6" points="8.95 100.17 8.95 100.17 8.95 100.17 8.95 100.17"/><polygon class="cls-6" points="11.22 66.78 11.22 66.78 11.22 66.78 11.22 66.78"/><polygon class="cls-6" points="132.56 78.38 132.56 78.37 132.55 78.38 132.56 78.38"/><polygon class="cls-6" points="39 114.9 39 114.9 39 114.9 39 114.9 39 114.9"/><polygon class="cls-6" points="124.62 100.17 124.62 100.17 124.62 100.17 124.62 100.17"/><polygon class="cls-6" points="39 114.9 39 114.9 39 114.9 39 114.9"/><polygon class="cls-6" points="57.13 121.5 57.13 121.5 57.13 121.5 57.13 121.5 57.13 121.5"/><polygon class="cls-6" points="57.13 121.5 57.13 121.5 57.13 121.5 57.13 121.5"/><polygon class="cls-6" points="76.43 121.5 76.43 121.5 76.43 121.5 76.43 121.5"/><polygon class="cls-6" points="24.22 102.5 24.22 102.5 24.23 102.5 24.23 102.49 24.22 102.5"/><polygon class="cls-6" points="76.43 121.5 76.43 121.5 76.43 121.5 76.43 121.5 76.43 121.5"/><polygon class="cls-6" points="24.22 102.5 24.22 102.5 24.22 102.5 24.22 102.5"/><polygon class="cls-6" points="109.35 102.5 109.35 102.5 109.35 102.5 109.35 102.5"/><polygon class="cls-6" points="43.94 129.54 43.94 129.54 43.94 129.54 43.94 129.54"/><polygon class="cls-6" points="94.56 114.9 94.56 114.9 94.56 114.9 94.56 114.9"/><polygon class="cls-6" points="76.43 121.5 76.43 121.5 76.43 121.5 76.43 121.5"/><path class="cls-7" d="M109.35,31.07h0A56,56,0,0,1,114.9,39a54.77,54.77,0,0,1,4.1,8.77l5.62-14.38Z"/><path class="cls-7" d="M119,47.78a54.32,54.32,0,0,1,2.5,9.35,55.66,55.66,0,0,1,.84,9.64h0l10.2-11.59Z"/><polygon class="cls-6" points="109.35 31.07 109.35 31.07 109.33 31.06 109.34 31.07 109.35 31.07"/><polygon class="cls-6" points="109.35 31.07 109.35 31.07 109.35 31.07 109.35 31.07"/><polygon class="cls-6" points="122.35 66.78 122.35 66.78 122.35 66.78 122.35 66.78"/><polygon class="cls-6" points="8.95 33.39 8.95 33.39 8.95 33.39 8.95 33.39"/><polygon class="cls-6" points="39 18.66 39 18.66 39 18.66 39 18.66"/><polygon class="cls-6" points="109.35 31.07 109.34 31.07 109.35 31.08 109.35 31.07"/><polygon class="cls-6" points="122.34 66.78 122.35 66.78 122.35 66.78 122.34 66.77 122.34 66.78"/><polygon class="cls-6" points="24.22 102.5 24.23 102.49 24.22 102.48 24.22 102.5"/><polygon class="cls-6" points="76.43 12.06 76.43 12.06 76.43 12.06 76.43 12.06"/><polygon class="cls-6" points="94.56 18.66 94.56 18.66 94.56 18.66 94.56 18.66"/><polygon class="cls-6" points="122.35 66.78 122.34 66.78 122.34 66.79 122.35 66.78"/><polygon class="cls-6" points="57.13 121.5 57.13 121.5 57.13 121.5 57.13 121.5"/><polygon class="cls-6" points="11.22 66.78 11.23 66.78 11.23 66.77 11.22 66.78"/><polygon class="cls-6" points="94.56 18.66 94.56 18.66 94.56 18.66 94.56 18.66"/><polygon class="cls-6" points="24.22 31.07 24.22 31.07 24.22 31.07 24.22 31.07"/><polygon class="cls-6" points="39 18.66 39 18.66 39 18.66 39 18.66"/><polygon class="cls-6" points="24.23 31.06 24.22 31.07 24.23 31.07 24.23 31.06"/><polygon class="cls-6" points="24.23 31.07 24.22 31.07 24.22 31.07 24.22 31.08 24.23 31.07"/><polygon class="cls-6" points="39 18.66 39 18.66 39 18.66 39 18.66 39 18.66"/><polygon class="cls-6" points="76.43 12.06 76.43 12.06 76.43 12.06 76.43 12.06"/><path class="cls-7" d="M89.62,4l-13.19,8h0a56.32,56.32,0,0,1,9.36,2.5,55.65,55.65,0,0,1,8.77,4.1h0Z"/><polygon class="cls-6" points="94.56 18.66 94.56 18.66 94.56 18.66 94.56 18.66 94.56 18.66"/><polygon class="cls-6" points="89.62 4.03 89.62 4.03 89.62 4.03 89.62 4.03"/><polygon class="cls-6" points="57.13 12.06 57.13 12.06 57.13 12.06 57.13 12.06"/><polygon class="cls-6" points="57.13 12.06 57.13 12.06 57.13 12.06 57.13 12.06"/><polygon class="cls-6" points="57.13 12.06 57.13 12.06 57.13 12.06 57.13 12.06 57.13 12.06"/><polygon class="cls-6" points="76.43 12.06 76.43 12.06 76.43 12.06 76.43 12.06 76.43 12.06"/><polygon class="cls-6" points="66.78 133.56 66.78 133.56 66.78 133.56 66.78 133.56"/><polygon class="cls-6" points="109.33 102.5 109.35 102.5 109.34 102.49 109.33 102.5"/><polygon class="cls-6" points="8.95 100.17 8.94 100.18 8.94 100.18 8.95 100.17 8.95 100.17"/><polygon class="cls-6" points="8.94 100.17 8.94 100.18 8.95 100.17 8.94 100.17"/><path class="cls-6" d="M43.92,129.55h0Z"/><polygon class="cls-6" points="1.01 55.18 1 55.19 1.01 55.19 1.01 55.18"/><path class="cls-6" d="M43.94,129.54h0v0Z"/><polygon class="cls-6" points="1.01 55.19 1.01 55.18 1.01 55.18 1.01 55.19 1.01 55.19"/><polygon class="cls-6" points="1.01 78.38 1.01 78.38 1.01 78.39 1.01 78.38 1.01 78.38"/><polygon class="cls-6" points="1 78.37 1.01 78.38 1.01 78.38 1 78.37"/><polygon class="cls-6" points="124.62 100.17 124.62 100.18 124.63 100.18 124.62 100.17 124.62 100.17"/><path class="cls-6" d="M124.62,100.17l-15.27,2.33h0l.36,15.44a68.06,68.06,0,0,0,8.23-8.23,66.76,66.76,0,0,0,6.68-9.53Z"/><polygon class="cls-6" points="124.63 100.18 124.63 100.17 124.62 100.17 124.63 100.18"/><path class="cls-6" d="M132.55,78.38,119,85.78h0l5.62,14.38h0a67,67,0,0,0,4.92-10.54,66,66,0,0,0,3-11.24Z"/><polygon class="cls-6" points="132.55 78.38 132.55 78.38 132.56 78.39 132.56 78.38 132.55 78.38"/><path class="cls-6" d="M89.63,129.55h0Z"/><path class="cls-6" d="M89.62,129.54v0h0Z"/><polygon class="cls-6" points="124.63 33.39 124.62 33.38 124.62 33.39 124.63 33.39"/><polygon class="cls-6" points="124.62 33.39 124.63 33.39 124.63 33.39 124.62 33.39 124.62 33.39"/><polygon class="cls-6" points="8.94 33.39 8.94 33.39 8.95 33.39 8.94 33.39"/><path class="cls-6" d="M129.55,43.94a66.71,66.71,0,0,0-4.92-10.55h0L119,47.77h0l13.55,7.41h0A65.72,65.72,0,0,0,129.55,43.94Z"/><path class="cls-7" d="M109.71,15.63h0l-15.15,3h0a56.23,56.23,0,0,1,14.77,12.4h0l.36-15.44Z"/><polygon class="cls-6" points="132.56 55.18 132.56 55.18 132.55 55.19 132.56 55.18"/><path class="cls-7" d="M122.35,66.78h0a55.66,55.66,0,0,1-.84,9.64,54.08,54.08,0,0,1-2.5,9.35l13.55-7.4Z"/><path class="cls-7" d="M119,85.79a55.71,55.71,0,0,1-9.65,16.69v0l15.27-2.33h0Z"/><polygon class="cls-6" points="109.34 102.49 109.35 102.5 109.35 102.5 109.35 102.48 109.34 102.49"/><polygon class="cls-6" points="132.55 55.19 132.56 55.19 132.56 55.18 132.55 55.19 132.55 55.19"/><polygon class="cls-6" points="132.55 78.38 132.55 78.38 132.55 78.38 132.55 78.38"/><path class="cls-6" d="M100.18,8.94A65.73,65.73,0,0,0,89.64,4h0l4.94,14.63h0l15.15-3A67.33,67.33,0,0,0,100.18,8.94Z"/><path class="cls-6" d="M132.56,55.19h0l-10.2,11.59h0l10.2,11.6h0a67.66,67.66,0,0,0,0-23.18Z"/><path class="cls-6" d="M117.94,23.86a67.35,67.35,0,0,0-8.23-8.23l-.36,15.44h0l15.27,2.32h0A66.67,66.67,0,0,0,117.94,23.86Z"/><path class="cls-6" d="M89.64,4h0V4Z"/><path class="cls-6" d="M43.94,4h0Z"/><path class="cls-6" d="M43.94,4V4h0V4Z"/><polygon class="cls-6" points="8.95 33.39 8.94 33.38 8.94 33.39 8.95 33.39 8.95 33.39"/><path class="cls-6" d="M89.62,4V4h0V4Z"/><path class="cls-6" d="M39,114.9h0l-15.14,3a67.64,67.64,0,0,0,9.53,6.69,66.91,66.91,0,0,0,10.53,4.92h0Z"/><path class="cls-6" d="M14.56,47.78h0L9,33.39h0A65.88,65.88,0,0,0,4,43.94,66.63,66.63,0,0,0,1,55.18H1l13.55-7.41Z"/><path class="cls-6" d="M14.57,85.79h0L1,78.38H1A66.88,66.88,0,0,0,4,89.63a66.18,66.18,0,0,0,4.93,10.54H9Z"/><path class="cls-6" d="M1,78.38l10.21-11.6h0L1,55.19H1A67.66,67.66,0,0,0,1,78.37Z"/><path class="cls-6" d="M76.43,121.5l-9.65,12.06h0a66.65,66.65,0,0,0,22.84-4v0l-13.19-8Z"/><path class="cls-6" d="M57.13,121.5l-13.19,8v0a66.54,66.54,0,0,0,22.83,4L57.13,121.5Z"/><path class="cls-6" d="M94.56,114.9h0l-4.94,14.64h0a66.6,66.6,0,0,0,10.54-4.92,68.23,68.23,0,0,0,9.53-6.69Z"/><path class="cls-6" d="M24.22,102.5,9,100.17h0a66,66,0,0,0,6.69,9.53,67.35,67.35,0,0,0,8.23,8.23l.36-15.44Z"/><path class="cls-6" d="M39,18.66,43.94,4h0A66,66,0,0,0,33.39,8.94a66.76,66.76,0,0,0-9.53,6.68l15.14,3Z"/><path class="cls-6" d="M24.22,31.07l-.36-15.44a66.65,66.65,0,0,0-8.23,8.23,65.94,65.94,0,0,0-6.69,9.52H9l15.27-2.32Z"/><path class="cls-6" d="M57.13,12.06,66.78,0a67.26,67.26,0,0,0-11.6,1A64.92,64.92,0,0,0,44,4V4l13.19,8Z"/><path class="cls-6" d="M89.62,4A65,65,0,0,0,78.38,1a67.17,67.17,0,0,0-11.6-1l9.65,12.06h0L89.62,4Z"/><path class="cls-8" d="M57.13,12.06h0a55.86,55.86,0,0,1,9.65-.83V0Z"/><path class="cls-7" d="M66.78,0V11.23a55.77,55.77,0,0,1,9.65.83h0Z"/><path class="cls-7" d="M12.06,76.43c0-.17-.05-.34-.08-.52L1,78.38l13.55,7.4A55.94,55.94,0,0,1,12.06,76.43Z"/><path class="cls-8" d="M11.23,66.79h0L1,78.38l11-2.47A55.84,55.84,0,0,1,11.23,66.79Z"/><path class="cls-8" d="M11.22,66.78h0a55.25,55.25,0,0,1,3.33-19L1,55.19,11.22,66.78Z"/><path class="cls-7" d="M47.78,119A54.87,54.87,0,0,1,39,114.9h0l4.94,14.64h0l13.19-8h0A54.08,54.08,0,0,1,47.78,119Z"/><path class="cls-7" d="M94.56,114.9a55,55,0,0,1-18.13,6.6h0l13.19,8,4.94-14.64Z"/><path class="cls-7" d="M66.78,122.34a55.66,55.66,0,0,1-9.64-.84h0l9.65,12.06,9.65-12.06h0A55.77,55.77,0,0,1,66.78,122.34Z"/><path class="cls-7" d="M24.22,102.5v0a55.15,55.15,0,0,1-9.65-16.69L9,100.17H9l15.27,2.33Z"/><path class="cls-8" d="M39,18.66a55.22,55.22,0,0,1,18.13-6.6h0L43.94,4,39,18.66Z"/><path class="cls-8" d="M18.66,39a56.05,56.05,0,0,1,5.56-7.92h0L9,33.39l5.62,14.38A54.72,54.72,0,0,1,18.66,39Z"/><path class="cls-7" d="M31.07,109.34a56.65,56.65,0,0,1-6.84-6.84h0l-.36,15.44h0l15.14-3h0A55.58,55.58,0,0,1,31.07,109.34Z"/><path class="cls-7" d="M109.35,102.5h0a56.65,56.65,0,0,1-6.84,6.84,56.05,56.05,0,0,1-7.92,5.56h0l15.15,3h0Z"/><path class="cls-8" d="M24.22,31.07h0A56.23,56.23,0,0,1,39,18.66h0l-15.14-3h0l.36,15.44Z"/><g class="cls-9"><path class="cls-10" d="M51.74,104.81c-9.77,1.67-21.86,12.51-23,17.28S38.87,140.3,38.87,140.3l.72-3.57s-9.23-10.12-6.85-14.64,16.14-8,16.14-8Z"/><path class="cls-11" d="M37.83,135.85S28.6,125.73,31,121.21s16.14-8,16.14-8l2.43-7.89a20.37,20.37,0,0,1,2.19-.52l-2.86,9.29s-13.76,3.46-16.14,8,6.85,14.64,6.85,14.64l-.72,3.57s-.61-.73-1.55-1.91Z"/><path class="cls-12" d="M36.39,127.9a13.62,13.62,0,0,0-7.84,8.51l10.32,3.89s-2.14,7.62,3.58,4.29S36.39,127.9,36.39,127.9Z"/><path class="cls-13" d="M39.62,144.82c2.11-6.18-3.9-11.39-7.2-14.41a16,16,0,0,1,4-2.51s11.77,13.35,6.06,16.69c-1.69,1-2.69,1-3.27.56C39.32,145.05,39.55,145,39.62,144.82Z"/><polygon class="cls-14" points="76.38 101.82 55.57 100.61 54.99 104.25 67.73 106.68 76.38 101.82"/><path class="cls-15" d="M59.6,178.16c-6.49-.95-10.31-70.94.94-73.35s36.85,42.07,42.32,70c0,0-12.14-2.87-17.37-2.87S72.65,180.09,59.6,178.16Z"/><path class="cls-16" d="M59.6,178.16s-3.53-2-.11-6.54c0,0-5.58-15.85-5.76-21C54.66,165.88,56.19,178,59.6,178.16Z"/><rect class="cls-17" x="58.96" y="98.54" width="9.37" height="5.88" transform="translate(-47.42 146.36) rotate(-79.91)"/><path class="cls-10" d="M90.72,187H80.56S71.36,155.64,63,153.7c-20.71-4.81-16.78,34.13-16.78,34.13H35.11l7.52-4.25s-6.33-71.84,7.54-78.33c4.23-2,18.8-1.14,22.69,3.39s-4,28.28-.5,40.44,11.22,34.79,11.22,34.79Z"/><polygon class="cls-11" points="42.06 145.87 71.65 145.87 71.65 150.32 41.25 149.11 42.06 145.87"/><path class="cls-11" d="M82,184.23s-9.78-23.95-13.28-36.11C66.06,139,71,124.13,72,115.34c.33-3,2.07-3.33,2-.37-.37,9.14-4.22,24.93-1.58,34.11,3.5,12.16,11.22,34.79,11.22,34.79L90.72,187H88.27Z"/><path class="cls-11" d="M44.57,187.83c-.3-3.52-2.3-32.07,11.85-34.06-13.22,4.13-10.2,34.06-10.2,34.06Z"/><polygon class="cls-12" points="40.21 142.12 73.33 142.44 73.33 148.79 40.21 148.47 40.21 142.12"/><path class="cls-13" d="M65.71,143.37c0-.34,0-.67,0-1l7.64.07v6.35l-8-.08A33.18,33.18,0,0,0,65.71,143.37Z"/><path class="cls-18" d="M78.54,132c1.52-2.43,8.21-5.3,10.62-4.07C90.34,129.44,83.35,133.49,78.54,132Z"/><path class="cls-10" d="M89.62,132.35S79,106.55,65.31,105.05c0,0,1.77,5.25,4.31,7.44,8.65,7.43,16.26,22.26,17.6,22.33S89.62,132.35,89.62,132.35Z"/><path class="cls-11" d="M88.59,134a1.81,1.81,0,0,1-1.37.78c-1.23-.06-7.71-12.5-15.44-20.3C78.83,120.73,85.29,130,88.59,134Z"/><path class="cls-12" d="M89.16,127.88c-1.61,3-4.57,4.12-10.54,4.1l10.77,7.94s-4.1,3.22-2.07,6.49c1.62,2.61,9.43,2.89,8-2.89A66.76,66.76,0,0,0,89.16,127.88Z"/><path class="cls-13" d="M92.91,144.33A67.81,67.81,0,0,0,87.43,130a6.48,6.48,0,0,0,1.73-2.1,66.76,66.76,0,0,1,6.18,15.64c.78,3.17-1.23,4.51-3.46,4.65C92.84,147.44,93.37,146.21,92.91,144.33Z"/><path class="cls-17" d="M68.34,105.94l-12.23.47-.81-2.56C61.5,104.22,64.42,104.4,68.34,105.94Z"/><polygon class="cls-12" points="70.71 106.95 76.38 101.82 58.95 106.28 70.71 106.95"/><polygon class="cls-12" points="46.22 187.83 42.63 183.58 41.32 172.09 46.88 174.06 46.22 187.83"/><polygon class="cls-12" points="80.53 186.83 83.81 183.42 80.03 169.73 75.25 174.06 80.53 186.83"/><polygon class="cls-12" points="55.57 100.61 53.41 104.39 56.11 106.42 55.57 100.61"/><polygon class="cls-12" points="61.92 127.57 57.13 114.71 50.58 126.31 61.92 127.57"/><path class="cls-13" d="M88.38,145.79c-.25-.29.23-.49.77-1.06s.92-1.29,1.17-1,0,1-.52,1.56S88.63,146.09,88.38,145.79Z"/><path class="cls-19" d="M41.66,109a33.13,33.13,0,0,1,7.89-3.67h0c.34-.11.69-.2,1-.28l.08,0,.16,0a13.48,13.48,0,0,1,2.65-.55l-.07,0,2.16-3.79,5.19.31.81-4.56,5.79,1-.69,3.87,9.71.57-5.64,5.11a27.69,27.69,0,0,1,6.41,5.31,78.16,78.16,0,0,1-12.25.93C55,113.17,46.37,111.5,41.66,109Z"/><path class="cls-20" d="M43.41,49c-5.81.4-13.64-.54-16.61-9.87,0,0,11.08,3,10-8.37Z"/><polygon class="cls-21" points="110.12 64.74 122.48 57.16 126.56 68.77 111.24 67.03 110.12 64.74"/><polygon class="cls-21" points="111.78 70.34 124.75 76.83 117.05 86.42 110.42 72.5 111.78 70.34"/><path class="cls-20" d="M76,96.15c10.93.69,26.43-2.58,26.88-8.79,0,0,9.08,1.38,11-5.52s-2.32-9.65-2.32-9.65l1.9-10s3.68-.52,2.63,2.59,13.8-6.38-.56-12.07c0,0,3.11-8.44-2.65-10.51,0,0,15.69-3.45,11.32-12.07s-13.81-5.86-13.81-5.86,3.23-7.07-6.91-9.14S92.7,19.44,92.7,19.44s-1.15-6.89-11.79-6c0,0,1.54-6-5.79-5.34s-10.63,4.65-10.63,4.65-11.66,3.45-9.37-2.93c0,0-36-8.27-16.94,36.2Z"/><path class="cls-22" d="M68.27,67.77c19.15,0,36.23-6,47.4-15.47l-.13.41c14.36,5.69-.49,15.17.56,12.07s-2.63-2.59-2.63-2.59l-1.9,10s4.26,2.76,2.32,9.65-11,5.52-11,5.52c-.45,6.21-16,9.48-26.88,8.79L53.68,66.57A88.76,88.76,0,0,0,68.27,67.77Z"/><path class="cls-17" d="M84.8,94.82c-16.52,7.47-47.3,5.68-51.71-20.53C29.8,54.78,48.85,6.24,91.2,45.89,104.65,58.49,90.1,92.43,84.8,94.82Z"/><polygon class="cls-23" points="32.88 70.75 94.71 71.43 94.71 73.86 33.01 73.99 32.88 70.75"/><g class="cls-24"><path class="cls-25" d="M84.8,94.82c-16.52,7.47-47.3,5.68-51.71-20.53C29.8,54.78,48.85,6.24,91.2,45.89,104.65,58.49,90.1,92.43,84.8,94.82Z"/></g><polygon class="cls-10" points="114.07 64.94 33.55 56.82 31.63 72.42 112.05 73.04 114.07 64.94"/><path class="cls-21" d="M95.59,63.07l18.48,1.87-2,8.1L93.22,72.9A31.87,31.87,0,0,0,95.59,63.07Z"/><path class="cls-17" d="M92.7,73.63c3.84-2,8.22-3.77,9.87,1.61s-6,8.61-10.42,7.17S92.7,73.63,92.7,73.63Z"/><path class="cls-26" d="M81.89,70.41c-1.18-3.2-4.63-12.53-19.76-1.41Z"/><path class="cls-26" d="M36.82,68.08c1.85-2.76,7.24-10.84,17.31.23Z"/><path class="cls-27" d="M41.64,65.3a2.69,2.69,0,1,1,2.61,2.76A2.67,2.67,0,0,1,41.64,65.3Z"/><path class="cls-27" d="M70.6,66.77a3,3,0,1,1,2.88,3A2.94,2.94,0,0,1,70.6,66.77Z"/><path class="cls-28" d="M71.38,66.07a1.15,1.15,0,1,1,1.12,1.18A1.15,1.15,0,0,1,71.38,66.07Z"/><path class="cls-28" d="M42.15,64.77a1,1,0,1,1,1,1.07A1,1,0,0,1,42.15,64.77Z"/><path class="cls-23" d="M53.72,73.2c.14-1.17,2.07-1.9,4.31-1.62S62,73,61.8,74.21s-2.07,1.89-4.31,1.61S53.57,74.37,53.72,73.2Z"/><path class="cls-17" d="M53.77,72.68c.13-1,1.75-1.59,3.62-1.35s3.29,1.22,3.16,2.2-1.74,1.59-3.61,1.35S53.65,73.66,53.77,72.68Z"/><path class="cls-20" d="M83,60.77C81.13,59.88,72.52,59,70.64,58s.45-3.33.45-3.33Z"/><path class="cls-20" d="M38.5,55c1.78-.47,9.08.45,10.91-.15s.53-3.3.53-3.3Z"/><path class="cls-23" d="M94.14,75c2.41-1.24,5.16-2.37,6.19,1s-3.78,5.4-6.53,4.5S94.14,75,94.14,75Z"/><path class="cls-17" d="M92.79,77.16c1.06-.54,2.28-1,2.74.45s-1.68,2.4-2.9,2S92.79,77.16,92.79,77.16Z"/><path class="cls-29" d="M66.53,79.08l-15.27-.21S57.42,95.68,66.53,79.08Z"/><polygon class="cls-26" points="64.93 79.74 62.72 82.86 54.82 83.03 51.91 79.32 64.93 79.74"/><path class="cls-29" d="M65.44,79.29c0-.3.32-.56.74-.58s.78.21.79.51-.32.55-.74.57S65.45,79.58,65.44,79.29Z"/><path class="cls-29" d="M50.2,79.17c0-.3.32-.55.74-.57s.77.2.79.5-.32.56-.74.58S50.21,79.47,50.2,79.17Z"/><path class="cls-30" d="M73,77.68c0-1.09,1.76-2,3.92-2s3.92.89,3.92,2-1.76,2-3.92,2S73,78.78,73,77.68Z"/><path class="cls-30" d="M38.6,77.5c0-1.09,1.75-2,3.91-2s3.92.89,3.92,2-1.75,2-3.92,2S38.6,78.6,38.6,77.5Z"/><polygon class="cls-10" points="60.57 126.49 56.92 116.69 51.93 125.53 60.57 126.49"/><path class="cls-10" d="M51.53,145.19a2.77,2.77,0,1,1,2.74,2.37A2.57,2.57,0,0,1,51.53,145.19Z"/><path class="cls-12" d="M52.32,145.19a2,2,0,1,1,2,1.69A1.83,1.83,0,0,1,52.32,145.19Z"/><path class="cls-20" d="M77.15,41.31c-4,2.1-18.89-5.65-13.24-12.43l9.69.8S69.56,38.56,77.15,41.31Z"/></g><rect class="cls-31" x="52.96" y="116.83" width="27.64" height="27.64" transform="translate(-72.82 85.49) rotate(-45)"/><text class="cls-32" transform="translate(57.93 136.54)">L<tspan class="cls-33" x="3.56" y="0">21</tspan></text><text class="cls-34" transform="translate(159.25 57.28)">John Doe</text><path class="cls-7" d="M636.31,53.52V51.21h-9.2v2.31a4.6,4.6,0,1,0,9.2,0Zm18.41,13.8a4.6,4.6,0,0,0,4.61-4.6v-2.3h-9.21v2.3A4.6,4.6,0,0,0,654.72,67.32Zm-9.2-24.27a14.7,14.7,0,0,0,2.3,7.54c1.18,1.78,2.3,3.2,2.3,7.53h9.21L660.47,54a29,29,0,0,0,1.09-5.77,25,25,0,0,0-.45-7c-1.69-7.88-5.44-10.69-8.69-10.69-4.6,0-6.9,6.06-6.9,12.55ZM625.32,32a25,25,0,0,0-.44,7A29.9,29.9,0,0,0,626,44.78l1.15,4.13h9.2c0-4.33,1.13-5.75,2.31-7.53a14.76,14.76,0,0,0,2.3-7.53c0-6.5-2.3-12.55-6.91-12.55-3.25,0-7,2.81-8.69,10.68Z"/><text class="cls-35" transform="translate(618.55 87.59)">5<tspan class="cls-36" x="9.41" y="0">.</tspan><tspan class="cls-37" x="12.6" y="0">7</tspan><tspan class="cls-38" x="22.07" y="0">83 /</tspan><tspan class="cls-39"><tspan x="-1.39" y="20.24">1</tspan><tspan class="cls-40" x="4.85" y="20.24">0.</tspan><tspan class="cls-41" x="19.52" y="20.24">000</tspan></tspan></text><path class="cls-6" d="M582.67,66.89A60.66,60.66,0,0,1,643.33,6.23v-6a66.68,66.68,0,0,0-17.47,131l1.57-5.8A60.68,60.68,0,0,1,582.67,66.89Z"/><path class="cls-7" d="M643.33.22v6a60.67,60.67,0,1,1-15.9,119.21l-1.57,5.8A66.67,66.67,0,1,0,643.33.22Z"/><text class="cls-42" transform="translate(192.44 102.4)"><tspan class="cls-43">C</tspan><tspan x="17.52" y="0">.</tspan><tspan class="cls-44" x="22.32" y="0">P</tspan><tspan x="38.78" y="0">. Diego Ma</tspan><tspan class="cls-45" x="164.52" y="0">r</tspan><tspan x="174.33" y="0">tín | </tspan><tspan class="cls-46" x="225.62" y="0">6</tspan><tspan x="239.66" y="0">º B | </tspan><tspan class="cls-47" x="293.06" y="0">C</tspan><tspan class="cls-48" x="309.67" y="0">eutí</tspan></text><path class="cls-7" d="M167.64,108c-8.21-11.91-9.74-13.14-9.74-17.51a10.86,10.86,0,0,1,21.72,0c0,4.37-1.53,5.6-9.74,17.51a1.36,1.36,0,0,1-2.24,0Zm1.12-13a4.53,4.53,0,1,0-4.52-4.52A4.52,4.52,0,0,0,168.76,95.05Z"/></g></g></g></svg>