<svg xmlns="http://www.w3.org/2000/svg" xmlns:xlink="http://www.w3.org/1999/xlink" viewBox="0 0 132.38 132.38"><defs><style>.cls-1{fill:url(#Degradado_sin_nombre_64);}.cls-2{fill:url(#Degradado_sin_nombre_73);}.cls-3{fill:#fff;}</style><linearGradient id="Degradado_sin_nombre_64" x1="33.47" y1="12.66" x2="33.02" y2="116.89" gradientUnits="userSpaceOnUse"><stop offset="0.01" stop-color="#ff6f00"/><stop offset="1" stop-color="#a64800"/></linearGradient><linearGradient id="Degradado_sin_nombre_73" x1="99.35" y1="19.04" x2="98.9" y2="116.95" gradientUnits="userSpaceOnUse"><stop offset="0.01" stop-color="#ffae70"/><stop offset="1" stop-color="#cf5900"/></linearGradient></defs><title>Recurso 6</title><g id="Capa_2" data-name="Capa 2"><g id="Capa_1-2" data-name="Capa 1"><polygon class="cls-1" points="0 66.19 66.19 132.38 66.19 66.19 66.19 0 0 66.19"/><polygon class="cls-2" points="66.19 0 66.19 66.19 66.19 132.38 132.38 66.19 66.19 0"/><path class="cls-3" d="M90.87,72.52l-4.55-2.63a20.44,20.44,0,0,0,0-7.48l4.55-2.63a1.29,1.29,0,0,0,.58-1.49A26.55,26.55,0,0,0,85.62,48.2,1.28,1.28,0,0,0,84,48L79.5,50.58A20,20,0,0,0,73,46.83V41.59a1.27,1.27,0,0,0-1-1.24,26.62,26.62,0,0,0-11.65,0,1.26,1.26,0,0,0-1,1.24v5.25a20.77,20.77,0,0,0-6.49,3.75L48.34,48a1.26,1.26,0,0,0-1.58.25A26.42,26.42,0,0,0,40.92,58.3a1.28,1.28,0,0,0,.59,1.49l4.54,2.63a20.5,20.5,0,0,0,0,7.49l-4.54,2.62A1.29,1.29,0,0,0,40.92,74a26.5,26.5,0,0,0,5.84,10.09,1.28,1.28,0,0,0,1.58.25l4.54-2.62a20.15,20.15,0,0,0,6.49,3.74v5.25a1.27,1.27,0,0,0,1,1.25A26.93,26.93,0,0,0,72,92a1.28,1.28,0,0,0,1-1.25V85.48a20.74,20.74,0,0,0,6.49-3.74l4.54,2.62a1.27,1.27,0,0,0,1.58-.25A26.33,26.33,0,0,0,91.46,74,1.32,1.32,0,0,0,90.87,72.52ZM66.18,74.68a8.53,8.53,0,1,1,8.54-8.53A8.54,8.54,0,0,1,66.18,74.68Z"/></g></g></svg>