<svg xmlns="http://www.w3.org/2000/svg" viewBox="0 0 48.86 51"><defs><style>.cls-1{fill:none;stroke:#ff6f00;stroke-miterlimit:10;}</style></defs><title>Recurso 4</title><g id="Capa_2" data-name="Capa 2"><g id="Capa_1-2" data-name="Capa 1"><path class="cls-1" d="M47.75,31.51,43.46,29a19.59,19.59,0,0,0,0-7.08l4.29-2.48a1.21,1.21,0,0,0,.56-1.41,25.2,25.2,0,0,0-5.52-9.54,1.22,1.22,0,0,0-1.49-.23L37,10.77a19.18,19.18,0,0,0-6.13-3.54v-5a1.22,1.22,0,0,0-.95-1.18,25.55,25.55,0,0,0-11,0A1.22,1.22,0,0,0,18,2.28v5a19.68,19.68,0,0,0-6.13,3.54L7.56,8.3a1.2,1.2,0,0,0-1.49.23A25,25,0,0,0,.56,18.07a1.2,1.2,0,0,0,.55,1.41L5.4,22A19.59,19.59,0,0,0,5.4,29L1.11,31.52a1.21,1.21,0,0,0-.55,1.41,25.18,25.18,0,0,0,5.51,9.54,1.22,1.22,0,0,0,1.49.23l4.3-2.48A19.08,19.08,0,0,0,18,43.76v5a1.22,1.22,0,0,0,.94,1.18,25.55,25.55,0,0,0,11,0,1.22,1.22,0,0,0,.95-1.18v-5A19.79,19.79,0,0,0,37,40.22l4.29,2.48a1.2,1.2,0,0,0,1.49-.23,25,25,0,0,0,5.52-9.54A1.24,1.24,0,0,0,47.75,31.51Zm-23.32,2a8.06,8.06,0,1,1,8.06-8.06A8.07,8.07,0,0,1,24.43,33.55Z"/></g></g></svg>